<svg width="60" height="60" viewBox="0 0 60 60" fill="none" xmlns="http://www.w3.org/2000/svg">
<circle cx="30" cy="30" r="30" fill="black"/>
<path fill-rule="evenodd" clip-rule="evenodd" d="M29.5002 47.7967C23.588 47.7967 18.5508 43.9563 16.6304 38.575C18.7675 43.7031 24.03 47.3827 29.5002 47.3827C34.97 47.3827 40.2724 43.7443 42.3693 38.575C40.4495 43.9563 35.4122 47.7967 29.5002 47.7967ZM42.706 28.4412C42.0669 26.8582 42.724 25.0569 44.1757 24.2778C42.8164 22.1248 41.0504 20.3446 39.0292 19.0006C38.4711 20.0948 37.3745 20.7482 36.2204 20.7578C38.8952 23.231 42.5342 27.2843 42.5342 33.3664C42.5342 40.7497 36.6985 46.7349 29.5002 46.7349C22.3012 46.7349 16.4658 40.7497 16.4658 33.3664C16.4658 27.2843 20.1052 23.231 22.7797 20.7578C21.6252 20.7482 20.5286 20.0938 19.9703 19C17.871 20.3942 16.1354 22.2052 14.8255 24.2781C16.2768 25.0572 16.933 26.859 16.294 28.4412C15.6552 30.0238 13.9493 30.8205 12.3857 30.3199C11.8824 32.7355 11.8612 35.2749 12.384 37.783C13.9479 37.2813 15.6549 38.079 16.294 39.6619C16.9333 41.245 16.2762 43.0458 14.8243 43.8253C16.184 45.9784 17.9495 47.7586 19.9706 49.1021C20.7305 47.6137 22.487 46.9404 24.03 47.5956C25.5727 48.2513 26.3497 50.0009 25.8616 51.6045C28.2169 52.1207 30.6931 52.1423 33.1385 51.606C32.6491 50.0024 33.4271 48.2515 34.9702 47.5958C36.5138 46.9402 38.2699 47.6144 39.0297 49.1034C41.129 47.7088 42.8649 45.898 44.1746 43.8253C42.7236 43.0456 42.0669 41.244 42.706 39.6619C43.3448 38.0795 45.051 37.2824 46.6143 37.783C47.1176 35.3678 47.1389 32.828 46.616 30.3199C45.0518 30.8216 43.3451 30.0241 42.706 28.4412Z" fill="white"/>
<path fill-rule="evenodd" clip-rule="evenodd" d="M24.479 17C22.7524 19.9194 23.7926 22.0804 24.4283 24.2886C26.8269 32.6192 17.0361 34.7282 20.8421 25.9092C19.3353 28.2785 18 30.0874 18 34.2281C18 38.4222 20.3031 42.0781 23.7138 44C22.9449 39.4025 27.2084 38.6577 29.208 35.1759C32.8366 28.8565 22.7198 23.3598 24.479 17Z" fill="#F17300"/>
<path fill-rule="evenodd" clip-rule="evenodd" d="M32.1724 19.5127C28.9491 16.1727 26.2612 12.9344 29.6629 7C27.3528 8.98148 22.9323 16.5148 26.6064 21.5278C29.8648 25.9737 32.6704 29.7752 30.9585 34.2641C29.4463 38.2286 23.8154 40.1124 25.2242 44.4346C32.9338 46.8259 41 41.3411 41 33.456C41 26.3265 33.7842 21.183 32.1724 19.5127Z" fill="#E03597"/>
<path fill-rule="evenodd" clip-rule="evenodd" d="M33.4806 10C29.1256 14.7117 31.0671 15.8821 34.9785 20C35.3518 16.3017 30.7029 14.2364 33.4806 10Z" fill="#F17300"/>
</svg>
