<svg width="31" height="32" viewBox="0 0 31 32" fill="none" xmlns="http://www.w3.org/2000/svg">
<path d="M15.5 31.8418C24.0604 31.8418 31 24.9022 31 16.3418C31 7.78138 24.0604 0.841797 15.5 0.841797C6.93959 0.841797 0 7.78138 0 16.3418C0 24.9022 6.93959 31.8418 15.5 31.8418Z" fill="#1E2356"/>
<path d="M15.5 31.8418C24.0604 31.8418 31 24.9022 31 16.3418C31 7.78138 24.0604 0.841797 15.5 0.841797C6.93959 0.841797 0 7.78138 0 16.3418C0 24.9022 6.93959 31.8418 15.5 31.8418Z" fill="#0178FF" fill-opacity="0.3"/>
<path d="M15.5004 31.6922C23.978 31.6922 30.8504 24.8198 30.8504 16.3422C30.8504 7.86462 23.978 0.992188 15.5004 0.992188C7.02282 0.992188 0.150391 7.86462 0.150391 16.3422C0.150391 24.8198 7.02282 31.6922 15.5004 31.6922Z" stroke="white" stroke-width="0.3"/>
<path opacity="0.9" d="M8.71094 19.7284V24.5165C8.71094 24.8113 8.96114 24.9336 9.03904 24.9614C9.11684 24.9948 9.37824 25.0671 9.61184 24.8502L13.7103 20.9241C14.0884 20.4347 14.2275 20.1288 14.2275 20.1288C14.4499 19.6784 14.4499 19.2446 14.233 18.8109C13.9105 18.1658 13.0874 17.5096 11.8473 16.8867L9.72854 18.0657C9.10014 18.4216 8.71094 19.05 8.71094 19.7284Z" fill="#A9D6FF"/>
<path d="M6.58984 9.07323V14.0949C6.58984 14.7233 7.01254 15.2794 7.61314 15.4573C9.65964 16.0468 13.2242 17.3147 14.0862 19.1777C14.1974 19.4224 14.2641 19.6615 14.2864 19.9118C14.8592 18.8719 15.1206 17.6762 14.9982 16.4639C14.8314 14.7455 13.9194 13.1829 12.4957 12.1874L7.41854 8.64502C7.32954 8.57829 7.22384 8.54492 7.11824 8.54492C7.02924 8.54492 6.95134 8.56161 6.86794 8.60609C6.70114 8.70063 6.58984 8.87303 6.58984 9.07323Z" fill="url(#paint0_linear_2417_4691)"/>
<path opacity="0.9" d="M22.231 19.7284V24.5165C22.231 24.8113 21.9807 24.9336 21.9029 24.9614C21.825 24.9948 21.5637 25.0671 21.3301 24.8502L17.2316 20.9241C16.8534 20.4347 16.7144 20.1288 16.7144 20.1288C16.4919 19.6784 16.492 19.2446 16.7088 18.8109C17.0314 18.1658 17.8544 17.5096 19.0945 16.8867L21.2133 18.0657C21.8473 18.4216 22.231 19.05 22.231 19.7284Z" fill="#A9D6FF"/>
<path d="M24.3578 9.07127V14.0929C24.3578 14.7213 23.9352 15.2774 23.3346 15.4554C21.2881 16.0449 17.7235 17.3128 16.8615 19.1758C16.7503 19.4204 16.6836 19.6596 16.6613 19.9098C16.0885 18.8699 15.8271 17.6743 15.9495 16.4619C16.1163 14.7436 17.0283 13.1809 18.452 12.1855L23.5292 8.64307C23.6182 8.57634 23.7239 8.54297 23.8295 8.54297C23.9185 8.54297 23.9964 8.55965 24.0798 8.60414C24.2466 8.69868 24.3578 8.87108 24.3578 9.07127Z" fill="url(#paint1_linear_2417_4691)"/>
<defs>
<linearGradient id="paint0_linear_2417_4691" x1="15.2985" y1="19.8388" x2="6.58984" y2="19.8388" gradientUnits="userSpaceOnUse">
<stop offset="0.0677083" stop-color="#EFFDFF"/>
<stop offset="1" stop-color="#A9D6FF"/>
</linearGradient>
<linearGradient id="paint1_linear_2417_4691" x1="15.9436" y1="19.8368" x2="24.2912" y2="19.8368" gradientUnits="userSpaceOnUse">
<stop offset="0.0677083" stop-color="#EFFDFF"/>
<stop offset="1" stop-color="#A9D6FF"/>
</linearGradient>
</defs>
</svg>
