<svg width="48" height="48" viewBox="0 0 48 48" fill="none" xmlns="http://www.w3.org/2000/svg">
<g clip-path="url(#clip0_1422_7462)">
<rect width="48" height="48" rx="24" fill="white"/>
<path fill-rule="evenodd" clip-rule="evenodd" d="M-4 24L5 43L24 51.5L43 43L51.5 24L43 5L24 -4L5 5L-4 24ZM16.1765 13.1778V14.4265L17.2105 13.8484C18.475 13.1418 18.5045 13.1409 18.8076 13.8064C19.0334 14.302 18.9771 14.382 18.0613 14.8679C17.5163 15.157 17.0706 15.4594 17.0706 15.5401C17.0706 15.6208 17.523 15.952 18.0758 16.2759C19.0549 16.8497 19.0718 16.8788 18.7339 17.3947L18.3867 17.9245L17.4492 17.3884C16.9336 17.0936 16.4364 16.8513 16.3441 16.8497C16.2518 16.8482 16.1765 17.407 16.1765 18.0912C16.1765 19.3168 16.1673 19.3345 15.5618 19.2648C14.9884 19.1988 14.9426 19.1152 14.8796 18.0206C14.8422 17.375 14.7597 16.8471 14.6958 16.8471C14.6319 16.8471 14.1504 17.0985 13.6258 17.4061L12.672 17.9652L12.3946 17.3563C12.2419 17.0212 12.2006 16.719 12.3027 16.6841C12.4046 16.6495 12.881 16.3835 13.3607 16.0931L14.2333 15.5649L13.193 14.9553C12.0508 14.2859 12.0135 14.2175 12.4578 13.6097C12.7518 13.2078 12.8005 13.2147 13.799 13.7999L14.8353 14.407V13.1682C14.8353 11.9408 14.8416 11.9294 15.5059 11.9294C16.1709 11.9294 16.1765 11.9397 16.1765 13.1778ZM27.5765 24V36.0706H24H20.4235V24V11.9294H24H27.5765V24ZM31.953 12.5848C34.2468 13.5994 35.7755 15.4355 36.4197 17.95C37.5588 22.3966 34.3774 27.0525 29.8826 27.5163L28.6941 27.6391V19.7532V11.867L29.8115 11.9994C30.426 12.0722 31.3897 12.3356 31.953 12.5848ZM15.6176 32.4941L19.189 36.0706H15.5591H11.9294V32.4941C11.9294 30.5271 11.9558 28.9176 11.988 28.9176C12.0202 28.9176 13.6535 30.5271 15.6176 32.4941ZM36.0706 32.4941V36.0706H32.4409H28.811L32.3824 32.4941C34.3465 30.5271 35.9798 28.9176 36.012 28.9176C36.0442 28.9176 36.0706 30.5271 36.0706 32.4941Z" fill="#041E41"/>
</g>
<defs>
<clipPath id="clip0_1422_7462">
<rect width="48" height="48" rx="24" fill="white"/>
</clipPath>
</defs>
</svg>
