<svg width="68" height="68" viewBox="0 0 68 68" fill="none" xmlns="http://www.w3.org/2000/svg">
<circle cx="34" cy="34" r="34" fill="white"/>
<mask id="mask0_823_22" style="mask-type:luminance" maskUnits="userSpaceOnUse" x="11" y="17" width="47" height="39">
<path d="M56.6884 18.211L48.0997 26.7998C47.1327 27.7668 45.9522 28.4695 44.6676 28.863C43.889 29.102 43.0724 29.2256 42.2432 29.2256H26.2477C25.4185 29.2256 24.602 29.102 23.8234 28.863C22.5388 28.4695 21.3581 27.7668 20.3912 26.7998C17.527 23.9355 14.6654 21.074 11.8025 18.2096C11.5355 17.9427 11.267 17.6742 11 17.4072C11.0605 17.9933 11.1475 18.6229 11.2727 19.2876C11.5087 20.5596 11.8785 21.9622 12.4518 23.4351C12.6823 24.0297 12.9325 24.5989 13.1967 25.1428C13.8672 26.5229 14.6317 27.7457 15.4272 28.8223C16.9253 30.8503 18.9576 32.3682 21.2527 33.2536C22.7622 33.8355 24.3841 34.1447 26.0425 34.1447H42.4484C44.1068 34.1447 45.7288 33.8355 47.2382 33.2536C49.5333 32.3682 51.5656 30.8503 53.0638 28.8223C53.8578 27.747 54.6238 26.5229 55.2928 25.1442C55.5585 24.6003 55.8086 24.0297 56.0391 23.4351C56.6125 21.9622 56.9822 20.5596 57.2183 19.2876C57.3433 18.6229 57.4305 17.9933 57.491 17.4072C57.2225 17.6756 56.9554 17.9427 56.6884 18.211ZM12.7835 35.6477L18.4349 41.3004H27.3806L22.9084 45.7726L26.3869 49.2511L34.3376 41.3004H49.8776L55.5318 35.6477C53.6106 33.7279 50.4961 33.7265 48.5748 35.6477L47.8426 36.3814H20.4728L19.7392 35.6477C18.7792 34.6878 17.5199 34.2071 16.262 34.2071C15.0028 34.2071 13.7435 34.6878 12.7835 35.6477ZM35.577 43.5365L28.0482 50.9124L31.2919 54.1561C32.8743 55.7385 35.44 55.7385 37.0224 54.1561L47.6419 43.5365H35.577Z" fill="white"/>
</mask>
<g mask="url(#mask0_823_22)">
<path d="M57.5788 17.4167H10.9121V55.3334H57.5788V17.4167Z" fill="url(#paint0_linear_823_22)"/>
</g>
<defs>
<linearGradient id="paint0_linear_823_22" x1="10.9121" y1="35.8005" x2="57.5788" y2="35.8005" gradientUnits="userSpaceOnUse">
<stop offset="0.260417" stop-color="#4919F9"/>
<stop offset="0.713542" stop-color="#ED8620"/>
</linearGradient>
</defs>
</svg>
