<svg width="48" height="48" viewBox="0 0 48 48" fill="none" xmlns="http://www.w3.org/2000/svg">
<rect width="48" height="48" rx="24" fill="white"/>
<g clip-path="url(#clip0_2218_3416)">
<path d="M42.1934 18.074C41.8262 17.2884 41.3277 16.5713 40.7196 15.9536L40.6843 15.9225C41.736 15.9395 42.8019 15.5323 43.7393 14.8142C43.6378 14.7958 43.5345 14.7892 43.4316 14.7944C41.6668 15.1026 40.0659 14.7209 38.5737 13.8897C38.1558 13.6579 37.7397 13.4223 37.3257 13.1829C38.3052 12.7137 39.0589 11.875 39.4221 10.8505C38.9794 11.3446 38.4106 11.7086 37.7767 11.9031C37.143 12.0976 36.4682 12.1154 35.825 11.9545C35.5793 11.8866 35.3421 11.7905 35.0894 11.7425C34.9682 11.7184 34.8444 11.7099 34.721 11.717C34.1836 11.454 33.5839 11.3458 32.9887 11.4046C32.4988 11.4555 32.0005 11.3339 31.5021 11.2548C31.2748 11.218 31.1238 11.2392 30.9967 11.4456C30.9456 11.5356 30.8797 11.6164 30.8019 11.6845C30.8152 11.7398 30.8458 11.7893 30.8894 11.8259C30.9963 11.9157 31.1344 11.9595 31.2734 11.9474C32.3676 11.7905 32.4565 12.3234 33.0593 12.2089C32.8361 12.3456 32.5881 12.4368 32.3296 12.4773C32.0711 12.5179 31.8072 12.5069 31.553 12.445C31.1578 12.3374 30.81 12.1005 30.5647 11.7721C30.4779 11.7738 30.3914 11.7604 30.3092 11.7326C29.9091 11.594 29.5171 11.4335 29.1346 11.2519C29.0647 11.2142 28.9974 11.1722 28.9327 11.1261C28.3186 10.7671 28.1224 10.7275 27.6876 11.3085C27.6918 11.3179 27.697 11.3269 27.7031 11.3353C27.7543 11.3743 27.8138 11.401 27.8769 11.4135C27.94 11.426 28.0051 11.4239 28.0673 11.4074C28.1931 11.3729 28.3243 11.3619 28.4541 11.3749C28.5403 11.3933 28.625 11.4583 28.6207 11.5445C28.6164 11.5763 28.6035 11.6063 28.5833 11.6312C28.5631 11.6562 28.5364 11.6751 28.5064 11.6859C28.4444 11.7082 28.3779 11.7145 28.313 11.7043C28.0594 11.6643 27.8235 11.5497 27.6353 11.3749L27.5746 11.4597C27.3305 11.8401 27.2164 12.2896 27.2499 12.7405C27.2499 13.2267 27.3614 13.665 27.5054 13.8714C27.4179 13.4674 27.4358 13.0477 27.5577 12.6528C27.594 12.545 27.6412 12.4413 27.6988 12.3432C27.749 12.3464 27.7977 12.3617 27.8407 12.3878C27.8838 12.4139 27.9198 12.45 27.9459 12.4931C28.0341 12.6424 28.0764 12.8145 28.0673 12.9878C28.0836 13.2723 28.1172 13.5556 28.1676 13.836C28.2014 14.0268 28.2226 14.3845 28.4499 14.6177C28.3937 14.2813 28.4253 13.9361 28.5417 13.6155C28.5798 13.4937 28.6645 13.392 28.7774 13.3328C28.8987 13.2935 29.0301 13.2996 29.1473 13.3497C29.496 13.5222 29.712 13.6409 30.1468 13.6876C30.809 13.7568 31.2664 14.4919 32.2179 14.3294C32.2673 14.3209 32.2476 14.9909 31.601 15.0715C31.2932 15.1083 31.1393 15.0164 30.8358 14.9499C30.5108 14.8613 30.1642 14.9008 29.8673 15.0602C29.6407 15.1964 29.4048 15.3164 29.1614 15.4193C28.8854 15.5221 28.5829 15.528 28.3031 15.4362C28.2266 15.3327 28.1728 15.2142 28.145 15.0885C28.106 14.9068 28.1181 14.7179 28.1803 14.5428C28.0292 14.6262 27.8979 14.9217 27.8979 15.2312C27.9034 15.3126 27.877 15.3928 27.8242 15.4549C27.7714 15.5169 27.6966 15.5559 27.6156 15.5634C27.5196 15.5634 27.4744 15.5451 27.377 15.5394C27.3283 15.5276 27.2856 15.4984 27.257 15.4574C27.2228 15.4008 27.1989 15.3386 27.1864 15.2737C27.1802 15.0147 27.2198 14.7568 27.3036 14.5117C27.1522 14.6867 27.0477 14.8973 27 15.1238C26.9553 15.34 26.9674 15.5641 27.0353 15.7741L27.0692 16.0356C27.0425 16.0694 27.024 16.109 27.015 16.1511C27.0058 16.1932 27.0065 16.2369 27.017 16.2787C27.0932 16.4512 27.017 16.3395 27.6311 16.3932C28.2452 16.447 28.2551 16.5021 28.7379 16.4978C29.0841 16.4691 29.4205 16.369 29.7261 16.2038C30.1497 15.9805 30.5986 15.9211 31.025 16.1345C31.4174 16.3325 31.7972 16.5586 32.1713 16.7862C32.4712 16.9805 32.8075 17.1118 33.1596 17.1721C33.4878 17.2516 33.8324 17.2295 34.1478 17.1085C34.5276 16.9672 34.8664 16.7071 35.2165 16.4851C35.1976 16.5335 35.1758 16.5807 35.1516 16.6265C34.9638 16.9274 34.7056 17.178 34.3994 17.3566C34.093 17.5352 33.748 17.6364 33.3939 17.6514C34.0108 18.5363 34.4457 19.4042 34.601 20.2609C34.7019 20.8375 34.7019 21.4273 34.601 22.0039C34.5468 22.3169 34.4726 22.6262 34.3793 22.9298L34.2381 23.3539C34.2777 23.2818 31.0786 29.3674 31.0786 29.3674L29.0358 26.0411L23.6457 17.0279L23.6386 17.0393V17.0279L16.2183 29.3589C16.2183 29.3589 13.4485 25.0601 12.5831 22.8308C12.4136 22.2442 12.2725 21.5176 12.3812 20.9196C12.84 18.3751 14.1092 18.7441 14.2631 16.9191C14.0358 17.6146 12.7383 17.2174 12.0551 18.1263C13.224 16.037 15.2894 16.5855 16.0249 14.2771C15.1906 15.0772 14.3435 14.7337 13.5826 14.8086C15.5591 14.1018 16.8212 11.4159 18.4193 12.3616C18.2414 11.6181 15.8527 10.6144 13.9016 12.8762C14.6739 12.0959 14.3252 11.2604 15.3529 10.8547C12.2781 11.1784 12.9416 12.5411 12.0127 13.361C12.0706 12.5228 11.9181 11.6138 11.3788 11.3071C11.4819 12.8493 10.5515 12.8069 10.3186 15.3359C10.4838 15.6186 9.60423 14.1682 8.736 14.2375C9.94588 16.037 8.44094 17.9694 8.17129 20.5987C8.11771 20.9686 8.10965 21.3437 8.14729 21.7155C8.19932 22.0806 8.29409 22.4384 8.42965 22.7814C8.52803 23.0256 8.64508 23.2619 8.77976 23.4882C8.74729 23.5546 8.71341 23.6168 8.68376 23.6846C8.38434 24.3457 8.26641 25.0747 8.34212 25.7966C8.37693 26.1777 8.47623 26.55 8.63576 26.8978C8.81912 27.2701 9.08004 27.5989 9.40094 27.8619C10.0023 28.3467 10.5176 28.6337 10.9652 29.014C11.411 29.3819 11.8157 29.7971 12.1722 30.2523C12.5472 30.737 12.886 31.2487 13.1859 31.7832L13.8339 33.0428C13.8819 33.1417 13.9313 33.2393 13.9751 33.3382L16.0475 37.3401L21.5336 28.0032L23.6344 24.3745L25.7351 28.0032L31.2226 37.3401L36.3713 27.8689C36.4214 28.2505 36.4056 28.6378 36.3247 29.014C37.152 28.1488 37.6066 27.1014 37.8593 25.8814C38.0239 26.4733 38.0239 27.0989 37.8593 27.6908C38.1332 27.5212 38.6428 26.5062 38.808 25.8249C38.9725 25.1308 39.0202 24.4142 38.9492 23.7044C39.2748 24.3768 39.4474 25.1131 39.4546 25.8602C40.0913 24.4848 40.217 23.1037 40.0306 21.6703C40.512 21.9897 40.7972 22.6711 40.7718 23.4839C41.0884 22.9468 41.2597 22.3363 41.2687 21.7127C41.2875 21.0973 41.1582 20.4864 40.8918 19.9315C41.4469 20.0991 41.9328 20.4423 42.2767 20.9097C42.2767 20.0997 41.5087 18.7101 40.3003 17.3432C40.9666 17.4826 41.606 17.7294 42.1934 18.074ZM9.97694 25.1901C10.0091 25.4165 10.0654 25.6388 10.1449 25.8531C10.1548 25.8856 10.1661 25.9139 10.1774 25.945L10.7153 26.9911C10.7153 26.9982 10.728 27.0081 10.7351 27.0151V27.025C10.5487 26.9303 10.3708 26.8384 10.2226 26.7423C10.0241 26.6275 9.85273 26.4713 9.72 26.2843C9.58041 26.0648 9.47208 25.827 9.39812 25.5775C9.24367 25.0619 9.2247 24.5151 9.34306 23.99C9.47864 23.6121 9.63948 23.2437 9.82447 22.8874C10.0709 22.4482 10.2897 21.994 10.4795 21.5275C10.6532 21.0709 10.7167 20.5478 10.4795 20.0842C10.8 20.497 10.8395 21.0822 10.7351 21.5939C10.6251 22.0999 10.4837 22.5984 10.3115 23.0867C10.1503 23.5505 10.0382 24.03 9.97694 24.5173C9.95147 24.7409 9.95147 24.9665 9.97694 25.1901Z" fill="#B49032" stroke="#B49032" stroke-width="0.141177" stroke-miterlimit="10"/>
</g>
<defs>
<clipPath id="clip0_2218_3416">
<rect width="36" height="27" fill="white" transform="translate(8 10.5)"/>
</clipPath>
</defs>
</svg>
