<svg width="48" height="48" viewBox="0 0 48 48" fill="none" xmlns="http://www.w3.org/2000/svg">
<g clip-path="url(#clip0_626_7)">
<mask id="mask0_626_7" style="mask-type:luminance" maskUnits="userSpaceOnUse" x="0" y="0" width="48" height="48">
<path d="M48 24C48 10.7452 37.2548 0 24 0C10.7452 0 0 10.7452 0 24C0 37.2548 10.7452 48 24 48C37.2548 48 48 37.2548 48 24Z" fill="white"/>
</mask>
<g mask="url(#mask0_626_7)">
<path d="M48 24C48 10.7452 37.2548 0 24 0C10.7452 0 0 10.7452 0 24C0 37.2548 10.7452 48 24 48C37.2548 48 48 37.2548 48 24Z" fill="black"/>
<path fill-rule="evenodd" clip-rule="evenodd" d="M-4 24L5 43L24 51.5L43 43L51.5 24L43 5L24 -4L5 5L-4 24Z" fill="black"/>
<g clip-path="url(#clip1_626_7)">
<path d="M6.02233 28.127C6.01675 28.1494 6.01395 28.1717 6.01116 28.1954C6.00698 28.222 6.00419 28.247 6.00279 28.2736C6.00279 28.2805 6 28.2875 6 28.2959C6 28.3112 6.00419 28.3252 6.00419 28.3392C6.00558 28.3656 6.00698 28.3908 6.01256 28.4172C6.01675 28.441 6.02233 28.4634 6.02791 28.4857C6.03349 28.508 6.04047 28.5303 6.04884 28.5526C6.05721 28.575 6.06698 28.5973 6.07815 28.6182C6.08791 28.6392 6.09908 28.6587 6.11164 28.6797C6.1242 28.6992 6.13815 28.7188 6.15211 28.7369C6.16606 28.7564 6.18141 28.7745 6.19816 28.7927C6.21351 28.8094 6.23165 28.8261 6.24839 28.8415C6.26653 28.8568 6.28328 28.8722 6.30282 28.8862C6.32375 28.9015 6.34607 28.914 6.3684 28.928C6.38096 28.935 6.39212 28.9448 6.40608 28.9518L23.9694 37.7334C23.9763 37.7362 23.9833 37.7375 23.9889 37.7403C23.9987 37.7446 24.007 37.7501 24.0168 37.7543C24.0251 37.7585 24.035 37.7599 24.0447 37.7641C24.0586 37.7697 24.074 37.7738 24.0879 37.7781C24.1019 37.7822 24.1158 37.7865 24.1298 37.7892C24.1382 37.7906 24.1452 37.7948 24.1536 37.7962C24.1619 37.7976 24.1702 37.7976 24.1786 37.799C24.194 37.8018 24.2093 37.8032 24.2261 37.8046C24.2429 37.8059 24.2596 37.8073 24.2749 37.8073C24.2889 37.8073 24.3043 37.8073 24.3182 37.8073C24.3349 37.8073 24.3503 37.8059 24.3671 37.8046C24.3824 37.8032 24.3978 37.8004 24.4145 37.799C24.4228 37.7976 24.4312 37.7976 24.4396 37.7962C24.448 37.7948 24.455 37.792 24.4634 37.7892C24.4773 37.7865 24.4912 37.7822 24.5052 37.7781C24.5191 37.7738 24.5345 37.7682 24.5485 37.7641C24.5582 37.7613 24.5666 37.7585 24.5763 37.7543C24.5862 37.7501 24.5945 37.7446 24.6043 37.7403C24.6113 37.7375 24.6182 37.7362 24.6238 37.7334L42.1871 28.9518C42.2011 28.9448 42.2108 28.935 42.2248 28.928C42.2471 28.9155 42.2694 28.9015 42.2903 28.8862C42.3099 28.8722 42.3266 28.8568 42.3447 28.8415C42.3629 28.8261 42.3797 28.8094 42.395 28.7927C42.4118 28.7745 42.4257 28.7564 42.441 28.7369C42.455 28.7188 42.469 28.6992 42.4815 28.6797C42.4941 28.6601 42.5038 28.6392 42.515 28.6182C42.5262 28.5973 42.536 28.575 42.5444 28.5526C42.5527 28.5303 42.5597 28.508 42.5653 28.4857C42.5708 28.4634 42.5764 28.441 42.5806 28.4172C42.5848 28.3908 42.5862 28.3656 42.5889 28.3392C42.5904 28.3252 42.5932 28.3112 42.5932 28.2959C42.5932 28.2889 42.5917 28.282 42.5904 28.2736C42.5889 28.247 42.5862 28.222 42.582 28.1954C42.5792 28.173 42.5764 28.1494 42.5708 28.127C42.5653 28.1061 42.5583 28.0838 42.5513 28.0629C42.5429 28.0378 42.5345 28.0112 42.522 27.9875C42.5192 27.9805 42.5178 27.9735 42.515 27.9679L33.7319 10.4047C33.7278 10.3963 33.7208 10.3907 33.7166 10.3838C33.6915 10.3377 33.6622 10.2944 33.6274 10.2554C33.619 10.2456 33.612 10.2358 33.6036 10.2275C33.5631 10.1856 33.5171 10.1479 33.4668 10.1158C33.4543 10.1075 33.4417 10.1019 33.4292 10.0949C33.3887 10.0726 33.3454 10.0544 33.3008 10.0391C33.2854 10.0335 33.2701 10.0293 33.2547 10.0251C33.1989 10.0112 33.1418 10.0014 33.0831 10.0014C33.0803 10.0014 33.0775 10 33.0775 10C33.0706 10 33.0622 10.0028 33.0552 10.0028C33.0091 10.0042 32.9645 10.0084 32.9212 10.0181C32.9073 10.0209 32.8933 10.0279 32.8793 10.0307C32.8417 10.0419 32.8054 10.0544 32.7705 10.0698C32.7649 10.0726 32.7579 10.074 32.7524 10.0768C32.7385 10.0837 32.7286 10.0935 32.7147 10.1005C32.6923 10.113 32.67 10.127 32.6491 10.1423C32.6296 10.1563 32.6128 10.1716 32.5947 10.187C32.5766 10.2023 32.5598 10.2191 32.5444 10.2358C32.5277 10.254 32.5137 10.2721 32.4984 10.2917C32.4844 10.3098 32.4705 10.3293 32.458 10.3489C32.4453 10.3684 32.4356 10.3893 32.4244 10.4103C32.4133 10.4312 32.4035 10.4535 32.3952 10.4759C32.3868 10.4982 32.3812 10.5205 32.3742 10.5428C32.3686 10.5652 32.363 10.5875 32.3589 10.6112C32.3546 10.6377 32.3533 10.6628 32.3505 10.6894C32.349 10.7033 32.3463 10.7173 32.3463 10.7326V26.5293L24.815 18.9979C24.7801 18.963 24.7424 18.9323 24.702 18.9058C24.6852 18.8947 24.6657 18.8863 24.6475 18.8765C24.6238 18.864 24.6015 18.85 24.5763 18.8388C24.5526 18.8291 24.5275 18.8235 24.5038 18.8165C24.4829 18.8109 24.4619 18.8026 24.441 18.7984C24.3936 18.7886 24.3461 18.7844 24.2973 18.7844C24.2498 18.7844 24.201 18.79 24.1536 18.7984C24.1313 18.8026 24.1117 18.8109 24.0894 18.8165C24.0642 18.8235 24.0405 18.8291 24.0168 18.8388C23.9917 18.8486 23.9694 18.864 23.9456 18.8765C23.9275 18.8863 23.9094 18.8947 23.8912 18.9058C23.8507 18.9323 23.8131 18.963 23.7781 18.9979L16.2468 26.5293V10.7326C16.2468 10.7173 16.2427 10.7033 16.2427 10.6894C16.2413 10.6628 16.2399 10.6377 16.2343 10.6112C16.2301 10.5875 16.2245 10.5652 16.2189 10.5428C16.2134 10.5205 16.2064 10.4982 16.198 10.4759C16.1896 10.4535 16.1799 10.4312 16.1687 10.4103C16.1589 10.3893 16.1477 10.3698 16.1352 10.3489C16.1227 10.3293 16.1088 10.3098 16.0948 10.2917C16.0808 10.2721 16.0654 10.254 16.0487 10.2358C16.0334 10.2191 16.0152 10.2023 15.9985 10.187C15.9803 10.1716 15.9636 10.1563 15.9441 10.1423C15.9231 10.127 15.9008 10.1144 15.8785 10.1005C15.8659 10.0935 15.8547 10.0837 15.8408 10.0768C15.8352 10.074 15.8282 10.0726 15.8227 10.0698C15.7878 10.053 15.7515 10.0419 15.7152 10.0307C15.6999 10.0265 15.6859 10.0195 15.6705 10.0167C15.6273 10.007 15.584 10.0028 15.538 10.0014C15.531 10.0028 15.5226 10 15.5157 10C15.5129 10 15.5101 10.0014 15.5101 10.0014C15.4501 10.0014 15.3929 10.0112 15.3384 10.0251C15.3231 10.0293 15.3078 10.0349 15.2924 10.0391C15.2477 10.053 15.2044 10.0726 15.164 10.0949C15.1515 10.1019 15.1389 10.1075 15.1263 10.1158C15.0761 10.1479 15.03 10.1842 14.9896 10.2275C14.9812 10.2358 14.9742 10.247 14.9658 10.2554C14.931 10.2944 14.9016 10.3377 14.8765 10.3838C14.8723 10.3921 14.8654 10.3977 14.8612 10.4047L6.07815 27.9679C6.07535 27.975 6.07396 27.9805 6.07117 27.9875C6.06 28.0112 6.05163 28.0378 6.04186 28.0629C6.03489 28.0838 6.02791 28.1047 6.02233 28.127ZM15.2115 29.0271L20.5895 34.4052L9.83333 29.0271H15.2115ZM33.3804 29.0271H38.7584L28.0022 34.4052L33.3804 29.0271ZM33.8087 27.5633V13.8319L40.6744 27.5633H33.8087ZM25.0271 35.3094V21.2795L32.042 28.2945L25.0271 35.3094ZM23.5646 35.3094L16.5497 28.2945L23.5646 21.2795V35.3094ZM7.91737 27.5633L14.783 13.8319V27.5633H7.91737Z" fill="#A3EC26"/>
</g>
</g>
</g>
<defs>
<clipPath id="clip0_626_7">
<rect width="48" height="48" fill="white"/>
</clipPath>
<clipPath id="clip1_626_7">
<rect width="37" height="27.9756" fill="white" transform="translate(6 10)"/>
</clipPath>
</defs>
</svg>
