<svg fill="none" height="50" viewBox="0 0 50 50" width="50" xmlns="http://www.w3.org/2000/svg"><path d="m39.4609 11.7443c-2.6353-1.2327-5.453-2.12868-8.3988-2.63883-.3618.654-.7845 1.53363-1.0759 2.23343-3.1315-.4709-6.2342-.4709-9.3081 0-.2914-.6998-.7237-1.57943-1.0887-2.23343-2.949.51015-5.77 1.40943-8.4052 2.64543-5.3153 8.0309-6.75618 15.8624-6.03574 23.5827 3.52538 2.6323 6.94194 4.2313 10.30074 5.2777.8293-1.1412 1.569-2.3544 2.2062-3.6329-1.2136-.4611-2.3759-1.03-3.4741-1.6906.2913-.2158.5763-.4414.8517-.6736 6.6985 3.1326 13.9766 3.1326 20.5951 0 .2786.2322.5635.4578.8517.6736-1.1015.6638-2.267 1.2328-3.4805 1.6939.6372 1.2752 1.3736 2.4917 2.2061 3.6328 3.3621-1.0463 6.7818-2.6453 10.3072-5.2809.8453-8.9498-1.4441-16.7093-6.0517-23.5893zm-20.8929 18.8414c-2.0109 0-3.6599-1.877-3.6599-4.1627 0-2.2856 1.6138-4.1658 3.6599-4.1658 2.046 0 3.695 1.8769 3.6598 4.1658.0032 2.2857-1.6138 4.1627-3.6598 4.1627zm13.5251 0c-2.0108 0-3.6598-1.877-3.6598-4.1627 0-2.2856 1.6137-4.1658 3.6598-4.1658s3.6951 1.8769 3.6599 4.1658c0 2.2857-1.6138 4.1627-3.6599 4.1627z" fill="#4c5876"/></svg>