<svg width="130" height="60" viewBox="0 0 130 60" fill="none" xmlns="http://www.w3.org/2000/svg">
<g clip-path="url(#clip0_1828_1133)">
<path fill-rule="evenodd" clip-rule="evenodd" d="M21.0693 5.32768L21.0693 46.3125H6.92808V45.9426V14.9861L21.0693 5.32768Z" fill="#667693"/>
<path fill-rule="evenodd" clip-rule="evenodd" d="M25.1758 55.9663L25.1758 14.9814H39.317V15.3514V46.3078L25.1758 55.9663Z" fill="#667693"/>
</g>
<g clip-path="url(#clip1_1828_1133)">
<rect x="56.1953" y="14.958" width="4.5617" height="31.3264" fill="#667693"/>
<g clip-path="url(#clip2_1828_1133)">
<path d="M88.5841 34.3098C88.5841 40.9249 83.274 46.2875 76.7237 46.2875C70.1734 46.2875 64.8633 40.9249 64.8633 34.3098C64.8633 27.6946 70.1734 22.332 76.7237 22.332C83.274 22.332 88.5841 27.6946 88.5841 34.3098ZM69.5293 34.3098C69.5293 38.3224 72.7504 41.5753 76.7237 41.5753C80.697 41.5753 83.918 38.3224 83.918 34.3098C83.918 30.2971 80.697 27.0442 76.7237 27.0442C72.7504 27.0442 69.5293 30.2971 69.5293 34.3098Z" fill="#667693"/>
<rect x="84.0215" y="15.4189" width="4.5617" height="30.8657" fill="#667693"/>
</g>
<rect x="92.2324" y="15.4189" width="4.5617" height="30.8657" fill="#667693"/>
<g clip-path="url(#clip3_1828_1133)">
<path d="M124.022 36.1578C124.473 33.2406 123.842 30.2579 122.248 27.7823C120.655 25.3067 118.212 23.5126 115.389 22.7445C112.566 21.9763 109.562 22.2883 106.953 23.6204C104.343 24.9525 102.313 27.211 101.252 29.9622C100.191 32.7134 100.173 35.7635 101.203 38.527C102.232 41.2905 104.236 43.5727 106.83 44.9355C109.423 46.2982 112.424 46.6454 115.256 45.9106C118.087 45.1757 120.55 43.4105 122.172 40.9538L118.29 38.3399C117.306 39.8301 115.812 40.9009 114.094 41.3467C112.377 41.7924 110.557 41.5818 108.983 40.7551C107.41 39.9285 106.195 38.5442 105.57 36.8679C104.946 35.1916 104.956 33.3414 105.6 31.6726C106.244 30.0037 107.475 28.6338 109.058 27.8258C110.641 27.0177 112.463 26.8285 114.175 27.2944C115.888 27.7604 117.369 28.8486 118.336 30.3503C119.302 31.852 119.686 33.6612 119.412 35.4308L124.022 36.1578Z" fill="#667693"/>
<path d="M102.725 32.002H123.708L124.005 36.1487H102.725V32.002Z" fill="#667693"/>
</g>
</g>
<defs>
<clipPath id="clip0_1828_1133">
<rect width="32.389" height="50.6386" fill="white" transform="translate(39.317 55.9658) rotate(-180)"/>
</clipPath>
<clipPath id="clip1_1828_1133">
<rect width="67.9689" height="31.3295" fill="white" transform="matrix(1 0 0 -1 56.1953 46.2871)"/>
</clipPath>
<clipPath id="clip2_1828_1133">
<rect width="23.7208" height="30.8686" fill="white" transform="matrix(1 0 0 -1 64.8633 46.2871)"/>
</clipPath>
<clipPath id="clip3_1828_1133">
<rect width="23.7208" height="23.9555" fill="white" transform="matrix(1 0 0 -1 100.443 46.2871)"/>
</clipPath>
</defs>
</svg>
