<svg fill="none" height="50" viewBox="0 0 50 50" width="50" xmlns="http://www.w3.org/2000/svg"><path d="m36.4681 36.0994h-4.8853v-7.6939c0-1.8347-.0326-4.1965-2.5409-4.1965-2.5445 0-2.9338 1.9989-2.9338 4.0629v7.8269h-4.8852v-15.8217h4.6898v2.1622h.0658c.9549-1.6419 2.7369-2.6263 4.6272-2.5557 4.9515 0 5.8645 3.2753 5.8645 7.5363zm-20.7575-17.9851c-1.5552 0-2.8356-1.2868-2.8356-2.8509s1.2798-2.8511 2.835-2.8511c1.5551 0 2.8348 1.2868 2.8351 2.8505 0 1.5638-1.2795 2.8514-2.8345 2.8515zm2.4426 17.9851h-4.8903v-15.8223h4.8903zm20.7503-28.24946h-28.0956c-1.31889-.01498-2.41683 1.06352-2.4329 2.38986v28.3718c.01548 1.3271 1.11328 2.4068 2.4329 2.3925h28.0956c1.3228.0168 2.4245-1.0627 2.4421-2.3925v-28.3738c-.0176-1.32909-1.1207-2.40743-2.4421-2.38993z" fill="#4c5876"/></svg>