<svg fill="none" height="50" viewBox="0 0 50 50" width="50" xmlns="http://www.w3.org/2000/svg"><path clip-rule="evenodd" d="m42 24.9322c0 9.3875-7.6112 16.9975-17 16.9975s-17-7.61-17-16.9975c0-9.3876 7.6112-16.99763 17-16.99763s17 7.61003 17 16.99763zm-27.3685.3253 4.1489 1.3516c.0699.0122.1417.0078.2096-.0127l.0026-.0016c.9566-.604 9.4929-5.9939 9.9858-6.1752.0776-.0235.1354.003.1201.0566-.1976.693-7.6246 7.2937-7.6246 7.2937s-.0723.0823-.0591.1487c.003.0256.0115.0502.0248.0722.0134.022.0313.0408.0526.0553.9425.6303 5.2078 3.4964 6.4418 4.5578.111.1077.2425.1919.3867.2477s.2982.0819.4527.0769c.6289-.0236.8044-.7143.8044-.7143s2.9336-11.8031 3.0316-13.3846c.0038-.0599.0081-.1115.0119-.1583.0062-.0741.0113-.1365.0121-.2018.0051-.1231-.007-.2463-.036-.3661-.0147-.0678-.0472-.1305-.0941-.1817-.047-.0511-.1066-.0889-.1729-.1094-.2681-.1018-.7225.0513-.7225.0513s-16.0958 5.7844-17.0151 6.4251c-.1983.1375-.2646.2175-.2975.3116-.1596.4561.3362.6572.3362.6572z" fill="#4c5876" fill-rule="evenodd"/></svg>