<svg fill="none" height="50" viewBox="0 0 50 50" width="50" xmlns="http://www.w3.org/2000/svg"><path clip-rule="evenodd" d="m43.4608 12.6325c-1.3808.6092-2.8621 1.0228-4.4162 1.2073 1.5876-.9502 2.8062-2.4594 3.3764-4.25352-1.4869.88312-3.1304 1.52032-4.8801 1.86682-1.4032-1.49234-3.3988-2.42576-5.6125-2.42576-4.2429 0-7.6864 3.44306-7.6864 7.68536 0 .6036.0671 1.1905.2012 1.7494-6.3895-.3186-12.0523-3.3815-15.84238-8.0318-.65963 1.1346-1.03976 2.4537-1.03976 3.8622 0 2.6661 1.3584 5.0192 3.42114 6.3942-1.25777-.0392-2.44287-.3857-3.48263-.9614v.095c0 3.7225 2.64973 6.8302 6.16593 7.5344-.6429.1733-1.3249.2683-2.0237.2683-.4975 0-.9782-.0503-1.4478-.1397.9783 3.0518 3.8181 5.2763 7.1777 5.3378-2.6329 2.0625-5.9423 3.2921-9.54791 3.2921-.6205 0-1.22982-.0391-1.83356-.1062 3.3988 2.1798 7.44047 3.4542 11.78397 3.4542 14.1374 0 21.8685-11.7096 21.8685-21.8654 0-.3354-.0055-.6652-.0223-.9949 1.5037-1.0844 2.8062-2.437 3.8348-3.9796z" fill="#4c5876" fill-rule="evenodd"/></svg>