<svg fill="none" height="19" viewBox="0 0 69 19" width="69" xmlns="http://www.w3.org/2000/svg"><g fill="#777fc2"><path d="m20.5107 4.66406h1.7412v7.47254h4.2804v1.6687h-6.0216z"/><path d="m34.1426 4.66406h1.7412v9.14124h-1.7412z"/><path d="m44.2188 4.66406h2.9019c.5998 0 1.1705.12575 1.7121.37725.5419.24183 1.0207.57072 1.4366.98667.4158.41594.7449.89962.9867 1.45098.2417.55138.3626 1.1366.3626 1.7557 0 .61915-.1209 1.20434-.3626 1.75574-.2418.5513-.5709 1.035-.9867 1.4509-.4159.416-.8947.7497-1.4366 1.0013-.5416.2418-1.1123.3627-1.7121.3627h-2.9019zm2.9019 7.47254c.3579 0 .7013-.0773 1.0302-.2321.3385-.1549.6337-.3628.8852-.624.261-.2611.4643-.5659.6093-.9141.1548-.358.2321-.73514.2321-1.13174 0-.39661-.0773-.76903-.2321-1.11727-.145-.3579-.3483-.66744-.6093-.92863-.2515-.26116-.5467-.46914-.8852-.62391-.3289-.15478-.6723-.23216-1.0302-.23216h-1.1608v5.80391z"/><path d="m63.3718 13.8781c-.5998 0-1.1705-.1161-1.7121-.3482-.5321-.2419-1.0013-.5707-1.4075-.9866-.3967-.4258-.7158-.9192-.9577-1.4802-.2321-.561-.3482-1.17044-.3482-1.82816 0-.6481.1161-1.25268.3482-1.81373.2419-.57072.561-1.06405.9577-1.47999.4062-.42564.8754-.75452 1.4075-.98667.5416-.24183 1.1123-.36275 1.7121-.36275s1.1656.12092 1.6976.36275c.5418.23215 1.011.56103 1.4075.98667.4063.41594.7255.90927.9577 1.47999.2418.56105.3627 1.16563.3627 1.81373 0 .65772-.1209 1.26716-.3627 1.82816-.2322.561-.5514 1.0544-.9577 1.4802-.3965.4159-.8657.7447-1.4075.9866-.532.2321-1.0978.3482-1.6976.3482zm0-1.6687c.3579 0 .7013-.0725 1.0302-.2176.3288-.145.6143-.3483.8561-.6095.2419-.2707.4353-.585.5804-.943.145-.3676.2177-.76905.2177-1.20436 0-.43528-.0727-.83189-.2177-1.18979-.1451-.3676-.3385-.68198-.5804-.94315-.2418-.27085-.5273-.47883-.8561-.62391-.3289-.14511-.6723-.21767-1.0302-.21767-.3676 0-.7158.07256-1.0447.21767-.3192.14508-.5998.35306-.8416.62391-.2419.26117-.4353.57555-.5804.94315-.1452.3579-.2176.75451-.2176 1.18979 0 .43531.0724.83676.2176 1.20436.1451.358.3385.6723.5804.943.2418.2612.5224.4645.8416.6095.3289.1451.6771.2176 1.0447.2176z"/><path clip-rule="evenodd" d="m6.78875.957031 3.99685 6.256319-3.99705 2.32937-3.99656-2.32945zm-2.77325 5.960389 2.77325-4.34106 2.77329 4.34108-2.77347 1.61632z" fill-rule="evenodd"/><path d="m6.78278 10.9192-4.6364-2.70234-.12662.19818c-1.427991 2.23526-1.109087 5.16266.76676 7.03826 2.20742 2.2069 5.78632 2.2069 7.99378 0 1.8759-1.8756 2.1946-4.803.7668-7.03826l-.1268-.19824-4.63732 2.7026z"/></g></svg>