<svg fill="none" height="19" viewBox="0 0 42 19" width="42" xmlns="http://www.w3.org/2000/svg"><g fill="#374254"><path d="m25.8349 14.5674-4.011-10.43169c-.0317-.09503-.0486-.19502-.0499-.29593-.0078-.21312.0624-.42108.1956-.57954.0689-.07567.1521-.13463.2441-.17292.0919-.03828.1904-.055.2889-.04903.149.00226.2937.05395.4142.14797.1254.10069.2233.23551.2837.39047l3.8155 10.20557 3.8155-10.20557c.0615-.15545.1608-.29032.2876-.39047.1205-.09402.2652-.14571.4142-.14797.0978-.00538.1956.01163.2869.0499.0912.03827.1738.09692.2423.17205.1345.15782.2061.36585.1994.57954-.0013.10091-.0182.2009-.0499.29593l-4.0111 10.43169c-.0686.2291-.2024.4295-.3825.5732s-.3976.2235-.6221.2282h-.3567c-.2245-.0047-.442-.0845-.6221-.2282s-.3139-.3441-.3826-.5732z"/><path d="m33.9681 15.0492c-.068-.0733-.1214-.1606-.157-.2567s-.0526-.1989-.0501-.3022v-10.56322c-.0024-.10579.0146-.21106.0501-.30979s.0889-.189.157-.26563c.0667-.07577.1477-.13547.2376-.17515.09-.03968.1867-.05844.2839-.05502h6.5189c.0918-.0024.1831.01615.2677.05441.0846.03827.1607.09538.2232.16754.0665.06759.1193.14924.1549.23979.0357.09055.0534.18804.0521.28631.0027.09726-.0145.19397-.0502.28341-.0358.08944-.0893.16945-.1568.23447-.0651.06902-.1424.12346-.2273.16015-.085.03669-.1758.05491-.2674.05358h-5.7635v3.84714h5.1845c.0918-.0024.183.01615.2676.05441.0847.03827.1607.09537.2232.16754.0658.06819.1181.14995.1537.24036.0356.09042.0537.18761.0534.28574.0026.09726-.0145.19397-.0503.28341-.0358.08943-.0893.16945-.1568.23447-.0647.06852-.1413.12267-.2255.15935-.0843.03668-.1744.05516-.2653.05438h-5.1845v3.86355h5.7635c.0924-.003.1844.0153.2698.0536.0853.0383.162.0957.2249.1684.067.068.1201.1504.1557.2417.0357.0913.0532.1895.0513.2885.0027.0972-.0145.194-.0502.2834-.0358.0894-.0893.1694-.1568.2345-.0655.0682-.1429.1219-.2278.1579s-.1756.0536-.2669.0517h-6.5151c-.0969.0075-.1942-.0085-.2845-.0469-.0903-.0385-.1714-.0983-.237-.1751z"/><path d="m22.7334 14.2722-4.015-10.43165c-.0684-.22849-.2016-.42845-.3809-.57208-.1794-.14364-.3961-.22382-.6199-.22941h-.3528c-.2245.00474-.442.08453-.6221.22823-.1802.1437-.3139.34412-.3826.57326l-1.7448 4.54586h-1.3229c-.1902.00216-.372.08439-.5062.22895s-.2099.33987-.2109.54377v.00822c.001.20389.0767.3992.2109.54376s.316.2268.5062.22895h.7094l-1.6643 4.33214c-.0317.095-.0485.195-.0498.2959-.0078.2131.0624.4211.1956.5796.0689.0756.1521.1346.244.1729.092.0383.1905.055.289.049.149-.0022.2937-.0539.4141-.148.1254-.1006.2234-.2355.2838-.3904l1.8368-4.89114h1.2616c.1902-.00215.372-.08439.5062-.22895s.2099-.33987.2109-.54376v-.02056c-.001-.20389-.0767-.3992-.2109-.54376s-.316-.22679-.5062-.22895h-.6826l1.4112-3.74849 3.8155 10.20561c.0604.1549.1584.2898.2838.3904.1204.0941.2651.1458.4141.148.0991.0066.1984-.0098.291-.0481.0927-.0383.1765-.0976.2459-.1738.1318-.1591.2005-.367.1917-.5796.0048-.101-.0109-.202-.046-.2959z"/><path d="m10.745 14.2722-4.01107-10.43165c-.06889-.2298-.20322-.43068-.38411-.57444s-.39925-.22316-.62441-.22705h-.35279c-.2245.00474-.44201.08453-.62214.22823-.18012.1437-.31387.34412-.38255.57326l-1.74477 4.54586h-1.32297c-.19022.00216-.372024.08439-.50618.22895s-.209905.33987-.2109.54377v.00822c.000995.20389.076744.3992.2109.54376s.31596.2268.50618.22895h.70942l-1.66425 4.33214c-.031704.095-.048548.195-.049851.2959-.0078.2131.062377.4211.195568.5796.068891.0756.152113.1346.244058.1729.091946.0383.19048.055.288965.049.149-.0022.29368-.0539.41414-.148.1254-.1006.22337-.2355.28377-.3904l1.83681-4.89114h1.26927c.19089-.00108.37368-.08284.50866-.22752.13498-.14467.21126-.34059.21226-.54519v-.02056c-.001-.2046-.07728-.40052-.21226-.54519-.13498-.14468-.31777-.22644-.50866-.22752h-.67873l1.39965-3.74849 3.81551 10.20561c.06039.1549.15837.2898.28376.3904.12047.0941.26515.1458.41412.148.0991.0066.1984-.0098.2911-.0481.0926-.0383.1765-.0976.2458-.1738.1318-.1591.2006-.367.1917-.5796.0048-.101-.0109-.202-.046-.2959z"/></g></svg>