<svg fill="none" height="19" viewBox="0 0 71 19" width="71" xmlns="http://www.w3.org/2000/svg"><g fill="#777fc2"><path d="m11.8123 8.21023v-2.69203h-1.3534v-1.34601h-2.70333v-1.34602h-2.70157v1.34602h-2.70332v1.34601h-1.351657v8.0761h1.351657v1.346h2.7016v1.346h2.70329v-1.346h2.70333v-1.346h1.3534v-2.692h-2.70505v1.3426h-1.35168v1.346h-2.70157v-1.346h-1.35166v-5.38069h1.35166v-1.34601h2.70157v1.34601h1.35168v1.34602z"/><path d="m19.1346 4.16602c3.1149 0 5.3619 2.18855 5.3619 5.40289 0 3.21429-2.2384 5.37889-5.3619 5.37889-3.1234 0-5.3377-2.1885-5.3377-5.37889 0-3.19036 2.247-5.40289 5.3377-5.40289zm0 1.97963c-1.7321 0-2.9977 1.32718-2.9977 3.42496 0 2.09779 1.2656 3.39929 2.9977 3.39929 1.7805 0 3.0202-1.3271 3.0202-3.39929 0-2.07209-1.2397-3.42496-3.0202-3.42496z"/><path d="m26.3926 5.05161c1.5206-.56836 3.1296-.86743 4.754-.88364 2.6465 0 4.3322 1.00009 4.3322 3.91131v6.63422h-2.2952v-6.42699c0-1.49158-.9367-2.02588-2.2246-2.02588-.7601-.00507-1.5172.0964-2.2488.3014v8.15147h-2.3176z"/><path d="m40.9584 14.7145-4.0033-10.31606h2.4588l2.9272 8.08116 2.9099-8.08116h2.3882l-4.0343 10.31606z"/><path d="m50.7001 10.08v.0462c.1392 1.8409 1.7321 2.841 3.3486 2.841 1.4276 0 2.4589-.3253 3.4888-1.0001v2.0259c-.9366.6524-2.3178.9539-3.6521.9539-3.2322 0-5.4342-2.055-5.4342-5.30873 0-3.25374 2.1556-5.47997 5.0123-5.47997 3.02 0 4.449 1.93169 4.449 4.75046v1.16444zm.0706-1.48986h4.9637c-.0464-1.60805-.8433-2.4934-2.3415-2.4934-1.3343 0-2.3178.93159-2.6222 2.4934z"/><path d="m65.719 9.40577 3.8415 5.30873h-2.6464l-2.5517-3.61-2.5536 3.61h-2.5295l3.8416-5.2865-3.6159-5.02956h2.6706l2.2936 3.30682 2.2574-3.30682h2.629z"/></g></svg>