<svg width="96" height="23" viewBox="0 0 96 23" fill="none" xmlns="http://www.w3.org/2000/svg">
<path d="M34.0898 6.18558H36.1719L40.1005 14.6647L44.0292 6.18558H46.111V17.7616H44.0964V10.243L40.6041 17.7616H39.5966L36.1047 10.243V17.7616H34.0898V6.18558Z" fill="#374254"/>
<path d="M52.5055 18.0097C51.5655 18.0097 50.7372 17.8441 50.0207 17.5129C49.3158 17.1706 48.7672 16.6849 48.3755 16.0555C47.9836 15.4152 47.7878 14.6589 47.7878 13.7867C47.7878 12.9366 47.9779 12.1968 48.3585 11.5675C48.7503 10.9272 49.3045 10.4359 50.0207 10.0937C50.7372 9.74038 51.5655 9.56369 52.5055 9.56369C53.4459 9.56369 54.2685 9.74038 54.9737 10.0937C55.6899 10.4359 56.2441 10.9272 56.6359 11.5675C57.0278 12.1968 57.2234 12.9366 57.2234 13.7867C57.2234 14.6589 57.0278 15.4152 56.6359 16.0555C56.2441 16.6849 55.6899 17.1706 54.9737 17.5129C54.2685 17.8441 53.4459 18.0097 52.5055 18.0097ZM52.5055 16.3702C53.2779 16.3702 53.8935 16.1328 54.3525 15.6581C54.8114 15.1723 55.0409 14.5485 55.0409 13.7867C55.0409 12.9807 54.8114 12.3515 54.3525 11.8988C53.9048 11.4351 53.2891 11.2032 52.5055 11.2032C51.7222 11.2032 51.1009 11.4351 50.642 11.8988C50.1943 12.3515 49.9705 12.9807 49.9705 13.7867C49.9705 14.5485 50.1999 15.1723 50.6589 15.6581C51.1178 16.1328 51.7334 16.3702 52.5055 16.3702Z" fill="#374254"/>
<path d="M58.8955 9.8111H60.9438V11.0863C61.2682 10.6557 61.7271 10.3356 62.3203 10.1257C62.9247 9.91597 63.6131 9.8111 64.3855 9.8111V11.4009C63.5685 11.4009 62.8576 11.5279 62.2532 11.7818C61.66 12.0247 61.2461 12.4112 61.011 12.9411V17.7603H58.8955V9.8111Z" fill="#374254"/>
<path d="M65.7318 9.81209H67.7802V10.7726C68.2166 10.3641 68.6924 10.0605 69.2072 9.86183C69.722 9.66307 70.3096 9.56369 70.9702 9.56369C71.7872 9.56369 72.5146 9.74038 73.1527 10.0937C73.8018 10.4359 74.3057 10.9272 74.6638 11.5675C75.0331 12.1968 75.218 12.9311 75.218 13.7702C75.218 14.5982 75.0331 15.3324 74.6638 15.9727C74.3057 16.6131 73.8018 17.1155 73.1527 17.4798C72.5146 17.8331 71.7872 18.0097 70.9702 18.0097C70.3546 18.0097 69.7726 17.9269 69.224 17.7613C68.6868 17.5847 68.2278 17.3252 67.8472 16.9829V21.3881H65.7318V9.81209ZM70.4497 16.3702C71.2109 16.3702 71.8374 16.1273 72.3301 15.6415C72.8225 15.1557 73.0688 14.5319 73.0688 13.7702C73.0688 13.0084 72.8225 12.3901 72.3301 11.9154C71.8374 11.4406 71.2109 11.2032 70.4497 11.2032C69.8454 11.2032 69.308 11.3633 68.8379 11.6835C68.3677 12.0037 68.0377 12.4343 67.8472 12.9752V14.5816C68.0264 15.1226 68.3508 15.5587 68.821 15.8899C69.3024 16.2101 69.8454 16.3702 70.4497 16.3702Z" fill="#374254"/>
<path d="M76.8976 5.52158H79.0131V10.8211C79.7742 9.98199 80.7593 9.5624 81.968 9.5624C83.054 9.5624 83.8653 9.85495 84.4026 10.4401C84.9399 11.0143 85.2084 11.7815 85.2084 12.7421V17.76H83.0929V12.9409C83.0929 11.7815 82.5444 11.2019 81.4477 11.2019C80.9662 11.2019 80.5129 11.3179 80.0877 11.5497C79.6625 11.7706 79.3041 12.1073 79.0131 12.5599V17.76H76.8976V5.52158Z" fill="#374254"/>
<path d="M91.2825 18.0097C90.3421 18.0097 89.5138 17.8441 88.7973 17.5129C88.0924 17.1706 87.5438 16.6849 87.1521 16.0555C86.7603 15.4152 86.5645 14.6589 86.5645 13.7867C86.5645 12.9366 86.7546 12.1968 87.1352 11.5675C87.527 10.9272 88.0812 10.4359 88.7973 10.0937C89.5138 9.74038 90.3421 9.56369 91.2825 9.56369C92.2225 9.56369 93.0451 9.74038 93.7507 10.0937C94.4669 10.4359 95.0211 10.9272 95.4123 11.5675C95.8044 12.1968 96 12.9366 96 13.7867C96 14.6589 95.8044 15.4152 95.4123 16.0555C95.0211 16.6849 94.4669 17.1706 93.7507 17.5129C93.0451 17.8441 92.2225 18.0097 91.2825 18.0097ZM91.2825 16.3702C92.0545 16.3702 92.6702 16.1328 93.1292 15.6581C93.5877 15.1723 93.8177 14.5485 93.8177 13.7867C93.8177 12.9807 93.5877 12.3515 93.1292 11.8988C92.6814 11.4351 92.0658 11.2032 91.2825 11.2032C90.4989 11.2032 89.8776 11.4351 89.4187 11.8988C88.9709 12.3515 88.7471 12.9807 88.7471 13.7867C88.7471 14.5485 88.9765 15.1723 89.4355 15.6581C89.8944 16.1328 90.5101 16.3702 91.2825 16.3702Z" fill="#374254"/>
<path opacity="0.9" d="M6.50082 15.3742V20.8888C6.50082 21.2283 6.79302 21.3692 6.88393 21.4013C6.97484 21.4397 7.28 21.5229 7.55272 21.2731L12.3383 16.7513C12.7798 16.1877 12.9422 15.8354 12.9422 15.8354C13.2019 15.3167 13.2019 14.8171 12.9486 14.3174C12.572 13.5745 11.611 12.8187 10.1631 12.1014L7.68911 13.4593C6.95537 13.8691 6.50082 14.5929 6.50082 15.3742Z" fill="#374254"/>
<g filter="url(#filter0_d_1_19)">
<path d="M4.01953 3.11029V8.89388C4.01953 9.61765 4.51305 10.2582 5.21431 10.4631C7.60384 11.142 11.766 12.6023 12.7725 14.748C12.9023 15.0298 12.9803 15.3052 13.0063 15.5934C13.675 14.3957 13.9802 13.0186 13.8374 11.6224C13.6426 9.64326 12.5777 7.84351 10.9154 6.69702L4.98706 2.61712C4.88315 2.54026 4.75977 2.50183 4.63642 2.50183C4.53252 2.50183 4.4416 2.52105 4.3442 2.57229C4.14941 2.68117 4.01953 2.87973 4.01953 3.11029Z" fill="#374254"/>
</g>
<path opacity="0.9" d="M22.2807 15.3742V20.8888C22.2807 21.2283 21.9886 21.3692 21.8977 21.4013C21.8068 21.4397 21.5015 21.5229 21.2288 21.2731L16.4433 16.7513C16.0017 16.1877 15.8394 15.8354 15.8394 15.8354C15.5797 15.3167 15.5797 14.8171 15.833 14.3174C16.2095 13.5745 17.1705 12.8187 18.6185 12.1014L21.0925 13.4593C21.8327 13.8691 22.2807 14.5929 22.2807 15.3742Z" fill="#374254"/>
<g filter="url(#filter1_d_1_19)">
<path d="M24.7649 3.10847V8.89208C24.7649 9.61577 24.2713 10.2563 23.5701 10.4612C21.1806 11.1402 17.0184 12.6005 16.012 14.7461C15.8821 15.0279 15.8041 15.3033 15.7782 15.5916C15.1094 14.3938 14.8041 13.0168 14.947 11.6205C15.1419 9.64148 16.2067 7.84167 17.869 6.6952L23.7974 2.61529C23.9013 2.53843 24.0246 2.5 24.148 2.5C24.2519 2.5 24.3428 2.51921 24.4402 2.57045C24.635 2.67934 24.7649 2.87789 24.7649 3.10847Z" fill="#374254"/>
</g>
<defs>
<filter id="filter0_d_1_19" x="-5.98047" y="-3.49817" width="29.8523" height="33.0916" filterUnits="userSpaceOnUse" color-interpolation-filters="sRGB">
<feFlood flood-opacity="0" result="BackgroundImageFix"/>
<feColorMatrix in="SourceAlpha" type="matrix" values="0 0 0 0 0 0 0 0 0 0 0 0 0 0 0 0 0 0 127 0" result="hardAlpha"/>
<feOffset dy="4"/>
<feGaussianBlur stdDeviation="5"/>
<feComposite in2="hardAlpha" operator="out"/>
<feColorMatrix type="matrix" values="0 0 0 0 0 0 0 0 0 0 0 0 0 0 0 0 0 0 0.2 0"/>
<feBlend mode="normal" in2="BackgroundImageFix" result="effect1_dropShadow_1_19"/>
<feBlend mode="normal" in="SourceGraphic" in2="effect1_dropShadow_1_19" result="shape"/>
</filter>
<filter id="filter1_d_1_19" x="4.91251" y="-3.5" width="29.8524" height="33.0916" filterUnits="userSpaceOnUse" color-interpolation-filters="sRGB">
<feFlood flood-opacity="0" result="BackgroundImageFix"/>
<feColorMatrix in="SourceAlpha" type="matrix" values="0 0 0 0 0 0 0 0 0 0 0 0 0 0 0 0 0 0 127 0" result="hardAlpha"/>
<feOffset dy="4"/>
<feGaussianBlur stdDeviation="5"/>
<feComposite in2="hardAlpha" operator="out"/>
<feColorMatrix type="matrix" values="0 0 0 0 0 0 0 0 0 0 0 0 0 0 0 0 0 0 0.2 0"/>
<feBlend mode="normal" in2="BackgroundImageFix" result="effect1_dropShadow_1_19"/>
<feBlend mode="normal" in="SourceGraphic" in2="effect1_dropShadow_1_19" result="shape"/>
</filter>
</defs>
</svg>
