<svg width="66" height="15" viewBox="0 0 66 15" fill="none" xmlns="http://www.w3.org/2000/svg">
<g clip-path="url(#clip0_102_11)">
<path d="M16.4009 14.7058V13.6777L18.1404 13.2739V3.28668L16.4018 2.88262V1.85455H26.4354V5.61824H25.3194L24.5635 3.24993H21.2191V7.52755L24.7337 7.21537V9.03299L21.2191 8.75755V13.3106H24.6013L25.8864 10.7404H27.0012L26.434 14.7058H16.4009Z" fill="white"/>
<path d="M27.8513 6.4993V5.52637H32.3671V11.8603C32.3671 12.4843 32.4458 12.9156 32.6033 13.1541C32.7608 13.3926 33.079 13.5119 33.5578 13.512C33.9229 13.512 34.3008 13.4202 34.6914 13.2366C35.082 13.0529 35.3972 12.8082 35.637 12.5023V6.86662L34.4087 6.4993V5.52637H38.5657V13.329H40.0397V14.1187C39.7626 14.3022 39.539 14.4335 39.3689 14.5125C39.1988 14.5915 39.0099 14.6711 38.8021 14.7512C38.5947 14.8305 38.3794 14.8889 38.1597 14.9256C37.9569 14.9607 37.7514 14.9792 37.5454 14.9807C36.6384 14.9807 36.0023 14.5829 35.637 13.7874C34.742 14.5833 33.6458 14.9812 32.3486 14.9812C30.4211 14.9812 29.4574 14.0205 29.4575 12.099V6.86662L27.8513 6.4993Z" fill="white"/>
<path d="M40.5681 14.7058V13.7329L42.1741 13.3657V1.68936H40.5681V0.716425L43.5914 0.0187378H45.0841V13.3657L46.6903 13.7329V14.7058H40.5681Z" fill="white"/>
<path d="M47.5405 10.0059C47.5405 8.56202 47.9594 7.40852 48.797 6.5454C49.6347 5.68227 50.7716 5.25102 52.2078 5.25165C53.6689 5.25165 54.7743 5.73515 55.524 6.70215C56.2737 7.66915 56.6485 8.86246 56.6483 10.2821H50.4503C50.5386 11.1828 50.8725 11.9588 51.4521 12.6099C52.0317 13.261 52.7749 13.5866 53.6816 13.5868C54.3619 13.5868 55.0926 13.4521 55.8737 13.1829L56.2703 14.2291C55.0989 14.7305 53.9526 14.9812 52.8313 14.9812C51.2064 14.9812 49.9184 14.5191 48.9672 13.595C48.0161 12.6709 47.5405 11.4745 47.5405 10.0059ZM50.4503 9.1434L53.644 8.94146C53.6454 8.66817 53.6265 8.39514 53.5872 8.12452C53.5487 7.87377 53.4415 7.57084 53.2659 7.21571C52.951 6.70184 52.5794 6.44484 52.1511 6.44471C51.6473 6.44471 51.2316 6.69559 50.904 7.19734C50.7135 7.50772 50.5852 7.8504 50.5262 8.20721C50.4629 8.57409 50.4376 8.88602 50.4503 9.14302V9.1434Z" fill="white"/>
<path d="M57.7441 14.7058V13.7329L59.3503 13.3658V7.19702H57.7441V6.22502L60.7676 5.52733H62.2603V6.62889C63.205 5.71089 64.3262 5.25189 65.6238 5.25189C65.7019 5.50182 65.7401 5.7619 65.7371 6.02308C65.7371 6.58558 65.6741 7.11189 65.5482 7.60202L63.1671 7.21633C62.8649 7.3512 62.5626 7.54702 62.2601 7.80377V13.3658L64.2438 13.7329V14.7058H57.7441Z" fill="white"/>
<path d="M8.36091 1.96698L1.05405 5.12778C0.38144 5.41873 0.0789463 6.18437 0.378412 6.83787C0.677877 7.49137 1.4659 7.78527 2.13851 7.49432L9.44537 4.33351C10.118 4.04256 10.4205 3.27692 10.121 2.62342C9.82154 1.96992 9.03352 1.67602 8.36091 1.96698Z" fill="#37BEC1"/>
<path d="M6.33404 7.09703L1.46274 9.20425C0.790131 9.49521 0.487638 10.2608 0.787103 10.9143C1.08657 11.5679 1.87459 11.8618 2.5472 11.5708L7.4185 9.46357C8.09111 9.17261 8.3936 8.40697 8.09414 7.75347C7.79467 7.09997 7.00665 6.80607 6.33404 7.09703Z" fill="#FBB144"/>
<path d="M11.6141 9.06628L4.30722 12.2271C3.63461 12.518 3.33212 13.2837 3.63159 13.9372C3.93105 14.5907 4.71907 14.8846 5.39168 14.5936L12.6985 11.4328C13.3712 11.1419 13.6736 10.3762 13.3742 9.72272C13.0747 9.06922 12.2867 8.77532 11.6141 9.06628Z" fill="#E4615E"/>
</g>
<defs>
<clipPath id="clip0_102_11">
<rect width="66" height="15" fill="white"/>
</clipPath>
</defs>
</svg>
