<svg fill="none" height="19" viewBox="0 0 81 19" width="81" xmlns="http://www.w3.org/2000/svg"><g clip-rule="evenodd" fill="#374254" fill-rule="evenodd"><path d="m75.5415 10.8825c0-1.01615-.5584-1.78118-1.4398-1.78118-.8815 0-1.4405.76503-1.4405 1.78118 0 1.0161.559 1.7812 1.4405 1.7812.8832.0019 1.4398-.7631 1.4398-1.7812zm-.0432-2.46307v-2.66207c0-.17579.1099-.32841.2684-.37284l1.3174-.37671v9.00809h-1.4615v-.765c-.3675.5737-1.0274.9099-1.853.9099-1.6957 0-2.6888-1.4585-2.6888-3.2764 0-1.81784.9931-3.27634 2.6888-3.27634.8238-.00194 1.4279.38055 1.7287.81137zm-8.9917-.67036v.76503c.2684-.539.8706-.90991 1.7407-.90991 1.4062 0 2.1538 1.00452 2.1538 2.49981v3.9119h-1.584v-3.7187c0-.73031-.29-1.23257-.9932-1.23257-.7697 0-1.1931.52549-1.1931 1.36387v3.5874h-1.5839v-6.26683zm-5.1638 6.41173c-1.7068 0-2.6566-.7901-2.6566-2.8224v-3.58933h1.5842v3.61253c0 .8732.3677 1.2788 1.0706 1.2788s1.0706-.4076 1.0706-1.2788v-3.61253h1.5842v3.58733c.0036 2.0343-.9462 2.8244-2.653 2.8244zm-7.887-3.2783c0 1.1243.6471 1.7812 1.4833 1.7812.8363 0 1.4834-.6588 1.4834-1.7812s-.6471-1.78118-1.4834-1.78118c-.8344 0-1.4833.65684-1.4833 1.78118zm1.4851 3.2783c-1.8744 0-3.0694-1.4952-3.0694-3.2764 0-1.78109 1.1932-3.27634 3.0694-3.27634 1.8744 0 3.0694 1.49525 3.0694 3.27634-.0018 1.7812-1.195 3.2764-3.0694 3.2764zm-7.8978-3.2783c0 1.0161.5587 1.7812 1.4401 1.7812.8813 0 1.44-.7651 1.44-1.7812 0-1.01615-.5587-1.78118-1.44-1.78118-.8814 0-1.4401.76503-1.4401 1.78118zm.0451 2.465v2.606c0 .1758-.11.3284-.2686.3728l-1.3157.371v-8.94823h1.4617v.76503c.3677-.57376 1.0273-.90991 1.8528-.90991 1.696 0 2.6891 1.45851 2.6891 3.27641 0 1.8178-.9931 3.2763-2.6891 3.2763-.8273.0039-1.4292-.3786-1.7302-.8094zm-6.2902-2.8958v3.5642h-1.5842v-3.7187c0-.69356-.2343-1.23257-.9373-1.23257-.7371 0-1.139.51391-1.139 1.35227v3.6009h-1.5842v-6.26873h1.4616v.76503c.2686-.539.849-.90991 1.6852-.90991.793 0 1.3608.33422 1.696.88475.5137-.61045 1.1049-.88475 1.9411-.88475 1.4058 0 2.1195 1.04127 2.1195 2.49981v3.9119h-1.5842v-3.7187c0-.69356-.2343-1.23257-.9372-1.23257-.748 0-1.1373.51391-1.1373 1.38707zm-10.531.4308c0 1.1243.6471 1.7812 1.4833 1.7812.8363 0 1.4834-.6588 1.4834-1.7812s-.6471-1.78118-1.4834-1.78118c-.8362 0-1.4833.65684-1.4833 1.78118zm1.4833 3.2783c-1.8744 0-3.0693-1.4952-3.0693-3.2764 0-1.78109 1.1931-3.27634 3.0693-3.27634s3.0694 1.49525 3.0694 3.27634c0 1.7812-1.195 3.2764-3.0694 3.2764zm-11.2898-4.40264c0-2.65432 1.7069-4.41421 3.9832-4.41421 1.9753 0 3.5379 1.25569 3.8389 3.32468h-1.741c-.2343-1.06444-1.0381-1.66331-2.0979-1.66331-1.4509 0-2.2655 1.07603-2.2655 2.75091 0 1.67487.8146 2.75087 2.2655 2.75087 1.0598 0 1.8636-.5988 2.0979-1.6633h1.741c-.301 2.0691-1.8636 3.3247-3.8389 3.3247-2.2763.0039-3.9832-1.7541-3.9832-4.41034z"/><path d="m4.86994 14.543c-.40372-.2648-.65064-.7361-.65064-1.2422v-2.8263c0-.1082.02703-.2125.0775-.3052.1568-.2898.50465-.38827.775-.2183l5.9513 3.7187c.3479.2183.5623.6163.5623 1.049v2.9287c0 .1333-.0342.2666-.0991.3805-.1965.3439-.6146.4521-.9354.2415zm8.87106-5.36669c.3478.2183.5623.6163.5623 1.04899v5.9423c0 .1758-.0883.3381-.2307.4231l-1.3031.7862c-.0162.0097-.0342.0174-.0522.0232v-3.2995c0-.427-.2091-.823-.5515-1.0432l-5.22678-3.35174v-3.72456c0-.10818.02704-.2125.0775-.30523.1568-.28977.50465-.38829.775-.21829zm2.6044-4.38907c.3496.21636.5641.61818.5641 1.05091v8.67975c0 .1777-.0919.3418-.2379.4269l-1.2346.7147v-6.04272c0-.42689-.209-.82103-.5497-1.04126l-5.34211-3.43476v-3.5333c0-.10819.02703-.2125.0757-.30523.1568-.28978.50461-.388298.77501-.22023z"/></g></svg>