<svg fill="none" height="19" viewBox="0 0 19 19" width="19" xmlns="http://www.w3.org/2000/svg"><g fill="#777fc2"><path d="m1.9375 14.3555h15.7463v2.4758h-15.7463z"/><path d="m2.03572 4.03255c0-.64376-.03929-1.26818-.09822-1.91279h2.80499l.09741 1.30942c.31184-.44349 1.07306-1.53074 3.05137-1.53074 2.27213 0 2.91793 1.4306 3.11033 1.91279.8185-1.63088 2.1543-1.8926 3.1733-1.8926 1.9971 0 2.8001 1.22864 3.0153 1.63089.5288.88613.4911 2.11392.4911 3.00004v5.56924h-2.9163v-5.80654c0-1.08726-.1563-2.2957-1.664-2.2957-1.7434 0-1.7827 1.67129-1.7827 3.18182v4.92042h-2.91795v-5.87135c0-.78515-.01962-2.23509-1.62553-2.23509-1.82114 0-1.82114 1.61152-1.82114 2.2999v5.80654h-2.91796z"/></g></svg>