<svg width="93" height="19" viewBox="0 0 93 19" fill="none" xmlns="http://www.w3.org/2000/svg">
<path d="M11.6329 10.7751C10.8231 12.2814 9.25028 13.3013 7.44383 13.3013C4.82759 13.3013 2.67853 11.1517 2.67853 8.5C2.67853 5.86402 4.81201 3.69874 7.44383 3.69874C9.25028 3.69874 10.8231 4.71862 11.6329 6.2249L14 4.93828C12.7386 2.58473 10.2781 1 7.44383 1C3.33259 1 0 4.35774 0 8.5C0 12.6423 3.33259 16 7.44383 16C10.2781 16 12.7386 14.3996 14 12.0617L11.6329 10.7751Z" fill="#374254"/>
<path d="M16 0H18V16H16V0Z" fill="#374254"/>
<path d="M25.3028 13.9494C26.4697 13.9494 27.3412 13.3772 27.8139 12.646L29.5421 13.7269C28.6411 15.1416 27.1935 16 25.288 16C22.0827 16 20 13.6315 20 10.5C20 7.40029 22.0827 5 25.1256 5C28.0207 5 30 7.51156 30 10.5159C30 10.8338 29.9557 11.1676 29.9261 11.4538H22.2009C22.5258 13.1228 23.7518 13.9494 25.3028 13.9494ZM27.8877 9.64162C27.5923 7.84538 26.3663 7.06647 25.1108 7.06647C23.5303 7.06647 22.4668 8.06792 22.1713 9.64162H27.8877Z" fill="#374254"/>
<path d="M43 5.28613V15.7298H40.7654V14.2197C39.9785 15.3324 38.7511 16 37.1459 16C34.329 16 32 13.5997 32 10.5C32 7.38439 34.3448 5 37.1459 5C38.7668 5 39.9785 5.66763 40.7654 6.74855V5.27023H43V5.28613ZM40.7654 10.5159C40.7654 8.57659 39.3648 7.17775 37.4921 7.17775C35.6352 7.17775 34.2189 8.57659 34.2189 10.5159C34.2189 12.4552 35.6195 13.854 37.4921 13.854C39.3491 13.854 40.7654 12.4552 40.7654 10.5159Z" fill="#374254"/>
<path d="M51 5V7.53214C49.3826 7.41704 47.4696 8.14051 47.4696 10.5575V16H45V5.18087H47.4696V6.98954C48.1652 5.5426 49.5565 5 51 5Z" fill="#374254"/>
<path d="M64 10.1642C64 13.0746 61.4138 15.3284 58.2586 15.3284C56.3276 15.3284 54.8793 14.5821 53.9655 13.3881V19H52V5.25373H53.9655V6.9403C54.8793 5.74627 56.3276 5 58.2586 5C61.4138 5 64 7.25373 64 10.1642ZM62.0172 10.1642C62.0172 8.16418 60.2759 6.65672 58 6.65672C55.7069 6.65672 53.9655 8.16418 53.9655 10.1642C53.9655 12.1642 55.7069 13.6716 58 13.6716C60.2759 13.6716 62.0172 12.1642 62.0172 10.1642Z" fill="#374254"/>
<path d="M65 10.5C65 7.40029 67.4444 5 70.4921 5C73.5397 5 76 7.40029 76 10.5C76 13.5997 73.5397 16 70.4921 16C67.4444 16 65 13.5838 65 10.5ZM74.1905 10.5C74.1905 8.38584 72.5873 6.78034 70.4921 6.78034C68.4286 6.78034 66.8254 8.38584 66.8254 10.5C66.8254 12.6142 68.4286 14.2197 70.4921 14.2197C72.5714 14.2197 74.1905 12.5983 74.1905 10.5Z" fill="#374254"/>
<path d="M78 10.5C78 7.40029 80.4444 5 83.4921 5C86.5397 5 89 7.40029 89 10.5C89 13.5997 86.5397 16 83.4921 16C80.4286 16 78 13.5838 78 10.5ZM87.1746 10.5C87.1746 8.38584 85.5714 6.78034 83.4762 6.78034C81.4127 6.78034 79.8095 8.38584 79.8095 10.5C79.8095 12.6142 81.4127 14.2197 83.4762 14.2197C85.5714 14.2197 87.1746 12.5983 87.1746 10.5Z" fill="#374254"/>
<path d="M91 0H93V16H91V0Z" fill="#374254"/>
</svg>
