<svg width="28" height="28" viewBox="0 0 28 28" xmlns="http://www.w3.org/2000/svg"><defs><linearGradient x1="1.117%" y1="50.002%" x2="101.132%" y2="50.002%" id="a"><stop stop-color="#0CFFAA" offset="0%"/><stop stop-color="#23FCC1" offset="14%"/><stop stop-color="#38F9D8" offset="31%"/><stop stop-color="#48F7E8" offset="50%"/><stop stop-color="#51F5F1" offset="71%"/><stop stop-color="#54F5F4" offset="100%"/><stop stop-color="#FFF" offset="100%"/></linearGradient></defs><g fill="none" fill-rule="evenodd"><g><path d="M0 0h28v28H0z"/><path d="M25.793 7.175 13.976.389 2.19 7.214l.022 13.611 11.813 6.786 11.787-6.824-.018-13.612zm-12.316 5.982-1.629-.926 1.63-2.77v3.696zm-.567.89-3.226 1.856 1.625-2.758 1.601.903zm.567.891v4.617L9.32 17.33l4.157-2.393zm1.056.032 3.963 2.25-3.963 2.327V14.97zm.499-.93 1.564-.895 1.388 2.578-2.952-1.682zm-.502-.927v-3.81l1.565 2.908-1.565.902zm0-6.036V1.932l9.72 5.583-7.24 4.17-2.48-4.608zm-1.056.302-2.547 4.33L3.67 7.587l9.805-5.675v5.468zm-3.082 5.238-2.559 4.352-4.56 2.626-.018-11.03 7.137 4.052zm-2.15 5.334 5.232 2.8v5.317L3.798 20.51l4.445-2.559zm6.288 2.82 5.022-2.948 4.673 2.655-9.695 5.611V20.77zm5.18-4.072-2.198-4.086 7.22-4.157.018 11.11-5.04-2.867z" fill="url(#a)" fill-rule="nonzero"/></g></g></svg>