<svg data-name="Layer 1" xmlns="http://www.w3.org/2000/svg" xmlns:xlink="http://www.w3.org/1999/xlink" viewBox="0 0 89.99 89.99"><defs><linearGradient id="a" x1="18.87" y1="1.12" x2="69.87" y2="69.12" gradientUnits="userSpaceOnUse"><stop offset=".02" stop-color="#9b23ea"/><stop offset="1" stop-color="#40119e"/></linearGradient><linearGradient id="b" x1="19.75" y1=".46" x2="70.75" y2="68.46" xlink:href="#a"/></defs><path d="M79.59 7.21c-1-.46-2.07-.94-3.23-1.43h-.12C70.28 3.24 62.9.65 50.06.11 48.46 0 46.78 0 45 0s-3.3 0-4.84.1C27.1.64 19.66 3.33 13.63 5.88c-1.16.49-2.24 1-3.22 1.44a74.86 74.86 0 0 0-3.23 1.61v54.15l3.23 2.3 3.22 2.29 19 13.55 7.5 5.33L45 90l5.07-3.59 7.29-5.17 18.89-13.4.12-.09 3.23-2.3 3.23-2.3V8.81c-.93-.48-2.01-1.02-3.24-1.6z" style="fill:url(#a)"/><path d="m66.34 57.22-10 6.91v-14.7H33.6v14.7l-9.77-6.91V21.28l9.29-1.77a63.9 63.9 0 0 1 7-.93c1.61-.12 3.22-.2 4.83-.2s3.38.08 5.07.21a64 64 0 0 1 7 .93l9.23 1.77v35.93z" style="fill:#fff"/><path d="M50.06 28.18C48.37 28 46.69 28 45 28s-3.22.07-4.83.19c-2.1.16-4.2.41-6.29.78h-.27v10.24h22.75V29c-2.1-.39-4.2-.65-6.3-.82z" style="fill:url(#b)"/></svg>