<svg width="108" height="108" viewBox="0 0 108 108" xmlns="http://www.w3.org/2000/svg"><g fill="none" fill-rule="evenodd"><circle fill="#FFF" cx="54" cy="54" r="54"/><g fill="#000" fill-rule="nonzero"><path d="M16.05 86a29.177 29.177 0 0 1-.01-3.251 6.143 6.143 0 0 1 1.114-.232 27.548 27.548 0 0 0 3.246-.766c.292-.093.581-.193.867-.305a8.582 8.582 0 0 0 3.584-2.606 16.518 16.518 0 0 0 1.713-2.614 39.018 39.018 0 0 0 1.838-3.916c1.092-2.701 2.18-5.407 3.261-8.118 3.714-9.317 7.425-18.636 11.135-27.955A1926.6 1926.6 0 0 0 53.16 9.584c.067-.18.144-.361.22-.542 1.25-.35 2.484-.706 3.759-1.042.076.18.147.341.205.504 1.435 3.974 2.87 7.952 4.302 11.935C66.535 34 71.443 47.555 76.474 61.065c1.375 3.694 2.762 7.382 4.16 11.066a36.877 36.877 0 0 0 1.942 4.395c.326.607.681 1.2 1.06 1.775a8.555 8.555 0 0 0 5.06 3.631c1.124.295 2.265.52 3.417.672l.819.12c.117.36.046.71.056 1.056.012.347 0 .737 0 1.105.012.356.005.713-.02 1.068-.116.018-.207.04-.3.045H63.85a.744.744 0 0 1-.065-.197v-2.93a.621.621 0 0 1 .039-.128c.238-.066.482-.111.728-.135a29.278 29.278 0 0 0 3.513-.681c.464-.129.921-.295 1.373-.463.225-.088.443-.194.652-.316 1.138-.637 1.595-1.626 1.498-2.89a9.683 9.683 0 0 0-.306-1.7c-.227-.869-.546-1.71-.845-2.554a6705.573 6705.573 0 0 1-17.712-49.648c-.062-.18-.082-.379-.266-.541-.058.036-.139.063-.182.117a1.136 1.136 0 0 0-.108.266c-2.853 8.148-5.896 16.23-8.923 24.318-2.234 5.988-4.472 11.977-6.555 18.017a388.905 388.905 0 0 0-2.426 7.294 17.29 17.29 0 0 0-.673 2.858 6.84 6.84 0 0 0-.059 1.961c.097.856.55 1.632 1.251 2.14.46.325.967.583 1.503.763.852.299 1.73.522 2.622.669.985.18 1.974.316 2.963.473.063.01.125.023.21.04.026.07.043.145.052.22v2.834a.897.897 0 0 1-.038.166 2.52 2.52 0 0 1-.268.044H16.05V86z"/></g></g></svg>