<svg width="82" height="82" viewBox="0 0 82 82" fill="none" xmlns="http://www.w3.org/2000/svg"><path d="M40.992 0c22.636 0 40.992 18.358 40.992 40.996S63.628 81.992 40.992 81.992C18.356 81.992 0 63.634 0 40.996S18.356 0 40.992 0z" fill="#fff"/><path d="m12.58 44.25 2.716 6.272 13.088 12.794-1.679-5.52L12.58 44.25zM41.504 43.648l.395 6.567 13.65 12.78.881-5.548-14.926-13.799z" fill="#fff"/><path d="m12.45 43.95 28.925-26.481 29.15 25.817L56.43 57.447 41.504 43.648 26.705 57.796 12.45 43.95z" fill="url(#a)"/><path d="M41.375 17.469 12.45 43.95M70.524 43.286 41.375 17.469M26.705 57.796l14.799-14.179M41.504 43.617l14.926 13.83M56.43 57.447l14.094-14.161M12.45 43.95l14.255 13.846M41.9 50.215l-13.516 13.1M55.548 62.995 41.9 50.215M68.475 49.907 55.548 62.995M28.384 63.316 15.296 50.522M12.45 43.95l2.846 6.572M68.475 49.907l2.05-6.621M41.504 43.617l.395 6.598M26.705 57.796l1.68 5.52M56.43 57.447l-.882 5.547" stroke="#27363B" stroke-width="3" stroke-linecap="round" stroke-linejoin="round"/><path d="m26.705 57.796 1.68 5.52 13.514-13.101-.395-6.598-14.799 14.18zM56.43 57.447l-.882 5.547 12.927-13.087 1.719-6.29-13.764 13.83z" fill="#27363B" stroke="#27363B" stroke-miterlimit="10"/><defs><linearGradient id="a" x1="12.45" y1="37.632" x2="70.524" y2="37.632" gradientUnits="userSpaceOnUse"><stop offset=".099" stop-color="#27363B"/><stop offset=".309" stop-color="#EB4960"/><stop offset=".506" stop-color="#F4837D"/><stop offset=".688" stop-color="#FCD5B4"/><stop offset=".96" stop-color="#99B998"/></linearGradient></defs></svg>