<svg width="100" height="100" viewBox="0 0 100 100" fill="none" xmlns="http://www.w3.org/2000/svg"><path fill="#fff" d="M0 0h100v100H0z"/><path fill-rule="evenodd" clip-rule="evenodd" d="M50 100c27.614 0 50-22.386 50-50S77.614 0 50 0 0 22.386 0 50s22.386 50 50 50z" fill="#3200F6"/><path d="M43.951 68.504h-2.909c-1.101 0-1.399-.43-1.167-1.05l3.933-10.129c.25-.574.934-.854 1.543-.63l2.798.987c.303.104.549.32.683.597.135.279.147.597.033.883l-3.371 8.66c-.232.598-.573.724-1.543.682zM60.998 69.211l-3.203-.064c-.872 0-1.292 0-1.05-.921l7.004-19.28c.11-.282.325-.509.6-.63.273-.12.583-.124.86-.012l2.667 1.007c.585.207.895.859.693 1.456l-6.437 17.759c-.21.578-.19.632-1.134.685zM51.962 36.846l4.286 1.588c.09.034.137.135.104.226l-6.687 18.039a.176.176 0 0 1-.226.103l-4.286-1.589a.175.175 0 0 1-.104-.225l6.687-18.039a.175.175 0 0 1 .226-.103zM72.962 25.061l4.286 1.589c.09.034.137.135.103.226l-7.903 21.318a.176.176 0 0 1-.225.103l-4.286-1.588a.175.175 0 0 1-.104-.226l7.903-21.318a.176.176 0 0 1 .226-.104zM45.102 43.314a9.773 9.773 0 0 1-4.597-.903 9.838 9.838 0 0 1 4.543-1.173 9.776 9.776 0 0 1 4.598.915 9.835 9.835 0 0 1-4.544 1.161zM42.902 37.824a17.694 17.694 0 0 1-4.507-6.392 18.182 18.182 0 0 1 6.744 4.102 17.695 17.695 0 0 1 4.507 6.392 18.18 18.18 0 0 1-6.744-4.102zM26.272 68.51h-3.02c-.827 0-1.17-.222-.977-.831l5.48-14.513a1.19 1.19 0 0 1 1.515-.673l2.73.988c.292.104.53.318.66.594.132.276.145.591.038.877l-4.922 12.885c-.225.599-.548.693-1.504.672z" fill="#fff"/></svg>