<svg width="28" height="28" viewBox="0 0 28 28" xmlns="http://www.w3.org/2000/svg"><g fill="none" fill-rule="evenodd"><g><g><circle stroke="#5DA9DD" fill="#FFF" cx="14" cy="14" r="13.5"/><g fill-rule="nonzero"><g fill="#FDBA4D"><g><path d="M5.55 19.46a2.12 2.12 0 0 1 3-.006 2.12 2.12 0 0 1-.005 3.001 2.116 2.116 0 0 1-2.998.01 2.125 2.125 0 0 1 .002-3.005z"/></g><g><path d="M20.07 5.724a2.12 2.12 0 0 1 3.002-.006 2.12 2.12 0 0 1-.006 3.001 2.12 2.12 0 0 1-3.001.006 2.13 2.13 0 0 1 .006-3.001z"/></g><g><path d="m8.272 17.825 2.234 2.234 2.053-2.054a4.023 4.023 0 0 1-2.237-2.237l-2.05 2.057z"/></g><g><path d="m18.34 12.364 2.054-2.053-2.234-2.234-2.054 2.054c.49.194.947.488 1.348.89.397.397.691.853.886 1.343z"/></g></g><g fill="#5DA9DD"><g><path d="M20.338 21.306c-.841-.841-.875-2.169-.076-2.968.8-.8 2.127-.766 2.969.076.841.841.875 2.169.076 2.968-.796.796-2.13.762-2.969-.076z"/></g><g><path d="M5.92 7.959c-.842-.842-.877-2.17-.077-2.969.8-.8 2.127-.765 2.968.076.842.842.876 2.17.077 2.969-.8.8-2.127.765-2.969-.076z"/></g><g><path d="m18.282 19.077 2.157-2.157-2.08-2.08A3.73 3.73 0 0 1 16.2 17l2.083 2.077z"/></g><g><path d="m12.85 9.462-2.08-2.08L8.612 9.54l2.08 2.08c.18-.48.46-.925.848-1.312.38-.38.828-.664 1.308-.845z"/></g></g><g fill="#18568C"><g><path d="M16.857 4.066c0 1.142-1.079 2.066-2.412 2.066s-2.411-.924-2.411-2.066S13.112 2 14.445 2s2.412.924 2.412 2.066z"/></g><g><path d="M16.857 23.8c0 1.142-1.079 2.066-2.412 2.066s-2.411-.924-2.411-2.066 1.078-2.066 2.411-2.066 2.412.924 2.412 2.066z"/></g><g><path d="M15.322 7.214h-1.516v2.558c.249-.035.497-.056.758-.056.26 0 .51.02.758.056V7.214z"/></g><g><path d="M15.322 18.207a5.315 5.315 0 0 1-.758.056c-.26 0-.51-.02-.758-.056v2.559h1.516v-2.559z"/></g></g><g fill="#18578C"><g><path d="M23.704 14.923c-1.17 0-2.116-.963-2.116-2.152 0-1.19.946-2.152 2.116-2.152 1.169 0 2.115.962 2.115 2.152 0 1.19-.946 2.152-2.115 2.152z"/></g><g><path d="M3.951 15.281c-1.17 0-2.115-.962-2.115-2.152 0-1.19.946-2.151 2.115-2.151 1.17 0 2.116.962 2.116 2.151 0 1.19-.946 2.152-2.116 2.152z"/></g><g><path d="M18.262 13.807h2.62v-1.353h-2.62c.036.222.057.444.057.676 0 .233-.021.455-.057.677z"/></g><g><path d="M9.939 13.807a4.145 4.145 0 0 1-.057-.677c0-.232.02-.454.057-.676h-2.62v1.353h2.62z"/></g></g><g fill="#18568B"><path d="M16.995 13.538c0 1.582-1.335 2.87-2.985 2.87s-2.984-1.283-2.984-2.87c0-1.586 1.334-2.87 2.984-2.87s2.985 1.289 2.985 2.87z"/></g></g></g></g></g></svg>