<svg width="28" height="28" viewBox="0 0 28 28" xmlns="http://www.w3.org/2000/svg" xmlns:xlink="http://www.w3.org/1999/xlink"><defs><circle id="a" cx="14" cy="14" r="14"/></defs><g fill="none" fill-rule="evenodd"><g><g><use fill="#FFF" xlink:href="#a"/><circle stroke="#00FFBA" cx="14" cy="14" r="13.5"/></g><g fill-rule="nonzero"><path d="M16.066 8.645c-.714-1.578-2.223-2.722-4.025-3.05-1.803-.328-3.662.202-4.96 1.414a1.765 1.765 0 0 0 0 2.618c.774.722 2.03.722 2.806 0 .14-.133.308-.238.493-.311.385-.15.82-.15 1.205 0 .278.11.515.293.684.526.173.238.265.52.264.807 0 1.023.888 1.851 1.983 1.851 1.096 0 1.984-.829 1.984-1.85 0-.69-.147-1.37-.434-2.005z" fill="#00FFBA"/><g fill="#00CFAB"><path d="M13.995 15.457a1.86 1.86 0 0 0-1.86 1.86 1.444 1.444 0 0 1-.642 1.206 1.45 1.45 0 0 1-1.856-.196l-.001-.001a1.453 1.453 0 0 1 1.046-2.463 1.86 1.86 0 1 0 0-3.72 5.174 5.174 0 0 0-3.724 8.766 5.172 5.172 0 0 0 8.896-3.592 1.86 1.86 0 0 0-1.86-1.86M21.922 8.32a5.187 5.187 0 0 0-1.514-1.787l-.003-.003a5.172 5.172 0 0 0-8.26 4.153 1.86 1.86 0 1 0 3.72 0 1.444 1.444 0 0 1 .642-1.206 1.45 1.45 0 0 1 2.105.544c.195.383.212.831.046 1.227a1.467 1.467 0 0 1-.907.824c-.14.043-.286.065-.433.065a1.86 1.86 0 0 0 0 3.72 5.176 5.176 0 0 0 4.604-7.536z"/></g><g fill="#00FFBA"><path d="M21.801 15.313c-.794-1.913-2.64-3.157-4.684-3.155-1.01 0-1.828.831-1.828 1.857s.818 1.858 1.828 1.858c.19 0 .38.038.555.113.256.11.475.294.63.528a1.46 1.46 0 0 1-.62 2.145 1.419 1.419 0 0 1-1.751-.524 1.455 1.455 0 0 1-.243-.81c0-1.026-.818-1.858-1.828-1.858-1.01 0-1.828.832-1.828 1.858-.002 2.103 1.253 3.998 3.172 4.79a5.026 5.026 0 0 0 5.56-1.19 5.233 5.233 0 0 0 1.037-5.612zM10.593 12.152c-.19 0-.38-.038-.555-.113a1.448 1.448 0 0 1-.63-.528 1.466 1.466 0 0 1 .175-1.837 1.879 1.879 0 0 0 0-2.627 1.808 1.808 0 0 0-2.586 0 5.225 5.225 0 0 0-1.105 5.631c.788 1.932 2.643 3.19 4.701 3.19 1.01 0 1.828-.832 1.828-1.858 0-1.026-.818-1.858-1.828-1.858z"/></g></g></g></g></svg>