<svg width="788" height="202" viewBox="0 0 788 202" fill="none" xmlns="http://www.w3.org/2000/svg"><g clip-path="url(#a)"><mask id="b" style="mask-type:luminance" maskUnits="userSpaceOnUse" x="13" y="126" width="79" height="76"><path d="M14.687 142.347a23.825 23.825 0 0 1-1.593 16.418l76.383 43.174a23.997 23.997 0 0 1 1.961-2.276l-41.323-70.667a23.753 23.753 0 0 1-16.786-2.362l-18.642 15.713z" fill="#fff"/></mask><g mask="url(#b)"><path d="M91.438 126.634H13.094v75.305h78.344v-75.305z" fill="url(#c)"/></g><mask id="d" style="mask-type:luminance" maskUnits="userSpaceOnUse" x="0" y="51" width="28" height="83"><path d="M2.168 51.694c-.731 0-1.453-.039-2.168-.103v74.483a23.941 23.941 0 0 1 10.026 7.178l15.702-13.235a23.802 23.802 0 0 1 1.43-30.28L4.824 51.542c-.882.1-1.769.15-2.656.152z" fill="#fff"/></mask><g mask="url(#d)"><path d="M27.158 51.542H0v81.71h27.158v-81.71z" fill="url(#e)"/></g><mask id="f" style="mask-type:luminance" maskUnits="userSpaceOnUse" x="189" y="51" width="29" height="84"><path d="M189.856 89.737a23.804 23.804 0 0 1 1.43 30.28l16.773 14.137a23.745 23.745 0 0 1 8.956-5.97V53.436a23.712 23.712 0 0 1-5.048-1.512l-22.111 37.813z" fill="#fff"/></mask><g mask="url(#f)"><path d="M217.015 51.924h-27.159v82.23h27.159v-82.23z" fill="url(#g)"/></g><mask id="h" style="mask-type:luminance" maskUnits="userSpaceOnUse" x="129" y="37" width="75" height="53"><path d="M132.316 55.364a23.697 23.697 0 0 1-2.77 12.614l25.35 21.366a23.786 23.786 0 0 1 26.843-5.451l22.029-37.674a23.654 23.654 0 0 1-5.315-9.067l-66.137 18.212z" fill="#fff"/></mask><g mask="url(#h)"><path d="M203.768 37.152h-74.222v52.192h74.222V37.152z" fill="url(#i)"/></g><mask id="j" style="mask-type:luminance" maskUnits="userSpaceOnUse" x="113" y="0" width="86" height="46"><path d="M113.486 11.5v21.932a23.935 23.935 0 0 1 16.179 12.334l67.839-18.68c.142-1.16.369-2.309.68-3.436L129.208 0a23.924 23.924 0 0 1-15.722 11.5z" fill="#fff"/></mask><g mask="url(#j)"><path d="M198.184 0h-84.698v45.766h84.698V0z" fill="url(#k)"/></g><mask id="l" style="mask-type:luminance" maskUnits="userSpaceOnUse" x="125" y="126" width="78" height="76"><path d="M172.19 129.595a23.854 23.854 0 0 1-5.291-.599l-41.322 70.667c.438.448.858.912 1.259 1.393l75.97-42.94a23.529 23.529 0 0 1 .034-15.337l-19.156-16.145a23.696 23.696 0 0 1-11.494 2.961z" fill="#fff"/></mask><g mask="url(#l)"><path d="M202.84 126.634h-77.263v74.422h77.263v-74.422z" fill="url(#m)"/></g><mask id="n" style="mask-type:luminance" maskUnits="userSpaceOnUse" x="59" y="75" width="45" height="120"><path d="M67.361 97.95a23.805 23.805 0 0 1-8.179 26.825l40.551 69.35c1.23-.49 2.5-.875 3.795-1.152V80.082a23.75 23.75 0 0 1-9.634-4.496L67.361 97.95z" fill="#fff"/></mask><g mask="url(#n)"><path d="M103.528 75.586H59.182v118.539h44.346V75.585z" fill="url(#o)"/></g><mask id="p" style="mask-type:luminance" maskUnits="userSpaceOnUse" x="113" y="75" width="45" height="120"><path d="M113.486 80.082v112.891c1.295.277 2.565.662 3.795 1.152l40.551-69.35a23.803 23.803 0 0 1-8.178-26.825l-26.533-22.364a23.752 23.752 0 0 1-9.635 4.496z" fill="#fff"/></mask><g mask="url(#p)"><path d="M157.832 75.586h-44.346v118.539h44.346V75.585z" fill="url(#q)"/></g><mask id="r" style="mask-type:luminance" maskUnits="userSpaceOnUse" x="14" y="38" width="74" height="52"><path d="m14.451 48.278 20.825 35.615a23.785 23.785 0 0 1 26.843 5.451l25.35-21.366a23.701 23.701 0 0 1-2.768-12.614L23.491 38.51a24.014 24.014 0 0 1-9.04 9.768z" fill="#fff"/></mask><g mask="url(#r)"><path d="M87.469 38.51H14.451v50.834h73.018V38.51z" fill="url(#s)"/></g><mask id="t" style="mask-type:luminance" maskUnits="userSpaceOnUse" x="25" y="2" width="79" height="44"><path d="M25.723 24.1c.197 1.238.296 2.489.296 3.742 0 .345-.011.687-.026 1.029l61.358 16.895a23.933 23.933 0 0 1 16.177-12.334V11.5a23.888 23.888 0 0 1-13.855-8.717L25.723 24.1z" fill="#fff"/></mask><g mask="url(#t)"><path d="M103.528 2.783H25.723v42.983h77.805V2.783z" fill="url(#u)"/></g><mask id="v" style="mask-type:luminance" maskUnits="userSpaceOnUse" x="-32" y="-39" width="851" height="273"><path d="M818.852-38.875H-31.542v272.681h850.394V-38.875z" fill="#fff"/></mask><g mask="url(#v)" fill="#fff"><path d="M296.285 93.894c6.211 3.578 9.317 8.978 9.317 16.202a19.045 19.045 0 0 1-6.379 14.784 22.542 22.542 0 0 1-15.696 5.773h-30.076V59.767H281.4a22.062 22.062 0 0 1 15.342 5.622 18.446 18.446 0 0 1 6.225 14.327 17.288 17.288 0 0 1-6.682 14.178zM281.4 72.832h-13.975v15.592H281.4a7.266 7.266 0 0 0 5.417-2.227 7.634 7.634 0 0 0 2.179-5.567 7.75 7.75 0 0 0-2.129-5.571 7.216 7.216 0 0 0-5.467-2.227zm2.127 44.758a7.878 7.878 0 0 0 5.873-2.38 8.268 8.268 0 0 0 2.329-6.024 8.139 8.139 0 0 0-2.329-5.926 7.88 7.88 0 0 0-5.873-2.38h-16.102v16.71h16.102zM353.6 130.652l-14.278-24.608H328.69v24.608h-13.975V59.768h28.354a23.517 23.517 0 0 1 23.596 23.493 21.56 21.56 0 0 1-3.747 12.202 23.476 23.476 0 0 1-9.924 8.455l15.696 26.734H353.6zm-24.91-57.82v20.96h14.379a8.899 8.899 0 0 0 6.784-3.088 10.61 10.61 0 0 0 2.837-7.442 10.439 10.439 0 0 0-2.837-7.394 8.956 8.956 0 0 0-6.784-3.036H328.69zM435.826 132.07c-10.669 0-19.479-3.544-26.431-10.632-6.954-7.09-10.43-15.832-10.429-26.227 0-10.464 3.476-19.224 10.429-26.28 6.953-7.053 15.763-10.58 26.431-10.58a36.141 36.141 0 0 1 17.771 4.504 33.014 33.014 0 0 1 12.707 12.204l-12.048 6.986a18.74 18.74 0 0 0-7.494-7.443 22.281 22.281 0 0 0-10.936-2.684c-6.888 0-12.441 2.162-16.659 6.484-4.219 4.32-6.329 9.923-6.33 16.81 0 6.816 2.11 12.386 6.33 16.707 4.22 4.32 9.773 6.48 16.659 6.48 3.83.055 7.61-.869 10.984-2.683a18.129 18.129 0 0 0 7.446-7.342l12.048 6.988a33.062 33.062 0 0 1-12.658 12.201 36.021 36.021 0 0 1-17.82 4.507zM520.178 130.652l-4.253-12.759h-28.25l-4.253 12.759h-15.09l24.809-70.885h17.317l24.911 70.885h-15.191zm-28.048-25.823h19.441l-9.722-28.96-9.719 28.96zM568.683 59.767a23.582 23.582 0 0 1 17.214 6.887 23.952 23.952 0 0 1 0 33.821 23.565 23.565 0 0 1-17.214 6.887h-12.455v23.29h-13.975V59.767h26.43zm0 34.53a9.77 9.77 0 0 0 7.394-3.087 11.492 11.492 0 0 0 0-15.342 9.859 9.859 0 0 0-7.394-3.036h-12.455v21.466h12.455zM615.974 59.767h-13.975v70.885h13.975V59.767zM676.021 59.767v13.368h-19.138v57.517h-13.974V73.135h-19.037V59.767h52.149zM724.222 130.652l-4.253-12.759h-28.25l-4.253 12.759h-15.09l24.809-70.885h17.317l24.911 70.885h-15.191zm-28.048-25.823h19.441l-9.722-28.96-9.719 28.96zM760.272 117.284h27.037v13.368h-41.012V59.767h13.975v57.517z"/></g></g><defs><linearGradient id="c" x1="-8.14" y1="164.286" x2="223.52" y2="164.286" gradientUnits="userSpaceOnUse"><stop stop-color="#FC552F"/><stop offset="1" stop-color="#FF9411"/></linearGradient><linearGradient id="e" x1="-8.14" y1="92.397" x2="223.52" y2="92.397" gradientUnits="userSpaceOnUse"><stop stop-color="#FC552F"/><stop offset="1" stop-color="#FF9411"/></linearGradient><linearGradient id="g" x1="-8.139" y1="93.039" x2="223.52" y2="93.039" gradientUnits="userSpaceOnUse"><stop stop-color="#FC552F"/><stop offset="1" stop-color="#FF9411"/></linearGradient><linearGradient id="i" x1="-8.14" y1="63.248" x2="223.52" y2="63.248" gradientUnits="userSpaceOnUse"><stop stop-color="#FC552F"/><stop offset="1" stop-color="#FF9411"/></linearGradient><linearGradient id="k" x1="-8.14" y1="22.883" x2="223.52" y2="22.883" gradientUnits="userSpaceOnUse"><stop stop-color="#FC552F"/><stop offset="1" stop-color="#FF9411"/></linearGradient><linearGradient id="m" x1="-8.14" y1="163.845" x2="223.52" y2="163.845" gradientUnits="userSpaceOnUse"><stop stop-color="#FC552F"/><stop offset="1" stop-color="#FF9411"/></linearGradient><linearGradient id="o" x1="-8.14" y1="134.855" x2="223.52" y2="134.855" gradientUnits="userSpaceOnUse"><stop stop-color="#FC552F"/><stop offset="1" stop-color="#FF9411"/></linearGradient><linearGradient id="q" x1="-8.14" y1="134.855" x2="223.52" y2="134.855" gradientUnits="userSpaceOnUse"><stop stop-color="#FC552F"/><stop offset="1" stop-color="#FF9411"/></linearGradient><linearGradient id="s" x1="-8.14" y1="63.927" x2="223.52" y2="63.927" gradientUnits="userSpaceOnUse"><stop stop-color="#FC552F"/><stop offset="1" stop-color="#FF9411"/></linearGradient><linearGradient id="u" x1="-8.14" y1="24.274" x2="223.52" y2="24.274" gradientUnits="userSpaceOnUse"><stop stop-color="#FC552F"/><stop offset="1" stop-color="#FF9411"/></linearGradient><clipPath id="a"><path fill="#fff" d="M0 0h787.309v201.939H0z"/></clipPath></defs></svg>