<svg xmlns="http://www.w3.org/2000/svg" viewBox="0 0 105.333 105.333" height="105.333" width="105.333" xml:space="preserve"><defs><clipPath id="a" clipPathUnits="userSpaceOnUse"><path d="M0 79h79V0H0z"/></clipPath><clipPath id="b" clipPathUnits="userSpaceOnUse"><path d="M44.234 62.449h6.073V58.38h-6.073z"/></clipPath><clipPath id="c" clipPathUnits="userSpaceOnUse"><path d="M23.577 60.358h15.535V47.305H23.577z"/></clipPath><clipPath id="d" clipPathUnits="userSpaceOnUse"><path d="M48.227 60.081h7.437v-4.424h-7.437z"/></clipPath><clipPath id="e" clipPathUnits="userSpaceOnUse"><path d="M26.589 52.486h19.655V35.004H26.59z"/></clipPath><clipPath id="f" clipPathUnits="userSpaceOnUse"><path d="M29.35 50.824h31.993V22.37H29.35z"/></clipPath><clipPath id="g" clipPathUnits="userSpaceOnUse"><path d="M44.133 50.639h4.56v-4.75h-4.56z"/></clipPath><clipPath id="h" clipPathUnits="userSpaceOnUse"><path d="M51.064 46.906h3.002v-4.452h-3.002z"/></clipPath><clipPath id="i" clipPathUnits="userSpaceOnUse"><path d="M56.447 43.93h5.172V33.828h-5.172z"/></clipPath><clipPath id="j" clipPathUnits="userSpaceOnUse"><path d="M29.411 40.356h29.07v-19.67H29.41z"/></clipPath><clipPath id="k" clipPathUnits="userSpaceOnUse"><path d="M39.224 35.207h9.478v-6.8h-9.478z"/></clipPath><clipPath id="l" clipPathUnits="userSpaceOnUse"><path d="M27.593 33.518h3.837v-6.304h-3.837z"/></clipPath><clipPath id="m" clipPathUnits="userSpaceOnUse"><path d="M22.772 25.031h8.293V20.71h-8.293z"/></clipPath></defs><g><g><g clip-path="url(#a)" transform="matrix(1.33333 0 0 -1.33333 0 105.333)"><g><path style="fill:#654785;fill-opacity:1;fill-rule:nonzero;stroke:none" d="M0 0h.093c16.078 0 29.112-13.034 29.112-29.113 0-16.078-13.034-29.113-29.112-29.113H0c-16.079 0-29.113 13.035-29.113 29.113C-29.113-13.034-16.079 0 0 0" transform="translate(38.603 69.783)"/></g><g><path style="fill:none;stroke:#ae7fd9;stroke-width:2;stroke-linecap:butt;stroke-linejoin:miter;stroke-miterlimit:4;stroke-dasharray:none;stroke-opacity:1" d="M0 0h.096c16.016 0 29-12.984 29-29s-12.984-29-29-29H0c-16.016 0-29 12.984-29 29S-16.016 0 0 0z" transform="translate(38.713 69.561)"/></g><g><path style="fill:#ae7fd9;fill-opacity:1;fill-rule:nonzero;stroke:none" d="M0 0a21.273 21.273 0 0 1 .012-6.9c.643 1.187 1.369 2.326 2.121 3.448A47.222 47.222 0 0 0 0 0m23.818 8.584a31.973 31.973 0 0 1-3.688-1.131l.05-.021c-1.072-.291-2.076-.83-3.101-1.266-.086-.698-.377-1.396-.948-1.835-.751-.63-1.868-.725-2.731-.271-1.025-.687-2.042-1.395-2.972-2.209C9.363 1.011 8.379.072 7.441-.905a34.897 34.897 0 0 1-2.205-2.549c.768-.966 1.565-1.91 2.438-2.784l-.005-.02c.935-.919 1.879-1.833 2.913-2.642.818-.684 1.687-1.302 2.565-1.902a2.532 2.532 0 0 0 2.639.072c.816-.458 1.279-1.392 1.251-2.314.997-.47 2.002-.925 3.04-1.298a32.414 32.414 0 0 1 3.746-1.154 36.558 36.558 0 0 1 3.628-.682 32.687 32.687 0 0 1 1.24 3.592l.017.008c.341 1.28.643 2.572.846 3.882.162.996.262 1.999.346 3.005-.645.282-1.184.818-1.413 1.489-.462 1.211.214 2.664 1.41 3.136a32.837 32.837 0 0 1-.352 3.052c-.194 1.309-.503 2.597-.849 3.871a39.056 39.056 0 0 1-1.18 3.418 33.62 33.62 0 0 1-3.698-.691m-7.205 7.872c-1.234-.212-2.462-.502-3.634-.951-2.104-.746-4.054-1.885-5.805-3.262-.986-.829-1.934-1.712-2.744-2.717C2.96 7.778 1.763 5.775 1 3.625a34.846 34.846 0 0 1 2.723-4.971c1.395 1.717 2.965 3.29 4.62 4.748 1.052.821 2.069 1.7 3.211 2.393l-.001.027c.174.115.346.235.516.36.003.514.131 1.032.426 1.459.704 1.109 2.32 1.446 3.416.723.185.084.371.17.558.254 1.133.559 2.324.986 3.495 1.45a43.235 43.235 0 0 0 6.474 1.592c-.841 1.639-1.786 3.225-2.876 4.713a20.81 20.81 0 0 1-6.949.083m-2.011 2.148c3.404.815 6.991.794 10.402.028.02-.03.061-.087.083-.117.81-1.103 1.595-2.225 2.29-3.404.623-1.025 1.168-2.092 1.695-3.169 1.404.083 2.815.148 4.222.066 1.078-.028 2.149-.156 3.222-.254l.127-.008a23.14 23.14 0 0 0 3.337-4.824 39.545 39.545 0 0 0-1.256-3.339 21.314 21.314 0 0 1-3.316 5.775c-1.758.196-3.532.223-5.3.15a37.702 37.702 0 0 0 1.808-6.504c.209-1.279.387-2.566.462-3.862-.151-.661.534-.938.724-1.488.476-.997.161-2.253-.677-2.958l-.042-.519a28.353 28.353 0 0 0-.151-1.697c-.08-.771-.208-1.537-.333-2.304a37.207 37.207 0 0 0-1.849-6.589 37.623 37.623 0 0 1 5.201.119 20.181 20.181 0 0 1 3.559 6.218c.423 1.145.693 2.338.91 3.536a49.68 49.68 0 0 0 1.661-3.45l.057-.125c-1.04-3.256-2.79-6.32-5.182-8.765-2.409-.015-4.825-.166-7.229.046-.579-1.078-1.122-2.177-1.759-3.224a21.28 21.28 0 0 0-3.431-1.017l-.268-.059a36.898 36.898 0 0 1 2.799 4.591 36.975 36.975 0 0 0-6.466 1.612 35.741 35.741 0 0 0-3.556 1.463c-.243.119-.487.232-.73.346-.696-.31-1.529-.335-2.211.026a2.522 2.522 0 0 0-1.356 2.016l-.368.271c-1.132.734-2.194 1.568-3.235 2.424a38.513 38.513 0 0 0-4.725 4.823C2.688-7.119 1.804-8.769 1.02-10.464c.795-2.197 2.049-4.208 3.546-5.995a36.421 36.421 0 0 1 5.576-.076 46.136 46.136 0 0 1 1.055-2.424c-1.248-.089-2.497-.171-3.748-.143a47.007 47.007 0 0 0-3.824.23l-.287.036C.407-15.698-1.632-11.729-2.4-7.503a22.628 22.628 0 0 0 .155 9.061 22.5 22.5 0 0 0 5.089 9.979c3.063 3.492 7.229 6.009 11.758 7.067" transform="translate(19.148 43.903)"/></g><g><g><g style="opacity:.19000202" clip-path="url(#b)"><g><path style="fill:#303030;fill-opacity:1;fill-rule:nonzero;stroke:none" d="M0 0c.231.089.462-.037.687-.084 1.878-.53 3.729-1.245 5.386-2.284-.598-.668-1.436-1.05-2.08-1.668-.552.244-1.08.626-1.702.632C1.595-2.225.81-1.103 0 0" transform="translate(44.234 62.418)"/></g></g></g></g><g><g><g style="opacity:.19999701" clip-path="url(#c)"><g><path style="fill:#333;fill-opacity:1;fill-rule:nonzero;stroke:none" d="M0 0c1.172.449 2.4.738 3.634.95C2.606-.57 1.573-2.103.796-3.772a35.41 35.41 0 0 0 5.53-1.344 2.67 2.67 0 0 0 .66-.321c-1.172-.464-2.363-.891-3.496-1.45-1.243.332-2.51.589-3.788.746-.448-1.083-.861-2.187-1.153-3.321l.025-.222.001-.026c-1.142-.693-2.159-1.572-3.211-2.393.3 2.142 1.043 4.188 1.703 6.236a36.31 36.31 0 0 1-5.616-.112c.81 1.005 1.758 1.888 2.745 2.717 1.312-.078 2.63-.059 3.943-.165C-1.261-2.274-.657-1.123 0 0" transform="translate(32.126 59.408)"/></g></g></g></g><g><g><g style="opacity:.16000402" clip-path="url(#d)"><g><path style="fill:#2a2a2a;fill-opacity:1;fill-rule:nonzero;stroke:none" d="m0 0 .027.031a23.152 23.152 0 0 0 4.971-3.924c.135-.153.309-.291.359-.5-1.074.098-2.144.226-3.222.254-.587.006-1.032.402-1.464.744-.861.659-1.807 1.197-2.751 1.727C-1.436-1.05-.598-.668 0 0" transform="translate(50.307 60.05)"/></g></g></g></g><g><g><g style="opacity:.16000402" clip-path="url(#e)"><g><path style="fill:#282828;fill-opacity:1;fill-rule:nonzero;stroke:none" d="M0 0a31.99 31.99 0 0 0 3.689 1.131C4.796.544 5.914-.031 6.967-.717c-.637-.627-1.456-1.018-2.111-1.626C3.327-1.43 1.699-.693.05-.02z" transform="translate(39.277 51.355)"/></g><g><path style="fill:#282828;fill-opacity:1;fill-rule:nonzero;stroke:none" d="M0 0c.938.977 1.922 1.916 2.986 2.756.139-.435.035-.887-.02-1.326-.384-3.131-.274-6.308.175-9.425-1.035.809-1.979 1.723-2.913 2.642l.004.02c.114.301.064.624.055.935C.195-2.916.218-1.43.3.053A15.708 15.708 0 0 0 0 0" transform="translate(26.589 42.998)"/></g></g></g></g><g><g><g style="opacity:.07000732" clip-path="url(#f)"><g><path style="fill:#131313;fill-opacity:1;fill-rule:nonzero;stroke:none" d="M0 0a39.524 39.524 0 0 1 1.256 3.338c1.13-2.145 1.855-4.499 2.216-6.893-.066-.285.009-.69-.306-.844-.649-.421-1.239-.946-1.954-1.256-.068.6-.09 1.214-.274 1.795C.442-4.494.117-5.241-.343-5.898c-.222-.391-.618-.745-.567-1.232-.385-.592-1.025-.905-1.622-1.237-1.024-.806-2.141-1.486-3.137-2.328-.251-.177-.543-.285-.824-.408.072.564.114 1.13.152 1.697.906.656 1.615 1.572 2.214 2.505-.463.659-1.055 1.215-1.526 1.869.58.589 1.468.851 1.847 1.627.44-.426.813-.912 1.199-1.385C-1.563-3.296-.777-1.644 0 0" transform="translate(57.872 47.486)"/></g><g><path style="fill:#131313;fill-opacity:1;fill-rule:nonzero;stroke:none" d="M0 0c.169-.374.259-.796.534-1.111 1.193.153 2.384.376 3.529.754A35.741 35.741 0 0 1 7.619-1.82a1.871 1.871 0 0 0-.474-.25C5.36-2.69 3.519-3.138 1.66-3.48c-.028-.56.498-.993.654-1.522C1.651-5.465.913-5.828.351-6.423c-.573.804-.961 1.715-1.437 2.575a46.136 46.136 0 0 0-.994 2.27C-1.432-.988-.566-.681 0 0" transform="translate(31.43 28.792)"/></g></g></g></g><g><g><g style="opacity:.13999903" clip-path="url(#g)"><g><path style="fill:#232323;fill-opacity:1;fill-rule:nonzero;stroke:none" d="M0 0c.557-.246.981-.798 1.599-.879.347-1.274.656-2.562.849-3.871C.969-3.65-.513-2.552-2.111-1.626-1.456-1.019-.637-.628 0 0" transform="translate(46.244 50.639)"/></g></g></g></g><g><g><g style="opacity:.10000598" clip-path="url(#h)"><g><path style="fill:#191919;fill-opacity:1;fill-rule:nonzero;stroke:none" d="M0 0c.268-.117.529-.26.736-.472.778-.763 1.569-1.516 2.266-2.354-.379-.776-1.267-1.037-1.847-1.626a4.06 4.06 0 0 1-.693.59C.387-2.566.209-1.279 0 0" transform="translate(51.064 46.906)"/></g></g></g></g><g><g><g style="opacity:.03999329" clip-path="url(#i)"><g><path style="fill:#0b0b0b;fill-opacity:1;fill-rule:nonzero;stroke:none" d="M0 0c.342-1.584.295-3.242.229-4.86-.206-1.739-.404-3.518-1.043-5.159a49.951 49.951 0 0 1-1.662 3.451c-.217-1.198-.487-2.391-.91-3.536-.627.852-.984 1.86-1.51 2.771.643.485 1.329.921 2.033 1.306l.36-.25c.309 1.359.239 2.786.244 4.177.714.31 1.304.835 1.953 1.256.315.154.24.559.306.844" transform="translate(61.343 43.93)"/></g></g></g></g><g><g><g style="opacity:.05000311" clip-path="url(#j)"><g><path style="fill:#0e0e0e;fill-opacity:1;fill-rule:nonzero;stroke:none" d="M0 0c.626-.735 1.092-1.591 1.518-2.452A16.642 16.642 0 0 1-.515-3.758c-.356.575-.671 1.181-1.109 1.699-.734-.499-1.15-1.322-1.802-1.91-.834-.765-1.519-1.709-2.489-2.308.125.767.253 1.533.332 2.304.281.124.573.231.824.409.995.841 2.113 1.522 3.136 2.327C-1.025-.905-.385-.592 0 0" transform="translate(56.962 40.356)"/></g><g><path style="fill:#0e0e0e;fill-opacity:1;fill-rule:nonzero;stroke:none" d="M0 0c.365-.453.596-.997.93-1.472.326-.536.738-1.021 1.006-1.589-1.393-.036-2.788.004-4.181-.033-.696.013-1.397-.054-2.088.055.236.109.443.268.621.456.3.338.85.376 1.033.826.29-.116.59-.2.897-.256-.053.2-.109.399-.181.592C-1.401-.826-.663-.463 0 0" transform="translate(33.744 23.79)"/></g></g></g></g><g><g><g style="opacity:.05999762" clip-path="url(#k)"><g><path style="fill:#0f0f0f;fill-opacity:1;fill-rule:nonzero;stroke:none" d="M0 0c2.44 1.15 4.661 2.703 6.756 4.388-.203-1.31-.505-2.601-.845-3.882L5.893.499C5.024.131 4.321-.516 3.495-.96c-.803-.518-1.721-.855-2.47-1.452-1.27.31-2.523.694-3.746 1.155C-1.822-.819-.874-.488 0 0" transform="translate(41.945 30.818)"/></g></g></g></g><g><g><g style="opacity:.11000103" clip-path="url(#l)"><g><path style="fill:#1b1b1b;fill-opacity:1;fill-rule:nonzero;stroke:none" d="M0 0c1.041-.857 2.103-1.69 3.235-2.424a.702.702 0 0 1-.021-.488 27.94 27.94 0 0 1 .623-1.815c-.567-.68-1.433-.987-2.08-1.578a4.97 4.97 0 0 1-.061.155C1.033-4.395.456-2.603.051-.77.005-.516.005-.255 0 0" transform="translate(27.593 33.518)"/></g></g></g></g><g><g><g style="opacity:.08000183" clip-path="url(#m)"><g><path style="fill:#141414;fill-opacity:1;fill-rule:nonzero;stroke:none" d="M0 0a47.008 47.008 0 0 1 3.824-.231c.61-.649 1.4-1.082 2.146-1.556.738-.469 1.526-.855 2.323-1.212-.182-.45-.733-.487-1.033-.826a2.037 2.037 0 0 0-.621-.456c-.574-.033-1.214-.137-1.718.21C3.146-3.047 1.471-1.813.067-.318L0 0" transform="translate(22.772 25.031)"/></g></g></g></g></g></g></g></svg>