<svg width="256" height="257" viewBox="0 0 256 257" fill="none" xmlns="http://www.w3.org/2000/svg"><g clip-path="url(#a)"><g filter="url(#b)"><circle cx="128" cy="128.5" r="126.175" transform="rotate(-5.658 128 128.5)" fill="#EDF0F2"/></g><path d="M208.101 225.988A126.176 126.176 0 0 1 16.69 69.087a126.173 126.173 0 0 1 191.298-38.168l-25.451 31.049a86.03 86.03 0 0 0-140.146 75.014 86.026 86.026 0 0 0 140.223 57.987l25.487 31.019z" fill="url(#c)"/><path d="M128 239.5c61.304 0 111-49.696 111-111s-49.696-111-111-111-111 49.696-111 111 49.696 111 111 111z" fill="#fff"/><path d="M173.955 115.039h-9.661c-5.319-14.763-19.621-24.886-38.483-24.886h-31.02v24.886H84.019v8.929h10.774v9.363H84.018v8.928h10.774v24.588h31.019c18.645 0 32.838-10.041 38.293-24.588h9.851v-8.928h-7.68c.19-1.574.299-3.203.299-4.831v-.217c0-1.466-.082-2.904-.218-4.315h7.626v-8.929h-.027zm-70.479-16.934h22.335c13.841 0 24.127 6.811 28.876 16.907h-51.211V98.105zm22.335 60.709h-22.335v-16.582h51.157c-4.777 9.933-15.035 16.582-28.822 16.582zm31.78-30.124c0 1.574-.109 3.121-.326 4.614h-53.789v-9.363h53.816c.19 1.465.299 2.985.299 4.532v.217z" fill="url(#d)"/></g><defs><linearGradient id="c" x1="96.456" y1="15.468" x2="136.022" y2="234.827" gradientUnits="userSpaceOnUse"><stop stop-color="#27D3A2"/><stop offset="1" stop-color="#9388FD"/></linearGradient><linearGradient id="d" x1="129" y1="79.288" x2="129" y2="174.9" gradientUnits="userSpaceOnUse"><stop stop-color="#283947"/><stop offset="1" stop-color="#657786"/></linearGradient><clipPath id="a"><path fill="#fff" transform="translate(0 .5)" d="M0 0h256v256H0z"/></clipPath><filter id="b" x="-56" y="-51.5" width="368" height="368" filterUnits="userSpaceOnUse" color-interpolation-filters="sRGB"><feFlood flood-opacity="0" result="BackgroundImageFix"/><feColorMatrix in="SourceAlpha" values="0 0 0 0 0 0 0 0 0 0 0 0 0 0 0 0 0 0 127 0"/><feOffset dy="4"/><feGaussianBlur stdDeviation="23"/><feColorMatrix values="0 0 0 0 0 0 0 0 0 0 0 0 0 0 0 0 0 0 0.08 0"/><feBlend in2="BackgroundImageFix" result="effect1_dropShadow"/><feBlend in="SourceGraphic" in2="effect1_dropShadow" result="shape"/></filter></defs></svg>