<svg width="196" height="196" viewBox="0 0 196 196" xmlns="http://www.w3.org/2000/svg"><g fill="none" fill-rule="evenodd"><g fill="#027FFF"><path d="M97.013 146.903c0-15.551-.022-31.102.033-46.653.005-1.603-.545-2.495-1.913-3.282-11.627-6.69-23.216-13.451-34.817-20.189a91157.79 91157.79 0 0 0-32.245-18.722c-4.521-2.624-9.054-5.23-13.573-7.858-1.889-1.098-1.89-1.37-.571-3.148 1.974-2.664 4.73-4.28 7.526-5.872a5850.386 5850.386 0 0 0 23.503-13.434C57.523 20.51 70.07 13.242 82.636 6.007c3.028-1.743 5.84-3.894 9.2-5.021 4.19-1.407 8.296-1.422 12.303.703 7.803 4.138 15.341 8.739 22.954 13.21 1.437.844 1.405 1.095-.038 1.924-4.235 2.431-8.49 4.826-12.69 7.316-1.149.68-2.075.57-3.15-.072-3.133-1.873-6.294-3.695-9.452-5.526-3.07-1.78-6.147-1.838-9.247-.035-14.41 8.382-28.825 16.755-43.239 25.13-.938.545-1.88 1.083-2.818 1.63-2.243 1.308-2.358 3.57-.108 4.919 4.991 2.992 10.054 5.865 15.085 8.79C72.18 65.222 82.926 71.47 93.668 77.72c5.756 3.349 11.48 6.752 17.282 10.019 1.487.836 2.016 1.797 2.012 3.506-.054 24.317-.037 48.634-.037 72.951 0 .594-.01 1.19.007 1.783.07 2.562 1.785 3.64 4.116 2.53 4.105-1.952 7.875-4.502 11.808-6.763 9.963-5.726 19.896-11.506 29.839-17.268 1.878-1.088 3.766-2.16 5.609-3.305 2.412-1.496 3.62-3.764 3.678-6.561.082-4.01.056-8.024.01-12.034-.016-1.24.42-1.978 1.523-2.589 4.27-2.365 8.481-4.839 12.725-7.252 1.44-.818 1.676-.678 1.678.986.009 8.767.222 17.54-.077 26.296-.199 5.856-3.432 10.21-8.445 13.14-8.6 5.027-17.23 10-25.853 14.987-13.534 7.828-27.075 15.644-40.608 23.473-2.982 1.726-5.834 3.706-9.368 4.223-2.418.354-2.552.3-2.552-2.136-.003-15.601-.002-31.201-.002-46.802"/><path d="m11.011 100.94.001-40.662c0-.498.004-.996.013-1.494.012-.769.309-.993 1.026-.58 4.677 2.69 9.36 5.369 14.042 8.05.628.359.9.898.885 1.609-.011.548.004 1.096.004 1.644 0 21.577-.003 43.153.008 64.73 0 1.639.03 3.28.691 4.842.969 2.29 2.988 3.448 5 4.545 9.785 5.334 19.247 11.219 28.952 16.688 8.966 5.052 17.862 10.229 26.843 15.252 1.763.986 2.609 2.04 2.517 4.177-.194 4.576-.066 9.166-.09 13.75-.008 1.692-.244 1.846-1.66 1.031-10.13-5.833-20.248-11.689-30.378-17.522-11.602-6.68-23.214-13.344-34.82-20.018-1.948-1.121-3.993-2.112-5.811-3.416-4.436-3.179-7.25-7.305-7.234-13.011.036-13.206.011-26.41.011-39.615M185.966 78.932c0 7.41-.041 14.823.034 22.234.015 1.537-.457 2.464-1.803 3.209-4.167 2.307-8.27 4.729-12.405 7.094-1.57.898-1.846.737-1.847-1.098-.007-14.624-.004-29.248-.009-43.871 0-4.738-1.716-8.73-5.265-11.874-1.683-1.49-3.715-2.476-5.643-3.593-11.68-6.764-23.383-13.488-35.073-20.232-1.26-.728-1.28-1.073-.016-1.812 4.412-2.578 8.852-5.11 13.267-7.685.91-.53 1.65-.301 2.488.187 9.904 5.77 19.832 11.498 29.733 17.274 3.51 2.047 7.34 3.616 10.461 6.245 3.796 3.195 6.06 7.313 6.073 12.433.018 7.163.005 14.326.005 21.489"/></g></g></svg>