<svg width="628" height="187" viewBox="0 0 628 187" fill="none" xmlns="http://www.w3.org/2000/svg"><path d="M262.944 79.923v-16.03c-2.547-2.228-9.872-7.324-21.974-7.324-21.018 0-37.79 16.666-37.79 38.746 0 22.08 16.772 38.747 37.79 38.747 12.102 0 19.427-5.096 21.974-7.325v-16.029c-1.804 2.229-8.704 8.174-19.957 8.174-12.844 0-23.778-9.236-23.778-23.567 0-14.33 10.934-23.672 23.778-23.672 11.253 0 18.153 6.05 19.957 8.28zm61.021 26.963c0-15.605-10.191-28.661-26.857-28.661-16.454 0-26.857 12.738-26.857 27.6 0 15.286 10.934 28.237 27.812 28.237 15.286 0 23.673-11.04 24.946-18.259l-13.906-1.486c-2.017 2.972-5.732 5.52-10.934 5.52-8.28 0-11.57-4.565-11.889-8.811h37.685v-4.14zm-26.857-14.437c6.475 0 10.509 3.61 10.828 7.643H286.28c.319-4.14 4.459-7.643 10.828-7.643zm48.987-39.064h-16.029V133h16.029V53.385zm6.777 62.312c.318 12.526 10.615 18.365 25.265 18.365 12.42 0 23.035-5.52 23.035-16.242 0-5.945-2.866-12.632-16.242-16.878-11.677-3.822-14.33-4.14-14.33-6.37 0-2.123 3.078-3.078 5.626-3.078 2.441 0 6.369.955 6.475 4.246h16.136c-.213-9.448-8.599-17.515-23.142-17.515-11.04 0-21.231 6.157-21.231 16.347 0 8.917 6.688 13.694 16.666 16.454 10.616 2.972 14.013 3.503 14.013 6.476 0 2.441-3.716 3.29-6.688 3.29-5.52 0-9.235-2.017-9.554-5.095h-16.029zm62.523-42.886c4.353 0 7.75-3.397 7.75-7.75 0-4.352-3.397-7.749-7.75-7.749-4.352 0-7.749 3.397-7.749 7.75 0 4.352 3.397 7.749 7.749 7.749zm8.068 6.475h-16.029V133h16.029V79.286zm48.076 0v25.052c0 10.085-5.839 14.65-12.633 14.65-6.369 0-9.978-3.61-9.978-15.393V79.286h-16.136v31.952c0 14.331 6.264 22.824 19.533 22.824 7.431 0 14.012-3.397 19.32-8.068l.849 7.006h15.074V79.286h-16.029zm24.08 36.411c.318 12.526 10.615 18.365 25.264 18.365 12.42 0 23.036-5.52 23.036-16.242 0-5.945-2.867-12.632-16.242-16.878-11.677-3.822-14.331-4.14-14.331-6.37 0-2.123 3.079-3.078 5.626-3.078 2.442 0 6.37.955 6.476 4.246h16.135c-.212-9.448-8.598-17.515-23.141-17.515-11.04 0-21.231 6.157-21.231 16.347 0 8.917 6.688 13.694 16.666 16.454 10.615 2.972 14.012 3.503 14.012 6.476 0 2.441-3.715 3.29-6.687 3.29-5.52 0-9.236-2.017-9.554-5.095h-16.029z" fill="url(#a)"/><path d="M623.731 57.63h-19.426l-18.683 24.84-18.79-24.84h-19.426l28.45 37.685L547.406 133h19.426l18.79-24.84L604.305 133h19.426l-28.449-37.685 28.449-37.684z" fill="url(#b)"/><path fill-rule="evenodd" clip-rule="evenodd" d="M122.928 130.23c-10.352 11.417-25.062 17.981-40.357 18.006h-.094c-15.481-.002-30.31-6.633-40.686-18.196-10.507-11.71-15.354-26.819-13.648-42.545 2.718-25.054 22.872-45.333 47.921-48.221 2.133-.245 4.291-.37 6.415-.37 12.13 0 23.642 3.93 33.29 11.368.609.468.975 1.181 1.003 1.954a2.596 2.596 0 0 1-.86 2.035l-5.802 5.201a3.367 3.367 0 0 1-2.249.86 3.422 3.422 0 0 1-1.955-.614c-6.945-4.827-15.046-7.378-23.427-7.378a41.341 41.341 0 0 0-30.771 13.814c-7.915 8.87-11.537 20.3-10.2 32.185 2.122 18.87 17.37 34.102 36.255 36.216 1.568.176 3.156.265 4.716.265 11.031 0 21.418-4.353 29.245-12.255a3.387 3.387 0 0 1 2.422-1.017c.656 0 1.293.191 1.844.553l6.437 4.228a2.592 2.592 0 0 1 1.15 1.846 2.58 2.58 0 0 1-.649 2.065z" fill="#fff"/><path fill-rule="evenodd" clip-rule="evenodd" d="m91.568 184.762 66.524-38.407a16.698 16.698 0 0 0 8.351-14.43V55.102a16.705 16.705 0 0 0-8.351-14.456L91.568 2.237a16.679 16.679 0 0 0-16.693 0L8.351 40.645A16.708 16.708 0 0 0 0 55.102v76.796a16.694 16.694 0 0 0 8.35 14.457l66.525 38.407a16.682 16.682 0 0 0 16.693 0zm-8.997-36.526c15.295-.025 30.005-6.589 40.357-18.006a2.58 2.58 0 0 0 .649-2.065 2.592 2.592 0 0 0-1.15-1.846l-6.437-4.228a3.348 3.348 0 0 0-1.844-.553c-.913 0-1.772.361-2.422 1.017-7.827 7.902-18.214 12.255-29.245 12.255-1.56 0-3.148-.089-4.716-.265-18.885-2.114-34.133-17.346-36.255-36.216-1.337-11.886 2.285-23.315 10.2-32.185A41.341 41.341 0 0 1 82.479 52.33c8.381 0 16.482 2.551 23.427 7.379.58.4 1.256.614 1.955.614.83 0 1.628-.305 2.249-.86l5.802-5.202a2.596 2.596 0 0 0 .86-2.035 2.573 2.573 0 0 0-1.003-1.953c-9.648-7.438-21.16-11.369-33.29-11.369-2.124 0-4.282.125-6.415.37-25.05 2.888-45.203 23.167-47.921 48.221-1.706 15.726 3.14 30.835 13.648 42.545 10.375 11.563 25.205 18.194 40.686 18.196h.094z" fill="url(#c)"/><mask id="e" style="mask-type:alpha" maskUnits="userSpaceOnUse" x="0" y="0" width="167" height="187"><path d="m158.092 146.355-66.524 38.407a16.682 16.682 0 0 1-16.693 0L8.351 146.355A16.694 16.694 0 0 1 0 131.898V55.102a16.702 16.702 0 0 1 8.35-14.456L74.875 2.237a16.679 16.679 0 0 1 16.693 0l66.524 38.407a16.701 16.701 0 0 1 8.351 14.457v76.823a16.699 16.699 0 0 1-8.351 14.43z" fill="url(#d)"/></mask><g mask="url(#e)"><g style="mix-blend-mode:soft-light" opacity=".61" filter="url(#f)"><path d="m76.106 230.158-87.84 50.496a22.095 22.095 0 0 1-11.02 2.943c-3.87 0-7.671-1.015-11.02-2.943l-87.841-50.496a21.998 21.998 0 0 1-8.071-8.033 21.868 21.868 0 0 1-2.955-10.973V110.184a21.88 21.88 0 0 1 2.957-10.973 22.01 22.01 0 0 1 8.069-8.034l87.84-50.495a22.095 22.095 0 0 1 11.02-2.943c3.87 0 7.671 1.015 11.021 2.943l87.84 50.495a22.013 22.013 0 0 1 8.07 8.034 21.885 21.885 0 0 1 2.956 10.973v101.003a21.871 21.871 0 0 1-2.964 10.953 21.997 21.997 0 0 1-8.062 8.018z" fill="#000"/></g></g><mask id="h" style="mask-type:alpha" maskUnits="userSpaceOnUse" x="0" y="0" width="167" height="187"><path d="m158.092 146.355-66.524 38.407a16.682 16.682 0 0 1-16.693 0L8.351 146.355A16.694 16.694 0 0 1 0 131.898V55.102a16.702 16.702 0 0 1 8.35-14.456L74.875 2.237a16.679 16.679 0 0 1 16.693 0l66.524 38.407a16.701 16.701 0 0 1 8.351 14.457v76.823a16.699 16.699 0 0 1-8.351 14.43z" fill="url(#g)"/></mask><g mask="url(#h)"><g filter="url(#i)"><path d="m155.224 97.513-38.285-34.635-.801-3.606 45.261 29.905-6.175 8.336z" fill="url(#j)"/></g><g filter="url(#k)"><path d="m87.786 97.518 79.842-48.827 4 7.066L88.586 98.93l-.8-1.413z" fill="url(#l)"/></g></g><defs><linearGradient id="a" x1="308" y1="119" x2="554.457" y2="98.578" gradientUnits="userSpaceOnUse"><stop stop-color="#fff"/><stop offset="1" stop-color="#E50593"/></linearGradient><linearGradient id="b" x1="545.433" y1="133" x2="636.016" y2="130.744" gradientUnits="userSpaceOnUse"><stop stop-color="#D5078E"/><stop offset="1" stop-color="#E50593"/></linearGradient><linearGradient id="c" x1="19.702" y1="187.03" x2="122.423" y2="6.798" gradientUnits="userSpaceOnUse"><stop offset=".359" stop-color="#262256"/><stop offset="1" stop-color="#FF009B"/></linearGradient><linearGradient id="d" x1="56.563" y1="204.05" x2="203.95" y2="155.247" gradientUnits="userSpaceOnUse"><stop stop-color="#3228BA"/><stop offset="1" stop-color="#3EEFE4"/></linearGradient><linearGradient id="g" x1="56.563" y1="204.05" x2="203.95" y2="155.247" gradientUnits="userSpaceOnUse"><stop stop-color="#3228BA"/><stop offset="1" stop-color="#3EEFE4"/></linearGradient><linearGradient id="j" x1="154.402" y1="96.905" x2="112" y2="65.5" gradientUnits="userSpaceOnUse"><stop stop-color="#fff" stop-opacity="0"/><stop offset=".57" stop-color="#fff"/><stop offset="1" stop-color="#fff" stop-opacity="0"/></linearGradient><linearGradient id="l" x1="89.32" y1="93.024" x2="167.894" y2="48.541" gradientUnits="userSpaceOnUse"><stop stop-color="#fff" stop-opacity="0"/><stop offset=".49" stop-color="#fff"/><stop offset="1" stop-color="#fff" stop-opacity="0"/></linearGradient><filter id="f" x="-152.641" y="17.739" width="259.774" height="285.858" filterUnits="userSpaceOnUse" color-interpolation-filters="sRGB"><feFlood flood-opacity="0" result="BackgroundImageFix"/><feBlend in="SourceGraphic" in2="BackgroundImageFix" result="shape"/><feGaussianBlur stdDeviation="10" result="effect1_foregroundBlur_839_372"/></filter><filter id="i" x="115.138" y="58.272" width="47.261" height="40.241" filterUnits="userSpaceOnUse" color-interpolation-filters="sRGB"><feFlood flood-opacity="0" result="BackgroundImageFix"/><feBlend in="SourceGraphic" in2="BackgroundImageFix" result="shape"/><feGaussianBlur stdDeviation=".5" result="effect1_foregroundBlur_839_372"/></filter><filter id="k" x="86.786" y="47.691" width="85.842" height="52.24" filterUnits="userSpaceOnUse" color-interpolation-filters="sRGB"><feFlood flood-opacity="0" result="BackgroundImageFix"/><feBlend in="SourceGraphic" in2="BackgroundImageFix" result="shape"/><feGaussianBlur stdDeviation=".5" result="effect1_foregroundBlur_839_372"/></filter></defs></svg>