<svg width="120" height="27" viewBox="0 0 120 27" fill="none" xmlns="http://www.w3.org/2000/svg"><g clip-path="url(#a)"><path d="M12.809 22.174a9.375 9.375 0 0 0 8.257-4.933l-2.978-1.602a6.003 6.003 0 0 1-5.279 3.155v3.38zm0-15.374a6.004 6.004 0 0 1 5.279 3.155l2.979-1.603a9.377 9.377 0 0 0-8.258-4.932V6.8z" fill="#fff"/><path d="M12.808 0C5.738 0 0 5.731 0 12.801s5.738 12.801 12.808 12.801v-3.428a9.377 9.377 0 1 1 0-18.754V0zm0 6.8a6.004 6.004 0 0 0-5.998 5.997 6.004 6.004 0 0 0 5.998 5.997V6.8z" fill="#6077EB"/><path d="M23.398 2.986h2.788v18.846h-2.788V2.986zM35.544 19.612c1.55 0 2.71-.697 3.33-1.6l2.298 1.342c-1.188 1.755-3.124 2.814-5.654 2.814-4.26 0-7.022-2.917-7.022-6.79 0-3.82 2.763-6.79 6.816-6.79 3.846 0 6.48 3.099 6.48 6.816 0 .387-.053.8-.104 1.162H31.413c.44 2.013 2.066 3.046 4.131 3.046zm3.434-5.318c-.388-2.22-2.014-3.176-3.692-3.176-2.091 0-3.511 1.24-3.899 3.176h7.59zM57.178 8.923v12.909H54.39v-1.859c-.98 1.368-2.504 2.194-4.517 2.194-3.511 0-6.429-2.969-6.429-6.79 0-3.846 2.918-6.79 6.429-6.79 2.013 0 3.536.827 4.517 2.17V8.923h2.788zm-2.788 6.455c0-2.401-1.755-4.13-4.079-4.13-2.323 0-4.079 1.729-4.079 4.13 0 2.4 1.756 4.13 4.08 4.13 2.323 0 4.078-1.73 4.078-4.13zM66.952 8.691v3.02c-1.833-.129-3.976.723-3.976 3.615v6.505h-2.788V8.924h2.788v2.169c.775-1.756 2.35-2.402 3.976-2.402zM82.993 15.378c0 3.82-2.943 6.79-6.532 6.79-2.194 0-3.846-.982-4.88-2.556v7.383h-2.245V8.923h2.246v2.22c1.033-1.574 2.685-2.555 4.88-2.555 3.588 0 6.53 2.969 6.53 6.79zm-2.246 0c0-2.633-1.988-4.621-4.57-4.621-2.607 0-4.595 1.988-4.595 4.62 0 2.634 1.988 4.622 4.595 4.622 2.582 0 4.57-1.988 4.57-4.621zM84.956 15.378c0-3.82 3.02-6.79 6.79-6.79s6.815 2.97 6.815 6.79c0 3.821-3.046 6.79-6.815 6.79-3.77 0-6.79-2.97-6.79-6.79zm11.36 0c0-2.607-1.989-4.595-4.57-4.595-2.556 0-4.544 1.988-4.544 4.595 0 2.608 1.988 4.596 4.544 4.596 2.581 0 4.57-1.989 4.57-4.596zM100.497 15.379c0-3.821 3.02-6.79 6.789-6.79 3.77 0 6.816 2.969 6.816 6.79 0 3.82-3.046 6.79-6.816 6.79-3.769 0-6.789-2.97-6.789-6.79zm11.359 0c0-2.608-1.988-4.596-4.57-4.596-2.555 0-4.544 1.988-4.544 4.596 0 2.607 1.989 4.595 4.544 4.595 2.582 0 4.57-1.988 4.57-4.595zM116.759 2.986h2.246v18.846h-2.246V2.986z" fill="#fff"/></g><defs><clipPath id="a"><path fill="#fff" d="M0 0h120v27H0z"/></clipPath></defs></svg>