<svg xmlns="http://www.w3.org/2000/svg" width="19" height="19" viewBox="1 1 18.5 18.5" fill="none"><path d="M9.923 19.36a9.208 9.208 0 1 0 0-18.415 9.208 9.208 0 0 0 0 18.416z" fill="#070A0E"/><path d="M9.916 18.672a8.521 8.521 0 1 0 0-17.043 8.521 8.521 0 0 0 0 17.043z" fill="#070A0E"/><path fill-rule="evenodd" clip-rule="evenodd" d="M6.034 13.24a.928.928 0 0 1-.444-.79v-1.799a.386.386 0 0 1 .582-.333l4.06 2.367a.773.773 0 0 1 .383.667v1.864a.464.464 0 0 1-.706.396l-3.875-2.371zm6.051-3.415a.773.773 0 0 1 .384.668v3.782c0 .111-.06.215-.157.269l-.89.5a.18.18 0 0 1-.035.015v-2.1a.774.774 0 0 0-.376-.664l-3.566-2.133v-2.37a.386.386 0 0 1 .582-.333l4.058 2.366zm1.777-2.794a.772.772 0 0 1 .385.67v5.524a.31.31 0 0 1-.162.271l-.843.455v-3.846a.774.774 0 0 0-.375-.662L9.223 7.256V5.008a.387.387 0 0 1 .58-.334l4.06 2.357z" fill="#00D395"/></svg>