<svg width="29" height="37" viewBox="0 0 29 37" fill="none" xmlns="http://www.w3.org/2000/svg"><path fill-rule="evenodd" clip-rule="evenodd" d="M1.487 28.836A3.103 3.103 0 0 1 0 26.192v-6.018a1.293 1.293 0 0 1 1.948-1.115l13.6 7.918a2.586 2.586 0 0 1 1.285 2.234v6.236c0 .283-.078.567-.226.81a1.555 1.555 0 0 1-2.138.514L1.487 28.836zM21.759 17.41a2.586 2.586 0 0 1 1.285 2.233v12.653c0 .374-.201.72-.527.9l-2.978 1.675a.61.61 0 0 1-.12.049v-7.026a2.59 2.59 0 0 0-1.26-2.22L6.216 18.536v-7.931a1.293 1.293 0 0 1 1.948-1.115L21.76 17.41zm5.952-9.346C28.51 8.524 29 9.38 29 10.302v18.48c0 .38-.21.729-.544.91l-2.821 1.522V18.347c0-.909-.478-1.748-1.256-2.217L12.17 8.817V1.293c0-.23.062-.452.173-.65a1.298 1.298 0 0 1 1.77-.468l13.597 7.889z" fill="#00D395"/></svg>