<svg width="601" height="135" viewBox="0 0 601 135" fill="none" xmlns="http://www.w3.org/2000/svg"><path d="M588 76.7c0-7.8-4.6-13.7-11.9-13.7-7.3 0-11.9 5.9-11.9 13.7 0 7.8 4.6 13.7 11.9 13.7 7.3 0 11.9-5.9 11.9-13.7zm-.4-18.9V37.3c0-1.4.9-2.5 2.2-2.9l10.8-2.9v69.2h-12v-5.9c-3 4.4-8.5 7-15.3 7-14 0-22.1-11.2-22.1-25.2s8.2-25.2 22.1-25.2c6.9.1 11.8 3 14.3 6.4zm-74-5.2v5.9c2.2-4.1 7.2-7 14.3-7 11.6 0 17.7 7.7 17.7 19.2v30.1h-13V72.2c0-5.6-2.4-9.5-8.2-9.5-6.3 0-9.8 4-9.8 10.5v27.6h-13V52.7h12v-.1zm-42.5 49.3c-14.1 0-21.9-6.1-21.9-21.7V52.6h13v27.8c0 6.7 3 9.8 8.8 9.8 5.8 0 8.8-3.1 8.8-9.8V52.6h13v27.6c.1 15.6-7.7 21.7-21.7 21.7zm-65-25.2c0 8.6 5.3 13.7 12.2 13.7 6.9 0 12.2-5.1 12.2-13.7S425.2 63 418.3 63c-6.8 0-12.2 5-12.2 13.7zm12.2 25.2c-15.4 0-25.3-11.5-25.3-25.2s9.8-25.2 25.3-25.2c15.4 0 25.3 11.5 25.3 25.2s-9.8 25.2-25.3 25.2zm-65-25.2c0 7.8 4.6 13.7 11.9 13.7 7.3 0 11.9-5.9 11.9-13.7 0-7.8-4.6-13.7-11.9-13.7-7.3 0-11.9 5.9-11.9 13.7zm.4 18.9v20c0 1.4-.9 2.5-2.2 2.9l-10.8 2.8V52.6h12v5.9c3-4.4 8.5-7 15.3-7 14 0 22.1 11.2 22.1 25.2s-8.2 25.2-22.1 25.2c-6.9 0-11.8-3-14.3-6.3zm-51.8-22.2v27.4h-13V72.2c0-5.3-1.9-9.5-7.7-9.5-6.1 0-9.4 3.9-9.4 10.4v27.7h-13V52.6h12v5.9c2.2-4.1 7-7 13.9-7 6.5 0 11.2 2.6 14 6.8 4.2-4.7 9.1-6.8 16-6.8 11.6 0 17.5 8 17.5 19.2v30.1h-13V72.2c0-5.3-1.9-9.5-7.7-9.5-6.4 0-9.6 4-9.6 10.7zm-86.7 3.3c0 8.6 5.3 13.7 12.2 13.7 6.9 0 12.2-5.1 12.2-13.7S234.3 63 227.4 63c-6.9 0-12.2 5-12.2 13.7zm12.2 25.2c-15.4 0-25.3-11.5-25.3-25.2s9.8-25.2 25.3-25.2 25.3 11.5 25.3 25.2-9.9 25.2-25.3 25.2zm-93-33.9c0-20.4 14.1-33.9 32.8-33.9 16.3 0 29.1 9.6 31.6 25.5h-14.3c-1.9-8.2-8.5-12.8-17.3-12.8-11.9 0-18.7 8.3-18.7 21.1 0 12.9 6.7 21.1 18.7 21.1 8.7 0 15.3-4.6 17.3-12.8h14.3c-2.5 15.9-15.3 25.5-31.6 25.5-18.7.3-32.8-13.3-32.8-33.7z" fill="#fff"/><path d="M6 104.8c-3.3-2-5.4-5.7-5.4-9.5V73.6c0-.8.2-1.6.6-2.3 1.3-2.2 4.2-3 6.4-1.7l49 28.6c2.9 1.7 4.6 4.7 4.6 8.1v22.5c0 1-.3 2-.8 2.9-1.6 2.6-5.1 3.5-7.7 1.9L6 104.8zm73.1-41.2c2.9 1.7 4.6 4.7 4.6 8.1v45.7c0 1.4-.7 2.6-1.9 3.3l-10.7 6c-.1.1-.3.1-.4.2v-25.3c0-3.3-1.7-6.3-4.5-8l-43-25.7V39c0-.8.2-1.6.6-2.3 1.3-2.2 4.2-3 6.4-1.7l48.9 28.6zm21.4-33.8c2.9 1.7 4.6 4.7 4.6 8.1v66.7c0 1.4-.8 2.6-2 3.3l-10.2 5.5V67c0-3.3-1.7-6.3-4.5-8l-44-26.4V5.5c0-.8.2-1.6.6-2.3 1.3-2.2 4.2-3 6.4-1.7l49.1 28.3z" fill="#00D395"/></svg>