<svg width="600" height="136" viewBox="0 0 600 136" fill="none" xmlns="http://www.w3.org/2000/svg"><g clip-path="url(#a)" fill="#fff"><path d="M62 135.2c-.1 0-.2.1-.2.2s.1.2.2.2.2-.1.2-.2-.1-.2-.2-.2zM55.6 133c-.3 0-.5.2-.5.5s.2.5.5.5.5-.2.5-.5-.2-.5-.5-.5zM49.4 130.1c-.4 0-.7.3-.7.7 0 .4.3.7.7.7.4 0 .7-.3.7-.7 0-.4-.3-.7-.7-.7zM43.6 126.6c-.5 0-.9.4-.9.9s.4.9.9.9.9-.4.9-.9-.4-.9-.9-.9zM38.1 122.4c-.6 0-1.2.5-1.2 1.2 0 .6.5 1.2 1.2 1.2.6 0 1.2-.5 1.2-1.2 0-.6-.5-1.2-1.2-1.2zM33.1 117.8c-.8 0-1.4.6-1.4 1.4 0 .8.6 1.4 1.4 1.4.8 0 1.4-.6 1.4-1.4 0-.8-.6-1.4-1.4-1.4zM28.5 112.6c-.9 0-1.6.7-1.6 1.6 0 .9.7 1.6 1.6 1.6.9 0 1.6-.7 1.6-1.6.1-.9-.7-1.6-1.6-1.6zM24.6 106.9c-1 0-1.9.8-1.9 1.9 0 1 .8 1.9 1.9 1.9 1 0 1.9-.8 1.9-1.9-.1-1-.9-1.9-1.9-1.9zM23.4 102.9c0-1.1-.9-2.1-2.1-2.1-1.2 0-2.1.9-2.1 2.1 0 1.1.9 2.1 2.1 2.1 1.2 0 2.1-.9 2.1-2.1zM21.1 96.7c0-1.3-1-2.3-2.3-2.3-1.3 0-2.3 1-2.3 2.3 0 1.3 1 2.3 2.3 2.3 1.3 0 2.3-1 2.3-2.3zM19.7 90.2c0-1.4-1.1-2.5-2.5-2.5s-2.5 1.1-2.5 2.5 1.1 2.5 2.5 2.5 2.5-1.1 2.5-2.5zM19.2 83.5c0-1.5-1.2-2.8-2.8-2.8-1.5 0-2.8 1.2-2.8 2.8 0 1.5 1.2 2.8 2.8 2.8 1.6 0 2.8-1.3 2.8-2.8zM16.6 79.8c1.7 0 3-1.3 3-3s-1.3-3-3-3-3 1.3-3 3c0 1.6 1.3 3 3 3zM14.3 70.1c0 1.8 1.4 3.2 3.2 3.2 1.8 0 3.2-1.4 3.2-3.2 0-1.8-1.4-3.2-3.2-3.2-1.7 0-3.2 1.4-3.2 3.2zM111.5 119.7c-.1 0-.2.1-.2.2s.1.2.2.2.2-.1.2-.2-.1-.2-.2-.2zM105.6 122.6c-.2 0-.4.2-.4.4s.2.4.4.4.4-.2.4-.4-.2-.4-.4-.4zM99.3 124.9c-.3 0-.6.3-.6.6s.3.6.6.6.6-.3.6-.6-.2-.6-.6-.6zM92.9 126.5c-.5 0-.8.4-.8.8s.4.8.8.8.8-.4.8-.8-.4-.8-.8-.8zM86.2 127.4c-.6 0-1 .5-1 1 0 .6.5 1 1 1 .6 0 1-.5 1-1 .1-.5-.4-1-1-1zM79.5 127.7c-.7 0-1.2.5-1.2 1.2s.5 1.2 1.2 1.2 1.2-.6 1.2-1.2c.1-.7-.5-1.2-1.2-1.2zM72.8 127.2c-.8 0-1.4.6-1.4 1.4 0 .8.6 1.4 1.4 1.4.8 0 1.4-.6 1.4-1.4.1-.8-.6-1.4-1.4-1.4zM66.2 126c-.9 0-1.6.7-1.6 1.6 0 .9.7 1.6 1.6 1.6.9 0 1.6-.7 1.6-1.6 0-.9-.7-1.6-1.6-1.6zM59.7 123.9c-1 0-1.8.8-1.8 1.8s.8 1.8 1.8 1.8 1.8-.8 1.8-1.8c.1-1-.8-1.8-1.8-1.8zM53.6 121c-1.1 0-2 .9-2 2s.9 2 2 2 2-.9 2-2c0-1-.9-2-2-2zM50.1 119.6c0-1.2-1-2.2-2.2-2.2-1.2 0-2.3 1-2.3 2.2 0 1.2 1 2.2 2.3 2.2 1.2.1 2.2-.9 2.2-2.2zM42.6 113c-1.4 0-2.5 1.1-2.5 2.5s1.1 2.5 2.5 2.5c1.3 0 2.5-1.1 2.5-2.5s-1.2-2.5-2.5-2.5zM37.9 107.9c-1.5 0-2.7 1.2-2.7 2.7 0 1.5 1.2 2.7 2.7 2.7 1.5 0 2.7-1.2 2.7-2.7 0-1.5-1.2-2.7-2.7-2.7zM33.9 108.1c1.6 0 2.9-1.3 2.9-2.9 0-1.6-1.3-2.9-2.9-2.9-1.6 0-2.9 1.3-2.9 2.9.1 1.6 1.3 2.9 2.9 2.9zM33.7 99.3c0-1.7-1.4-3.1-3.1-3.1-1.7 0-3.1 1.4-3.1 3.1 0 1.7 1.4 3.1 3.1 3.1 1.8 0 3.1-1.4 3.1-3.1zM135.6 73.8c-.1 0-.2.1-.2.2s.1.2.2.2.2-.1.2-.2c-.1-.1-.1-.2-.2-.2zM133.6 80c-.2 0-.4.2-.4.4s.2.4.4.4.4-.2.4-.4-.2-.4-.4-.4zM130.9 86c-.3 0-.5.2-.5.5s.2.6.5.6.6-.2.6-.6c-.1-.2-.3-.5-.6-.5zM127.6 91.7c-.4 0-.7.3-.7.7 0 .4.3.7.7.7.4 0 .7-.3.7-.7 0-.4-.3-.7-.7-.7zM123.7 97c-.5 0-.9.4-.9.9s.4.9.9.9.9-.4.9-.9-.4-.9-.9-.9zM119.3 101.8c-.6 0-1.1.5-1.1 1.1 0 .6.5 1.1 1.1 1.1.6 0 1.1-.5 1.1-1.1 0-.6-.5-1.1-1.1-1.1zM114.3 106.2c-.7 0-1.3.6-1.3 1.3 0 .7.6 1.3 1.3 1.3.7 0 1.3-.6 1.3-1.3 0-.7-.6-1.3-1.3-1.3zM108.9 110c-.8 0-1.5.7-1.5 1.5s.7 1.5 1.5 1.5 1.5-.7 1.5-1.5-.7-1.5-1.5-1.5zM103.1 113.1c-.9 0-1.7.7-1.7 1.6 0 .9.7 1.7 1.7 1.7.9 0 1.6-.7 1.6-1.7 0-.9-.7-1.6-1.6-1.6zM96.8 115.3c-1 0-1.8.8-1.8 1.8s.8 1.8 1.8 1.8 1.8-.8 1.8-1.8c0-.9-.8-1.8-1.8-1.8zM90.3 116.8c-1.1 0-2 .9-2 2s.9 2 2 2 2-.9 2-2-.9-2-2-2zM83.6 117.4c-1.2 0-2.2 1-2.2 2.2 0 1.2 1 2.2 2.2 2.2 1.2 0 2.2-1 2.2-2.2 0-1.2-1-2.2-2.2-2.2zM79.3 119.4c0-1.3-1.1-2.4-2.4-2.4-1.3 0-2.4 1.1-2.4 2.4 0 1.3 1.1 2.4 2.4 2.4 1.3 0 2.4-1.1 2.4-2.4zM72.8 118.4c0-1.4-1.1-2.6-2.6-2.6-1.4 0-2.6 1.1-2.6 2.6 0 1.4 1.1 2.6 2.6 2.6s2.6-1.1 2.6-2.6zM66.6 116.6c0-1.5-1.2-2.7-2.8-2.7-1.5 0-2.7 1.2-2.7 2.7 0 1.5 1.2 2.8 2.7 2.8 1.5-.1 2.8-1.3 2.8-2.8zM60.6 113.9c0-1.6-1.3-2.9-2.9-2.9-1.6 0-2.9 1.3-2.9 2.9 0 1.6 1.3 2.9 2.9 2.9 1.6 0 2.9-1.3 2.9-2.9zM120.1 24.7c.1 0 .2-.1.2-.2s-.1-.2-.2-.2-.2.1-.2.2.1.2.2.2zM123.2 30.8c.2 0 .4-.2.4-.4s-.2-.4-.4-.4-.4.2-.4.4.2.4.4.4zM125.7 37.2c.3 0 .5-.2.5-.5s-.2-.5-.5-.5-.5.2-.5.5c-.1.3.2.5.5.5zM127.5 43.9c.4 0 .7-.3.7-.7 0-.4-.3-.7-.7-.7-.4 0-.7.3-.7.7-.1.4.3.7.7.7zM127.7 49.8c0 .5.4.9.9.9s.9-.4.9-.9-.4-.9-.9-.9c-.5-.1-.9.4-.9.9zM129 55.4c-.6 0-1.1.5-1.1 1.1 0 .6.5 1.1 1.1 1.1.6 0 1.1-.5 1.1-1.1 0-.6-.5-1.1-1.1-1.1zM128.7 61.9c-.7 0-1.3.6-1.3 1.3 0 .7.6 1.3 1.3 1.3.7 0 1.3-.6 1.3-1.3 0-.7-.6-1.3-1.3-1.3zM127.7 68.4c-.8 0-1.5.7-1.5 1.5s.7 1.5 1.5 1.5 1.5-.6 1.5-1.5-.7-1.5-1.5-1.5zM127.5 76.3c0-.9-.7-1.6-1.6-1.6-.9 0-1.7.7-1.7 1.6 0 .9.7 1.6 1.7 1.6.9 0 1.6-.7 1.6-1.6zM123.2 80.6c-1 0-1.8.8-1.8 1.8s.8 1.8 1.8 1.8 1.8-.8 1.8-1.8-.8-1.8-1.8-1.8zM119.8 86.2c-1.1 0-2 .9-2 2s.9 2 2 2 2-.9 2-2-.9-2-2-2zM115.6 91.2c-1.2 0-2.2 1-2.2 2.2 0 1.2 1 2.2 2.2 2.2 1.2 0 2.2-1 2.2-2.2 0-1.2-1-2.2-2.2-2.2zM110.7 95.7c-1.3 0-2.4 1.1-2.4 2.4 0 1.3 1.1 2.4 2.4 2.4 1.3 0 2.4-1.1 2.4-2.4 0-1.3-1.1-2.4-2.4-2.4zM105.3 99.5c-1.4 0-2.6 1.1-2.6 2.6 0 1.4 1.1 2.6 2.6 2.6 1.4 0 2.6-1.1 2.6-2.6 0-1.4-1.2-2.6-2.6-2.6zM99.5 102.6c-1.5 0-2.7 1.2-2.7 2.8 0 1.5 1.2 2.7 2.7 2.7 1.5 0 2.7-1.2 2.7-2.7 0-1.6-1.2-2.8-2.7-2.8zM93.2 104.9c-1.6 0-2.9 1.3-2.9 2.9 0 1.6 1.3 2.9 2.9 2.9 1.6 0 2.9-1.3 2.9-2.9 0-1.6-1.3-2.9-2.9-2.9zM74.1.6c.1 0 .2-.1.2-.2s-.1-.2-.2-.2-.2.1-.2.2.1.2.2.2zM80.5 2.8c.2 0 .4-.2.4-.4s-.2-.4-.4-.4-.4.2-.4.4c.1.3.2.4.4.4zM86.7 5.7c.3 0 .5-.2.5-.5s-.2-.6-.5-.6-.6.2-.6.6c0 .2.3.5.6.5zM92.5 9.1c.4 0 .7-.3.7-.7 0-.4-.3-.7-.7-.7-.4 0-.7.3-.7.7 0 .4.3.7.7.7zM98 13.2c.5 0 .9-.4.9-.9s-.4-.9-.9-.9-.9.4-.9.9.4.9.9.9zM103.1 17.8c.6 0 1.1-.5 1.1-1.1 0-.6-.5-1.1-1.1-1.1-.6 0-1.1.5-1.1 1.1 0 .6.4 1.1 1.1 1.1zM107.6 23c.7 0 1.3-.6 1.3-1.3 0-.7-.6-1.3-1.3-1.3-.7 0-1.3.6-1.3 1.3 0 .7.6 1.3 1.3 1.3zM111.6 28.5c.8 0 1.5-.7 1.5-1.5s-.7-1.5-1.5-1.5-1.5.7-1.5 1.5.7 1.5 1.5 1.5zM114.8 34.6c.9 0 1.6-.7 1.6-1.6 0-.9-.7-1.6-1.6-1.6-.9 0-1.7.7-1.7 1.6.1.9.8 1.6 1.7 1.6zM115.5 39.2c0 1 .8 1.8 1.8 1.8s1.8-.8 1.8-1.8-.8-1.8-1.8-1.8-1.8.8-1.8 1.8zM116.9 45.7c0 1.1.9 2 2 2s2-.9 2-2-.9-2-2-2-2 .9-2 2zM117.5 52.4c0 1.2 1 2.2 2.2 2.2 1.2 0 2.2-1 2.2-2.2 0-1.2-1-2.2-2.2-2.2-1.2 0-2.2 1-2.2 2.2zM121.9 59.1c0-1.3-1.1-2.4-2.4-2.4-1.3 0-2.4 1.1-2.4 2.4 0 1.3 1.1 2.4 2.4 2.4 1.4 0 2.4-1.1 2.4-2.4zM121.1 65.7c0-1.4-1.1-2.6-2.6-2.6-1.4 0-2.6 1.1-2.6 2.6 0 1.4 1.2 2.6 2.6 2.6 1.5 0 2.6-1.2 2.6-2.6zM119.5 72.2c0-1.5-1.2-2.8-2.7-2.8-1.5 0-2.7 1.2-2.7 2.8 0 1.5 1.2 2.7 2.7 2.7 1.4 0 2.7-1.2 2.7-2.7zM114 75.4c-1.6 0-2.9 1.3-2.9 2.9 0 1.6 1.3 2.9 2.9 2.9 1.6 0 2.9-1.3 2.9-2.9.1-1.6-1.2-2.9-2.9-2.9zM24.6 16.1c.1 0 .2-.1.2-.2s-.1-.2-.2-.2-.2.1-.2.2.1.2.2.2zM30.6 13.2c.2 0 .4-.2.4-.4s-.2-.4-.4-.4-.4.2-.4.4.2.4.4.4zM36.8 10.9c.3 0 .6-.2.6-.5s-.2-.6-.6-.6c-.3 0-.5.3-.5.6 0 .2.2.5.5.5zM43.3 9.3c.4 0 .7-.3.7-.7 0-.4-.3-.7-.7-.7-.4 0-.7.3-.7.7-.1.3.3.7.7.7zM49.9 8.3c.5 0 .9-.4.9-.9s-.4-.9-.9-.9-.9.4-.9.9.4.9.9.9zM56.6 8.1c.6 0 1.1-.5 1.1-1.1 0-.6-.5-1.1-1.1-1.1-.6 0-1.1.5-1.1 1.1 0 .6.5 1.1 1.1 1.1zM63.3 8.6c.7 0 1.3-.6 1.3-1.3 0-.7-.6-1.3-1.3-1.3-.7 0-1.3.6-1.3 1.3 0 .7.6 1.3 1.3 1.3zM69.9 9.7c.8 0 1.5-.6 1.5-1.5 0-.8-.7-1.5-1.5-1.5s-1.5.7-1.5 1.5c.1.9.7 1.5 1.5 1.5zM76.4 11.8c.9 0 1.7-.7 1.7-1.6 0-.9-.7-1.6-1.7-1.6-.9 0-1.6.7-1.6 1.6 0 .8.7 1.6 1.6 1.6zM82.6 14.6c1 0 1.8-.8 1.8-1.8s-.8-1.8-1.8-1.8-1.8.8-1.8 1.8c-.1 1 .8 1.8 1.8 1.8zM86.3 16.2c0 1.1.9 2 2 2s2-.9 2-2-.9-2-2-2-2 .9-2 2zM93.6 22.6c1.2 0 2.2-1 2.2-2.2 0-1.2-1-2.2-2.2-2.2-1.2 0-2.2 1-2.2 2.2 0 1.3 1 2.2 2.2 2.2zM98.2 27.7c1.3 0 2.4-1.1 2.4-2.4 0-1.3-1.1-2.4-2.4-2.4-1.3 0-2.4 1.1-2.4 2.4 0 1.3 1.1 2.4 2.4 2.4zM102.2 28.1c-1.4 0-2.6 1.1-2.6 2.6 0 1.4 1.1 2.6 2.6 2.6 1.4 0 2.6-1.1 2.6-2.6 0-1.4-1.2-2.6-2.6-2.6zM102.7 36.5c0 1.5 1.2 2.7 2.7 2.7 1.5 0 2.7-1.2 2.7-2.7 0-1.5-1.2-2.7-2.7-2.7-1.4 0-2.7 1.2-2.7 2.7zM105 42.8c0 1.6 1.3 2.9 2.9 2.9 1.6 0 2.9-1.3 2.9-2.9 0-1.6-1.3-2.9-2.9-2.9-1.6 0-2.9 1.3-2.9 2.9zM109.5 46.2c-1.7 0-3.1 1.4-3.1 3.1 0 1.7 1.4 3.1 3.1 3.1 1.7 0 3.1-1.4 3.1-3.1.1-1.7-1.3-3.1-3.1-3.1zM.6 61.5c-.2 0-.3.2-.3.3 0 .2.2.3.3.3.2 0 .3-.2.3-.3 0-.1-.1-.3-.3-.3zM2.6 54.8c-.4 0-.7.3-.7.7 0 .4.3.7.7.7.4 0 .7-.3.7-.7 0-.4-.3-.7-.7-.7zM6.3 49.3c0-.6-.5-1-1-1-.6 0-1 .5-1 1 0 .6.5 1 1 1s1-.4 1-1zM8.5 44.8c.8 0 1.4-.6 1.4-1.4 0-.8-.6-1.4-1.4-1.4-.8 0-1.4.6-1.4 1.4 0 .8.7 1.4 1.4 1.4zM12.4 39.7c1 0 1.7-.8 1.7-1.7 0-.9-.8-1.7-1.7-1.7-1 0-1.7.8-1.7 1.7 0 .9.8 1.7 1.7 1.7zM16.9 35c1.1 0 2.1-.9 2.1-2.1 0-1.1-.9-2.1-2.1-2.1-1.1 0-2.1.9-2.1 2.1 0 1.2.9 2.1 2.1 2.1zM21.8 30.8c1.3 0 2.4-1.1 2.4-2.4 0-1.3-1.1-2.4-2.4-2.4-1.3 0-2.4 1.1-2.4 2.4 0 1.3 1.1 2.4 2.4 2.4zM27.2 27.2c1.5 0 2.8-1.2 2.8-2.8 0-1.5-1.2-2.8-2.8-2.8-1.5 0-2.8 1.2-2.8 2.8 0 1.5 1.3 2.8 2.8 2.8zM33 24.2c1.7 0 3.1-1.4 3.1-3.1 0-1.7-1.4-3.1-3.1-3.1-1.7 0-3.1 1.4-3.1 3.1 0 1.7 1.4 3.1 3.1 3.1z"/><path d="M39.3 22c1.7 0 3.1-1.3 3.4-2.9.7 1 1.8 1.6 3.1 1.6 1.5 0 2.7-.8 3.4-2.1.8 1 2 1.7 3.3 1.7 1.2 0 2.3-.5 3.1-1.4.8 1.1 2.1 1.9 3.7 1.9.9 0 1.8-.3 2.6-.8.2.3.4.5.6.7-1.1.1-2.2.6-2.9 1.4-.9-.8-2-1.3-3.2-1.3-1.6 0-3 .8-3.9 2-.8-.6-1.7-1-2.8-1-1.8 0-3.4 1.1-4.1 2.6-.7-.5-1.5-.7-2.4-.7-2 0-3.7 1.4-4.2 3.3-.6-.4-1.3-.6-2.1-.6-2.2 0-4 1.8-4 4-.6-.3-1.2-.5-1.9-.5-2.1 0-3.7 1.7-3.7 3.7 0 .4.1.7.2 1-.5-.3-1.1-.5-1.8-.5-1.9 0-3.5 1.6-3.5 3.5s1.6 3.5 3.5 3.5 3.5-1.6 3.5-3.5c0-.3 0-.6-.1-.9.6.4 1.3.6 2 .6 2 0 3.7-1.6 3.7-3.6.6.4 1.4.6 2.1.6h.2c-.8.8-1.4 1.8-1.5 3-.3 0-.5-.1-.8-.1-2.4 0-4.4 2-4.4 4.4v.5h-.5c-2.3 0-4.2 1.9-4.2 4.2 0 .5.1.9.2 1.3h-.2c-2.2 0-3.9 1.8-3.9 3.9 0 .8.2 1.5.6 2.1h-.1c-2 0-3.7 1.7-3.7 3.7 0 1.1.5 2 1.2 2.7h-.2c-1.9 0-3.5 1.6-3.5 3.5s1.6 3.5 3.5 3.5 3.5-1.5 3.5-3.5c0-1-.4-1.8-1-2.5h.2c1.1 0 2-.5 2.7-1.2v.1c0 1 .3 1.8.8 2.5-1.6.6-2.7 2.1-2.7 3.8 0 1.2.6 2.3 1.4 3.1-1.3.6-2.3 2-2.3 3.5s.8 2.8 2.1 3.4c-1.2.6-2 1.8-2 3.3 0 1.7 1.2 3.2 2.9 3.6-1.1.6-1.9 1.7-1.9 3.1 0 1.9 1.6 3.5 3.5 3.5.2 0 .4 0 .6-.1-1.3.4-2.3 1.6-2.3 3.1 0 1.8 1.5 3.3 3.3 3.3 1.8 0 3.3-1.5 3.3-3.3 0-1.8-1.5-3.3-3.3-3.3-.2 0-.4 0-.6.1 1.4-.4 2.5-1.7 2.5-3.3V86c.5.6 1.2 1 2.1 1.2-.6.7-.9 1.5-.9 2.5 0 2.1 1.7 3.8 3.9 3.8h.1c-.4.6-.7 1.3-.7 2.1 0 2 1.6 3.7 3.7 3.7.4 0 .7-.1 1.1-.2-.4.6-.6 1.2-.6 1.9 0 1.9 1.6 3.5 3.5 3.5.8 0 1.6-.3 2.2-.8-.5.6-.8 1.3-.8 2.1 0 1.8 1.5 3.3 3.3 3.3 1.8 0 3.3-1.5 3.3-3.3 0-.9-.4-1.7-.9-2.3.4 0 .9-.1 1.3-.2 0 1.6.9 2.9 2.2 3.6-.2 0-.4-.1-.6-.1-1.7 0-3.1 1.4-3.1 3.1 0 1.7 1.4 3.1 3.1 3.1 1.7 0 3.1-1.4 3.1-3.1 0-1.2-.7-2.2-1.6-2.7.3.1.6.1 1 .1.8 0 1.5-.2 2.1-.6.2 2 1.8 3.5 3.8 3.5 1.1 0 2.1-.5 2.8-1.2.3 1.7 1.8 3.1 3.6 3.1 1.4 0 2.6-.8 3.2-1.9.3 1.6 1.7 2.8 3.4 2.8 1.8 0 3.3-1.4 3.4-3.1.1 1.7 1.5 3.1 3.3 3.1 1.8 0 3.3-1.5 3.3-3.3 0-1.8-1.4-3.2-3.2-3.3.3-.3.5-.7.7-1.1.7.8 1.8 1.2 2.9 1.2.4 0 .8-.1 1.2-.2-.8.6-1.4 1.5-1.4 2.6 0 1.7 1.4 3.1 3.1 3.1 1.7 0 3.1-1.4 3.1-3.1 0-1.7-1.4-3.1-3.1-3.1-.3 0-.6.1-.9.1.9-.6 1.6-1.5 1.8-2.5.7.6 1.5.9 2.5.9 2.1 0 3.9-1.7 3.9-3.8v-.1c.6.4 1.3.7 2.1.7 2 0 3.7-1.6 3.7-3.7 0-.4 0-.7-.2-1.1.6.4 1.2.6 1.9.6 1.9 0 3.5-1.6 3.5-3.5 0-.8-.3-1.6-.8-2.2.6.5 1.3.8 2.1.8 1.8 0 3.3-1.5 3.3-3.3 0-1.8-1.5-3.3-3.3-3.3-.9 0-1.7.3-2.3.9 0-.4-.1-.9-.2-1.3 1.6 0 2.9-.9 3.6-2.2 0 .2-.1.4-.1.6 0 1.7 1.4 3.1 3.1 3.1 1.7 0 3.1-1.4 3.1-3.1 0-1.7-1.4-3.1-3.1-3.1-1.2 0-2.2.7-2.7 1.6.1-.3.1-.6.1-1 0-.8-.2-1.5-.6-2.1 2-.2 3.5-1.8 3.5-3.8 0-1.1-.5-2.1-1.2-2.8 1.7-.3 3.1-1.8 3.1-3.6 0-1.4-.8-2.6-1.9-3.2 1.6-.3 2.8-1.7 2.8-3.4 0-1.8-1.4-3.3-3.1-3.4 1.7-.1 3.1-1.5 3.1-3.3 0-1.8-1.5-3.3-3.3-3.3-1.8 0-3.3 1.5-3.3 3.3 0 1.7 1.3 3.1 2.9 3.3-1.8.1-3.2 1.6-3.2 3.5 0 1.3.7 2.4 1.8 3-1.7.3-3 1.8-3 3.6 0 1 .4 1.9 1.1 2.6-1.9.3-3.3 1.9-3.3 3.8 0 .7.2 1.4.5 1.9-2.1.1-3.8 1.9-3.8 4 0 .4.1.8.2 1.2h-.2c-2.3 0-4.2 1.9-4.2 4.2v.3c-.2 0-.4-.1-.7-.1-2.2 0-4 1.6-4.3 3.8-.4-.1-.8-.2-1.2-.2-1.8 0-3.4 1.1-4.1 2.6-.9-.7-2.1-1.1-3.3-.8-1.3.3-2.4 1.1-2.9 2.3-.9-.9-2.2-1.4-3.5-1.3-1.3.2-2.4 1-3 2.1-.7-.9-1.9-1.5-3.1-1.5-1.2 0-2.2.5-3 1.3-.5-1-1.4-1.9-2.5-2.2-1.2-.4-2.5-.1-3.5.6-.3-1.2-1-2.2-2.2-2.8-1.1-.5-2.4-.5-3.4 0 0-1.1-.5-2.3-1.5-3-.9-.7-2.1-1-3.2-.8.3-1.1 0-2.3-.7-3.3-.8-1-2-1.6-3.2-1.6.5-1.1.5-2.4-.1-3.5-.5-1-1.5-1.7-2.5-2 .7-.8 1-2 .8-3.1-.2-1.2-1-2.3-2-2.9 1-.8 1.6-1.9 1.6-3.3 0-1.2-.5-2.3-1.4-3 1-.5 1.8-1.4 2.1-2.6.3-1.2 0-2.4-.6-3.3 1.1-.2 2-.9 2.6-1.9.6-1.1.7-2.3.3-3.4 1.2.1 2.4-.4 3.2-1.3.8-.9 1.2-2.1 1-3.3 1.1.3 2.3.1 3.3-.6s1.6-1.8 1.7-2.9c1 .5 2.3.6 3.4.2 1.1-.5 1.9-1.3 2.2-2.3.8.7 1.9 1.1 3.1 1 1.3-.1 2.4-.8 3-1.9.7 1 1.7 1.6 3 1.7 1.2.1 2.3-.4 3.1-1.1.4 1.1 1.3 1.9 2.5 2.3 1.2.4 2.5.2 3.5-.5.2 1.2.9 2.2 2 2.8.9.5 1.9.6 2.9.4.1.2.2.3.3.4.1.9.4 1.7 1 2.4l.1.1c2.1 2.2 6.8 7.4 5.9 14.4-.2 1.7.8 2.6 2 1.3 7.6-8.2 6.4-18.2 6.2-19.4 0-.8-.2-1.5-.5-2.2.1-.4.1-.9.1-1.3 0-2.1-1-4-2.6-5.2.1-.4.1-.8.1-1.2 0-2.6-1.6-4.8-3.9-5.8-.1-2.9-2.2-5.3-5-5.8-.5-2.6-2.8-4.6-5.6-4.6h-.3c-.7-2.1-2.7-3.7-5.1-3.7-.5 0-.9.1-1.3.2-.8-1.8-2.6-3-4.6-3-.8 0-1.6.2-2.2.5-.8-1.4-2.4-2.4-4.1-2.4-1.1 0-2.2.4-3 1-.8-1.1-2.1-1.9-3.6-1.9-1.4 0-2.7.7-3.5 1.7-.8-.9-1.9-1.5-3.2-1.5-1.7 0-3.1 1-3.8 2.4-.7-.8-1.7-1.3-2.9-1.3-2 0-3.6 1.5-3.8 3.4-.6-.8-1.6-1.4-2.7-1.4-1.9 0-3.4 1.5-3.4 3.4-.4 2.7 1.2 4.2 3.1 4.2zM16.1 111.1c-.1 0-.3.1-.3.3 0 .1.1.3.3.3.2 0 .3-.1.3-.3-.1-.2-.2-.3-.3-.3zM13 104.9c-.3 0-.5.2-.5.5s.2.5.5.5.5-.2.5-.5-.3-.5-.5-.5zM10.5 98.4c-.4 0-.8.4-.8.8s.4.8.8.8.8-.4.8-.8-.4-.8-.8-.8zM8.7 91.7c-.6 0-1.1.5-1.1 1.1 0 .6.5 1.1 1.1 1.1.6 0 1.1-.5 1.1-1.1-.1-.7-.6-1.1-1.1-1.1zM8.9 86.1c0-.7-.6-1.3-1.3-1.3-.7 0-1.3.6-1.3 1.3 0 .7.6 1.3 1.3 1.3.7 0 1.3-.6 1.3-1.3zM8.7 79.4c0-.9-.7-1.6-1.6-1.6-.9 0-1.6.7-1.6 1.6 0 .9.7 1.6 1.6 1.6.9 0 1.6-.7 1.6-1.6zM5.5 72.7c0 1 .8 1.9 1.9 1.9 1 0 1.9-.8 1.9-1.9 0-1-.8-1.9-1.9-1.9-1 0-1.9.9-1.9 1.9zM8.4 68.2c1.2 0 2.1-1 2.1-2.1 0-1.2-1-2.1-2.1-2.1-1.2 0-2.1 1-2.1 2.1s.9 2.1 2.1 2.1zM10.3 57.2c-1.3 0-2.4 1.1-2.4 2.4 0 1.3 1.1 2.4 2.4 2.4 1.3 0 2.4-1.1 2.4-2.4 0-1.3-1.1-2.4-2.4-2.4zM12.9 56.1c1.5 0 2.7-1.2 2.7-2.7 0-1.5-1.2-2.7-2.7-2.7-1.5 0-2.7 1.2-2.7 2.7.1 1.5 1.3 2.7 2.7 2.7zM16.4 50.6c1.6 0 2.9-1.3 2.9-2.9 0-1.6-1.3-2.9-2.9-2.9-1.6 0-2.9 1.3-2.9 2.9 0 1.6 1.3 2.9 2.9 2.9z"/><path d="M23.8 42.4c0-1.8-1.4-3.2-3.2-3.2-1.8 0-3.2 1.4-3.2 3.2 0 1.8 1.4 3.2 3.2 3.2 1.7 0 3.2-1.4 3.2-3.2zM188.6 93.6c-3.5 0-6.8-.7-9.9-2-3.1-1.3-5.8-3.2-8.1-5.5s-4.1-5-5.4-8.1c-1.3-3.1-2-6.4-2-9.9s.7-6.9 2-10c1.3-3.1 3.1-5.8 5.4-8.1 2.3-2.3 5-4.2 8.1-5.5 3.1-1.4 6.4-2 9.9-2s6.9.7 10 2.1c3.1 1.4 5.8 3.3 8.2 5.7.5.5.9 1.1 1.1 1.9.3.9.2 1.7-.3 2.5-.6.9-1.4 1.3-2.5 1.4-1.2 0-2-.3-2.7-1-1.7-1.5-3.9-2.9-6.3-4.2-2.3-1.2-4.9-1.8-7.5-1.8-2.6 0-5.1.5-7.4 1.5-2.3 1-4.3 2.4-6 4.1-1.7 1.8-3 3.8-4 6.1s-1.5 4.8-1.5 7.4c0 2.6.5 5.1 1.5 7.4 1 2.3 2.3 4.3 4 6 1.7 1.7 3.7 3.1 6 4.1 2.3 1 4.8 1.5 7.4 1.5 2.7 0 5.3-.5 7.7-1.6 2.4-1 4.4-2.5 6.2-4.4.5-.6 1.2-1 2-1.2.3-.1.5-.1.8-.1.6 0 1.2.2 1.7.5.8.7 1.2 1.6 1.2 2.6s-.3 1.9-.9 2.6c-2.3 2.6-5.1 4.6-8.3 6-3.2 1.2-6.7 2-10.4 2zM241.8 93.5c-3.5 0-6.8-.7-9.9-2-3.1-1.3-5.8-3.2-8.1-5.4-2.3-2.3-4.1-5-5.4-8.1-1.3-3.1-2-6.4-2-9.9s.7-6.8 2-9.9c1.3-3.1 3.2-5.8 5.4-8.1 2.3-2.3 5-4.1 8.1-5.5 3.1-1.3 6.4-2 9.9-2s6.8.7 9.9 2c3.1 1.3 5.8 3.2 8.1 5.5s4.1 5 5.5 8.1c1.3 3.1 2 6.4 2 9.9s-.7 6.8-2 9.9c-1.3 3.1-3.2 5.8-5.5 8.1s-5 4.1-8.1 5.4c-3.1 1.3-6.4 2-9.9 2zm0-44.4c-2.6 0-5.1.5-7.4 1.5-2.3 1-4.3 2.3-6 4-1.7 1.7-3.1 3.8-4 6.1-1 2.3-1.5 4.8-1.5 7.4 0 2.6.5 5.1 1.5 7.4 1 2.3 2.3 4.3 4 6 1.7 1.7 3.7 3 6 4s4.8 1.5 7.4 1.5c2.6 0 5.1-.5 7.4-1.5 2.3-1 4.3-2.3 6-4 1.7-1.7 3.1-3.7 4.1-6 1-2.3 1.5-4.8 1.5-7.4 0-2.6-.5-5.1-1.5-7.4-1-2.3-2.3-4.3-4.1-6.1-1.7-1.7-3.7-3.1-6-4-2.3-1-4.8-1.5-7.4-1.5zM312.3 93.6c-.9 0-1.7-.3-2.3-1-.6-.6-1-1.4-1-2.3V61.2c0-1.7-.3-3.2-1-4.7-.6-1.5-1.5-2.8-2.7-3.9-1.1-1.1-2.5-2-3.9-2.7-1.5-.6-3.1-1-4.7-1-1.7 0-3.3.3-4.7 1-1.5.6-2.8 1.5-3.9 2.7-1.1 1.1-2 2.5-2.6 3.9-.6 1.5-1 3.1-1 4.7v29.1c0 .9-.3 1.7-1 2.3-.6.6-1.4.9-2.3.9-.9 0-1.7-.3-2.3-1-.6-.6-1-1.4-1-2.3V61.1c0-2.6.5-5 1.5-7.3s2.3-4.3 4-6c1.7-1.7 3.7-3.1 6-4 2.3-1 4.7-1.5 7.3-1.5 2.6 0 5 .5 7.3 1.5s4.3 2.3 6 4c1.7 1.7 3.1 3.7 4 6 1 2.3 1.5 4.8 1.5 7.3v29.1c0 .9-.3 1.7-.9 2.3-.6.8-1.4 1.1-2.3 1.1zM344.5 93.6c-2.5 0-4.9-.4-7.1-1.2-2.2-.8-4.2-1.9-5.8-3.4-1.7-1.4-3-3.1-4-5s-1.4-4-1.4-6.2c0-.8.3-1.6.9-2.2.6-.6 1.4-.9 2.2-.9.9 0 1.6.3 2.2.9.6.6.9 1.3.9 2.2 0 1.3.3 2.5.9 3.6.6 1.1 1.4 2.1 2.5 3 1.1.8 2.3 1.5 3.8 2s3.1.8 4.8.8c1.7 0 3.3-.3 4.8-.8s2.8-1.2 3.9-2.1c1.1-.8 2-1.8 2.6-3 .6-1.1.8-2.3.8-3.6-.1-1.2-.5-2.3-1.1-3.3-.7-1.1-1.5-2-2.6-2.9-1-.8-2.3-1.5-3.7-2.1-1.4-.6-2.8-1-4.4-1.2-2.2-.1-4.3-.6-6.4-1.3-2-.7-3.9-1.6-5.4-2.7-1.6-1.1-2.9-2.4-3.8-3.9-1-1.5-1.5-3.3-1.5-5.1 0-1.9.5-3.6 1.4-5.2.9-1.6 2.2-3 3.7-4.1 1.5-1.2 3.4-2.1 5.5-2.8 2.1-.7 4.3-1 6.6-1s4.6.3 6.6 1c2.1.7 3.9 1.6 5.5 2.8 1.6 1.2 2.8 2.6 3.7 4.1.9 1.6 1.4 3.3 1.4 5.2 0 .9-.3 1.7-1 2.3-.6.6-1.4 1-2.3 1-.9 0-1.7-.3-2.3-1-.6-.6-.9-1.5-1-2.5 0-.8-.3-1.5-.8-2.2-.6-.8-1.3-1.4-2.3-2-1-.6-2.1-1.1-3.4-1.5-1.3-.4-2.7-.5-4.2-.5s-2.9.2-4.3.5c-1.3.4-2.5.8-3.4 1.5-.9.6-1.7 1.3-2.2 2.2-.5.8-.8 1.6-.8 2.4 0 .8.3 1.5.9 2.2.7.8 1.6 1.4 2.6 2 1.1.6 2.3 1.1 3.6 1.5 1.3.4 2.5.7 3.6.8 2.4.3 4.7.8 6.9 1.7 2.2.9 4.1 2 5.7 3.3 1.6 1.4 2.9 3 3.9 4.8.9 1.8 1.4 3.9 1.4 6 0 2.2-.5 4.3-1.4 6.2-.9 1.9-2.3 3.6-4 5-1.7 1.4-3.6 2.5-5.8 3.3-2 1-4.4 1.4-6.9 1.4zM377.5 93.6c-.9 0-1.7-.3-2.3-1-.6-.6-1-1.4-1-2.3V45.6c0-.9.3-1.7 1-2.3.6-.6 1.4-1 2.3-1h27.3c.9 0 1.7.3 2.3 1 .6.6.9 1.4.9 2.3 0 .9-.3 1.7-.9 2.3-.6.6-1.4 1-2.3 1h-24v15.7h17c.9 0 1.7.3 2.3 1 .6.6 1 1.4 1 2.3 0 .9-.3 1.7-1 2.3-.6.6-1.4.9-2.3.9h-17v16h24c.9 0 1.7.3 2.3 1 .6.6.9 1.4.9 2.3 0 .9-.3 1.7-.9 2.3-.6.6-1.4 1-2.3 1h-27.3v-.1zM451.2 93.6c-.9 0-1.7-.3-2.3-.9-.6-.6-1-1.4-1-2.3V61.3c0-1.7-.3-3.2-1-4.7-.6-1.5-1.5-2.8-2.7-3.9-1.1-1.1-2.5-2-3.9-2.7-1.5-.6-3.1-1-4.7-1-1.7 0-3.3.3-4.7 1-1.5.6-2.8 1.5-3.9 2.7-1.1 1.1-2 2.5-2.6 3.9-.6 1.5-1 3.1-1 4.7v29.1c0 .9-.3 1.7-1 2.3-.6.6-1.4.9-2.3.9-.9 0-1.7-.3-2.3-.9-.6-.6-.9-1.4-.9-2.3V61.3c0-2.6.5-5 1.5-7.3s2.3-4.3 4-6c1.7-1.7 3.7-3.1 6-4 2.3-1 4.8-1.5 7.3-1.5 2.6 0 5 .5 7.3 1.5 2.2 1 4.3 2.3 6 4 1.7 1.7 3.1 3.7 4 6 1 2.3 1.5 4.8 1.5 7.3v29.1c0 .9-.3 1.7-.9 2.3-.7.6-1.5.9-2.4.9zM483.4 93.6c-2.5 0-4.9-.4-7.1-1.2-2.2-.8-4.2-1.9-5.8-3.4-1.7-1.4-3-3.1-4-5s-1.4-4-1.4-6.2c0-.8.3-1.6.9-2.2.6-.6 1.4-.9 2.2-.9.9 0 1.6.3 2.2.9.6.6.9 1.4.9 2.2 0 1.3.3 2.5.9 3.6.6 1.1 1.4 2.2 2.5 3 1.1.9 2.4 1.5 3.8 2.1 1.5.5 3.1.8 4.8.8 1.7 0 3.3-.3 4.8-.8s2.8-1.2 3.9-2.1c1.1-.8 2-1.9 2.6-3 .6-1.1.8-2.3.7-3.6-.1-1.2-.5-2.3-1.1-3.3-.7-1.1-1.5-2-2.6-2.9-1-.8-2.3-1.5-3.7-2.1-1.4-.6-2.8-1-4.4-1.2-2.2-.1-4.3-.6-6.3-1.3-2-.7-3.9-1.6-5.4-2.7-1.6-1.1-2.9-2.4-3.8-3.9-1-1.5-1.5-3.3-1.5-5.1 0-1.8.5-3.6 1.4-5.2.9-1.6 2.2-3 3.8-4.1 1.6-1.2 3.4-2.1 5.4-2.8 2.1-.7 4.3-1 6.6-1s4.6.3 6.6 1c2.1.7 3.9 1.6 5.5 2.8 1.6 1.2 2.8 2.6 3.7 4.1.9 1.6 1.4 3.4 1.4 5.2 0 .9-.3 1.7-1 2.3-.6.6-1.4 1-2.3 1-.9 0-1.7-.3-2.3-1-.6-.6-.9-1.5-.9-2.5 0-.8-.3-1.5-.8-2.2-.5-.8-1.3-1.4-2.3-2-1-.6-2.1-1.1-3.4-1.5-1.3-.4-2.7-.5-4.2-.5s-2.9.2-4.3.5c-1.3.4-2.5.8-3.4 1.5-.9.6-1.7 1.3-2.2 2.2-.5.8-.8 1.6-.8 2.4 0 .8.3 1.5.9 2.2.7.8 1.6 1.4 2.6 2 1.1.6 2.3 1.1 3.6 1.5 1.2.4 2.5.7 3.6.8 2.4.3 4.7.8 6.9 1.7 2.2.9 4.1 2 5.7 3.3 1.6 1.4 2.9 3 3.8 4.8.9 1.8 1.4 3.9 1.4 6 0 2.2-.5 4.3-1.4 6.2-.9 1.9-2.3 3.6-4 5-1.7 1.4-3.6 2.5-5.8 3.3-2 .9-4.4 1.3-6.9 1.3zM532.7 93.6c-.9 0-1.7-.3-2.3-.9-.6-.6-1-1.4-1-2.3V73.7l-20.2-26c-.5-.7-.8-1.5-.7-2.4.1-.9.5-1.6 1.2-2.2.6-.5 1.3-.7 2.1-.7 1.1.1 1.9.5 2.5 1.2l18.5 23.7 18.8-23.7c.6-.7 1.3-1.1 2.2-1.2h.1c1 0 1.7.2 2.3.7.7.6 1.1 1.3 1.2 2.2.1.9-.2 1.7-.7 2.4l-20.5 26v16.7c0 .9-.3 1.7-.9 2.3-.9.6-1.7.9-2.6.9zM581.9 93.6c-2.5 0-4.9-.4-7.1-1.2-2.2-.8-4.2-1.9-5.8-3.4-1.7-1.4-3-3.1-4-5s-1.4-4-1.4-6.2c0-.8.3-1.6.9-2.2.6-.6 1.4-.9 2.2-.9.8 0 1.6.3 2.2.9.6.6.9 1.4.9 2.2 0 1.3.3 2.5.9 3.6.6 1.1 1.4 2.1 2.5 3 1.1.8 2.4 1.5 3.8 2 1.5.5 3.1.8 4.8.8 1.7 0 3.3-.3 4.8-.8s2.8-1.2 3.9-2.1c1.1-.8 2-1.9 2.6-3 .6-1.1.8-2.3.7-3.6-.1-1.2-.5-2.3-1.1-3.3-.7-1.1-1.5-2-2.6-2.9-1-.8-2.3-1.5-3.7-2.1-1.4-.6-2.8-1-4.4-1.2-2.2-.1-4.3-.6-6.4-1.3-2-.7-3.9-1.6-5.4-2.7-1.6-1.1-2.9-2.4-3.8-3.9-1-1.5-1.5-3.3-1.5-5.1 0-1.8.5-3.6 1.4-5.2.9-1.6 2.2-3 3.8-4.1 1.5-1.2 3.4-2.1 5.4-2.8 2.1-.7 4.3-1 6.6-1s4.6.3 6.6 1c2.1.7 3.9 1.6 5.4 2.8 1.6 1.2 2.8 2.5 3.8 4.1.9 1.6 1.4 3.4 1.4 5.2 0 .9-.3 1.7-1 2.3-.6.6-1.4 1-2.3 1-.9 0-1.7-.3-2.3-1-.6-.6-.9-1.5-1-2.5 0-.8-.3-1.5-.8-2.2-.6-.8-1.3-1.4-2.3-2-1-.6-2.1-1.1-3.4-1.5-1.3-.4-2.7-.5-4.2-.5s-2.9.2-4.3.5c-1.3.4-2.5.8-3.4 1.5-.9.6-1.7 1.3-2.2 2.2-.5.8-.8 1.6-.8 2.4 0 .8.3 1.5.9 2.2.7.8 1.6 1.4 2.6 2 1.1.6 2.3 1.1 3.6 1.5 1.3.4 2.5.7 3.6.8 2.4.3 4.7.8 6.9 1.7 2.2.9 4.1 2 5.7 3.3 1.6 1.4 2.9 3 3.8 4.8.9 1.8 1.4 3.8 1.4 6s-.5 4.3-1.4 6.2c-.9 1.9-2.3 3.6-4 5-1.7 1.4-3.6 2.5-5.8 3.3-1.8 1-4.2 1.4-6.7 1.4z"/></g><defs><clipPath id="a"><path fill="#fff" d="M0 0h600v136H0z"/></clipPath></defs></svg>