<svg width="256" height="256" viewBox="0 0 256 256" fill="none" xmlns="http://www.w3.org/2000/svg"><g clip-path="url(#a)"><circle cx="127.998" cy="127.946" r="128.002" fill="#EDF0F2"/><path d="M209.259 226.845a127.998 127.998 0 0 1-162.406.094 128 128 0 0 1 20.74-211.846 128.003 128.003 0 0 1 141.551 13.859L183.325 60.45a87.273 87.273 0 1 0 .079 134.927l25.855 31.468z" fill="url(#b)"/><path d="M127.998 240.553c62.192 0 112.608-50.416 112.608-112.607 0-62.192-50.416-112.608-112.608-112.608-62.191 0-112.607 50.416-112.607 112.608 0 62.191 50.416 112.607 112.607 112.607z" fill="#fff"/><path d="m126.588 175.946-48.61-49.732 48.236 17.574 48.237-17.574-47.863 49.732z" fill="#657786"/><path fill-rule="evenodd" clip-rule="evenodd" d="m77.978 126.213 48.237-48.237 48.237 48.237-48.237 17.575-48.237-17.575zm13.835.375h20.94l13.835-13.835 13.836 13.835h20.566l-34.402-34.402-34.775 34.402z" fill="#283947"/></g><defs><linearGradient id="b" x1="95.998" y1="13.277" x2="136.136" y2="235.812" gradientUnits="userSpaceOnUse"><stop stop-color="#27D3A2"/><stop offset="1" stop-color="#9388FD"/></linearGradient><clipPath id="a"><path fill="#fff" d="M0 0h256v256H0z"/></clipPath></defs></svg>