<svg width="256" height="256" viewBox="0 0 256 256" fill="none" xmlns="http://www.w3.org/2000/svg"><g clip-path="url(#a)"><circle cx="127.998" cy="127.946" r="128.002" fill="#EDF0F2"/><path d="M209.259 226.845a127.998 127.998 0 0 1-162.406.094 128 128 0 0 1 20.74-211.846 128.003 128.003 0 0 1 141.551 13.859L183.325 60.45a87.273 87.273 0 1 0 .079 134.927l25.855 31.468z" fill="url(#b)"/><path d="M127.998 240.553c62.192 0 112.608-50.416 112.608-112.607 0-62.192-50.416-112.608-112.608-112.608-62.191 0-112.607 50.416-112.607 112.608 0 62.191 50.416 112.607 112.607 112.607z" fill="#fff"/><path d="M145.875 136.778c0-9.76-6.047-13.051-17.744-14.627-8.644-1.227-10.305-3.22-10.305-7.18 0-3.96 2.924-6.428 8.517-6.428 5.096 0 8.034 1.743 9.241 5.772.128.442.397.83.768 1.109s.823.433 1.29.439h4.471a2.013 2.013 0 0 0 1.544-.674 1.933 1.933 0 0 0 .458-1.599c-1.42-6.372-5.792-10.206-12.648-11.405v-6.72a2.07 2.07 0 0 0-.624-1.48 2.147 2.147 0 0 0-1.505-.612h-4.259c-.564 0-1.106.22-1.505.613a2.074 2.074 0 0 0-.624 1.478v6.484c-8.517 1.171-13.896 6.693-13.896 13.776 0 9.16 5.677 12.716 17.544 14.291 8.077 1.297 10.377 3.012 10.377 7.516 0 4.503-3.904 7.529-9.411 7.529-7.424 0-9.937-3.193-10.774-7.334a2.118 2.118 0 0 0-.738-1.213 2.18 2.18 0 0 0-1.349-.488h-4.855a2.004 2.004 0 0 0-1.524.685 1.94 1.94 0 0 0-.449 1.588c1.235 6.971 5.792 12.074 15.075 13.301v6.609c0 .555.225 1.087.624 1.479a2.15 2.15 0 0 0 1.505.613h4.259c.565 0 1.106-.221 1.505-.613.4-.392.624-.924.624-1.479v-6.609c8.801-1.366 14.408-7.334 14.408-14.821z" fill="#283947"/><path d="M113.633 166.817a42.086 42.086 0 0 1-20.076-15.289 41.489 41.489 0 0 1-7.607-23.93 41.494 41.494 0 0 1 7.607-23.931 42.09 42.09 0 0 1 20.076-15.289c.52-.226.966-.593 1.286-1.058a2.99 2.99 0 0 0 .525-1.572V81.85a1.955 1.955 0 0 0-.169-1.008 2.003 2.003 0 0 0-2.64-.982c-10.219 3.227-19.139 9.592-25.468 18.173a49.8 49.8 0 0 0-9.74 29.564 49.798 49.798 0 0 0 9.74 29.563c6.33 8.581 15.249 14.946 25.468 18.174a2.004 2.004 0 0 0 2.64-.982c.145-.316.203-.664.169-1.009v-3.897a2.99 2.99 0 0 0-.525-1.572 3.025 3.025 0 0 0-1.286-1.058zM142.609 79.86a2.013 2.013 0 0 0-1.984.193 1.966 1.966 0 0 0-.825 1.798v3.897a2.99 2.99 0 0 0 .525 1.572 3.03 3.03 0 0 0 1.287 1.058 42.094 42.094 0 0 1 20.075 15.289 41.492 41.492 0 0 1 7.607 23.931 41.486 41.486 0 0 1-7.607 23.93 42.09 42.09 0 0 1-20.075 15.289 2.803 2.803 0 0 0-1.323 1.033 2.766 2.766 0 0 0-.489 1.597v3.897a1.968 1.968 0 0 0 .825 1.798 2.008 2.008 0 0 0 1.984.193c10.22-3.228 19.139-9.593 25.468-18.174a49.798 49.798 0 0 0 9.74-29.563 49.8 49.8 0 0 0-9.74-29.564c-6.329-8.581-15.248-14.946-25.468-18.173z" fill="#657786"/></g><defs><linearGradient id="b" x1="95.998" y1="13.277" x2="136.136" y2="235.812" gradientUnits="userSpaceOnUse"><stop stop-color="#27D3A2"/><stop offset="1" stop-color="#9388FD"/></linearGradient><clipPath id="a"><path fill="#fff" d="M0 0h256v256H0z"/></clipPath></defs></svg>