<svg width="64" height="64" viewBox="0 0 64 64" fill="none" xmlns="http://www.w3.org/2000/svg"><g clip-path="url(#a)"><g filter="url(#b)"><circle cx="32.002" cy="31.998" r="30.229" transform="rotate(-5.658 32.002 31.998)" fill="#EDF0F2"/></g><path d="M51.193 55.355a30.229 30.229 0 1 1-.027-46.735l-6.097 7.438a20.61 20.61 0 1 0 .018 31.865l6.106 7.432z" fill="url(#c)"/><path d="M32.002 58.592c14.688 0 26.594-11.907 26.594-26.594 0-14.687-11.906-26.594-26.593-26.594-14.688 0-26.594 11.907-26.594 26.594 0 14.687 11.906 26.594 26.593 26.594z" fill="#fff"/><path d="M34.248 32.763v-.003c-.126.009-.778.047-2.227.047-1.16 0-1.973-.032-2.26-.047v.003c-4.458-.197-7.783-.971-7.783-1.902 0-.927 3.328-1.705 7.783-1.902v3.032c.29.02 1.127.07 2.28.07 1.385 0 2.078-.058 2.207-.07v-3.029c4.45.2 7.766.975 7.766 1.902 0 .928-3.32 1.702-7.766 1.902v-.003zm0-4.114v-2.712h6.207v-4.135H23.557v4.135h6.207v2.711c-5.045.232-8.837 1.23-8.837 2.428 0 1.197 3.795 2.195 8.837 2.43v8.692h4.487v-8.693c5.036-.231 8.822-1.23 8.822-2.427 0-1.194-3.786-2.195-8.822-2.427" fill="#283947"/></g><defs><linearGradient id="c" x1="24.445" y1="4.918" x2="33.924" y2="57.472" gradientUnits="userSpaceOnUse"><stop stop-color="#27D3A2"/><stop offset="1" stop-color="#9388FD"/></linearGradient><clipPath id="a"><path fill="#fff" d="M0 0h64v64H0z"/></clipPath><filter id="b" x="-3.06" y="-2.104" width="70.125" height="70.125" filterUnits="userSpaceOnUse" color-interpolation-filters="sRGB"><feFlood flood-opacity="0" result="BackgroundImageFix"/><feColorMatrix in="SourceAlpha" values="0 0 0 0 0 0 0 0 0 0 0 0 0 0 0 0 0 0 127 0"/><feOffset dy=".96"/><feGaussianBlur stdDeviation="1"/><feColorMatrix values="0 0 0 0 0 0 0 0 0 0 0 0 0 0 0 0 0 0 0.08 0"/><feBlend in2="BackgroundImageFix" result="effect1_dropShadow"/><feBlend in="SourceGraphic" in2="effect1_dropShadow" result="shape"/></filter></defs></svg>