<svg width="28" height="28" viewBox="0 0 28 28" xmlns="http://www.w3.org/2000/svg"><g fill="none" fill-rule="evenodd"><g><g><g><g fill-rule="nonzero"><g fill="#3AB03E"><g><path d="M0 14C0 6.268 6.268 0 14 0s14 6.268 14 14-6.268 14-14 14S0 21.732 0 14z"/></g></g><g fill="#FFF"><g><path d="M15.047 14.7c.36-.173.662-.443.874-.779.212-.335.324-.722.323-1.116 0-1.165-.956-2.109-2.134-2.109-1.179 0-2.135.944-2.135 2.109 0 .394.111.781.323 1.117.212.335.515.605.875.779v2.604h1.874V14.7zm-.937 6.05c-3.768 0-6.832-3.028-6.832-6.75s3.065-6.75 6.832-6.75c3.074 0 5.68 2.017 6.535 4.781H23C22.09 8.008 18.456 5 14.11 5 9.079 5 5 9.03 5 14s4.079 9 9.11 9c4.346 0 7.981-3.008 8.89-7.031h-2.355c-.855 2.765-3.46 4.781-6.535 4.781z"/></g></g></g></g></g></g></g></svg>