<svg xmlns="http://www.w3.org/2000/svg" viewBox="0 0 198 198"><defs><style>.cls-3{fill:#1682fe}.cls-4{fill:#ff5a5a}.cls-5{fill:#f4bb3b}</style></defs><g id="Layer_2" data-name="Layer 2"><g id="logo"><circle cx="99" cy="99" r="99" style="fill:#fff"/><path d="M156.83 85.66V59h-13.35V45.62h-26.69V32.28H90.1v13.34H63.42V59H50.07v80h13.34v13.35H90.1v13.34h26.68v-13.31h26.7V139h13.35v-26.66h-26.69v13.35h-13.35V139H90.1v-13.31H76.76V72.31H90.1V59h26.69v13.31h13.35v13.35z" style="fill:#3a3a3a"/><path class="cls-3" d="M121.24 72.32h8.9v13.34h-8.9zM107.89 58.97h8.9v13.34h-8.9zM81.21 32.28h8.9v13.34h-8.9z"/><path class="cls-4" d="M116.8 112.35h13.33v13.35H116.8z"/><path class="cls-4" d="M107.9 125.69h8.9v13.34h-8.9zM81.2 152.38h8.9v13.34h-8.9z"/><path class="cls-5" d="M54.51 139.03h8.9v13.34h-8.9zM41.17 99h8.9v40.03h-8.9z"/><path style="fill:#60d8a4" d="M41.17 58.97h8.9V99h-8.9z"/><path class="cls-3" d="M54.52 45.63h8.9v13.34h-8.9z"/></g></g></svg>