<svg width="256" height="256" viewBox="0 0 256 256" fill="none" xmlns="http://www.w3.org/2000/svg"><g clip-path="url(#a)"><circle cx="127.998" cy="127.946" r="128.002" fill="#EDF0F2"/><path d="M209.259 226.845a127.998 127.998 0 0 1-162.406.094 128 128 0 0 1 20.74-211.846 128.003 128.003 0 0 1 141.551 13.859L183.325 60.45a87.273 87.273 0 1 0 .079 134.927l25.855 31.468z" fill="url(#b)"/><path d="M127.998 240.553c62.192 0 112.608-50.416 112.608-112.607 0-62.192-50.416-112.608-112.608-112.608-62.191 0-112.607 50.416-112.607 112.608 0 62.191 50.416 112.607 112.607 112.607z" fill="#fff"/><path d="M128 187c32.585 0 59-26.415 59-59s-26.415-59-59-59-59 26.415-59 59 26.415 59 59 59z" fill="#fff"/><path d="M137.781 126.328c2.298-1.227 3.736-3.386 3.4-6.985-.453-4.917-4.506-6.566-9.622-7.035l-.001-6.821h-3.964l-.001 6.641c-1.043 0-2.107.022-3.165.044l-.001-6.684-3.96-.001-.001 6.819c-.859.019-1.701.036-2.525.036v-.02l-5.467-.002v4.433s2.928-.057 2.88-.001c1.605.001 2.129.977 2.279 1.82l.002 7.77v10.915c-.071.529-.368 1.374-1.491 1.375.051.047-2.883 0-2.883 0l-.787 4.958h5.158c.961.001 1.906.016 2.832.024l.004 6.898 3.959.001-.001-6.825c1.089.023 2.141.033 3.168.032l-.001 6.793h3.964l.002-6.886c6.664-.401 11.329-2.16 11.909-8.715.467-5.277-1.904-7.633-5.687-8.584zm-13.258-9.275c2.236 0 9.267-.746 9.268 4.146-.001 4.691-7.03 4.143-9.268 4.143v-8.289zm-.002 21.613.002-9.14c2.686 0 11.111-.809 11.112 4.568.002 5.157-8.426 4.57-11.114 4.572z" fill="#657786"/><circle cx="128" cy="128" r="38.816" stroke="#657786" stroke-width="6.211"/><circle cx="128" cy="128" r="51.237" stroke="#283947" stroke-width="6.211"/><path d="m156.91 159.829-13.317-13.122m-36.005-35.478-11.417-11.176m3.033 59.776 13.316-13.122m36.005-35.478 11.304-11.176" stroke="#fff" stroke-width="4.658"/></g><defs><linearGradient id="b" x1="95.998" y1="13.277" x2="136.136" y2="235.812" gradientUnits="userSpaceOnUse"><stop stop-color="#27D3A2"/><stop offset="1" stop-color="#9388FD"/></linearGradient><clipPath id="a"><path fill="#fff" d="M0 0h256v256H0z"/></clipPath></defs></svg>