<svg width="28" height="28" viewBox="0 0 28 28" xmlns="http://www.w3.org/2000/svg"><g fill="none" fill-rule="evenodd"><g><g><g fill-rule="nonzero"><circle fill="#199AFF" cx="14.015" cy="14" r="14"/><g fill="#FFF"><path d="M20.61 5.728a2.462 2.462 0 0 0-2.46-2.46 2.462 2.462 0 0 0-2.461 2.46v2.46h2.46a2.462 2.462 0 0 0 2.46-2.46"/><path d="M20.61 7.93v8.485a7.385 7.385 0 0 1-7.382 7.386 7.385 7.385 0 0 1-7.381-7.387 7.377 7.377 0 0 1 7.381-7.379h4.921a3.303 3.303 0 0 0 2.46-1.105m-9.841 8.484a2.462 2.462 0 0 0 2.46 2.46 2.462 2.462 0 0 0 2.46-2.46v-2.46h-2.46a2.462 2.462 0 0 0-2.46 2.46"/></g></g></g></g></g></svg>