<svg width="28" height="28" viewBox="0 0 28 28" xmlns="http://www.w3.org/2000/svg"><g fill="none" fill-rule="evenodd"><g><g><g fill-rule="nonzero"><circle fill="#131E33" cx="13.992" cy="13.992" r="13.992"/><path d="M13.992 27.186C6.705 27.186.798 21.279.798 13.992.798 6.705 6.705.798 13.992.798c7.287 0 13.194 5.907 13.194 13.194 0 7.287-5.907 13.194-13.194 13.194zm0-.25c7.15 0 12.945-5.795 12.945-12.944 0-7.149-5.796-12.945-12.945-12.945S1.047 6.843 1.047 13.992c0 7.15 5.796 12.945 12.945 12.945z" fill="#BF9E5B"/><path d="M13.992 26.69c-7.012 0-12.697-5.685-12.697-12.698 0-7.012 5.685-12.697 12.697-12.697 7.013 0 12.697 5.685 12.697 12.697 0 7.013-5.684 12.697-12.697 12.697zm0-.096c6.96 0 12.602-5.642 12.602-12.602S20.952 1.391 13.992 1.391 1.391 7.033 1.391 13.992c0 6.96 5.642 12.602 12.601 12.602z" fill="#BF9E5B"/><circle fill="#BF9E5B" cx="13.992" cy="13.992" r="8.442"/><path fill="#131E33" d="m13.992 7.884-6.108 6.108 2.22 2.222 3.888-3.888 3.887 3.888 2.222-2.222z"/><path fill="#BF9E5B" d="m10.877 16.769 3.115-3.116 3.116 3.116-3.116 3.115z"/><path d="m13.992 13.87 2.899 2.899-2.899 2.898-2.898-2.898 2.898-2.899zm0-.433-3.332 3.332 3.332 3.333 3.333-3.333-3.333-3.332z" fill="#121E33"/><path d="M13.992 25.297c-6.243 0-11.305-5.061-11.305-11.305 0-6.243 5.062-11.305 11.305-11.305 6.244 0 11.305 5.062 11.305 11.305 0 6.244-5.061 11.305-11.305 11.305zm0-.153c6.159 0 11.152-4.993 11.152-11.152 0-6.159-4.993-11.151-11.152-11.151-6.159 0-11.151 4.992-11.151 11.151s4.992 11.152 11.151 11.152z" fill="#BF9E5B"/></g></g></g></g></svg>