<svg width="28" height="28" viewBox="0 0 28 28" xmlns="http://www.w3.org/2000/svg"><g fill="none" fill-rule="evenodd"><g><g><g fill="#FFF" stroke="#2B60BF"><circle cx="14" cy="14" r="13.5"/></g><g fill="#2B60BF" fill-rule="nonzero"><g><path d="M14.19 5.209c-.494.256-1.163 1.22-1.163 1.685 0 .577.525 1.476 1.051 1.749.748.385 1.752.208 2.325-.45 1.338-1.492-.43-3.9-2.214-2.984zM6.577 7.279C5.446 7.872 5 8.61 5 9.879c0 .914.16 1.363.717 1.99.955 1.058 2.34 1.203 3.87.384.716-.385 1.194-.53 1.815-.53.797 0 .876.049 1.752.948.765.786.988.93 1.418.882.669-.064 1.178-.754 1.035-1.38-.175-.658-.876-.979-1.656-.754-1.004.273-1.864.048-2.437-.674a6.051 6.051 0 0 1-.78-1.364c-.59-1.605-1.53-2.375-2.931-2.359-.398 0-.94.112-1.226.257zM18.458 10.873c-.844.37-1.816 1.46-2.087 2.279-.127.353-.175 1.107-.143 1.717.08 1.316.669 2.247 1.88 3.017.7.433.987.497 1.926.497 3.281-.016 5.065-3.482 3.186-6.226-.972-1.428-3.17-2.022-4.762-1.284zM13.76 15.399c-.144.16-.447.545-.701.866-.24.305-.685.674-.972.787-.59.256-1.178.144-3.121-.578-1.545-.578-2.803-.129-3.6 1.252-1.035 1.845.35 4.284 2.453 4.284 1.45 0 2.437-.802 2.946-2.39.605-1.862 1.37-2.424 2.994-2.264 1.29.129 1.768-.144 1.768-.995 0-1.043-1.146-1.668-1.768-.962zM13.998 20.405c-.446.257-.987 1.172-.971 1.717 0 .53.637 1.397 1.242 1.685 1.242.594 2.596-.369 2.596-1.861 0-.915-.86-1.797-1.784-1.781-.35 0-.844.112-1.083.24z"/></g></g></g></g></g></svg>