<svg width="28" height="28" viewBox="0 0 28 28" xmlns="http://www.w3.org/2000/svg"><defs><linearGradient x1="62.223%" y1="55.576%" x2="116.048%" y2="80.133%" id="c"><stop stop-color="#9634D6" offset="0%"/><stop stop-color="#BF43DD" offset="100%"/></linearGradient><linearGradient x1="64.212%" y1="51.107%" x2="99.694%" y2="76.433%" id="d"><stop stop-color="#9634D6" offset="0%"/><stop stop-color="#BF43DD" offset="100%"/></linearGradient><linearGradient x1="3.949%" y1="24.534%" x2="87.711%" y2="95.771%" id="e"><stop stop-color="#BF43DD" offset="0%"/><stop stop-color="#8669E1" offset="50%"/><stop stop-color="#00FFF3" offset="100%"/></linearGradient><linearGradient x1="17.01%" y1="49.752%" x2="91.761%" y2="74.371%" id="f"><stop stop-color="#BF43DD" offset="0%"/><stop stop-color="#8669E1" offset="51%"/><stop stop-color="#04A7F1" offset="100%"/></linearGradient><linearGradient x1="13.961%" y1="5.631%" x2="79.066%" y2="124.067%" id="g"><stop stop-color="#BF43DD" offset="0%"/><stop stop-color="#8669E1" offset="51%"/><stop stop-color="#04A7F1" offset="100%"/></linearGradient><linearGradient x1="82.06%" y1="79.456%" x2="57.481%" y2="50.69%" id="h"><stop stop-color="#FFF" offset="0%"/><stop stop-color="#00FFF3" offset="100%"/></linearGradient><linearGradient x1=".26%" y1="97.957%" x2="62.604%" y2="16.348%" id="i"><stop stop-color="#FFF" stop-opacity="0" offset="0%"/><stop stop-color="#FFF" offset="83%"/></linearGradient><linearGradient x1="55.714%" y1="65.73%" x2="46.906%" y2="32.945%" id="j"><stop stop-color="#FFF" stop-opacity="0" offset="0%"/><stop stop-color="#FFF" offset="100%"/></linearGradient><radialGradient cx="19.735%" cy="16.049%" fx="19.735%" fy="16.049%" r="55.542%" id="a"><stop stop-color="#00FAFF" offset="0%"/><stop stop-color="#00FAFF" offset="39%"/><stop stop-color="#C864E9" offset="85%"/></radialGradient><radialGradient cx="49.753%" cy="45.902%" fx="49.753%" fy="45.902%" r="57.872%" gradientTransform="matrix(.78896 0 0 1 .105 0)" id="b"><stop stop-color="#0FF" offset="50%"/><stop stop-color="#00F4FF" stop-opacity="0" offset="100%"/></radialGradient></defs><g fill="none" fill-rule="evenodd"><g><path d="M0 0h28v28H0z"/><g transform="translate(1.5 1)" fill-rule="nonzero"><circle fill="url(#a)" cx="13.009" cy="13.009" r="13.009"/><path d="M21.927 9.854c1.598 1.921 2.725 4.225 2.725 6.843 0 5.763-4.978 10.432-11.118 10.432-6.14 0-11.118-4.67-11.118-10.432 0-5.762 3.391-5.011 9.533-5.011 3.35 0 9.01-2.994 9.978-1.832z" fill="url(#b)"/><path d="m4.27 15.972-1.337-2.166c1.445 5.007 3.45 6.307 5.213 7.479-2.108-2.172-3.877-5.313-3.877-5.313z" fill="url(#c)"/><path d="m22.243 9.663-.013-.168h-2.128l2.144-1.831-.003-.09c-.09-2.117-1.064-3.481-1.094-3.538l-.05-.098H9.59c-1.087 0-2.58.258-4.13 1.992-.88.983-2.495 3.076-2.646 5.492-.115 1.43.073 2.7.614 3.946.255.598.561 1.173.914 1.72 1.092 1.958 2.282 3.322 3.538 4.053 1.063.618 2.004.701 2.785.701h6.522l.04-.02a84.73 84.73 0 0 0 4.081-2.298l.056-.034.021-.06a.783.783 0 0 1 .021-.054c.013-.033.029-.07.042-.114.237-.68.435-2.14.531-2.949.039-.294.061-.487.061-.491l.024-.202h-.008l.016-.164h-2.278l2.44-1.848.007-.08c.152-1.794.005-3.844.002-3.865z" fill="url(#d)"/><path d="M12.656 17.78s-2.158.205-8.514-1.455c2.594 5.06 5.022 5.335 6.83 5.335h6.17s2.127-1.111 4.071-2.292l-8.557-1.589z" fill="#FFF"/><path d="M10.973 21.483c-.78 0-1.873.007-2.959-.7-1.887-1.23-2.51-2.2-3.588-4.232 4.847 1.245 7.171 1.382 7.954 1.382a3.9 3.9 0 0 0 .268-.007l8.372 1.356c-1.716 1.025-3.74 2.079-3.973 2.201h-6.074z" fill="url(#e)"/><path d="M8.654 15.801s-1.042-1.206-1.406-2.125l11.79 2.125 3.024-2.288c-.004-1.877-.012-3.673-.012-3.673H7.248s.523-1.499 1.466-2.095L19.511 9.76l2.546-2.18c-.103-2.05-1.085-3.3-1.085-3.3H9.58c-.995 0-3.027.22-4.557 1.933-1.53 1.712-2.897 5.526-1.428 9.08 1.49 3.61 3.426 4.074 4.52 4.074h13.1c.018-.053.044-.101.06-.163.316-1.066.586-3.404.586-3.404H8.654z" fill="#FFF"/><path d="M11.805 5.488s-4.256.83-4.463.934c-.208.104-1.038 3.842-1.038 3.842h12.36l3.169-2.68-10.028-2.096z" fill="url(#f)"/><path d="M11.808 11.42s-4.255.83-4.463.934c-.207.104-1.038 3.841-1.038 3.841h11.904l3.638-2.749-10.041-2.026z" fill="url(#g)"/><path fill="#BD15D4" d="m6.235 8.256-.277 2.629 2.768.138v-3.84z"/><path d="M22.062 13.513H7.26c.363.916 1.406 2.125 1.406 2.125h13.205s-.26 2.607-.596 3.567H8.512c-1.626 0-3.375-.545-4.906-4.074-1.531-3.528-.104-7.37 1.427-9.08 1.53-1.711 3.563-1.933 4.556-1.933h11.396s.987 1.361 1.072 3.463H8.726c-.943.597-1.466 2.096-1.466 2.096h14.802s.15 2.035 0 3.836z" fill="url(#h)"/><path d="M4.367 6.595c-.71 1.47-1.494 3.663-.902 5.83.327-1.624.856-3.752 2.884-6.171l.474-1.613s-1.747.484-2.456 1.954z" fill="url(#i)"/><path d="M19.42 3.185s-.926-.72-2.642-1.289C14.08 1.003 9.642.481 5.408 3.701c-1.91 1.452-2.83 3.316-3.312 4.85-1.266 4.027 1.109 7.421 1.109 7.421s-1.901-4.66 1.231-8.455A11.49 11.49 0 0 1 5.768 6.16c1.168.934 3.198 1.019 4.37.07 1.136-.92.523-2.151.148-2.706 2.883-1.07 6.173-1.332 9.133-.338z" fill="url(#j)"/><path d="m5.137 17.8-1.355-2.073c1.1 2.74 2.608 4.012 3.041 4.381C5.37 18.714 5.137 17.8 5.137 17.8z" fill="#FFF"/></g></g></g></svg>