<svg width="1080" height="271" viewBox="0 0 1080 271" fill="none" xmlns="http://www.w3.org/2000/svg"><g clip-path="url(#a)"><path d="M306.2 155.7a3.56 3.56 0 0 1-3.6 3.5h-66.3c1.7 16.4 14 31.4 31.4 31.4 11.9 0 20.7-4.5 27.3-14a3.582 3.582 0 0 1 2.9-1.7 3.205 3.205 0 0 1 2.361.939 3.204 3.204 0 0 1 .939 2.361 3.1 3.1 0 0 1-.5 1.7c-6.7 11.6-20 17.3-33 17.3-22.3 0-38.3-20-38.3-41.3 0-21.3 15.9-41.3 38.3-41.3s38.4 19.8 38.5 41.1zm-7.1-3.1c-1.4-16.4-14-31.4-31.4-31.4s-29.7 15-31.4 31.4h62.8zM386.8 116.2a3.404 3.404 0 0 1 2.306.994c.613.614.969 1.439.994 2.306a3.205 3.205 0 0 1-.939 2.361 3.204 3.204 0 0 1-2.361.939H369v69.9a3.331 3.331 0 0 1-3.3 3.3 3.404 3.404 0 0 1-2.306-.994 3.404 3.404 0 0 1-.994-2.306v-69.9h-17.1a3.205 3.205 0 0 1-2.361-.939A3.204 3.204 0 0 1 342 119.5a3.331 3.331 0 0 1 3.3-3.3h17.1V90.7a3.552 3.552 0 0 1 3-3.5 3.268 3.268 0 0 1 3.7 3.3v25.7h17.7zM495.3 150v42.3a3.404 3.404 0 0 1-.994 2.306 3.404 3.404 0 0 1-2.306.994 3.205 3.205 0 0 1-2.361-.939 3.204 3.204 0 0 1-.939-2.361V150c0-14.3-8.1-28.5-24-28.5-20.4 0-29.2 17.8-28 36.1 0 .5.2 2.6.2 2.9v31.7a3.55 3.55 0 0 1-3 3.5 3.273 3.273 0 0 1-3.7-3.3V53.3a3.331 3.331 0 0 1 3.3-3.3 3.403 3.403 0 0 1 3.3 3.3v78.6c5.7-10.2 15.9-17.1 27.8-17.1 19.6 0 30.7 17.1 30.7 35.2zM614.4 155.7a3.56 3.56 0 0 1-3.6 3.5h-66.3c1.7 16.4 14 31.4 31.4 31.4 11.9 0 20.7-4.5 27.3-14a3.582 3.582 0 0 1 2.9-1.7 3.205 3.205 0 0 1 2.361.939 3.204 3.204 0 0 1 .939 2.361 3.1 3.1 0 0 1-.5 1.7c-6.7 11.6-20 17.3-33 17.3-22.3 0-38.3-20-38.3-41.3 0-21.3 15.9-41.3 38.3-41.3 22.2 0 38.4 19.8 38.5 41.1zm-7.2-3.1c-1.4-16.4-14-31.4-31.4-31.4s-29.7 15-31.4 31.4h62.8zM695.9 119.3a3.37 3.37 0 0 1-3.1 3.6c-19.5 2.9-28.3 18.8-28.3 37.3v31.7a3.55 3.55 0 0 1-3 3.5 3.273 3.273 0 0 1-3.7-3.3v-72.3a3.55 3.55 0 0 1 3-3.5 3.273 3.273 0 0 1 3.7 3.3v14.7c5.5-9.3 16.4-18.1 27.8-18.1 1.7 0 3.6 1.2 3.6 3.1zM804.9 155.7a3.56 3.56 0 0 1-3.6 3.5H735c1.7 16.4 14 31.4 31.4 31.4 11.9 0 20.7-4.5 27.3-14a3.582 3.582 0 0 1 2.9-1.7 3.205 3.205 0 0 1 2.361.939 3.204 3.204 0 0 1 .939 2.361 3.1 3.1 0 0 1-.5 1.7c-6.7 11.6-20 17.3-33 17.3-22.3 0-38.3-20-38.3-41.3 0-21.3 15.9-41.3 38.3-41.3s38.4 19.8 38.5 41.1zm-7.1-3.1c-1.4-16.4-14-31.4-31.4-31.4s-29.7 15-31.4 31.4h62.8zM912.1 120.1v72.6a3.404 3.404 0 0 1-.994 2.306 3.404 3.404 0 0 1-2.306.994 3.205 3.205 0 0 1-2.361-.939 3.204 3.204 0 0 1-.939-2.361v-13.8c-5.5 10.9-15.2 18.8-27.6 18.8-19.7 0-30.6-17.1-30.6-35.2V120a3.331 3.331 0 0 1 3.3-3.3 3.404 3.404 0 0 1 2.306.994c.613.614.969 1.439.994 2.306v42.5c0 14.3 8.1 28.5 24 28.5 22.3 0 27.6-20.9 27.6-44v-27.1a3.346 3.346 0 0 1 1.449-2.712A3.344 3.344 0 0 1 910 116.8c.629.292 1.16.758 1.532 1.343a3.62 3.62 0 0 1 .568 1.957zM1080 149.7v42.5a3.436 3.436 0 0 1-.99 2.306 3.42 3.42 0 0 1-2.31.994c-.44.012-.87-.064-1.28-.226-.4-.161-.77-.404-1.08-.713a3.167 3.167 0 0 1-.71-1.084c-.17-.406-.24-.84-.23-1.277v-42.5c0-14.3-8.1-28.3-24-28.3-20 0-27.6 21.4-27.6 38v32.8a3.436 3.436 0 0 1-.99 2.306 3.42 3.42 0 0 1-2.31.994c-.44.012-.87-.064-1.28-.226-.4-.161-.77-.404-1.08-.713a3.167 3.167 0 0 1-.71-1.084c-.17-.406-.24-.84-.23-1.277v-42.5c0-14.3-8.1-28.3-24-28.3-20.2 0-28.5 15.9-27.8 37.1 0 .5.2 1.4 0 1.7v31.9a3.55 3.55 0 0 1-3 3.5 3.273 3.273 0 0 1-3.7-3.3v-72.5a3.55 3.55 0 0 1 3-3.5 3.273 3.273 0 0 1 3.7 3.3v12.1c5.7-10.2 15.9-16.9 27.8-16.9 13.5 0 24 8.6 28.3 21.1 5.5-12.4 16.2-21.1 29.9-21.1 19.5 0 30.6 16.9 30.6 34.9z" fill="#fff"/><path opacity=".6" d="M83 100.1 0 137.8l83 49.1 83.1-49.1L83 100.1z" fill="#000"/><path opacity=".45" d="m0 137.8 83 49.1V0L0 137.8z" fill="#fff"/><path opacity=".8" d="M83 0v186.9l83.1-49.1L83 0z" fill="#fff"/><path opacity=".45" d="m0 153.6 83 117v-68l-83-49z" fill="#DEDEDE"/><path opacity=".8" d="M83 202.6v68l83.1-117-83.1 49z" fill="#fff"/></g><defs><clipPath id="a"><path fill="#fff" d="M0 0h1080v270.6H0z"/></clipPath></defs></svg>