<svg width="880" height="880" viewBox="0 0 880 880" fill="none" xmlns="http://www.w3.org/2000/svg"><circle cx="440" cy="440" r="440" fill="#fff"/><path d="M508.665 129.739 161.812 284.168c-31.929 14.216-46.288 51.623-32.073 83.551 14.216 31.929 51.623 46.288 83.551 32.072l346.853-154.428c31.929-14.216 46.288-51.623 32.073-83.551-14.216-31.929-51.623-46.288-83.551-32.073z" fill="#37BEC1"/><path d="M412.453 380.381 181.215 483.334c-31.929 14.216-46.288 51.623-32.072 83.551 14.215 31.929 51.622 46.288 83.551 32.073l231.238-102.954c31.928-14.216 46.287-51.623 32.072-83.551-14.216-31.929-51.623-46.288-83.551-32.072z" fill="#FBB144"/><path d="M663.095 476.592 316.242 631.021c-31.928 14.216-46.287 51.623-32.072 83.551 14.216 31.929 51.623 46.288 83.551 32.072l346.853-154.428c31.928-14.216 46.288-51.623 32.072-83.551-14.215-31.929-51.622-46.288-83.551-32.073z" fill="#E4615E"/></svg>