<svg width="48" height="48" viewBox="0 0 48 48" fill="none" xmlns="http://www.w3.org/2000/svg"><g clip-path="url(#a)"><rect width="48" height="48" rx="24" fill="#F5F7FA"/><path fill-rule="evenodd" clip-rule="evenodd" d="m-4 24 9 19 19 8.5L43 43l8.5-19L43 5 24-4 5 5l-9 19z" fill="#EDEDED"/><path d="M28.089 6.86c.422-.467 1.009-1.508 1.009-1.791 0-.083.029-.09.094-.024.18.182.293 1.306.196 1.964-.278 1.89-1.425 3.022-4.973 4.909-.55.293-1.013.542-1.03.555-.016.013.332.026.773.029.872.005 1.347.08 2.394.373.906.254 1.744.323 2.404.199.298-.056.573-.07.613-.03.119.12-.377.73-.876 1.077-.723.503-1.56.75-3.237.958-1.587.197-2.173.323-3.268.707-1.639.572-2.867 1.293-3.878 2.273-.623.604-.623.604-.24.472 1-.343 2.871-.405 4.209-.139.707.142 1.784.12 2.318-.044.25-.078.507-.141.57-.142.192-.002-.192.645-.63 1.063-.685.653-1.39.969-3.16 1.416-1.498.38-2.498.98-3.332 2-1.11 1.36-1.73 3.162-1.812 5.28-.022.565-.02.944.005.843l.148-.596c.113-.453.45-1.185.732-1.59.318-.455.267-.197-.057.29-.244.365-.328.603-.377 1.072-.036.332-.04.627-.012.656.142.144.314-.088.367-.498.033-.248.125-.696.205-.994.08-.299.158-.646.174-.772.034-.28.844-1.037 1.51-1.414.409-.231.462-.243.414-.091-.031.095-.216.628-.412 1.183-.524 1.49-.689 2.553-.623 4.027.08 1.832.472 3.36 1.318 5.145.426.9.426.9.432-.555.005-1.388.02-1.498.3-2.351.161-.492.329-.895.372-.895.043 0 .104.361.134.803.157 2.29.802 3.98 2.092 5.484.314.366.314.366.23 0-.138-.605-.078-2.25.083-2.247.031 0 .28.445.555.987.418.827.623 1.111 1.273 1.766.845.852 1.543 1.264 2.82 1.663.975.306 2.492.307 3.455.004 1.293-.407 2.917-1.493 4.277-2.86 1.184-1.19 1.765-1.97 2.397-3.213.937-1.846 1.328-3.439 1.325-5.406-.002-1.285-.138-2.084-.491-2.882-.283-.64-.294-.966-.051-1.447.211-.419.386-.459.596-.136.194.3.286.703.449 1.972.25 1.955.125 4.09-.331 5.64-.884 3.003-3.027 5.808-5.853 7.665-.455.299-.455.299.09-.19 1.111-.998 1.246-1.174.32-.417-.526.428-.956.835-.957.905-.002.07-.076.112-.169.096-.091-.016-.141.011-.111.06.081.134-1.754 1.047-2.88 1.434-.54.186-1.555.457-2.256.602-1.078.224-1.525.269-2.884.288-1.719.024-2.5-.06-4.109-.446-2.319-.555-4.323-1.42-5.876-2.535-4.908-3.523-7.388-8.917-6.762-14.705.05-.454.13-.991.177-1.193.049-.202.155-.657.237-1.01.492-2.12 1.739-4.395 3.472-6.335 1.487-1.665 2.496-2.543 4.805-4.18 1.87-1.327 2.596-1.93 3.145-2.61.495-.614 1.126-1.81 1.219-2.306.13-.696.474.025.557 1.166.058.798-.072 1.494-.387 2.078-.116.215-.203.39-.193.39.01 0 .63-.223 1.38-.496 3.496-1.271 4.576-1.843 5.582-2.954z" fill="#1E1E1E"/></g><defs><clipPath id="a"><rect width="48" height="48" rx="24" fill="#fff"/></clipPath></defs></svg>