<svg width="600" height="200" viewBox="0 0 600 200" fill="none" xmlns="http://www.w3.org/2000/svg"><g clip-path="url(#a)"><path d="M128.893 125.222V74.27h25.564c9.928 0 15.967-3.012 17.412-3.826v15.607h-28.651v12.202h26.867v11.916h-26.457v15.053h-14.735z" fill="url(#b)"/><path d="M255.512 126.411c-10.535 0-17.599-2.083-21.596-6.365-3.023-3.254-4.317-7.705-3.942-13.623h14.325c-.205 2.995.304 5.051 1.597 6.454 1.623 1.788 4.46 2.521 9.616 2.521 6.583 0 9.401-1.475 9.401-4.934 0-3.987-6.074-4.944-11.426-5.784-.946-.152-1.873-.295-2.748-.456-10.704-1.904-20.346-4.523-20.346-15.464 0-10.03 8.92-15.786 24.378-15.786 17.127 0 22.559 8.045 24.084 11.62l-8.26 11.71c0-.268-.089-.527-.142-.786-1.784-8.34-10.936-11.451-16.297-11.451-5.691 0-8.581 1.332-8.581 3.96 0 3.182 3.826 3.924 9.125 4.952l3.167.626c4.834.992 9.348 2.297 11.595 2.985.357.108 1.784.653 2.097.814 6.172 2.681 8.92 6.561 8.92 12.514-.018 14.347-15.655 16.493-24.967 16.493z" fill="url(#c)"/><path d="m378.215 125.222-22.728-31.018v.688c.169 2.843.249 5.694.249 8.939v21.391h-13.888V74.27h14.593l22.719 30.634v-.662c-.16-3.263-.249-6.356-.249-9.207V74.198h13.888v50.952l-14.584.072z" fill="url(#d)"/><path d="m323.865 125.222-3.015-7.5h-22.496l-2.925 7.5H280.88l20.846-50.952h16.332l20.918 50.952h-15.111zm-21.158-18.557h13.862l-7.065-17.807-6.797 17.807z" fill="url(#e)"/><path d="m438.005 125.222-3.015-7.5h-22.496l-2.854 7.5h-14.7l20.926-50.952h16.333l20.917 50.952h-15.111zm-21.274-18.557h13.951l-7.065-17.807-6.886 17.807z" fill="url(#f)"/><path d="m548.898 125.222-3.014-7.5h-22.506l-3.023 7.5h-14.531l20.837-50.952h16.422L564 125.222h-15.102zm-21.363-18.557h14.031l-7.064-17.878-6.967 17.878zm-37.357 18.557-9.607-17.735h-11.06v17.735h-14.272v-36.65c0-8.045-3.158-13.068-4.059-14.302h27.964c15.806 0 23.496 5.292 23.496 16.197 0 13.677-16.476 16.43-19.776 16.85h-.089v.393h12.844l9.643 17.512h-15.084zm-20.667-27.934h7.938c5.906 0 9.117-1.413 9.928-4.407a6.59 6.59 0 0 0 .206-1.672 5.073 5.073 0 0 0-.709-2.681 5.046 5.046 0 0 0-2.012-1.904 14.043 14.043 0 0 0-6.842-1.413h-8.509v12.077z" fill="url(#g)"/><path d="m214.614 125.222-3.096-7.5h-22.416l-2.934 7.5h-14.7l20.917-50.952h16.422l20.837 50.952h-15.03zm-21.275-18.557h13.862l-7.073-17.807-6.789 17.807z" fill="url(#h)"/><path d="M93.15 141.374c-23.254-16.742-26.073-52.006-2.337-69.473-8.215.376-13.505 2.932-14.86 3.719-7.368 11.45-9.072 26.691-4.612 39.769a50.531 50.531 0 0 0 11.584 18.942A50.392 50.392 0 0 0 101.5 146.46a47.952 47.952 0 0 1-8.349-5.086z" fill="url(#i)"/><path d="M83.561 118.839c-1.596-5.747-1.962-13.667.34-20.416h-5.594c-1.275 11.039 2.293 23.581 9.429 30.866a42.143 42.143 0 0 1-4.175-10.45z" fill="url(#j)"/><path d="M74.66 39.873C41.351 64.17 37.266 114.54 66.122 143.734c23.192 24.966 64.67 28.023 91.162 6.794-39.248 27.996-96.675 4.809-102.633-43.89-4.862-35.255 23.361-68.66 59.389-67.516l9.107-12.782a69.763 69.763 0 0 0-48.489 13.533z" fill="url(#k)"/><path d="M112.221 41.697c-28.231.241-52.405 23.75-53.966 51.845-3.63 37.284 33.084 69.482 69.46 62.313-36.66 5.113-71.922-31.286-60.897-67.756 4.594-16.984 19.027-30.813 36.376-33.638l9.027-12.764z" fill="url(#l)"/><path d="M176.739 138.514c-41.522 58.299-133.148 29.99-133.674-42.013 0-22.615 11.007-44.74 29.24-58.103v-11.79C31.271 53.255 23.377 112.42 57.06 148.177c33.798 36.479 91.394 31.795 120.304-8.179l-.625-1.484z" fill="url(#m)"/></g><defs><linearGradient id="b" x1="146.171" y1="45.818" x2="159.822" y2="213.73" gradientUnits="userSpaceOnUse"><stop stop-color="#828487"/><stop offset=".26" stop-color="#C0C2C3"/><stop offset=".32" stop-color="#E1E2E3"/><stop offset=".37" stop-color="#fff"/><stop offset=".41" stop-color="#B2B2B2"/><stop offset=".45" stop-color="#737373"/><stop offset=".73" stop-color="#B2B2B2"/><stop offset="1" stop-color="#96989B"/></linearGradient><linearGradient id="c" x1="249.58" y1="37.415" x2="263.222" y2="205.327" gradientUnits="userSpaceOnUse"><stop stop-color="#828487"/><stop offset=".26" stop-color="#C0C2C3"/><stop offset=".32" stop-color="#E1E2E3"/><stop offset=".37" stop-color="#fff"/><stop offset=".41" stop-color="#B2B2B2"/><stop offset=".45" stop-color="#737373"/><stop offset=".73" stop-color="#B2B2B2"/><stop offset="1" stop-color="#96989B"/></linearGradient><linearGradient id="d" x1="361.552" y1="28.315" x2="375.195" y2="196.228" gradientUnits="userSpaceOnUse"><stop stop-color="#828487"/><stop offset=".26" stop-color="#C0C2C3"/><stop offset=".32" stop-color="#E1E2E3"/><stop offset=".37" stop-color="#fff"/><stop offset=".41" stop-color="#B2B2B2"/><stop offset=".45" stop-color="#737373"/><stop offset=".73" stop-color="#B2B2B2"/><stop offset="1" stop-color="#96989B"/></linearGradient><linearGradient id="e" x1="302.484" y1="33.115" x2="316.127" y2="201.028" gradientUnits="userSpaceOnUse"><stop stop-color="#828487"/><stop offset=".26" stop-color="#C0C2C3"/><stop offset=".32" stop-color="#E1E2E3"/><stop offset=".37" stop-color="#fff"/><stop offset=".41" stop-color="#B2B2B2"/><stop offset=".45" stop-color="#737373"/><stop offset=".73" stop-color="#B2B2B2"/><stop offset="1" stop-color="#96989B"/></linearGradient><linearGradient id="f" x1="415.839" y1="23.908" x2="429.482" y2="191.821" gradientUnits="userSpaceOnUse"><stop stop-color="#828487"/><stop offset=".26" stop-color="#C0C2C3"/><stop offset=".32" stop-color="#E1E2E3"/><stop offset=".37" stop-color="#fff"/><stop offset=".41" stop-color="#B2B2B2"/><stop offset=".45" stop-color="#737373"/><stop offset=".73" stop-color="#B2B2B2"/><stop offset="1" stop-color="#96989B"/></linearGradient><linearGradient id="g" x1="500.873" y1="16.998" x2="514.516" y2="184.911" gradientUnits="userSpaceOnUse"><stop stop-color="#828487"/><stop offset=".26" stop-color="#C0C2C3"/><stop offset=".32" stop-color="#E1E2E3"/><stop offset=".37" stop-color="#fff"/><stop offset=".41" stop-color="#B2B2B2"/><stop offset=".45" stop-color="#737373"/><stop offset=".73" stop-color="#B2B2B2"/><stop offset="1" stop-color="#96989B"/></linearGradient><linearGradient id="h" x1="193.821" y1="41.947" x2="207.464" y2="209.859" gradientUnits="userSpaceOnUse"><stop stop-color="#828487"/><stop offset=".26" stop-color="#C0C2C3"/><stop offset=".32" stop-color="#E1E2E3"/><stop offset=".37" stop-color="#fff"/><stop offset=".41" stop-color="#B2B2B2"/><stop offset=".45" stop-color="#737373"/><stop offset=".73" stop-color="#B2B2B2"/><stop offset="1" stop-color="#96989B"/></linearGradient><linearGradient id="i" x1="79.28" y1="51.261" x2="92.922" y2="219.156" gradientUnits="userSpaceOnUse"><stop stop-color="#828487"/><stop offset=".26" stop-color="#C0C2C3"/><stop offset=".32" stop-color="#E1E2E3"/><stop offset=".37" stop-color="#fff"/><stop offset=".41" stop-color="#B2B2B2"/><stop offset=".45" stop-color="#737373"/><stop offset=".73" stop-color="#B2B2B2"/><stop offset="1" stop-color="#96989B"/></linearGradient><linearGradient id="j" x1="77.549" y1="50.895" x2="91.335" y2="220.577" gradientUnits="userSpaceOnUse"><stop stop-color="#828487"/><stop offset=".26" stop-color="#C0C2C3"/><stop offset=".32" stop-color="#E1E2E3"/><stop offset=".37" stop-color="#fff"/><stop offset=".41" stop-color="#B2B2B2"/><stop offset=".45" stop-color="#737373"/><stop offset=".73" stop-color="#B2B2B2"/><stop offset="1" stop-color="#96989B"/></linearGradient><linearGradient id="k" x1="96.022" y1="49.876" x2="109.656" y2="217.681" gradientUnits="userSpaceOnUse"><stop stop-color="#828487"/><stop offset=".26" stop-color="#C0C2C3"/><stop offset=".32" stop-color="#E1E2E3"/><stop offset=".37" stop-color="#fff"/><stop offset=".41" stop-color="#B2B2B2"/><stop offset=".45" stop-color="#737373"/><stop offset=".73" stop-color="#B2B2B2"/><stop offset="1" stop-color="#96989B"/></linearGradient><linearGradient id="l" x1="86.63" y1="51.279" x2="100.209" y2="218.405" gradientUnits="userSpaceOnUse"><stop stop-color="#828487"/><stop offset=".26" stop-color="#C0C2C3"/><stop offset=".32" stop-color="#E1E2E3"/><stop offset=".37" stop-color="#fff"/><stop offset=".41" stop-color="#B2B2B2"/><stop offset=".45" stop-color="#737373"/><stop offset=".73" stop-color="#B2B2B2"/><stop offset="1" stop-color="#96989B"/></linearGradient><linearGradient id="m" x1="101.062" y1="49.465" x2="114.696" y2="217.234" gradientUnits="userSpaceOnUse"><stop stop-color="#828487"/><stop offset=".26" stop-color="#C0C2C3"/><stop offset=".32" stop-color="#E1E2E3"/><stop offset=".37" stop-color="#fff"/><stop offset=".41" stop-color="#B2B2B2"/><stop offset=".45" stop-color="#737373"/><stop offset=".73" stop-color="#B2B2B2"/><stop offset="1" stop-color="#96989B"/></linearGradient><clipPath id="a"><path fill="#fff" transform="translate(36 26)" d="M0 0h528v147H0z"/></clipPath></defs></svg>