<svg xmlns="http://www.w3.org/2000/svg" width="560" height="560" viewBox="0 0 560 560"><defs><linearGradient id="a" x1="0%" y1="0%" y2="100%"><stop offset="0%" stop-color="#A0F"/><stop offset="100%" stop-color="#50F"/></linearGradient></defs><g fill="none" fill-rule="evenodd"><circle cx="280" cy="280" r="280" fill="url(#a)"/><path fill="#FFF" d="M245 187v61c0 4.022 3.742 7 7 7h96c3.258 0 7 3.018 7 7v26c0 3.258-3.018 7-7 7h-96c-3.258 0-7 3.701-7 7v142c-.032 5.375-2.976 8.258-7 6l-28-20c-3.3-2.002-5-4.018-5-8V302c0-3.299-3.782-7-7-7h-46c-4.028 0-7-3.742-7-7v-26c0-3.901 2.972-7 7-7h46c3.218 0 7-2.978 7-7V147c0-3.982 3.242-7 6.5-7H388c3.258 0 7 3.742 7 7v26c0 3.258-3.018 7-7 7H252c-3.258 0-7 3.742-7 7z"/></g></svg>