<svg width="200" height="200" viewBox="0 0 200 200" xmlns="http://www.w3.org/2000/svg"><defs><linearGradient x1="63.965%" y1="70.336%" x2="35.83%" y2="29.951%" id="a"><stop stop-color="#FD2700" offset="0%"/><stop stop-color="#FF7500" offset="100%"/></linearGradient></defs><g fill="none" fill-rule="evenodd"><g transform="translate(-146 -279)" fill="url(#a)"><g><path d="M225.909 418.23c8.377 23.413 30.803 40.17 57.152 40.17l23.736.002C289.95 471.322 268.872 479 246 479c-40.372 0-75.156-23.924-90.949-58.369h53.888l.882-.006a60.722 60.722 0 0 0 16.088-2.395zm120.029-42.785c.041 1.18.062 2.365.062 3.555 0 14.736-3.188 28.728-8.91 41.324l-54.029-.002c-12.423 0-22.494-10.046-22.494-22.438s10.071-22.438 22.494-22.438zm-137-37.767c12.424 0 22.495 10.046 22.495 22.438s-10.071 22.438-22.494 22.438l-62.877.001c-.041-1.18-.062-2.365-.062-3.555 0-14.736 3.188-28.728 8.91-41.324zM246 279c40.372 0 75.156 23.924 90.949 58.369H283.06c-5.89 0-11.586.838-16.97 2.402-8.377-23.413-30.803-40.17-57.152-40.17l-23.736-.003C202.05 286.678 223.128 279 246 279z"/></g></g></g></svg>