<svg width="60" height="60" viewBox="0 0 60 60" fill="none" xmlns="http://www.w3.org/2000/svg"><circle cx="30" cy="30" r="30" fill="#000"/><path fill-rule="evenodd" clip-rule="evenodd" d="M29.5 47.797c-5.912 0-10.95-3.84-12.87-9.222 2.137 5.128 7.4 8.808 12.87 8.808 5.47 0 10.772-3.639 12.87-8.808-1.92 5.381-6.958 9.222-12.87 9.222zM42.706 28.44c-.64-1.583.018-3.384 1.47-4.163A17.63 17.63 0 0 0 39.029 19a3.192 3.192 0 0 1-2.809 1.757c2.675 2.473 6.314 6.526 6.314 12.608 0 7.384-5.835 13.369-13.034 13.369-7.199 0-13.034-5.985-13.034-13.369 0-6.082 3.64-10.135 6.314-12.608A3.194 3.194 0 0 1 19.97 19a17.623 17.623 0 0 0-5.144 5.278c1.45.78 2.107 2.581 1.468 4.163-.639 1.583-2.345 2.38-3.908 1.879a18.284 18.284 0 0 0-.002 7.463c1.564-.502 3.27.296 3.91 1.879.64 1.583-.018 3.384-1.47 4.163a17.626 17.626 0 0 0 5.147 5.277c.76-1.488 2.516-2.162 4.059-1.506 1.543.655 2.32 2.405 1.832 4.009 2.355.516 4.831.537 7.277.001-.49-1.604.288-3.355 1.831-4.01 1.544-.656 3.3.018 4.06 1.507a17.628 17.628 0 0 0 5.145-5.278c-1.451-.78-2.108-2.581-1.469-4.163.639-1.582 2.345-2.38 3.908-1.879.504-2.415.525-4.955.002-7.463-1.564.502-3.27-.296-3.91-1.879z" fill="#fff"/><path fill-rule="evenodd" clip-rule="evenodd" d="M24.479 17c-1.727 2.92-.686 5.08-.05 7.289 2.398 8.33-7.393 10.44-3.587 1.62C19.335 28.28 18 30.087 18 34.23c0 4.193 2.303 7.85 5.714 9.771-.77-4.597 3.494-5.342 5.494-8.824C32.837 28.856 22.72 23.36 24.479 17z" fill="#F17300"/><path fill-rule="evenodd" clip-rule="evenodd" d="M32.172 19.513c-3.223-3.34-5.91-6.579-2.51-12.513-2.31 1.981-6.73 9.515-3.056 14.528 3.259 4.446 6.064 8.247 4.352 12.736-1.512 3.965-7.143 5.848-5.734 10.17C32.934 46.827 41 41.342 41 33.457c0-7.13-7.216-12.273-8.828-13.943z" fill="#E03597"/><path fill-rule="evenodd" clip-rule="evenodd" d="M33.48 10c-4.354 4.712-2.413 5.882 1.498 10 .374-3.698-4.275-5.764-1.497-10z" fill="#F17300"/></svg>