<svg xmlns="http://www.w3.org/2000/svg" viewBox="0 0 108.75 152.77"><g data-name="Layer 2"><g data-name="Layer 1"><path d="m97.73 65.41 11-11L54.38 0 0 54.38l11 11-11 11 11 11-11 11 54.38 54.38 54.37-54.38-11-11 11-11zm-88-11L54.38 9.74 99 54.38l-6.16 6.16-38.46-38.48L15.9 60.54zM54.38 99 31.75 76.39l22.63-22.63L77 76.39zm27.5-17.77L88 87.41l-33.62 33.66-33.66-33.66 6.16-6.16 27.5 27.5zM54.38 44l-27.5 27.5-6.11-6.11 33.61-33.6L88 65.41l-6.11 6.11zM9.74 76.43l6.16-6.16 6.1 6.12-6.16 6.15zM99 98.39 54.38 143 9.74 98.39l6.11-6.11 38.53 38.53L92.9 92.28zm-12.27-22 6.11-6.12L99 76.43l-6.1 6.11z"/></g></g></svg>