<svg version="1.1" id="Layer_1" xmlns="http://www.w3.org/2000/svg" x="0" y="0" viewBox="0 0 1030 750" style="enable-background:new 0 0 1030 750" xml:space="preserve"><style>.st2{fill:#00a4c3}</style><g><g><path class="st2" d="M682.95 92.07c-41.22-51.53-102.62-80.83-168.46-80.39-61.56.41-120.01 27.4-160.36 74.05L345 96.29 515.66 264.8l175.98-161.86-8.69-10.87zM516.39 223.6 386.2 95.05c34.08-33.87 80.17-53.23 128.48-53.55 52-.34 100.79 20.88 135.89 58.67L516.39 223.6zM266.62 230.66c0-17.96 1.96-35.45 5.6-52.34H15.88C38.03 296.76 169.26 389.3 330.77 397.05c-39.84-44.07-64.15-102.44-64.15-166.39zM757.78 178.32c3.64 16.88 5.6 34.38 5.6 52.34 0 63.95-24.3 122.31-64.14 166.39 161.51-7.75 292.74-100.28 314.89-218.72H757.78zM387.17 176.02c-6.83 8.54-10.95 19.34-10.95 31.1 0 27.51 22.38 49.88 49.88 49.88 11.75 0 22.55-4.11 31.08-10.93l-70.01-70.05zM578.78 243.64c8.91 8.26 20.79 13.36 33.87 13.36 27.51 0 49.88-22.38 49.88-49.88 0-11.35-3.85-21.79-10.26-30.18l-73.49 66.7z"/><path class="st2" d="M674.42 156.83c11.2 13.73 17.94 31.23 17.94 50.29 0 43.96-35.76 79.72-79.72 79.72-21.82 0-41.61-8.83-56.02-23.08l-42.87 38.92-35.43-35.45c-14 12.18-32.24 19.62-52.21 19.62-43.96 0-79.72-35.76-79.72-79.72 0-19.99 7.45-38.24 19.65-52.24l-37.77-37.8c-20.18 33.1-31.8 71.98-31.8 113.58 0 120.7 97.84 218.54 218.54 218.54s218.54-97.84 218.54-218.54c0-37.55-9.48-72.88-26.16-103.74l-32.97 29.9z"/></g><g><path class="st2" d="M181.1 648.24v66.6c-18.33 13.94-45.43 23.49-70.21 23.49-53.44 0-95-40.01-95-91.64s42.08-91.13 96.81-91.13c25.82 0 51.63 9.81 69.44 25.3l-17.3 22.46c-13.94-12.91-33.3-20.65-52.15-20.65-36.91 0-65.83 28.14-65.83 64.02 0 36.14 29.17 64.28 66.09 64.28 13.43 0 28.66-4.65 41.56-12.39v-50.34h26.59zM353.54 737.04l-96.29-129.59v129.59h-30.46v-180.7h29.94l96.81 129.85V556.34h29.94v180.7h-29.94zM610.39 646.69c0 51.63-41.82 91.64-95.77 91.64s-95.77-40.01-95.77-91.64c0-51.89 41.82-91.13 95.77-91.13s95.77 39.5 95.77 91.13zm-160.57 0c0 35.88 29.69 64.28 65.06 64.28 35.36 0 64.27-28.4 64.27-64.28s-28.91-63.76-64.27-63.76c-35.63 0-65.06 27.88-65.06 63.76zM768.11 573.63l-12.65 26.85c-19.62-11.87-39.24-16.78-52.92-16.78-17.82 0-29.43 6.71-29.43 18.85 0 39.5 97.58 18.33 97.32 83.38 0 32.27-28.4 52.15-68.15 52.15-28.4 0-55.24-11.62-73.83-28.65l13.17-26.33c18.58 17.04 41.82 26.33 61.18 26.33 21.17 0 33.82-8 33.82-21.94 0-40.27-97.58-17.81-97.58-82.09 0-30.98 26.59-50.34 65.83-50.34 23.49-.01 46.46 7.47 63.24 18.57zM808.64 737.04v-180.7h30.46v180.7h-30.46zM1011.8 573.63l-12.65 26.85c-19.62-11.87-39.24-16.78-52.92-16.78-17.81 0-29.43 6.71-29.43 18.85 0 39.5 97.58 18.33 97.32 83.38 0 32.27-28.39 52.15-68.15 52.15-28.39 0-55.24-11.62-73.83-28.65l13.16-26.33c18.59 17.04 41.82 26.33 61.18 26.33 21.17 0 33.82-8 33.82-21.94 0-40.27-97.58-17.81-97.58-82.09 0-30.98 26.59-50.34 65.83-50.34 23.49-.01 46.47 7.47 63.25 18.57z"/></g></g></svg>