<svg width="147" height="60" viewBox="0 0 147 60" fill="none" xmlns="http://www.w3.org/2000/svg"><g clip-path="url(#a)" fill="#fff"><path d="M54.796 0H21.92v10.911h32.877V0zM54.796 43.645H21.92v10.911h32.877v-10.91zM65.755 32.734H54.796v10.911h10.96V32.734zM54.796 21.823h-10.96v10.91h10.96v-10.91zM21.919 32.734h-10.96v10.911h10.96V32.734zM21.919 10.911h-10.96v10.912h10.96V10.91zM10.96 21.823H0v10.91h10.96v-10.91zM75.107 57.77h8.622V60h-8.622v-2.23zM86.079 40.978h9.06v2.328h-6.527v3.297h6.04v2.328h-6.04v5.626h-2.533V40.977zM99.851 40.978h2.533v13.578h-2.533V40.978zM107.802 40.978h9.158v2.328h-6.625v3.297h6.235v2.328h-6.235v3.298h6.625v2.328h-9.158V40.977zM122.269 40.978h2.533v11.154h6.368v2.425h-8.901V40.977zM135.408 40.978h4.968c3.69 0 6.624 2.91 6.624 6.79 0 3.879-2.947 6.788-6.624 6.788h-4.968V40.978zm4.968 11.154c2.338 0 4.091-1.722 4.091-4.365 0-2.643-1.753-4.364-4.091-4.364h-2.435v8.729h2.435zM85.75 31.194h-.097a4.166 4.166 0 0 1-.962.873c-.682.449-1.632.86-3.008.86-3.665 0-6.588-2.872-6.588-6.946s2.923-6.947 6.588-6.947 5.638 2.704 6.1 4.825h-2.618c-.584-1.26-1.668-2.412-3.494-2.412-2.326 0-4.067 1.758-4.067 4.534s1.741 4.534 4.067 4.534c2.52 0 3.677-2.024 3.677-2.897v-.097h-3.385v-1.928h5.906v7.14h-1.936l-.195-1.539h.012zM92.715 19.24h6.198c2.399 0 4.262 1.83 4.262 4.535 0 2.703-1.838 4.243-3.97 4.34l4.36 4.631h-3.19l-4.36-4.631h-.779v4.631h-2.52V19.24zm6.101 6.56c.962 0 1.839-.874 1.839-2.026 0-1.248-.877-2.121-1.839-2.121h-3.58v4.146h3.58zM107.668 19.24h9.109v2.316h-6.588v3.285h6.198v2.316h-6.198v3.273h6.588v2.316h-9.109V19.24zM121.648 19.24h9.108v2.316h-6.588v3.285h6.198v2.316h-6.198v3.273h6.588v2.316h-9.108V19.24zM135.712 19.24h3.385l4.944 9.348h.39V19.24h2.52v13.506h-3.385l-4.944-9.36h-.389v9.36h-2.521V19.24z"/></g><defs><clipPath id="a"><path fill="#fff" d="M0 0h147v60H0z"/></clipPath></defs></svg>