<svg width="600" height="200" viewBox="0 0 600 200" fill="none" xmlns="http://www.w3.org/2000/svg"><g clip-path="url(#a)"><mask id="b" style="mask-type:luminance" maskUnits="userSpaceOnUse" x="109" y="27" width="359" height="146"><path d="M468 27H109v146h359V27z" fill="#fff"/></mask><g mask="url(#b)" fill="#fff"><path d="M242.822 27h-80.293v26.55h80.293V27zM242.822 133.203h-80.293v26.551h80.293v-26.551zM269.586 106.652h-26.764v26.551h26.764v-26.551zM242.822 80.102h-26.765v26.55h26.765v-26.55zM162.529 106.652h-26.765v26.551h26.765v-26.551zM162.529 53.55h-26.765v26.551h26.765v-26.55zM135.764 80.102H109v26.55h26.764v-26.55zM292.426 167.572h21.054V173h-21.054v-5.428zM319.22 126.713h22.125v5.664h-15.94v8.025h14.75v5.664h-14.75v13.688h-6.185v-33.041zM352.854 126.713h6.186v33.041h-6.186v-33.041zM372.272 126.713h22.365v5.664h-16.179v8.025h15.227v5.664h-15.227v8.024h16.179v5.664h-22.365v-33.041zM407.602 126.713h6.187v27.141h15.551v5.9h-21.738v-33.041zM439.69 126.713h12.133c9.012 0 16.177 7.08 16.177 16.521 0 9.44-7.197 16.52-16.177 16.52H439.69v-33.041zm12.133 27.141c5.71 0 9.991-4.189 9.991-10.62 0-6.432-4.281-10.621-9.991-10.621h-5.947v21.241h5.947zM318.417 102.906h-.238c-.625.797-1.428 1.504-2.35 2.124-1.665 1.092-3.984 2.095-7.345 2.095-8.951 0-16.088-6.992-16.088-16.905 0-9.912 7.137-16.903 16.088-16.903s13.769 6.578 14.899 11.74h-6.394c-1.427-3.067-4.074-5.87-8.534-5.87-5.68 0-9.933 4.278-9.933 11.033 0 6.756 4.253 11.034 9.933 11.034 6.155 0 8.98-4.927 8.98-7.05v-.237h-8.267v-4.69h14.423v17.375h-4.728l-.476-3.746h.03zM335.427 73.818h15.137c5.858 0 10.408 4.454 10.408 11.033s-4.489 10.326-9.694 10.562l10.646 11.269h-7.79l-10.648-11.27h-1.903v11.27h-6.156V73.818zm14.899 15.96c2.35 0 4.491-2.124 4.491-4.927 0-3.038-2.141-5.162-4.491-5.162h-8.743v10.089h8.743zM371.944 73.818h22.246v5.635h-16.089v7.994h15.137v5.635h-15.137v7.965h16.089v5.635h-22.246V73.818zM406.086 73.818h22.243v5.635H412.24v7.994h15.137v5.635H412.24v7.965h16.089v5.635h-22.243V73.818zM440.433 73.818h8.266l12.075 22.745h.952V73.818h6.154v32.864h-8.266l-12.075-22.775h-.95v22.775h-6.156V73.818z"/></g></g><defs><clipPath id="a"><path fill="#fff" transform="translate(109 27)" d="M0 0h359v146H0z"/></clipPath></defs></svg>