<svg width="90" height="90" viewBox="0 0 90 90" fill="none" xmlns="http://www.w3.org/2000/svg"><g clip-path="url(#a)"><path d="M45 17.353A27.647 27.647 0 1 1 17.353 45 27.682 27.682 0 0 1 45 17.353zM45 0a45 45 0 1 0 0 90 45 45 0 0 0 0-90z" fill="url(#b)"/><path d="M45 80.276c19.482 0 35.276-15.794 35.276-35.276C80.276 25.518 64.482 9.724 45 9.724 25.518 9.724 9.724 25.518 9.724 45c0 19.482 15.794 35.276 35.276 35.276z" fill="#fff"/><circle cx="45" cy="45" r="29" fill="#F8A608"/><path fill-rule="evenodd" clip-rule="evenodd" d="M33.5 31.244h11.76c7.6 0 13.76 6.16 13.76 13.758 0 7.6-6.16 13.76-13.76 13.76H33.5V31.243zm3.028 3.029v21.46h8.732c5.926 0 10.73-4.804 10.73-10.73s-4.804-10.73-10.73-10.73h-8.732z" fill="#fff"/><path d="M29.633 43.32h32.06v-3.03h-32.06v3.03zM29.633 49.764h32.06v-3.029h-32.06v3.03z" fill="#fff"/></g><defs><linearGradient id="b" x1="84.15" y1="84.15" x2="12.15" y2="12.15" gradientUnits="userSpaceOnUse"><stop offset=".159" stop-color="#003CDA"/><stop offset="1" stop-color="#33DFCC"/></linearGradient><clipPath id="a"><path fill="#fff" d="M0 0h90v90H0z"/></clipPath></defs></svg>