<svg width="260" height="259" viewBox="0 0 260 259" xmlns="http://www.w3.org/2000/svg"><defs><linearGradient x1="80.697%" y1="80.697%" x2="13.5%" y2="13.5%" id="a"><stop stop-color="#0B50B0" offset=".079%"/><stop stop-color="#0F6BEB" offset="46.271%"/><stop stop-color="#6FA4F2" offset="100%"/></linearGradient><linearGradient x1="50%" y1="0%" x2="50%" y2="100%" id="b"><stop stop-color="#6FA4F2" offset="0%"/><stop stop-color="#0F6BEB" offset="52.426%"/><stop stop-color="#0B50B0" offset="100%"/></linearGradient><linearGradient x1="50%" y1="0%" x2="50%" y2="100%" id="c"><stop stop-color="#6FA4F2" offset="0%"/><stop stop-color="#0F6BEB" offset="53.136%"/><stop stop-color="#0B50B0" offset="100%"/></linearGradient></defs><g fill="none" fill-rule="evenodd"><g><g><path d="M129.753 52.603a77.15 77.15 0 1 1-77.15 77.15 77.248 77.248 0 0 1 77.15-77.15zM128 0a128 128 0 1 0 0 256 128 128 0 0 0 0-256z" fill="url(#a)" fill-rule="nonzero"/><path d="m173.145 58.102.034-.035c-2.597-1.906-2.511-3.639-1.255-4.834 1.1-1.057 3.25-1.716 3.25-1.716 33.718-7.745 60.915 9.687 60.915 9.687-28.23-37.256-81.643-47.029-132.803-20.933-33.51 16.427-45.793 41.744-45.793 41.744l.103-.018c-7.759 12.546-12.3 27.31-12.3 43.148 0 27.76 13.745 52.244 34.715 67.06l-.035.034c2.598 1.889 2.512 3.639 1.256 4.835-1.101 1.057-3.251 1.715-3.251 1.715-33.734 7.746-60.914-9.686-60.914-9.686 28.229 37.273 81.643 47.028 132.803 20.932 33.51-16.427 45.81-41.76 45.81-41.76l-.12.017c7.758-12.546 12.3-27.31 12.3-43.165 0-27.742-13.745-52.227-34.715-67.025zm-78.983 67.926c0-18.478 14.912-33.47 33.292-33.47 18.38 0 33.291 14.992 33.291 33.47 0 18.495-14.912 33.487-33.291 33.487-18.397 0-33.292-14.974-33.292-33.487z" fill="#FFF" fill-rule="nonzero"/><g fill-rule="nonzero"><path d="M190.578 125.265c.06-34.56-27.908-62.627-62.469-62.687-34.56-.06-62.626 27.907-62.687 62.468-.06 34.56 27.908 62.627 62.469 62.687 34.56.06 62.627-27.907 62.687-62.468z" fill="#3574B9"/><path d="M115.354 168.982c0 1.529-.985 2.064-2.462 2.064-8.944-2.996-16.751-8.925-22.287-16.925-5.536-8.001-8.511-17.657-8.495-27.566.016-9.909 3.023-19.554 8.585-27.535 5.562-7.98 13.388-13.88 22.342-16.844 1.448-.504 2.461.52 2.447 2.08v3.685c.01.53-.119 1.053-.375 1.51a2.762 2.762 0 0 1-1.073 1.074c-7.043 2.677-13.135 7.58-17.445 14.042-4.311 6.462-6.633 14.17-6.648 22.074-.016 7.905 2.274 15.623 6.56 22.104 4.284 6.482 10.356 11.412 17.388 14.12.447.244.82.616 1.076 1.073.256.457.385.98.372 1.511l.015 3.533z" fill="#FFF"/><path d="M130.876 154.952a2.357 2.357 0 0 1-.588 1.5c-.362.404-.85.65-1.37.688h-3.928a2.04 2.04 0 0 1-1.351-.664 2.35 2.35 0 0 1-.607-1.461v-6.25c-7.858-1.078-11.772-5.828-13.236-12.703 0-1.047.507-2.11 1.45-2.11h4.421c.972 0 1.45.532 1.958 1.563.97 3.703 2.9 6.875 9.307 6.89 4.9 0 8.337-2.624 8.351-6.843.015-4.219-1.957-5.813-8.815-6.89-10.308-1.563-15.208-4.782-15.194-13.75 0-6.86 4.93-12.141 11.802-13.173v-6.468a2.333 2.333 0 0 1 .607-1.455c.361-.388.841-.621 1.35-.655h3.93c.508.034.988.267 1.349.655.36.389.576.906.607 1.455v6.343c5.887 1.063 9.801 4.766 10.773 10.578 0 1.047-.493 2.11-1.45 2.11h-3.9c-.986 0-1.45-.531-1.957-1.563-.972-3.703-3.422-5.296-7.844-5.296-4.9 0-7.365 2.625-7.365 6.25 0 3.624 1.45 5.812 8.815 6.89 10.293 1.563 15.194 4.781 15.18 13.75 0 6.86-4.915 12.656-12.28 14.234l-.015 6.375z" fill="#FFF"/><path d="M142.961 170.91c-1.447.52-2.445-.52-2.445-2.064v-3.623a2.938 2.938 0 0 1 .374-1.504 2.73 2.73 0 0 1 1.073-1.065c7.037-2.675 13.123-7.577 17.432-14.038 4.308-6.46 6.628-14.167 6.646-22.07.017-7.905-2.27-15.623-6.55-22.105-4.279-6.482-10.344-11.413-17.37-14.123a2.76 2.76 0 0 1-1.071-1.074 2.97 2.97 0 0 1-.375-1.51v-3.623c0-1.53.984-2.065 2.46-2.065 17.605 6.239 30.784 23.837 30.755 44.494-.03 9.908-3.044 19.55-8.605 27.526-5.56 7.978-13.38 13.877-22.324 16.845z" fill="#FFF"/></g><g><g><path d="M39.5 79C61.315 79 79 61.315 79 39.5S61.315 0 39.5 0 0 17.685 0 39.5c0 12.098 5.44 22.926 14.005 30.172A39.325 39.325 0 0 0 39.5 79z" stroke="url(#b)" stroke-width="7" fill="#FFF" transform="translate(177 176)"/><g><g fill="url(#c)" transform="translate(198 193)"><path d="M18.5.058C12.832 3.798 7.164 5.914 1.496 7.167c-4.308 14.182.489 31.598 17.004 37.73 16.515-6.132 21.312-23.548 17.004-37.73C29.836 5.914 24.168 3.797 18.5.058z"/></g></g></g></g></g></g></g></svg>