<svg width="90" height="90" viewBox="0 0 90 90" xmlns="http://www.w3.org/2000/svg"><defs><linearGradient x1="80.697%" y1="80.697%" x2="13.5%" y2="13.5%" id="a"><stop stop-color="#0B50B0" offset=".079%"/><stop stop-color="#0F6BEB" offset="46.271%"/><stop stop-color="#6FA4F2" offset="100%"/></linearGradient></defs><g fill="none" fill-rule="evenodd"><g fill-rule="nonzero"><path d="M45.616 18.493a27.123 27.123 0 1 1-27.123 27.123 27.158 27.158 0 0 1 27.123-27.123zM45 0a45 45 0 1 0 0 90 45 45 0 0 0 0-90z" fill="url(#a)"/><path d="m60.871 20.426.012-.012c-.913-.67-.883-1.279-.441-1.7.387-.371 1.143-.602 1.143-.602C73.439 15.388 83 21.517 83 21.517c-9.924-13.098-28.703-16.534-46.689-7.36-11.78 5.776-16.099 14.676-16.099 14.676l.037-.006a28.748 28.748 0 0 0-4.325 15.17c0 9.758 4.833 18.366 12.205 23.575l-.012.012c.913.664.883 1.28.441 1.7-.387.371-1.143.603-1.143.603C15.555 72.61 6 66.48 6 66.48c9.924 13.104 28.703 16.534 46.689 7.36 11.78-5.776 16.105-14.682 16.105-14.682l-.043.006a28.753 28.753 0 0 0 4.325-15.175c0-9.753-4.833-18.361-12.205-23.564zm-27.767 23.88c0-6.496 5.242-11.766 11.704-11.766 6.462 0 11.704 5.27 11.704 11.767 0 6.502-5.242 11.773-11.704 11.773-6.468 0-11.704-5.265-11.704-11.773z" fill="#FFF"/><g><path d="M67 44.038c.021-12.15-9.811-22.017-21.962-22.038-12.15-.021-22.017 9.811-22.038 21.962-.021 12.15 9.811 22.017 21.962 22.038 12.15.021 22.017-9.811 22.038-21.962z" fill="#3574B9"/><path d="M40.554 59.408c0 .537-.346.725-.865.725-3.145-1.053-5.89-3.137-7.836-5.95-1.946-2.813-2.992-6.207-2.986-9.691.005-3.484 1.063-6.874 3.018-9.68 1.955-2.806 4.707-4.88 7.854-5.922.51-.177.866.183.86.731v1.296c.005.186-.041.37-.131.53a.97.97 0 0 1-.377.378c-2.476.941-4.618 2.665-6.133 4.937a14.051 14.051 0 0 0-2.338 7.76c-.005 2.78.8 5.493 2.307 7.771 1.506 2.279 3.64 4.012 6.113 4.964a.965.965 0 0 1 .378.377c.09.161.135.345.13.532l.006 1.242z" fill="#FFF"/><path d="M46.011 54.475a.829.829 0 0 1-.207.528.718.718 0 0 1-.481.241h-1.381a.717.717 0 0 1-.475-.233.826.826 0 0 1-.213-.514V52.3c-2.763-.379-4.14-2.049-4.654-4.466 0-.368.178-.741.51-.741h1.554c.342 0 .51.186.688.549.342 1.302 1.02 2.417 3.273 2.422 1.722 0 2.93-.922 2.936-2.406.005-1.483-.689-2.043-3.1-2.422-3.623-.55-5.346-1.681-5.341-4.834 0-2.411 1.733-4.268 4.149-4.63v-2.275a.82.82 0 0 1 .213-.511.711.711 0 0 1 .475-.23h1.381a.71.71 0 0 1 .475.23.82.82 0 0 1 .213.511v2.23c2.07.374 3.446 1.676 3.787 3.72 0 .367-.173.74-.51.74h-1.37c-.347 0-.51-.186-.688-.549-.342-1.301-1.203-1.862-2.758-1.862-1.723 0-2.59.923-2.59 2.198 0 1.274.51 2.043 3.1 2.422 3.619.55 5.341 1.68 5.336 4.834 0 2.411-1.728 4.45-4.317 5.004l-.005 2.241z" fill="#FFF"/><path d="M50.26 60.086c-.509.183-.86-.183-.86-.726v-1.274c-.004-.186.042-.369.132-.529a.96.96 0 0 1 .377-.374c2.474-.94 4.614-2.664 6.128-4.935a14.06 14.06 0 0 0 2.337-7.76 14.065 14.065 0 0 0-2.303-7.77c-1.504-2.28-3.636-4.013-6.106-4.965a.97.97 0 0 1-.377-.378 1.044 1.044 0 0 1-.132-.53V29.57c0-.537.346-.726.865-.726 6.19 2.194 10.822 8.38 10.812 15.643-.01 3.483-1.07 6.872-3.025 9.677-1.955 2.805-4.704 4.879-7.848 5.922z" fill="#FFF"/></g></g></g></svg>