<svg width="90" height="90" viewBox="0 0 90 90" xmlns="http://www.w3.org/2000/svg"><defs><linearGradient x1="80.697%" y1="80.697%" x2="13.5%" y2="13.5%" id="a"><stop stop-color="#0B50B0" offset=".079%"/><stop stop-color="#0F6BEB" offset="46.271%"/><stop stop-color="#6FA4F2" offset="100%"/></linearGradient></defs><g fill="none" fill-rule="evenodd"><g><path d="M45.616 18.493a27.123 27.123 0 1 1-27.123 27.123 27.158 27.158 0 0 1 27.123-27.123zM45 0a45 45 0 1 0 0 90 45 45 0 0 0 0-90z" fill="url(#a)" fill-rule="nonzero"/><path d="m60.871 20.426.012-.012c-.913-.67-.883-1.279-.441-1.7.387-.371 1.143-.602 1.143-.602C73.439 15.388 83 21.517 83 21.517c-9.924-13.098-28.703-16.534-46.689-7.36-11.78 5.776-16.099 14.676-16.099 14.676l.037-.006a28.748 28.748 0 0 0-4.325 15.17c0 9.758 4.833 18.366 12.205 23.575l-.012.012c.913.664.883 1.28.441 1.7-.387.371-1.143.603-1.143.603C15.555 72.61 6 66.48 6 66.48c9.924 13.104 28.703 16.534 46.689 7.36 11.78-5.776 16.105-14.682 16.105-14.682l-.043.006a28.753 28.753 0 0 0 4.325-15.175c0-9.753-4.833-18.361-12.205-23.564zm-27.767 23.88c0-6.496 5.242-11.766 11.704-11.766 6.462 0 11.704 5.27 11.704 11.767 0 6.502-5.242 11.773-11.704 11.773-6.468 0-11.704-5.265-11.704-11.773z" fill="#FFF" fill-rule="nonzero"/><g transform="translate(22 22)"><circle fill="#F8A608" fill-rule="nonzero" cx="22" cy="22" r="22"/><g fill="#FFF"><path d="M13.275 11.564h8.922c5.765 0 10.438 4.673 10.438 10.438 0 5.765-4.673 10.438-10.438 10.438h-8.922V11.564zm2.298 2.298v16.28h6.624a8.14 8.14 0 1 0 0-16.28h-6.624z"/><path fill-rule="nonzero" d="M10.342 20.725h24.322v-2.297H10.342zM10.342 25.614h24.322v-2.298H10.342z"/></g></g></g></g></svg>