<svg width="261" height="259" viewBox="0 0 261 259" xmlns="http://www.w3.org/2000/svg"><defs><linearGradient x1="80.697%" y1="80.697%" x2="13.5%" y2="13.5%" id="a"><stop stop-color="#0B50B0" offset=".079%"/><stop stop-color="#0F6BEB" offset="46.271%"/><stop stop-color="#6FA4F2" offset="100%"/></linearGradient><linearGradient x1="50%" y1="0%" x2="50%" y2="100%" id="b"><stop stop-color="#6FA4F2" offset="0%"/><stop stop-color="#0F6BEB" offset="52.426%"/><stop stop-color="#0B50B0" offset="100%"/></linearGradient><linearGradient x1="50%" y1="0%" x2="50%" y2="100%" id="c"><stop stop-color="#FCC200" offset="0%"/><stop stop-color="#DBA515" offset="53.136%"/><stop stop-color="#B78628" offset="100%"/></linearGradient></defs><g fill="none" fill-rule="evenodd"><g><path d="M129.753 52.603a77.15 77.15 0 1 1-77.15 77.15 77.248 77.248 0 0 1 77.15-77.15zM128 0a128 128 0 1 0 0 256 128 128 0 0 0 0-256z" fill="url(#a)" fill-rule="nonzero"/><path d="m173.145 58.102.034-.035c-2.597-1.906-2.511-3.639-1.255-4.834 1.1-1.057 3.25-1.716 3.25-1.716 33.718-7.745 60.915 9.687 60.915 9.687-28.23-37.256-81.643-47.029-132.803-20.933-33.51 16.427-45.793 41.744-45.793 41.744l.103-.018c-7.759 12.546-12.3 27.31-12.3 43.148 0 27.76 13.745 52.244 34.715 67.06l-.035.034c2.598 1.889 2.512 3.639 1.256 4.835-1.101 1.057-3.251 1.715-3.251 1.715-33.734 7.746-60.914-9.686-60.914-9.686 28.229 37.273 81.643 47.028 132.803 20.932 33.51-16.427 45.81-41.76 45.81-41.76l-.12.017c7.758-12.546 12.3-27.31 12.3-43.165 0-27.742-13.745-52.227-34.715-67.025zm-78.983 67.926c0-18.478 14.912-33.47 33.292-33.47 18.38 0 33.291 14.992 33.291 33.47 0 18.495-14.912 33.487-33.291 33.487-18.397 0-33.292-14.974-33.292-33.487z" fill="#FFF" fill-rule="nonzero"/><g><g><path d="M39.5 79C61.315 79 79 61.315 79 39.5S61.315 0 39.5 0 0 17.685 0 39.5c0 12.098 5.44 22.926 14.005 30.172A39.325 39.325 0 0 0 39.5 79z" stroke="url(#b)" stroke-width="7" fill="#FFF" transform="translate(178 176)"/></g><g transform="translate(198 196)" fill="url(#c)"><path d="M39.98 3.246a.982.982 0 0 0-.087-.439.527.527 0 0 0-.35-.351.592.592 0 0 0-.436-.175h-6.118V.79c0-.176-.087-.351-.262-.527A.837.837 0 0 0 32.115 0H7.82a.837.837 0 0 0-.612.263.945.945 0 0 0-.175.527V2.28H.828a.592.592 0 0 0-.437.175c-.116.059-.203.176-.262.351a.982.982 0 0 0-.087.439s-.315 10.246.786 13.42c.733 2.113 3.554 5.088 6.642 5.966 1.223 2.924 4.515 5.233 9.876 6.93l.174 5.701-7.34 1.755c-.175 0-.32.087-.438.263-.116.175-.174.321-.174.438V40h20.887v-2.28c0-.118-.058-.264-.175-.44-.117-.175-.262-.262-.437-.262l-7.516-1.755.175-5.702c5.03-1.1 8.351-3.41 9.963-6.93 3.146-.877 5.91-3.852 6.642-5.964 1.1-3.176.874-13.421.874-13.421zM7.034 18.509c-1.34-.468-2.58-1.218-2.884-2.544-.425-1.85-.25-6.68-.145-8.841a1.124 1.124 0 0 1 1.123-1.071h1.906v12.456zm28.84-2.544c-.336 1.345-1.602 2.076-2.884 2.544V6.053h1.912c.598 0 1.09.467 1.123 1.066.116 2.16.31 7.003-.15 8.846z"/></g></g><g transform="translate(65 64)"><circle fill="#FFF" cx="64.707" cy="63.646" r="62.586"/><path d="m104.981 105.474.053-.05a54.835 54.835 0 0 0 17.135-40.862l-.001-.063v-.064c.077-16.88-5.608-30.685-17.035-41.81l-.03-.03-.03-.03A56.983 56.983 0 0 0 86.147 9.98a56.933 56.933 0 0 0-22.331-4.184l-.102.001-.102-.002a55.774 55.774 0 0 0-22.17 4.076A55.829 55.829 0 0 0 22.69 22.391l-.023.024-.023.023C11.431 33.528 5.797 47.33 5.797 64.24v.01c-.03 16.38 5.53 29.969 16.706 41.12l.022.021.022.022A55.797 55.797 0 0 0 41.249 118a55.75 55.75 0 0 0 22.148 4.154l.102-.002.102.002a56.968 56.968 0 0 0 22.352-4.107 57.027 57.027 0 0 0 18.977-12.521l.051-.05zm-41.485 22.134a62.411 62.411 0 0 0 24.494-4.501 62.476 62.476 0 0 0 20.792-13.719 60.25 60.25 0 0 0 14.16-20.472 60.293 60.293 0 0 0 4.681-24.456c.084-18.287-6.145-33.535-18.684-45.744a62.45 62.45 0 0 0-20.737-13.79A62.391 62.391 0 0 0 63.732.34a61.23 61.23 0 0 0-24.338 4.475 61.286 61.286 0 0 0-20.587 13.744C6.497 30.737.34 45.964.34 64.24.31 82.025 6.413 97.023 18.65 109.231a61.244 61.244 0 0 0 44.846 18.377z" fill="#282237"/><path d="M96.27 28.567c-18.27-16.714-46.272-16.714-64.542 0l-3.457-3.38c20.16-18.6 51.217-18.6 71.377 0l-3.379 3.38zM99.4 31.653l3.378-3.38v-.078c18.594 20.168 18.594 51.24 0 71.408l-3.378-3.38c16.707-18.278 16.707-46.291 0-64.57zM28.575 96.257c-16.686-18.274-16.686-46.262 0-64.536l-3.378-3.38c-18.593 20.169-18.593 51.24 0 71.408l3.378-3.492zM31.694 99.378c18.27 16.714 46.271 16.714 64.542 0l3.457 3.378c-20.16 18.602-51.217 18.602-71.377 0l3.378-3.378z" fill="#282237" fill-rule="nonzero"/><path d="M74.652 54.09c0 6.854-10.7 6.02-14.099 6.02V48.035c3.4 0 14.1-1.075 14.1 6.055zm2.794 18.748c0 7.494-12.82 6.638-16.904 6.638V66.177c4.084.012 16.904-1.165 16.904 6.66zm8.441-21.456c-.684-7.152-6.843-9.551-14.634-10.283v-9.86H65.23v9.666c-1.585 0-3.205 0-4.813.057V31.24h-5.989v9.917H42.223v6.455s4.448-.08 4.38 0a3.115 3.115 0 0 1 3.422 2.65V77.42a2.136 2.136 0 0 1-2.26 2.001l-.021-.001c.08.068-4.38 0-4.38 0l-1.198 7.209h12.16v10.076h6.022v-9.928h4.814v9.883h6.034v-9.963c10.175-.616 17.27-3.13 18.16-12.67.718-7.677-2.887-11.105-8.647-12.487 3.502-1.783 5.703-4.924 5.178-10.157z" fill="#EF9142"/></g></g></g></svg>