<svg width="258" height="259" viewBox="0 0 258 259" xmlns="http://www.w3.org/2000/svg"><defs><linearGradient x1="80.697%" y1="80.697%" x2="13.5%" y2="13.5%" id="a"><stop stop-color="#0B50B0" offset=".079%"/><stop stop-color="#0F6BEB" offset="46.271%"/><stop stop-color="#6FA4F2" offset="100%"/></linearGradient><linearGradient x1="50%" y1="0%" x2="50%" y2="100%" id="b"><stop stop-color="#6FA4F2" offset="0%"/><stop stop-color="#0F6BEB" offset="52.426%"/><stop stop-color="#0B50B0" offset="100%"/></linearGradient><linearGradient x1="50%" y1="0%" x2="50%" y2="100%" id="c"><stop stop-color="#6FA4F2" offset="0%"/><stop stop-color="#0F6BEB" offset="53.136%"/><stop stop-color="#0B50B0" offset="100%"/></linearGradient></defs><g fill="none" fill-rule="evenodd"><g><g><path d="M129.753 52.603a77.15 77.15 0 1 1-77.15 77.15 77.248 77.248 0 0 1 77.15-77.15zM128 0a128 128 0 1 0 0 256 128 128 0 0 0 0-256z" fill="url(#a)" fill-rule="nonzero"/><path d="m173.145 58.102.034-.035c-2.597-1.906-2.511-3.639-1.255-4.834 1.1-1.057 3.25-1.716 3.25-1.716 33.718-7.745 60.915 9.687 60.915 9.687-28.23-37.256-81.643-47.029-132.803-20.933-33.51 16.427-45.793 41.744-45.793 41.744l.103-.018c-7.759 12.546-12.3 27.31-12.3 43.148 0 27.76 13.745 52.244 34.715 67.06l-.035.034c2.598 1.889 2.512 3.639 1.256 4.835-1.101 1.057-3.251 1.715-3.251 1.715-33.734 7.746-60.914-9.686-60.914-9.686 28.229 37.273 81.643 47.028 132.803 20.932 33.51-16.427 45.81-41.76 45.81-41.76l-.12.017c7.758-12.546 12.3-27.31 12.3-43.165 0-27.742-13.745-52.227-34.715-67.025zm-78.983 67.926c0-18.478 14.912-33.47 33.292-33.47 18.38 0 33.291 14.992 33.291 33.47 0 18.495-14.912 33.487-33.291 33.487-18.397 0-33.292-14.974-33.292-33.487z" fill="#FFF" fill-rule="nonzero"/><g transform="translate(62.578 62.578)" fill-rule="nonzero"><circle fill="#F8A608" cx="62.578" cy="62.578" r="62.578"/><g fill="#FFF"><path d="M37.76 32.894h25.38c16.397 0 29.689 13.292 29.689 29.69 0 16.396-13.292 29.689-29.69 29.689H37.761v-59.38zm6.536 6.535v46.308H63.14c12.788 0 23.154-10.366 23.154-23.154 0-12.787-10.366-23.154-23.154-23.154H44.296z"/><path d="M29.417 58.952H98.6v-6.536H29.417zM29.417 72.858H98.6v-6.536H29.417z"/></g></g><g><g><path d="M39.5 79C61.315 79 79 61.315 79 39.5S61.315 0 39.5 0 0 17.685 0 39.5c0 12.098 5.44 22.926 14.005 30.172A39.325 39.325 0 0 0 39.5 79z" stroke="url(#b)" stroke-width="7" fill="#FFF" transform="translate(175 176)"/><g><g fill="url(#c)" transform="translate(196 193)"><path d="M18.5.058C12.832 3.798 7.164 5.914 1.496 7.167c-4.308 14.182.489 31.598 17.004 37.73 16.515-6.132 21.312-23.548 17.004-37.73C29.836 5.914 24.168 3.797 18.5.058z"/></g></g></g></g></g></g></g></svg>