<svg width="28" height="28" viewBox="0 0 28 28" xmlns="http://www.w3.org/2000/svg"><g fill="none" fill-rule="evenodd"><g><path d="M0 0h28v28H0z"/><g fill="#0A0A08" fill-rule="nonzero"><path d="M25.942 7.25 14 .5 2.058 7.25v13.5L14 27.5l11.942-6.75V7.25zM14-.649l12.942 7.316v14.666L14 28.65 1.058 21.333V6.667L14-.65z"/><g><path d="M14.173 22.775 5.375 17.62l.035-2.505 8.757 5.149 4.221-2.504-12.675-7.52 8.455-5.015L22.144 9.9l-2.137 1.275-5.835-3.439-4.22 2.504 12.673 7.52z"/><path d="m11.5 14.675-2.144-1.298 4.49-2.752 2.144 1.298zM15.48 17.375l-2.143-1.298 4.49-2.752 2.144 1.298z"/></g></g></g></g></svg>