<svg width="90" height="90" viewBox="0 0 90 90" fill="none" xmlns="http://www.w3.org/2000/svg"><g clip-path="url(#a)"><path d="M45 17.353A27.647 27.647 0 1 1 17.353 45 27.682 27.682 0 0 1 45 17.353zM45 0a45 45 0 1 0 0 90 45 45 0 0 0 0-90z" fill="url(#b)"/><path d="M45 80.276c19.482 0 35.276-15.794 35.276-35.276C80.276 25.518 64.482 9.724 45 9.724 25.518 9.724 9.724 25.518 9.724 45c0 19.482 15.794 35.276 35.276 35.276z" fill="#fff"/><circle cx="45" cy="45" r="29" fill="#8878b5"/><path d="m93.435 72.307 15.987 15.987-15.987 15.987-15.987-15.987z" data-name="Path 327" transform="translate(-48 -45)" style="fill:#ffce45"/><path d="m93.25 93.5-16-5.217 16-15.987 16 15.987z" data-name="Path 328" transform="translate(-48 -45)" style="fill:#febe44"/><path d="M159.65 132.682h7.3l3.13-3.478 3.478 3.478h7.3l-10.773-11.652z" data-name="Path 329" transform="translate(-125 -90)" style="fill:#fff"/><path d="M314.15 104.273V72.3l15.986 15.987z" data-name="Path 330" transform="translate(-269 -45)" style="fill:#d9a547;opacity:.42"/></g><defs><linearGradient id="b" x1="84.15" y1="84.15" x2="12.15" y2="12.15" gradientUnits="userSpaceOnUse"><stop offset=".159" stop-color="#003CDA"/><stop offset="1" stop-color="#33DFCC"/></linearGradient><clipPath id="a"><path fill="#fff" d="M0 0h90v90H0z"/></clipPath></defs></svg>