<svg width="100" height="100" viewBox="0 0 100 100" fill="none" xmlns="http://www.w3.org/2000/svg"><g clip-path="url(#a)"><path d="M50 19.281A30.719 30.719 0 1 1 19.281 50 30.758 30.758 0 0 1 50 19.281zM50 0a50 50 0 1 0 0 100A50 50 0 0 0 50 0z" fill="url(#b)"/><path d="M50 89.195c21.647 0 39.195-17.548 39.195-39.195 0-21.647-17.548-39.195-39.195-39.195-21.647 0-39.195 17.548-39.195 39.195 0 21.647 17.548 39.195 39.195 39.195z" fill="#fff"/><path d="M81.72 50.057c.03-17.496-14.146-31.705-31.663-31.735-17.518-.03-31.744 14.128-31.775 31.624-.03 17.496 14.146 31.704 31.664 31.735 17.518.03 31.743-14.128 31.774-31.624z" fill="#3574B9"/><path d="M44.148 71.875c0 .781-.53 1.055-1.328 1.055a23.806 23.806 0 0 1 .078-45.407c.782-.258 1.328.266 1.32 1.063v1.883a1.453 1.453 0 0 1-.78 1.32 19.656 19.656 0 0 0-.079 36.96 1.445 1.445 0 0 1 .782 1.321l.007 1.805z" fill="#fff"/><path d="M52.086 65.313a1.133 1.133 0 0 1-1.055 1.093h-2.117a1.133 1.133 0 0 1-1.055-1.062v-3.125c-4.234-.54-6.343-2.914-7.132-6.352 0-.523.273-1.054.78-1.054h2.384c.523 0 .78.265 1.054.78.524 1.852 1.563 3.438 5.016 3.446 2.64 0 4.492-1.312 4.5-3.422.008-2.11-1.055-2.906-4.75-3.445-5.555-.781-8.195-2.39-8.188-6.875 0-3.43 2.657-6.07 6.36-6.586v-3.234a1.125 1.125 0 0 1 1.054-1.055h2.118a1.124 1.124 0 0 1 1.054 1.055v3.171c3.172.532 5.282 2.383 5.805 5.29 0 .523-.266 1.054-.781 1.054H55.03c-.531 0-.781-.265-1.054-.781-.524-1.852-1.844-2.648-4.227-2.648-2.64 0-3.969 1.312-3.969 3.124 0 1.813.782 2.907 4.75 3.446 5.547.781 8.188 2.39 8.18 6.875 0 3.43-2.648 6.328-6.617 7.117l-.008 3.188z" fill="#fff"/><path d="M57.094 72.977c-.782.265-1.32-.266-1.32-1.055V70.07a1.438 1.438 0 0 1 .78-1.312 19.656 19.656 0 0 0 .087-36.961 1.453 1.453 0 0 1-.782-1.32v-1.852c0-.781.532-1.055 1.328-1.055 9.508 3.188 16.626 12.18 16.61 22.735a23.844 23.844 0 0 1-16.703 22.672z" fill="#fff"/></g><defs><linearGradient id="b" x1="93.5" y1="93.5" x2="13.5" y2="13.5" gradientUnits="userSpaceOnUse"><stop offset=".159" stop-color="#003CDA"/><stop offset="1" stop-color="#33DFCC"/></linearGradient><clipPath id="a"><path fill="#fff" d="M0 0h100v100H0z"/></clipPath></defs></svg>