<svg width="100" height="100" viewBox="0 0 100 100" xmlns="http://www.w3.org/2000/svg"><defs><linearGradient x1="93.5%" y1="93.5%" x2="13.5%" y2="13.5%" id="a"><stop stop-color="#003CDA" offset="15.938%"/><stop stop-color="#33DFCC" offset="100%"/></linearGradient></defs><g fill="none" fill-rule="evenodd"><g fill-rule="nonzero"><g><path d="M50 19.281A30.719 30.719 0 1 1 19.281 50 30.758 30.758 0 0 1 50 19.281zM50 0a50 50 0 1 0 0 100A50 50 0 0 0 50 0z" fill="url(#a)"/><path d="M50 89.195c21.647 0 39.195-17.548 39.195-39.195 0-21.647-17.548-39.195-39.195-39.195-21.647 0-39.195 17.548-39.195 39.195 0 21.647 17.548 39.195 39.195 39.195z" fill="#FFF"/><path d="M41.625 63.008c-2.29 1.695-4.469 3.328-6.688 4.914a.93.93 0 0 1-.843-.188 23.36 23.36 0 0 1-6.617-9.836 22.931 22.931 0 0 1-1.36-9.086 24.062 24.062 0 0 1 2.656-9.75c.125-.25.274-.492.485-.874.625.78 1.195 1.562 1.75 2.265 2.844 3.734 5.68 7.484 8.547 11.211a.78.78 0 0 1-.086 1.234c-1 .946-1.914 1.977-2.922 2.922a.977.977 0 0 0-.172 1.414 16.359 16.359 0 0 0 4.648 5.266c.164.133.313.266.602.508zM36.984 41.617c-1.148-1.515-2.226-2.93-3.297-4.36-.546-.726-1.062-1.476-1.609-2.194a.578.578 0 0 1 0-.875 23.977 23.977 0 0 1 12.594-7.446 23.438 23.438 0 0 1 9.828-.18 24.13 24.13 0 0 1 6.984 2.524c.135.095.263.2.383.313-.984.718-1.914 1.398-2.851 2.07-3.657 2.61-7.328 5.203-10.938 7.812-.5.36-.781.36-1.234-.101-.89-.938-1.86-1.805-2.758-2.742a.828.828 0 0 0-1.156-.157 15.923 15.923 0 0 0-5.282 4.524c-.195.242-.382.46-.664.812zM58.36 36.992c1.484-1.125 2.882-2.195 4.288-3.25.782-.562 1.563-1.078 2.258-1.656.328-.25.547-.281.867 0a23.788 23.788 0 0 1 7.165 11.273 22.524 22.524 0 0 1 .953 7.594 23.984 23.984 0 0 1-2.922 10.383c0 .062-.102.101-.25.234-.649-.851-1.297-1.672-1.93-2.515-2.63-3.495-5.27-6.995-7.922-10.5-.875-1.164-.71-.899.07-1.743a63.553 63.553 0 0 1 2.602-2.68.89.89 0 0 0 .156-1.234 16.015 16.015 0 0 0-4.586-5.328l-.75-.578z" fill="#FFF"/></g><g><path d="M50.5 19C67.896 19 82 33.104 82 50.5S67.896 82 50.5 82 19 67.9 19 50.5 33.102 19 50.5 19" fill="#53AE94"/><path d="M54.941 46.85v-4.69h10.773v-7.143H36.379v7.144h10.774v4.685c-8.756.4-15.34 2.126-15.34 4.194 0 2.067 6.587 3.793 15.34 4.196v15.018h7.79v-15.02c8.74-.401 15.311-2.126 15.311-4.191 0-2.066-6.57-3.79-15.31-4.192m0 7.112v-.004c-.22.014-1.35.081-3.864.081-2.01 0-3.424-.057-3.923-.083v.007c-7.736-.341-13.51-1.682-13.51-3.286 0-1.605 5.775-2.943 13.51-3.285v5.235c.507.035 1.956.12 3.956.12 2.402 0 3.61-.1 3.832-.12v-5.235c7.72.342 13.481 1.684 13.481 3.283 0 1.598-5.763 2.941-13.481 3.283" fill="#FFF"/></g></g></g></svg>