<svg width="100" height="100" viewBox="0 0 100 100" fill="none" xmlns="http://www.w3.org/2000/svg"><g clip-path="url(#a)"><path d="M50 19.281A30.719 30.719 0 1 1 19.281 50 30.758 30.758 0 0 1 50 19.281zM50 0a50 50 0 1 0 0 100A50 50 0 0 0 50 0z" fill="url(#b)"/><path d="M50 89.195c21.647 0 39.195-17.548 39.195-39.195 0-21.647-17.548-39.195-39.195-39.195-21.647 0-39.195 17.548-39.195 39.195 0 21.647 17.548 39.195 39.195 39.195z" fill="#fff"/><path d="M80.758 57.719A31.71 31.71 0 1 1 57.727 19.28a31.719 31.719 0 0 1 23.03 38.438z" fill="url(#c)"/><path d="M63.992 45.508c.64-4.211-2.57-6.446-6.96-8.008l1.437-5.71-3.477-.876-1.406 5.57c-.914-.234-1.852-.445-2.79-.664l1.407-5.593-3.476-.868-1.438 5.703a79.28 79.28 0 0 1-2.219-.523l-4.797-1.203-.93 3.71s2.579.595 2.524.634a1.86 1.86 0 0 1 1.625 2.023l-3.906 15.625a1.266 1.266 0 0 1-1.563.781c0 .047-2.53-.632-2.53-.632l-1.735 3.976 4.523 1.133 2.485.64-1.516 5.805 3.477.875 1.437-5.71c.953.257 1.867.5 2.773.726l-1.43 5.68 3.477.875 1.453-5.766c5.93 1.133 10.399.687 12.282-4.688 1.562-4.312-.063-6.804-3.18-8.43 2.273-.523 3.992-2.015 4.453-5.1v.015zm-7.976 11.125c-1.078 4.304-8.36 1.96-10.703 1.383l1.921-7.649c2.352.586 9.914 1.766 8.782 6.266zm1.101-11.196c-.992 3.907-7.031 1.922-9.008 1.43l1.743-6.937c1.968.492 8.289 1.414 7.265 5.508z" fill="#fff"/></g><defs><linearGradient id="b" x1="93.5" y1="93.5" x2="13.5" y2="13.5" gradientUnits="userSpaceOnUse"><stop offset=".159" stop-color="#003CDA"/><stop offset="1" stop-color="#33DFCC"/></linearGradient><linearGradient id="c" x1="48.846" y1="11.403" x2="48.733" y2="75.404" gradientUnits="userSpaceOnUse"><stop stop-color="#F8A94B"/><stop offset="1" stop-color="#F6921E"/></linearGradient><clipPath id="a"><path fill="#fff" d="M0 0h100v100H0z"/></clipPath></defs></svg>