<svg width="100" height="114" viewBox="0 0 100 114" xmlns="http://www.w3.org/2000/svg"><defs><linearGradient x1="50%" y1="97.784%" x2="50%" y2="1.559%" id="a"><stop stop-color="#08BCCD" offset="0%"/><stop stop-color="#2DA1F8" offset="100%"/></linearGradient><linearGradient x1="50%" y1="97.784%" x2="41.849%" y2="-16.397%" id="b"><stop stop-color="#08BCCD" offset="0%"/><stop stop-color="#2DA1F8" offset="100%"/></linearGradient></defs><g fill="none" fill-rule="evenodd"><g fill-rule="nonzero"><ellipse fill="url(#a)" cx="47.168" cy="79.692" rx="7.308" ry="7.367"/><path d="M99.65 28.462 49.825 0 0 28.462v56.923l49.825 28.461L99.65 85.385V28.462zm-33.91-3.854a3.265 3.265 0 0 1-3.245 3.265H50.427v7.03h8.902a3.249 3.249 0 0 1 2.297.96 3.26 3.26 0 0 1 .947 2.305 3.255 3.255 0 0 1-3.244 3.263h-8.902V66.46c.005.115.005.231 0 .347 6.297 1.667 10.391 7.77 9.578 14.267-.814 6.498-6.286 11.387-12.797 11.43-6.512.044-12.049-4.769-12.95-11.256-.9-6.488 3.113-12.643 9.389-14.396a3.444 3.444 0 0 1-.025-.38V24.778a3.419 3.419 0 0 1 .994-2.419 3.406 3.406 0 0 1 2.41-1.005c.285 0 .568.039.845.11.267-.072.543-.109.82-.11h13.814a3.265 3.265 0 0 1 3.245 3.265l-.01-.009v-.002z" fill="url(#b)"/></g></g></svg>