<svg width="28" height="28" viewBox="0 0 28 28" xmlns="http://www.w3.org/2000/svg"><defs><linearGradient x1="7.42%" y1="23.155%" x2="93.971%" y2="74.706%" id="a"><stop stop-color="#02AAC7" offset="0%"/><stop stop-color="#1A91C9" offset="100%"/></linearGradient></defs><g fill="none" fill-rule="evenodd"><g><g><g><g fill-rule="nonzero"><circle stroke="#0086C3" fill="url(#a)" cx="14" cy="14" r="13.5"/><path d="m14.716 7.71 4.265-4.264 1.523 1.523-4.265 4.265 4.265 4.264-1.523 1.523-5.788-5.787 1.523-1.523zm-1.218 12.794-4.264 4.264-1.523-1.523 4.264-4.264-4.264-4.265 1.523-1.523 5.787 5.788-1.523 1.523zm-3.046-8.53 1.523-1.522 5.787 5.787-1.523 1.523-5.787-5.787z" fill="#FFF"/><path d="m18.874 3.339-5.788 5.787 5.788 5.788 1.523-1.523-4.265-4.265 4.265-4.264-1.523-1.523zm2.132 10.052-2.132 2.132-6.397-6.397 6.397-6.396 2.132 2.132-4.265 4.264 4.265 4.265zM9.126 24.66l5.788-5.787-5.788-5.788-1.523 1.523 4.265 4.265-4.265 4.264 1.523 1.523zm2.133-5.787-4.265-4.265 2.132-2.132 6.397 6.397-6.397 6.396-2.132-2.132.305-.305 3.96-3.96zm-.914-7.006 5.787 5.787 1.523-1.523-5.787-5.787-1.523 1.523zm-.61 0 2.133-2.132 6.396 6.396-2.132 2.132-6.396-6.396z" fill="#0086C3"/></g></g></g></g></g></svg>