<svg width="178" height="88" viewBox="0 0 178 88" fill="none" xmlns="http://www.w3.org/2000/svg"><path d="M72.371 85.784c-.459.4-.987.659-1.506.918a7.142 7.142 0 0 1-1.775.589c-.659.13-1.317.2-2.095.2-1.246 0-2.364-.2-3.41-.66a8.546 8.546 0 0 1-2.694-1.834 7.742 7.742 0 0 1-1.775-2.753c-.399-1.047-.658-2.234-.658-3.411 0-1.187.2-2.364.658-3.41a9.817 9.817 0 0 1 1.775-2.754c.788-.788 1.646-1.446 2.693-1.904a8.353 8.353 0 0 1 3.411-.719c.788 0 1.446.07 2.095.2.588.13 1.176.329 1.705.528.529.2 1.047.529 1.446.848.4.33.858.718 1.317 1.117l-1.317 1.376c-.718-.658-1.506-1.246-2.363-1.645a7.11 7.11 0 0 0-3.022-.659c-.918 0-1.776.2-2.623.529-.788.329-1.507.848-2.095 1.446-.588.589-1.047 1.377-1.376 2.235a7.593 7.593 0 0 0-.529 2.752c0 .987.13 1.905.529 2.753.399.848.788 1.576 1.376 2.234.589.658 1.247 1.117 2.095 1.506.787.39 1.645.529 2.623.529 1.177 0 2.164-.2 3.022-.659.847-.459 1.645-1.047 2.493-1.775l1.247 1.247c-.33.459-.788.847-1.247 1.176zM94.553 87.23l-4.917-6.562h-4.858v6.563h-1.904V70.306h7.28c.918 0 1.776.129 2.564.388.787.26 1.376.589 1.904 1.048.529.459.918.987 1.247 1.575.26.589.459 1.317.459 2.035 0 .718-.13 1.317-.33 1.905a3.245 3.245 0 0 1-.987 1.446 10.92 10.92 0 0 1-1.446 1.047 8.574 8.574 0 0 1-1.835.589l5.186 6.892h-2.363zm-1.317-14.242c-.788-.588-1.835-.918-3.211-.918h-5.247v6.893h5.187c.658 0 1.246-.07 1.775-.26.529-.2.987-.389 1.376-.718.4-.33.719-.658.918-1.117.2-.459.33-.917.33-1.446-.01-.987-.41-1.835-1.128-2.433zM118.369 72.07h-10.302v5.775h9.245v1.706h-9.245v5.905h10.432v1.705h-12.337V70.236h12.207v1.835zM142.317 82.114a8.55 8.55 0 0 1-1.836 2.693c-.788.718-1.775 1.376-2.882 1.775-1.117.4-2.294.659-3.61.659h-5.835V70.315h5.835c1.316 0 2.563.2 3.61.659 1.047.459 2.035 1.047 2.882 1.775.788.718 1.377 1.646 1.836 2.693.458 1.047.658 2.164.658 3.341s-.2 2.344-.658 3.331zm-1.776-5.904a7.663 7.663 0 0 0-1.376-2.164c-.589-.659-1.317-1.048-2.234-1.447-.918-.398-1.835-.528-2.883-.528h-3.939v13.385h3.939c1.048 0 2.035-.2 2.883-.53a7.118 7.118 0 0 0 2.234-1.376c.658-.588 1.047-1.316 1.376-2.094a6.918 6.918 0 0 0 .529-2.623c0-.918-.2-1.775-.529-2.623zM154.913 70.365h-1.905V87.29h1.905V70.365zM172.038 87.23h-1.905V72.07h-5.645v-1.764h13.254v1.764h-5.635l-.069 15.16zM8.989 82.633h-.07l-6.164-9.046V87.23H.92V70.306h1.965l6.173 9.245 6.164-9.245h1.965V87.23h-1.895V73.517l-6.303 9.116zM30.053 70.306h1.436V87.36h-1.895V72.34l-3.221.977-.46-1.575 4.14-1.436zM44.555 70.306h1.376V87.36h-1.905V72.34l-3.212.977-.458-1.575 4.199-1.436zM127.416 53.869H51.047v.329h76.369v-.33zM82.734 4.36l-1.247 4.199-8.657-2.693v34.977h-4.528V.49h3.221l11.21 3.87zM107.408.49h3.212v40.353h-4.528V5.867l-8.657 2.693-1.247-4.2L107.408.49z" fill="#fff"/></svg>