<svg width="25" height="28" viewBox="0 0 25 28" xmlns="http://www.w3.org/2000/svg"><g fill="none" fill-rule="evenodd"><g fill="#002D74" fill-rule="nonzero"><path d="M12.035.147.041 7.069v13.848l11.994 6.922 11.99-6.922V7.07L12.035.147zM7.298 6.114h9.438l1.138 4.81H6.206l1.092-4.81zm3.792 14.413-2.038 1.928H7.33l-4.31-7.51 3.163-2.354 2.795 1.776v3.213l2.112 2.025v.922zm-1.377-3.176.317-3.011-1.033-2.686h6.105l-1.01 2.686.294 3.002h-2.35l-2.323.009zm7.055 5.049h-1.712l-2.038-1.877v-.932l2.116-2.024v-3.214l2.754-1.794 3.153 2.373-4.273 7.468z"/></g></g></svg>