<svg xmlns="http://www.w3.org/2000/svg" width="1000" height="1000" viewBox="0 0 1000 1000" style="enable-background:new 0 0 1000 1000" xml:space="preserve"><style></style><g id="Layer_1"><text transform="translate(433 499)" style="font-size:12px;font-family:'MyriadPro-Regular'">CircleM_WhiteOnPurple</text></g><g id="Foreground"><g><circle cx="500" cy="500" r="500" style="fill:#7e61f8"/><path d="M243.05 678.12c19.47 0 35.3-16.21 35.3-36.14V445.16c.9-51.38 42.19-91.53 94-91.53 51.3 0 91.48 40.16 91.52 91.44V641.99c0 .24.08.47.08.7.4 19.27 16.71 35.43 36.04 35.43.15 0 .28-.04.43-.05.14 0 .27.05.41.05 19.47 0 35.3-16.21 35.3-36.14V445.16c.9-51.38 42.19-91.53 94-91.53 51.33 0 91.53 40.21 91.53 91.53v196.83c0 19.59 16.54 36.14 36.12 36.14 19.25 0 36.14-16.88 36.14-36.14V445.16c0-90.31-73.47-163.78-163.78-163.78-51.64 0-98.61 24.69-129.37 62.43-30.02-37.95-76.37-62.43-128.41-62.43-90.12 0-166.26 75-166.26 163.78v196.83c-.01 18.57 17.95 36.13 36.95 36.13z" style="fill:#fff"/></g></g></svg>