<svg width="108" height="108" viewBox="0 0 108 108" xmlns="http://www.w3.org/2000/svg"><g fill="none" fill-rule="evenodd"><circle fill="#FFF" cx="54" cy="54" r="46"/><g fill="#FCBE13" fill-rule="nonzero"><path d="M4.46 33.498c1.824.134 3.629.241 5.426.41.789.073 1.338-.008 1.777-.828 1-1.86 2.126-3.654 3.222-5.46.296-.487.272-.868-.067-1.343-1.253-1.758-2.45-3.556-3.7-5.319-.295-.414-.267-.685.087-1.023 2.944-2.832 5.882-5.67 8.816-8.515.423-.406.781-.304 1.186-.018 1.61 1.14 3.242 2.256 4.827 3.423.564.415 1.004.473 1.637.08 1.895-1.174 3.835-2.28 5.77-3.383.448-.255.613-.53.55-1.07-.239-2.074-.401-4.157-.636-6.232-.064-.564.15-.749.634-.88 3.96-1.088 7.92-2.185 11.877-3.29.522-.14.783.026.987.483.815 1.77 1.67 3.525 2.46 5.305.282.64.636.927 1.375.911 2.23-.048 4.464-.032 6.696 0 .541 0 .873-.159 1.105-.655.846-1.808 1.739-3.594 2.57-5.409.243-.528.53-.69 1.092-.541 3.22.856 6.447 1.692 9.673 2.538.705.183 1.41.368 2.115.537.468.111.659.385.62.864-.172 2.035-.294 4.073-.516 6.102-.074.694.095 1.068.705 1.41 1.96 1.117 3.89 2.283 5.815 3.456.402.244.684.238 1.071-.041 1.712-1.24 3.456-2.436 5.175-3.666.416-.299.653-.304 1.042.113 2.752 2.957 5.53 5.89 8.331 8.8.488.507.682.845.158 1.522-1.128 1.441-2.115 2.99-3.194 4.467-.322.44-.393.795-.108 1.269a359.752 359.752 0 0 1 3.384 5.77c.296.512.674.717 1.269.663 2.033-.185 4.07-.32 6.102-.52.574-.057.854.077 1.008.661 1.01 3.862 2.04 7.72 3.09 11.571.168.62.048 1.004-.583 1.286-1.8.802-3.576 1.667-5.37 2.486-.49.224-.655.513-.64 1.084.054 2.256.046 4.512.02 6.768 0 .614.154.975.759 1.24 1.719.756 3.395 1.608 5.108 2.379.653.293.833.629.64 1.36-.926 3.494-1.758 7.014-2.679 10.509-.564 2.115-.077 1.706-2.319 1.604-1.734-.077-3.464-.248-5.194-.395-.535-.045-.862.151-1.135.624a228.684 228.684 0 0 1-3.43 5.746c-.336.543-.25.925.091 1.393 1.27 1.75 2.496 3.525 3.77 5.272.39.533.303.863-.166 1.306a752.688 752.688 0 0 0-8.398 8.036c-.527.515-.892.639-1.538.17-1.631-1.19-3.331-2.283-4.985-3.44-.466-.325-.859-.357-1.354-.07a393.949 393.949 0 0 1-6.006 3.407c-.406.225-.564.482-.506.953.238 2.051.423 4.108.675 6.158.083.668-.173.922-.774 1.084a1420.73 1420.73 0 0 0-11.752 3.243c-.531.15-.798.03-1.03-.493-.88-1.974-1.823-3.918-2.716-5.885-.186-.41-.437-.552-.865-.55-2.327.011-4.653.022-6.98-.009-.628 0-.855.346-1.071.821-.846 1.858-1.72 3.705-2.548 5.572-.211.478-.438.63-.96.49a1331.788 1331.788 0 0 0-11.786-3.103c-.67-.172-.865-.51-.795-1.15.22-1.982.396-3.97.636-5.95.062-.517-.044-.846-.499-1.107a554.322 554.322 0 0 1-5.903-3.441c-.54-.322-.96-.282-1.472.08-1.706 1.208-3.459 2.349-5.16 3.561-.565.402-.902.329-1.358-.167a824.631 824.631 0 0 0-7.727-8.296c-.943-1.001-.964-1.037-.152-2.172 1.053-1.47 2.094-2.95 3.151-4.415.282-.388.313-.72.054-1.155-1.187-2-2.345-4.016-3.5-6.033-.218-.382-.524-.5-.936-.47-1.637.124-3.282.182-4.912.377-2.2.252-2.212.289-2.776-1.82C1.89 69.055.987 65.554.052 62.06c-.132-.499-.024-.774.463-.995 1.817-.828 3.609-1.71 5.426-2.538.564-.257.801-.59.791-1.234a240.639 240.639 0 0 1 0-6.767c0-.515-.163-.796-.651-1.017-1.798-.815-3.564-1.692-5.358-2.53-.564-.264-.782-.563-.598-1.251C1.145 41.875 2.115 38 3.068 34.12c.223-.898.891-.53 1.392-.622zm35.606 18.088c.08.21.146.427.197.646.485 3.697.977 7.392 1.437 11.092.069.557.282.79.837.78a66.04 66.04 0 0 1 3.171 0c.64.02.846-.232.735-.846a88.12 88.12 0 0 1-.423-2.427c-.508-3.144-1.013-6.295-1.516-9.452-.4-2.502-.792-5.006-1.179-7.51-.081-.528-.318-.789-.884-.76-.633.035-1.268 0-1.903.008-1.373 0-1.373 0-1.861 1.298-.025.067-.04.141-.066.202a39408.88 39408.88 0 0 1-4.371 10.46c-.068.16-.082.423-.312.423-.23 0-.303-.268-.382-.455-.59-1.41-1.17-2.82-1.755-4.23l-2.954-7.09c-.14-.35-.307-.615-.75-.608-.962.015-1.926 0-2.889 0-.388 0-.613.163-.664.564-.23 1.792-.541 3.57-.846 5.357-.538 3.215-1.024 6.44-1.537 9.658-.237 1.485-.502 2.961-.726 4.449-.121.809.007.946.766.951 1.033.009 2.067-.014 3.102 0 .606.012.802-.291.872-.846.464-3.7.952-7.399 1.437-11.097.02-.148 0-.341.257-.382.176.156.23.388.318.6 1.529 3.637 3.065 7.269 4.583 10.91.236.563.57.845 1.218.831.605-.007.863-.29 1.074-.802a744.109 744.109 0 0 1 3.58-8.508c.43-1.023.77-2.095 1.434-3.216zm40.96 1.118c-1.478 0-2.96.012-4.438 0-.54 0-.77.212-.754.755.02.75.023 1.503 0 2.255-.018.579.228.798.797.789a117.5 117.5 0 0 1 3.524 0c.753.007.828.152.548.837-.765 1.865-2.268 2.642-4.158 2.912-2.68.383-4.958-.734-6.23-3.116-.716-1.337-.78-2.782-.706-4.25.196-3.965 3.565-6.611 7.412-5.834 1.602.323 2.741 1.269 3.62 2.591.218.329.422.536.845.294 1.062-.602 2.14-1.176 3.212-1.76.363-.197.442-.455.198-.806-1.439-2.055-3.19-3.685-5.716-4.298a14.76 14.76 0 0 0-5.802-.211c-3.37.526-5.864 2.329-7.415 5.34-1.6 3.102-1.68 6.382-.543 9.639.855 2.446 2.442 4.37 4.784 5.59 2.342 1.22 4.872 1.29 7.42.964a8.6 8.6 0 0 0 5.5-2.88c2.04-2.315 2.83-5.14 3.101-8.145.05-.564-.293-.664-.754-.663-1.485.002-2.964-.003-4.444-.003zm-30.704.846v9.438c0 1.013.094 1.11 1.067 1.114.939 0 1.88-.028 2.82.01.685.027.898-.255.89-.915-.026-2.325-.013-4.653-.01-6.974 0-.9.077-.975.955-.98 1.551 0 3.102-.015 4.653 0 .546.008.761-.205.745-.75a33.138 33.138 0 0 1 0-2.396c.03-.625-.226-.817-.827-.807-1.573.03-3.147-.01-4.72.018-.619.013-.838-.227-.815-.827.031-.82 0-1.644.01-2.466 0-.883.073-.956.973-.959a459.57 459.57 0 0 1 5.216 0c.51 0 .725-.186.705-.705-.022-.774 0-1.55 0-2.325 0-.854-.059-.91-.934-.91h-9.79c-.868 0-.93.06-.93.917-.008 3.172-.01 6.343-.008 9.513v.004zm47.049.756v-1.269c-.024-1.053-.405-1.692-1.001-1.706-.705-.014-1.097.588-1.068 1.738.08 3.087-.094 6.15-.72 9.18a41.831 41.831 0 0 1-15.078 24.353c-1.218.954-2.51 1.817-3.777 2.708-.49.343-.602.792-.35 1.286.264.52.743.622 1.27.399.278-.124.546-.272.799-.443a44.291 44.291 0 0 0 10.38-9.436c6.26-7.847 9.441-16.785 9.545-26.814v.004zM10.263 59.28c0 .093 0 .188.02.282.088.628.166 1.256.274 1.881a42.082 42.082 0 0 0 4.794 13.535 43.567 43.567 0 0 0 6.19 8.525c2.516 2.678 5.276 5.075 8.368 7.075a37.182 37.182 0 0 0 4.475 2.52c.55.257.987.034 1.252-.438s.108-.914-.308-1.245a2.782 2.782 0 0 0-.487-.282 42.003 42.003 0 0 1-12.95-10.24 41.36 41.36 0 0 1-8.779-16.977 47.282 47.282 0 0 1-.89-4.84c-.087-.604-.466-.92-1.08-.865-.616.055-.866.48-.88 1.07zm81.082-4.383c.095 2.73-.373 5.479-1.013 8.204-.784 3.337-2.092 6.47-3.783 9.447a37.73 37.73 0 0 1-8.383 10.065c-.873.747-1.817 1.41-2.715 2.126-.508.406-.622.996-.32 1.426.304.43.913.496 1.462.173.1-.06.189-.141.282-.206A38.725 38.725 0 0 0 84.522 79a39.871 39.871 0 0 0 5.397-8.631A37.405 37.405 0 0 0 93.097 59.1c.255-2.212.487-4.435.22-6.666-.085-.705-.524-1.144-1.039-1.102-.515.043-.922.581-.933 1.23-.012.747 0 1.499 0 2.335zm-76.118 2.91c-.722.012-1.102.613-.987 1.514a35.03 35.03 0 0 0 1.113 5.444 39.534 39.534 0 0 0 7.592 14.404 40.465 40.465 0 0 0 9.289 8.226c.767.495 1.518 1.028 2.364 1.39.533.228 1.03.194 1.362-.336.282-.453.09-1.058-.409-1.4-.193-.133-.402-.244-.606-.36a37.504 37.504 0 0 1-13.719-13.358c-2.447-4.036-4.026-8.413-4.843-13.064-.097-.554-.02-1.128-.232-1.668-.182-.455-.463-.76-.924-.792zm32.527-46.8a42.83 42.83 0 0 0-5.824 1.155A42.378 42.378 0 0 0 21.29 24.84c-.952 1.066-1.833 2.198-2.721 3.318-.333.423-.4.915-.062 1.369.294.396.741.392 1.159.263.377-.117.554-.496.776-.79a41.143 41.143 0 0 1 10.79-9.984 40.453 40.453 0 0 1 14.052-5.575c.829-.16 1.67-.26 2.495-.433.615-.128 1.024-.656.93-1.145a1.01 1.01 0 0 0-.955-.856zm-.06 3.948-.436.072a39.376 39.376 0 0 0-14.335 5.23 38.793 38.793 0 0 0-10.605 9.467c-.45.575-.398 1.09.093 1.482.454.364 1.035.252 1.47-.282a41.346 41.346 0 0 1 5.703-5.829 36.507 36.507 0 0 1 14.783-7.433c1.207-.293 2.435-.502 3.646-.778.543-.123.776-.535.694-1.063-.086-.568-.46-.855-1.012-.876v.01zm6.095 82.72c.602.085 1.484-.113 2.375-.14 3.948-.133 7.769-.977 11.508-2.216.763-.252 1.062-.772.86-1.37-.202-.598-.747-.788-1.53-.52a41.624 41.624 0 0 1-7.519 1.813c-3.243.47-6.505.448-9.765.2a34.357 34.357 0 0 1-5.623-.92c-.552-.14-1.105.177-1.226.675-.141.59.08 1.012.66 1.22.22.078.447.142.676.19 3.057.689 6.16.984 9.584 1.061v.007zm-.174-3.962c.804.057 1.595-.084 2.397-.115 3.546-.141 6.976-.867 10.328-2.002.493-.152.975-.34 1.44-.564.466-.242.792-.622.55-1.207-.225-.549-.67-.686-1.213-.564-.207.045-.41.105-.608.179-2.757.96-5.565 1.692-8.478 2.006a43.126 43.126 0 0 1-8.083.062 31.757 31.757 0 0 1-5.472-.945c-.866-.224-1.458.06-1.599.697-.131.6.192.947 1.073 1.201 3.155.903 6.401 1.158 9.665 1.245v.007zm38.25-50.452c-.298-.911-.605-1.974-.987-3.004a40.576 40.576 0 0 0-5.335-9.88 37.044 37.044 0 0 0-6.768-7.034c-.282-.229-.58-.4-.966-.282-.362.114-.621.332-.705.716-.104.5.141.854.51 1.155a36.243 36.243 0 0 1 6.135 6.39 37.968 37.968 0 0 1 5.912 11.616c.097.362.235.713.41 1.045.229.387.59.62 1.072.448.482-.172.713-.512.722-1.17zm3.972-.423c-.141-.488-.312-1.128-.507-1.749a43.77 43.77 0 0 0-6.18-12.432c-1.28-1.797-2.65-3.525-4.261-5.048-.49-.46-1.02-.506-1.446-.14-.396.34-.392.94.02 1.453.176.22.368.423.564.631C87.734 29.48 90.49 34 92.487 39c.564 1.397.956 2.846 1.41 4.276.165.515.521.873 1.102.773.553-.09.826-.482.838-1.207v-.004zM42.26 73.972h-5.842c-1.095 0-1.606.298-1.607.931 0 .686.539 1.038 1.616 1.04h11.617c.423 0 .846 0 1.207-.282a.925.925 0 0 0-.173-1.57c-.282-.134-.595-.117-.9-.117l-5.918-.002zM10.143 50.17c-.025.88.292 1.336.891 1.384.623.05.967-.282 1.112-1.08.039-.207.06-.423.08-.629.142-1.307.324-2.604.587-3.892a44.89 44.89 0 0 1 1.918-6.695c.178-.475.04-.827-.319-1.12-.358-.291-.727-.338-1.108-.085-.333.217-.474.578-.608.926a37.589 37.589 0 0 0-1.32 4.23c-.611 2.322-.924 4.693-1.233 6.96zm3.948.507c-.012.312.327.794.846.867.614.09.987-.193 1.128-.795.048-.205.086-.413.112-.622a39.228 39.228 0 0 1 2.144-9.164c.211-.573.44-1.14.607-1.726.133-.467-.096-.828-.506-1.056-.44-.245-.829-.107-1.128.252a2.632 2.632 0 0 0-.423.727 63.53 63.53 0 0 0-.987 2.712 39.25 39.25 0 0 0-1.785 8.805h-.008zm22.054 19.52v.016c-1.148 0-2.297-.027-3.443.011-.59.02-1.062.339-1.104.972-.043.633.407.897.971.991.23.045.463.07.697.078h6.043c.328.002.654-.063.957-.19.355-.15.571-.396.564-.803a.904.904 0 0 0-.564-.891 2.466 2.466 0 0 0-1.028-.189c-1.03.007-2.063.006-3.093.006zM62.65 33.797h3.374c.759 0 1.292-.423 1.278-.998-.013-.536-.538-.956-1.258-.96a915.931 915.931 0 0 0-6.818 0c-.746 0-1.15.35-1.166.934-.02.645.366 1.004 1.146 1.015 1.153.02 2.302.009 3.45.009h-.006zm6.303-20.289c-.392-.013-.65 0-.862.188-.258.22-.482.473-.402.846.092.447.428.805.869.924 1.71.584 3.41 1.192 5.014 2.043.689.367 1.343.222 1.612-.282.27-.503.022-1.092-.68-1.479a20.935 20.935 0 0 0-3.087-1.369c-.858-.314-1.686-.714-2.464-.871zm2.374 20.287v-.014c.82 0 1.641.026 2.459-.008.582-.024.894-.386.887-.97-.007-.584-.326-.938-.911-.946-1.551-.02-3.092-.028-4.636 0-.68.014-1.064.423-1.052.987.014.585.384.929 1.076.949.725.018 1.45.002 2.177.002zM58.719 16.875c1.1.034 1.497-.211 1.56-.806.064-.595-.359-1.001-1.136-1.16-1.012-.21-2.036-.282-3.062-.35-.615-.044-1.143.309-1.218.812a1.042 1.042 0 0 0 .971 1.16c1.055.043 2.088.233 2.885.342v.002zM42.52 29.013c0-.91-.9-1.802-1.816-1.793-.915.008-1.813.91-1.792 1.815.022.903.863 1.74 1.771 1.756.908.016 1.837-.875 1.837-1.778zm23.168 51.604c1.094 0 1.784-.653 1.8-1.723.016-.987-.77-1.759-1.796-1.768a1.71 1.71 0 0 0-1.715 1.756c.005 1.032.69 1.725 1.711 1.732v.003zm-9.023-69.972v.03h-.705c-.645.018-1.114.387-1.097.929.018.605.399.939.987 1 .953.102 1.912.154 2.865.257.788.085 1.294-.18 1.41-.796.115-.616-.274-1.066-1.085-1.183-.783-.116-1.58-.167-2.371-.24l-.004.003zM44.427 70.173c-.456.03-.863.01-1.25.09-.504.106-.846.45-.846.987a.93.93 0 0 0 .8.948 6.44 6.44 0 0 0 2.448-.013.897.897 0 0 0 .77-.953c0-.53-.312-.835-.789-.942a8.79 8.79 0 0 0-1.13-.12l-.003.003zm25.446-51.786c0-.31-.316-.615-.705-.794a19.88 19.88 0 0 0-1.964-.768c-.571-.195-.987.091-1.182.602-.194.51-.035.96.461 1.188.701.327 1.422.61 2.159.846.618.199 1.228-.286 1.23-1.074z"/></g></g></svg>