<svg width="85" height="20" viewBox="0 0 85 20" fill="none" xmlns="http://www.w3.org/2000/svg"><path d="M23.09 4.186h2.082l3.928 8.479 3.93-8.48h2.081v11.577h-2.015V8.243l-3.492 7.519h-1.007l-3.492-7.519v7.519H23.09V4.186zM41.505 16.01c-.94 0-1.768-.166-2.484-.497a3.889 3.889 0 0 1-1.645-1.457c-.392-.64-.588-1.397-.588-2.27 0-.85.19-1.59.57-2.218.392-.64.947-1.132 1.663-1.474.716-.354 1.544-.53 2.484-.53s1.764.176 2.469.53c.716.342 1.27.833 1.662 1.474.392.629.587 1.369.587 2.219 0 .872-.195 1.628-.587 2.268-.392.63-.946 1.116-1.662 1.458-.705.331-1.528.497-2.468.497zm0-1.64c.773 0 1.389-.237 1.847-.712.46-.486.689-1.11.689-1.871 0-.806-.23-1.436-.688-1.888-.448-.464-1.064-.696-1.848-.696-.783 0-1.404.232-1.863.696-.448.453-.672 1.082-.672 1.888 0 .761.23 1.385.689 1.871.459.475 1.074.712 1.846.712zM47.895 7.811h2.049v1.275c.324-.43.783-.75 1.376-.96.605-.21 1.293-.315 2.066-.315v1.59c-.818 0-1.528.127-2.133.38-.593.244-1.007.63-1.242 1.16v4.82h-2.116V7.81zM54.732 7.812h2.048v.96a4.4 4.4 0 0 1 1.427-.91c.515-.199 1.103-.298 1.763-.298.817 0 1.545.176 2.183.53.649.342 1.153.833 1.51 1.474.37.629.555 1.363.555 2.202 0 .828-.185 1.562-.554 2.203a3.861 3.861 0 0 1-1.511 1.507c-.638.353-1.366.53-2.183.53a6.011 6.011 0 0 1-1.746-.249 3.807 3.807 0 0 1-1.377-.778v4.405h-2.115V7.812zm4.718 6.558c.76 0 1.387-.243 1.88-.728.492-.486.739-1.11.739-1.872s-.247-1.38-.739-1.855c-.493-.474-1.12-.712-1.88-.712-.605 0-1.142.16-1.612.48-.47.32-.8.751-.99 1.292v1.607c.178.54.503.977.973 1.308.481.32 1.024.48 1.629.48zM65.898 3.522h2.115v5.3c.761-.84 1.746-1.26 2.955-1.26 1.086 0 1.897.293 2.435.878.537.574.805 1.342.805 2.302v5.018h-2.115v-4.82c0-1.158-.549-1.738-1.645-1.738-.482 0-.935.116-1.36.348-.425.22-.784.557-1.075 1.01v5.2h-2.115V3.522zM80.282 16.01c-.94 0-1.768-.166-2.485-.497a3.889 3.889 0 0 1-1.645-1.457c-.392-.64-.588-1.397-.588-2.27 0-.85.19-1.59.571-2.218.392-.64.946-1.132 1.662-1.474.717-.354 1.545-.53 2.486-.53.94 0 1.762.176 2.468.53.716.342 1.27.833 1.661 1.474.392.629.588 1.369.588 2.219 0 .872-.196 1.628-.588 2.268-.39.63-.945 1.116-1.661 1.458-.706.331-1.529.497-2.469.497zm0-1.64c.773 0 1.388-.237 1.847-.712.459-.486.689-1.11.689-1.871 0-.806-.23-1.436-.689-1.888-.448-.464-1.063-.696-1.847-.696-.783 0-1.404.232-1.863.696-.448.453-.672 1.082-.672 1.888 0 .761.23 1.385.689 1.871.458.475 1.074.712 1.846.712z" fill="#fff"/><path opacity=".9" d="M2 13.152v5.311a.53.53 0 0 0 .346.494.545.545 0 0 0 .605-.123l4.326-4.355c.4-.543.546-.883.546-.883.235-.5.235-.98.006-1.462-.34-.715-1.21-1.443-2.518-2.134l-2.237 1.308A2.157 2.157 0 0 0 2 13.152z" fill="#A9D6FF"/><path d="M0 .604v5.743c0 .719.4 1.355.97 1.559 1.94.674 5.32 2.124 6.137 4.255.106.28.169.553.19.839.543-1.19.791-2.557.675-3.943-.158-1.966-1.023-3.753-2.373-4.891L.786.114A.423.423 0 0 0 .264.07.641.641 0 0 0 0 .604z" fill="url(#a)"/><path opacity=".9" d="M16 13.152v5.311a.53.53 0 0 1-.346.494.545.545 0 0 1-.605-.123l-4.326-4.355c-.4-.543-.546-.883-.546-.883-.235-.5-.235-.98-.006-1.462.34-.715 1.21-1.443 2.518-2.134l2.237 1.308A2.145 2.145 0 0 1 16 13.152z" fill="#A9D6FF"/><path d="M18 .604v5.743c0 .719-.4 1.355-.97 1.559-1.94.674-5.32 2.124-6.137 4.255-.106.28-.169.553-.19.839a7.938 7.938 0 0 1-.675-3.943c.158-1.965 1.023-3.753 2.373-4.891L17.214.114a.423.423 0 0 1 .522-.044.641.641 0 0 1 .264.534z" fill="url(#b)"/><defs><linearGradient id="a" x1="8.257" y1="12.916" x2="0" y2="12.916" gradientUnits="userSpaceOnUse"><stop offset=".068" stop-color="#EFFDFF"/><stop offset="1" stop-color="#A9D6FF"/></linearGradient><linearGradient id="b" x1="10.022" y1="12.916" x2="17.937" y2="12.916" gradientUnits="userSpaceOnUse"><stop offset=".068" stop-color="#EFFDFF"/><stop offset="1" stop-color="#A9D6FF"/></linearGradient></defs></svg>