<svg width="31" height="32" viewBox="0 0 31 32" fill="none" xmlns="http://www.w3.org/2000/svg"><path d="M15.5 31.842c8.56 0 15.5-6.94 15.5-15.5 0-8.56-6.94-15.5-15.5-15.5C6.94.842 0 7.782 0 16.342c0 8.56 6.94 15.5 15.5 15.5z" fill="#1E2356"/><path d="M15.5 31.842c8.56 0 15.5-6.94 15.5-15.5 0-8.56-6.94-15.5-15.5-15.5C6.94.842 0 7.782 0 16.342c0 8.56 6.94 15.5 15.5 15.5z" fill="#0178FF" fill-opacity=".3"/><path d="M15.5 31.692c8.478 0 15.35-6.872 15.35-15.35 0-8.477-6.872-15.35-15.35-15.35C7.023.992.15 7.865.15 16.342c0 8.478 6.873 15.35 15.35 15.35z" stroke="#fff" stroke-width=".3"/><path opacity=".9" d="M8.71 19.728v4.788c0 .295.251.418.329.445.078.034.34.106.573-.11l4.098-3.927c.378-.49.517-.795.517-.795.223-.45.223-.884.006-1.318-.322-.645-1.146-1.301-2.386-1.924L9.73 18.066c-.629.356-1.018.984-1.018 1.662z" fill="#A9D6FF"/><path d="M6.59 9.073v5.022a1.43 1.43 0 0 0 1.023 1.362c2.047.59 5.611 1.858 6.473 3.72.111.245.178.485.2.735a5.907 5.907 0 0 0 .712-3.448 5.916 5.916 0 0 0-2.502-4.277L7.419 8.645a.5.5 0 0 0-.3-.1.505.505 0 0 0-.251.061.536.536 0 0 0-.278.467z" fill="url(#a)"/><path opacity=".9" d="M22.231 19.728v4.788c0 .295-.25.418-.328.445a.536.536 0 0 1-.573-.11l-4.098-3.927c-.379-.49-.518-.795-.518-.795-.222-.45-.222-.884-.005-1.318.322-.645 1.145-1.301 2.386-1.924l2.118 1.179c.634.356 1.018.984 1.018 1.662z" fill="#A9D6FF"/><path d="M24.358 9.071v5.022a1.43 1.43 0 0 1-1.023 1.362c-2.047.59-5.611 1.858-6.474 3.72a2.227 2.227 0 0 0-.2.735 5.907 5.907 0 0 1-.712-3.448 5.916 5.916 0 0 1 2.503-4.277l5.077-3.542a.5.5 0 0 1 .3-.1c.09 0 .167.017.25.061a.536.536 0 0 1 .279.467z" fill="url(#b)"/><defs><linearGradient id="a" x1="15.299" y1="19.839" x2="6.59" y2="19.839" gradientUnits="userSpaceOnUse"><stop offset=".068" stop-color="#EFFDFF"/><stop offset="1" stop-color="#A9D6FF"/></linearGradient><linearGradient id="b" x1="15.944" y1="19.837" x2="24.291" y2="19.837" gradientUnits="userSpaceOnUse"><stop offset=".068" stop-color="#EFFDFF"/><stop offset="1" stop-color="#A9D6FF"/></linearGradient></defs></svg>