<svg width="108" height="108" viewBox="0 0 108 108" xmlns="http://www.w3.org/2000/svg"><g fill="none" fill-rule="evenodd"><g fill-rule="nonzero"><circle fill="#B9862C" cx="54" cy="54" r="54"/><circle fill="#E5CF6A" cx="54" cy="53.999" r="51.408"/><circle fill="#BA862C" cx="54" cy="53.999" r="42.922"/><circle fill="#EDBA22" cx="54" cy="53.999" r="41.361"/><path fill="#FFF" d="m81.016 46.015-1.839-6.864-8.67 2.325-4.141-15.457-10.303 2.759 7.84 29.254-.167.114-24.149-24.954-10.362 2.779 4.141 15.457-8.731 2.341 1.838 6.86 8.732-2.34 1.21 4.52-8.732 2.34 1.839 6.861 8.731-2.338 3.297 12.296 10.363-2.776-7.838-29.254.164-.114 24.149 24.954 10.303-2.762-3.294-12.299 8.67-2.322-1.839-6.86-8.67 2.322-1.212-4.52z"/></g></g></svg>