<svg xmlns="http://www.w3.org/2000/svg" viewBox="0 0 612 612" style="enable-background:new 0 0 612 612" xml:space="preserve"><path style="fill:#1a82ff" d="M.3.2h612.9v612.2H.3z"/><path d="m485 189.7-70.6 70.6c2.8 14 4.3 29.4 4.3 46 0 89.3-42 142.7-112.2 142.7-29.3 0-54-9.4-72.7-27.2l244.7-244.7c-6.6-11.6-14-22.5-22.4-32.4-3.5-4.2-7.3-8.1-11-11.8l-1.5-1.5c-1.1-1.1-2.2-2.3-3.4-3.3l-.1.1C404.4 95 358.7 77.5 306.4 77.5c-60.5 0-112.1 23.2-149.2 67.2-35 41.3-54.2 98.7-54.2 161.6 0 41.8 8.5 81.1 24.5 114.9l71-71c-2.5-13.4-3.7-28.1-3.7-43.9 0-41.1 8.4-74.4 24.9-98.8 19.4-28.7 49.4-43.9 86.7-43.9 29.1 0 53.3 9.2 71.8 26.2L134 434.1c6.7 12.2 14.5 23.5 23.2 33.9 1.7 2.1 3.6 4 5.4 6l.1.1c2.1 2.3 4.2 4.5 6.4 6.6.3.3.5.6.8.8l2.1 2.1.1-.1c35.6 33.8 81.6 51.7 134.4 51.7C367 535.2 418.7 512 456 468c35.1-41.4 54.5-98.8 54.5-161.6-.1-42.5-9-82.5-25.5-116.7z" style="fill:#fff"/></svg>