<svg width="250" height="50" viewBox="0 0 250 50" fill="none" xmlns="http://www.w3.org/2000/svg"><path d="M67.707 37.92c-1.511 0-2.915-.204-4.211-.612-1.297-.408-2.389-1.02-3.277-1.836-.888-.816-1.523-1.836-1.907-3.06-.36-1.224-.408-2.652-.145-4.284.192-1.032.396-2.064.612-3.096.24-1.032.48-2.076.72-3.132.792-3.24 2.22-5.7 4.284-7.38 2.064-1.68 4.849-2.52 8.352-2.52 1.512 0 2.904.216 4.176.648 1.296.408 2.388 1.032 3.276 1.872a6.692 6.692 0 0 1 1.909 3.096c.383 1.224.431 2.652.144 4.284a45.116 45.116 0 0 1-.612 3.132 142.997 142.997 0 0 1-.684 3.096c-.816 3.288-2.256 5.748-4.32 7.38-2.064 1.608-4.837 2.412-8.317 2.412zm.469-5.184c1.296 0 2.436-.384 3.42-1.152.983-.768 1.68-1.992 2.087-3.672.264-1.056.492-2.052.684-2.988.216-.936.408-1.908.576-2.916.313-1.68.169-2.904-.431-3.672-.6-.768-1.549-1.152-2.844-1.152-1.297 0-2.437.384-3.42 1.152-.96.768-1.645 1.992-2.053 3.672-.263 1.008-.503 1.98-.72 2.916a135.78 135.78 0 0 0-.575 2.988c-.288 1.68-.145 2.904.431 3.672.576.768 1.525 1.152 2.844 1.152zm17.276 4.824a.72.72 0 0 1-.576-.252c-.144-.168-.192-.384-.144-.648l4.968-23.4c.048-.264.18-.48.396-.648.216-.168.444-.252.684-.252h9.576c1.464 0 2.784.168 3.96.504 1.2.336 2.196.852 2.988 1.548.792.696 1.344 1.572 1.656 2.628.312 1.032.324 2.244.036 3.636-.6 2.76-1.824 4.8-3.672 6.12-1.824 1.32-4.284 1.98-7.38 1.98h-4.86l-1.656 7.884a1.03 1.03 0 0 1-.396.648c-.192.168-.42.252-.684.252h-4.896zm8.568-13.752h4.14c.984 0 1.86-.264 2.628-.792.792-.528 1.308-1.332 1.548-2.412.12-.624.144-1.176.072-1.656s-.324-.864-.756-1.152c-.408-.288-1.044-.432-1.908-.432h-4.32l-1.404 6.444zM115.65 37.56c-.264 0-.468-.084-.612-.252-.144-.168-.192-.384-.144-.648l3.996-18.648h-6.408a.72.72 0 0 1-.576-.252.78.78 0 0 1-.144-.648l.828-3.852c.048-.264.168-.48.36-.648.216-.168.456-.252.72-.252h19.368c.264 0 .456.084.576.252.144.168.192.384.144.648l-.828 3.852c-.048.24-.18.456-.396.648-.192.168-.42.252-.684.252h-6.408l-3.96 18.648a1.03 1.03 0 0 1-.396.648c-.192.168-.42.252-.684.252h-4.752zm18.862 0c-.264 0-.468-.084-.612-.252-.144-.168-.192-.384-.144-.648l5.004-23.4c.048-.264.18-.48.396-.648.216-.168.444-.252.684-.252h4.86a.72.72 0 0 1 .576.252c.144.168.192.384.144.648l-5.004 23.4a1.03 1.03 0 0 1-.396.648.959.959 0 0 1-.648.252h-4.86zm14.768 0c-.264 0-.468-.084-.612-.252-.144-.168-.192-.384-.144-.648l4.968-23.4c.048-.264.18-.48.396-.648.216-.168.456-.252.72-.252h3.888c.384 0 .648.108.792.324.168.192.276.348.324.468l3.888 11.376 8.784-11.376c.072-.12.216-.276.432-.468.24-.216.552-.324.936-.324h3.888c.264 0 .468.084.612.252.144.168.192.384.144.648l-4.968 23.4a1.03 1.03 0 0 1-.396.648 1.145 1.145 0 0 1-.72.252h-4.32a.72.72 0 0 1-.576-.252c-.144-.168-.192-.384-.144-.648l2.808-13.284-5.508 7.308a4.77 4.77 0 0 1-.612.576c-.216.168-.492.252-.828.252h-1.872c-.336 0-.576-.084-.72-.252a1.703 1.703 0 0 1-.324-.576l-2.556-7.632-2.916 13.608a1.03 1.03 0 0 1-.396.648.959.959 0 0 1-.648.252h-4.32zm31.757 0c-.264 0-.468-.084-.612-.252-.144-.168-.192-.384-.144-.648l5.004-23.4c.048-.264.18-.48.396-.648.216-.168.444-.252.684-.252h4.86a.72.72 0 0 1 .576.252c.144.168.192.384.144.648l-5.004 23.4a1.03 1.03 0 0 1-.396.648.959.959 0 0 1-.648.252h-4.86zm22.76.36c-2.4 0-4.368-.336-5.904-1.008-1.512-.672-2.604-1.56-3.276-2.664-.648-1.128-.876-2.316-.684-3.564.048-.192.144-.36.288-.504a.793.793 0 0 1 .576-.252h4.608c.336 0 .576.06.72.18.144.12.288.276.432.468.096.36.288.708.576 1.044.288.336.684.612 1.188.828.528.192 1.176.288 1.944.288 1.392 0 2.508-.216 3.348-.648.84-.432 1.332-1.02 1.476-1.764.144-.528.048-.96-.288-1.296-.312-.36-.876-.672-1.692-.936-.792-.288-1.86-.576-3.204-.864-1.752-.384-3.192-.912-4.32-1.584-1.128-.696-1.92-1.572-2.376-2.628-.432-1.08-.492-2.364-.18-3.852.48-2.208 1.668-3.948 3.564-5.22 1.896-1.296 4.356-1.944 7.38-1.944 1.56 0 2.94.216 4.14.648 1.224.432 2.244 1.008 3.06 1.728.816.72 1.404 1.488 1.764 2.304.36.792.48 1.572.36 2.34a.926.926 0 0 1-.288.54.86.86 0 0 1-.576.216h-4.824c-.24 0-.456-.048-.648-.144a1.176 1.176 0 0 1-.432-.468c0-.528-.276-.984-.828-1.368-.552-.408-1.284-.612-2.196-.612-1.032 0-1.896.192-2.592.576-.696.36-1.128.924-1.296 1.692-.12.48-.06.9.18 1.26.264.36.744.672 1.44.936.72.264 1.704.54 2.952.828 2.112.408 3.768.96 4.968 1.656 1.2.672 2.004 1.524 2.412 2.556.432 1.032.492 2.292.18 3.78-.528 2.448-1.812 4.308-3.852 5.58-2.016 1.248-4.716 1.872-8.1 1.872zm16.384-.36c-.264 0-.468-.084-.612-.252-.144-.168-.192-.384-.144-.648l4.968-23.4c.048-.264.18-.48.396-.648.216-.168.456-.252.72-.252h3.888c.384 0 .648.108.792.324.168.192.276.348.324.468l3.888 11.376 8.784-11.376c.072-.12.216-.276.432-.468.24-.216.552-.324.936-.324h3.888c.264 0 .468.084.612.252.144.168.192.384.144.648l-4.968 23.4a1.03 1.03 0 0 1-.396.648 1.145 1.145 0 0 1-.72.252h-4.32a.72.72 0 0 1-.576-.252c-.144-.168-.192-.384-.144-.648l2.808-13.284-5.508 7.308a4.77 4.77 0 0 1-.612.576c-.216.168-.492.252-.828.252h-1.872c-.336 0-.576-.084-.72-.252a1.703 1.703 0 0 1-.324-.576l-2.556-7.632-2.916 13.608a1.03 1.03 0 0 1-.396.648.959.959 0 0 1-.648.252h-4.32z" fill="#fff"/><g clip-path="url(#a)"><path d="M25 50c13.807 0 25-11.193 25-25S38.807 0 25 0 0 11.193 0 25s11.193 25 25 25z" fill="#fff"/><path fill-rule="evenodd" clip-rule="evenodd" d="M25 50c13.807 0 25-11.193 25-25S38.807 0 25 0 0 11.193 0 25s11.193 25 25 25zm-9.409-18.133a7.368 7.368 0 0 0 2.223.323c1.837 0 3.3-.424 4.389-1.273 1.09-.861 1.85-2.16 2.28-3.895.127-.545.247-1.09.361-1.634.127-.545.234-1.096.323-1.653.152-.861.127-1.615-.076-2.261a3.532 3.532 0 0 0-1.007-1.634c-.469-.443-1.045-.773-1.729-.988a6.815 6.815 0 0 0-2.204-.342c-1.85 0-3.319.443-4.408 1.33-1.09.887-1.843 2.185-2.261 3.895-.127.557-.253 1.108-.38 1.653-.114.545-.222 1.09-.323 1.634-.14.861-.114 1.615.076 2.261a3.618 3.618 0 0 0 1.007 1.615c.469.43 1.045.754 1.729.969zm4.275-3.021a2.85 2.85 0 0 1-1.805.608c-.697 0-1.197-.203-1.501-.608-.304-.405-.38-1.051-.228-1.938.101-.557.203-1.083.304-1.577.114-.494.24-1.007.38-1.539.215-.887.576-1.533 1.083-1.938a2.85 2.85 0 0 1 1.805-.608c.684 0 1.184.203 1.501.608.317.405.393 1.051.228 1.938-.089.532-.19 1.045-.304 1.539-.101.494-.222 1.02-.361 1.577-.215.887-.583 1.533-1.102 1.938zm5.774 3.021a.38.38 0 0 0 .304.133h2.584a.53.53 0 0 0 .361-.133.544.544 0 0 0 .21-.342l.873-4.161h2.565c1.634 0 2.933-.348 3.895-1.045.976-.697 1.622-1.773 1.938-3.23.152-.735.146-1.374-.019-1.919a2.898 2.898 0 0 0-.874-1.387c-.418-.367-.943-.64-1.577-.817-.62-.177-1.317-.266-2.09-.266h-5.054a.579.579 0 0 0-.36.133.544.544 0 0 0-.21.342l-2.622 12.35c-.025.14 0 .253.076.342zm7.011-7.125h-2.185l.741-3.401h2.28c.456 0 .792.076 1.007.228a.862.862 0 0 1 .4.608c.037.253.025.545-.039.874-.126.57-.399.994-.817 1.273a2.39 2.39 0 0 1-1.387.418z" fill="#FF0420"/></g><defs><clipPath id="a"><path fill="#fff" d="M0 0h50v50H0z"/></clipPath></defs></svg>