<svg width="20" height="28" viewBox="0 0 20 28" xmlns="http://www.w3.org/2000/svg"><g fill="none" fill-rule="evenodd"><g fill="#34445B" fill-rule="nonzero"><g><path d="m10.816 8.741 2.435-3.797a2.456 2.456 0 1 0-1.464-.932l-3.024 4.71a9.636 9.636 0 1 0 2.049.017l.004.002zM9.705 23.414a5.11 5.11 0 1 1 4.78-6.916 2.95 2.95 0 1 0-.004 3.624 5.112 5.112 0 0 1-4.776 3.292z"/><path d="m10.816 8.741 2.435-3.797a2.456 2.456 0 1 0-1.464-.932l-3.024 4.71a9.636 9.636 0 1 0 2.049.017l.004.002zM9.705 23.414a5.11 5.11 0 1 1 4.78-6.916 2.95 2.95 0 1 0-.004 3.624 5.112 5.112 0 0 1-4.776 3.292z"/></g></g></g></svg>