<svg width="28" height="28" viewBox="0 0 28 28" xmlns="http://www.w3.org/2000/svg"><defs><linearGradient x1="0%" y1="50%" x2="100%" y2="50%" id="a"><stop stop-color="#231F20" offset="0%"/><stop stop-color="#3F3A3A" offset="100%"/></linearGradient><linearGradient x1="83.968%" y1="86.802%" x2="8.411%" y2="30.129%" id="b"><stop stop-color="#1D1D20" offset="0%"/><stop stop-color="#4E4E54" stop-opacity="0" offset="100%"/></linearGradient><linearGradient x1="6.527%" y1="25.429%" x2="91.759%" y2="70.198%" id="c"><stop stop-color="#1D1D20" offset="0%"/><stop stop-color="#4E4E54" stop-opacity="0" offset="100%"/></linearGradient><linearGradient x1="39.126%" y1="65.136%" x2="96.266%" y2="15.347%" id="d"><stop stop-color="#18181B" stop-opacity="0" offset="0%"/><stop stop-color="#3A3A3F" stop-opacity=".098" offset="40.67%"/><stop stop-color="#616167" stop-opacity=".23" offset="49.41%"/><stop stop-color="#808088" stop-opacity=".358" offset="57.99%"/><stop stop-color="#96969E" stop-opacity=".482" offset="66.23%"/><stop stop-color="#A3A3AC" stop-opacity=".598" offset="73.99%"/><stop stop-color="#A8A8B1" stop-opacity=".7" offset="80.77%"/><stop stop-color="#A2A2AB" stop-opacity=".61" offset="83.25%"/><stop stop-color="#919199" stop-opacity=".486" offset="86.65%"/><stop stop-color="#75757C" stop-opacity=".343" offset="90.59%"/><stop stop-color="#4E4E54" stop-opacity=".185" offset="94.93%"/><stop stop-color="#1D1D20" stop-opacity=".017" offset="99.54%"/><stop stop-color="#18181B" stop-opacity="0" offset="100%"/></linearGradient></defs><g fill="none" fill-rule="evenodd"><g><g><g><circle fill="#F1F0F0" cx="14" cy="14" r="14"/><g><g fill-rule="nonzero"><g><path d="M5.828 3 9.1 6.444l1.415-1.454C10.241 4.714 5.95.245 5.828.122 3.941 2.112 2.008 3.995.198 5.97c-.198.215-.198.704 0 .919 1.78 1.944 3.667 3.796 5.63 5.877 3.165-3.306 6.209-6.444 9.359-9.75 1.065 1.102 2.009 2.005 2.83 2.97.229.26.137.75-.106 1.025-.791.919-2.724 2.801-2.724 2.801L11.9 6.444l-1.4 1.454c.32.337 3.987 4.148 4.687 4.867 1.72-1.806 3.272-3.398 4.87-5.066.273-.29.563-.597.79-.934.183-.199.077-.581-.12-.796-1.766-1.913-3.562-3.75-5.54-5.831-3.165 3.29-6.209 6.413-9.359 9.704-1.08-1.118-2.085-2.128-3.013-3.153-.137-.153-.106-.444.046-.612C3.774 5.082 4.748 4.102 5.828 3z" fill="url(#a)" transform="translate(3.5 7.571)"/><path fill="url(#b)" d="m9.1 6.444 1.415-1.47L5.828.122V3z" transform="translate(3.5 7.571)"/><path fill="url(#c)" d="m11.915 6.444-1.4 1.454 2.526 2.617 1.157-1.73z" transform="translate(3.5 7.571)"/></g><path fill="url(#d)" opacity=".5" d="m4.428 11.296 1.4 1.47 9.374-9.75V.121z" transform="translate(3.5 7.571)"/></g></g></g></g></g></g></svg>