<svg xmlns="http://www.w3.org/2000/svg" width="640" height="640" viewBox="0 0 640 640"><g fill="none"><path fill="#000" d="M150.502 159.416c75.592 0 125.175 71.987 125.175 168.133v12.47c0 100.042-57.376 159.658-126.441 159.658-32.341.098-56.304-7.306-72.183-23.476h-3.117v130.922H0V163.8h72.28v20.457h2.825c25.23-24.159 57.376-24.84 75.397-24.84zm451.507 2.727c3.312 0 .585.097 3.8.097l.389 74.521h-9.254c-41.498 0-82.704 32.925-82.704 74.52v186.74h-73.643V166.916h68.188v20.36h2.825c16.56-17.437 57.084-25.62 90.4-25.133zM385.461 32v465.73h-74.033V32h74.033zM140.566 219.616c-45.978 0-70.624 48.707-70.624 104.524v21.723c0 53.187 24.256 93.906 71.89 93.906 37.504-.098 65.17-29.322 65.17-93.809v-21.82c0-62.636-23.867-104.524-66.436-104.524z"/><path fill="#00BFFF" d="M565.869 418.435h73.644v79.294h-73.644z"/></g></svg>