<svg width="28" height="28" viewBox="0 0 28 28" xmlns="http://www.w3.org/2000/svg"><g fill="none" fill-rule="evenodd"><g><g><g fill-rule="nonzero"><circle fill="#DBDBDB" cx="14" cy="14" r="14"/><g><path fill="#5B6FAD" d="m22.845 8.028.128.389 1.578-.5z"/><path fill="#313A63" d="m18.941 9.315 2.777.812-.888-.664z"/><path fill="#303863" d="m25.24 8.595.086.777-.5-.156z"/><path fill="#49578D" d="M20.83 10.818h3.186l-.423-.5z"/><path fill="#2F3964" d="m21.718 10.127.413.378-1.301.166z"/><path fill="#4E60A3" d="m21.767 11.342 2.249-.67H20.83z"/><path fill="#3F4A81" d="m18.941 9.315 1.889 1.356.888-.544z"/><path fill="#323967" d="m22.488 11.127.308 1.041-1.029-.826z"/><path fill="#313A63" d="m22.937 14.972-.141-2.804-1.12 3.384z"/><path fill="#3F4A80" d="m21.767 11.342-.091 4.21 1.12-3.384z"/><path fill="#4A5692" d="m19.54 14.181 2.227-2.839-.091 4.21z"/><path fill="#3F4A80" d="m19.23 11.54 2.537-.198-2.227 2.84z"/><path fill="#4A5897" d="m18.941 9.315.289 2.225 2.537-.198z"/><path fill="#323A65" d="m18.807 13.447.733.734-.31-2.641z"/><path fill="#313A63" d="m16.235 7.917 2.706 1.398.289 2.225z"/><path fill="#3E4A80" d="m18.807 13.447-2.572-5.53 2.995 3.623z"/><path fill="#4A5897" d="m14.656 8.237 1.579-.32 2.572 5.53z"/><path fill="#5161A2" d="m14.313 11.716 4.494 1.73-4.15-5.209z"/><path fill="#4A5897" d="m9.695 12.362 4.618-.646.343-3.479z"/><path fill="#3F4A80" d="m13.876 14.805.437-3.089-4.618.646z"/><path fill="#4A5897" d="m18.807 13.447-4.93 1.358.436-3.089z"/><path fill="#5260A4" d="m18.807 13.447-.063 1.066-2.184-.023z"/><path fill="#3F4980" d="m13.876 14.805 2.684-.315 2.247-1.043z"/><path fill="#4A5897" d="m18.744 14.513-1.39 2.096-.794-2.119z"/><path fill="#313B61" d="m13.876 14.805.028.923 2.656-1.238z"/><path fill="#3F4A80" d="m17.353 16.609-1.18-.222.387-1.897z"/><path fill="#3F4A7F" d="m13.876 14.805-2.772.443 2.8.48z"/><path fill="#4A5897" d="m16.174 16.387-.527.96 1.706-.738z"/><path fill="#3F4A80" d="m14.914 16.453 1.26-.066-1.584 1.676z"/><path fill="#30395F" d="m15.647 17.348-1.057.715 1.584-1.676z"/><path fill="#4A5897" d="m9.695 12.362 1.41 2.886 2.771-.443z"/><path fill="#313A63" d="m9.695 12.362.051 3.94 1.358-1.054z"/><path fill="#3F4A80" d="m7.9 16.472 1.846-.17-.051-3.94z"/><path fill="#313A63" d="m7.9 16.472 1.024 1.149.822-1.319z"/><path fill="#4A5897" d="m9.695 12.362-2.326.781.53 3.329zM8.924 17.62 5.58 18.983l2.32-2.51z"/><path fill="#5261A4" d="m7.369 13.143-.982 1.04L7.9 16.473z"/><path fill="#323A63" d="m5.579 18.982 2.32-2.51-1.512.301z"/><path fill="#3F4A80" d="M6.387 14.184v2.59l1.513-.302z"/><path fill="#3F4A84" d="m5.579 18.982.154 1.756 1.102-2.267z"/><path fill="#313A63" d="M6.387 14.184H4.653l1.734 1.054z"/><path fill="#1F2340" d="m5.579 18.982.154 1.756-.624.316z"/><path fill="#3E4B80" d="m4.653 14.184.136.744 1.598.31z"/><path fill="#333C63" d="m5.733 20.738-1.127 1.135.503-.82z"/><path fill="#3E4A82" d="m4.606 21.873 1.297-.254-.17-.881z"/><path fill="#313B64" d="m3.75 15.827-1.188.344 1.156.184z"/><path fill="#4C5DA9" d="m24.826 9.216-.81 1.455 1.099-1.3z"/><path fill="#404983" d="m23.593 10.318 1.233-1.102-.81 1.455z"/><path fill="#475692" d="m22.845 8.015.128.346-2.143 1.102z"/><path fill="#3E4B83" d="m21.718 10.127-.888-.664 2.143-1.102z"/><path fill="#4D5AAE" d="m4.653 14.184-.902 1.643 1.038-.9z"/><path fill="#485E9B" d="m3.718 16.355 1.071-1.427-1.038.9z"/></g></g></g></g></g></svg>