<svg width="48" height="48" viewBox="0 0 48 48" fill="none" xmlns="http://www.w3.org/2000/svg"><g clip-path="url(#a)"><rect width="48" height="48" rx="24" fill="#fff"/><path fill-rule="evenodd" clip-rule="evenodd" d="m-4 24 9 19 19 8.5L43 43l8.5-19L43 5 24-4 5 5l-9 19zm20.177-10.822v1.248l1.034-.578c1.264-.706 1.294-.707 1.597-.042.225.496.17.576-.747 1.062-.545.289-.99.591-.99.672 0 .08.452.412 1.005.736.979.574.996.603.658 1.119l-.347.53-.938-.537c-.515-.294-1.013-.537-1.105-.538-.092-.002-.168.557-.168 1.241 0 1.226-.009 1.243-.614 1.174-.574-.066-.62-.15-.682-1.244-.038-.646-.12-1.174-.184-1.174s-.546.252-1.07.56l-.954.558-.277-.609c-.153-.335-.194-.637-.092-.672.102-.035.578-.3 1.058-.59l.872-.53-1.04-.609c-1.142-.67-1.18-.738-.735-1.345.294-.402.342-.395 1.341.19l1.036.607v-1.239c0-1.227.007-1.239.67-1.239.666 0 .671.01.671 1.249zM27.577 24v12.07H20.423V11.93h7.152V24zm4.376-11.415c2.294 1.014 3.823 2.85 4.467 5.365 1.139 4.447-2.043 9.102-6.537 9.566l-1.189.123V11.867l1.117.132a8.98 8.98 0 0 1 2.142.586zm-16.335 19.91 3.571 3.576h-7.26v-3.577c0-1.967.027-3.576.059-3.576s1.665 1.61 3.63 3.576zm20.453 0v3.576h-7.26l3.571-3.577c1.965-1.967 3.598-3.576 3.63-3.576.032 0 .059 1.61.059 3.576z" fill="#041E41"/></g><defs><clipPath id="a"><rect width="48" height="48" rx="24" fill="#fff"/></clipPath></defs></svg>