<svg viewBox="0 0 189 219" xmlns="http://www.w3.org/2000/svg" xml:space="preserve" style="fill-rule:evenodd;clip-rule:evenodd;stroke-linejoin:round;stroke-miterlimit:1.41421"><g><g><path d="M9.98-37.246h54.532L37.246 9.98h-54.532L9.98-37.246z" style="fill:#9391bb;fill-rule:nonzero" transform="matrix(0 1 1 0 178.924 71.818)"/></g><g><path d="m0-27.266-47.225-27.266V0l-.001.001L.001 27.266v-54.532H0z" style="fill:#a2eee3;fill-rule:nonzero" transform="translate(188.903 190.86)"/></g><g><path d="M-60.859-33.593h54.532l-54.532 94.452-27.266-47.226 27.266-47.226z" style="fill:#46ddc8;fill-rule:nonzero" transform="matrix(0 -1 -1 0 60.859 -6.327)"/></g><g><path d="m0-27.266-47.226-27.266-47.226 27.266L-47.226 0v.001L0 27.266v-54.532z" style="fill:#262278;fill-rule:nonzero" transform="translate(94.452 190.86)"/></g><g><path d="M-30.918-78.145H78.145L50.879-30.919H-3.654l-27.264-47.226z" style="fill:#9391bb;fill-rule:nonzero" transform="matrix(0 1 1 0 78.145 85.45)"/></g><g><path d="M-64.511-64.512H-9.98l27.265 47.227-54.532-.002-27.264-47.225z" style="fill:#46ddc8;fill-rule:nonzero" transform="scale(-1 1) rotate(29.999 -477.883 -108.09)"/></g><g><path d="m0 81.797 47.226-27.266L0 27.265-47.226 0v54.531L0 81.797z" style="fill:#262278;fill-rule:nonzero" transform="translate(141.678)"/></g></g></svg>