<svg width="600" height="200" viewBox="0 0 600 200" fill="none" xmlns="http://www.w3.org/2000/svg"><path fill-rule="evenodd" clip-rule="evenodd" d="M151.963 76.493c-11.087 11.092-11.083 29.074 0 40.162 9.641 9.645 24.488 10.903 35.487 3.775l6.328 6.33 8.332-8.335-6.307-6.309c7.215-11.015 5.984-25.942-3.693-35.623-11.083-11.088-29.064-11.088-40.147 0zm24.176 15.951 10.938 10.943c2.752-6.082 1.629-13.49-3.369-18.489-6.446-6.448-16.897-6.453-23.343 0-6.446 6.453-6.446 16.903 0 23.352 4.963 4.961 12.29 6.105 18.341 3.433l-10.899-10.904 8.332-8.335zm157.294 2.433h4.991v18.936c0 8.046 4.245 10.88 12.74 10.88a48.43 48.43 0 0 0 7.15-.522v-9.764l-.053.006c-1.306.144-1.977.218-3.374.218-2.981 0-4.693-.595-4.693-3.876V94.881h7.673v-9.84h-7.673v-10.88h-11.77v10.876h-4.991v9.84zm-40.354-9.836h11.918v3.952c2.159-2.535 5.81-4.77 10.801-4.77 8.044 0 13.111 5.588 13.111 14.162v25.937h-11.918v-22.508c0-3.952-1.64-6.858-5.514-6.858-3.28 0-6.484 2.312-6.484 6.93v22.432h-11.918V85.041h.004zm-29.772 15.727c-8.267 1.189-15.122 4.471-15.122 12.593v.005c0 6.929 5.662 11.698 13.558 11.698 5.143 0 9.013-1.564 11.623-4.246 2.011 3.357 6.627 4.622 13.482 3.504v-8.793c-2.31.299-3.057-.299-3.057-2.311V98.09c0-9.169-6.631-13.863-16.614-13.863s-16.167 5.664-17.879 12.594l11.399 1.712c.746-3.205 2.534-4.694 5.961-4.694 3.875 0 5.439 1.864 5.439 4.77v.67l-8.79 1.489zm1.935 7.448 6.855-1.265v3.277c0 4.023-3.651 6.111-7.601 6.111-2.829 0-4.692-1.341-4.692-3.8 0-2.758 2.31-3.8 5.438-4.323zm-34.266 16.098h11.918V85.042h-11.918v22.731c0 4.618-3.128 6.929-6.408 6.929-3.875 0-5.586-2.53-5.586-6.482V85.042h-11.918v26.004c0 8.57 5.291 14.086 13.334 14.086 4.916 0 8.42-2.235 10.578-4.694v3.876zm137.992-13.787-6.182 8.043c3.647 4.246 11.397 6.557 18.251 6.557 9.983 0 17.879-4.693 17.879-13.563 0-8.869-7.896-10.581-14.974-11.998l-.79-.147c-4.235-.787-6.288-1.17-6.288-3.206 0-1.788 1.863-2.906 4.768-2.906 3.872 0 7.747 1.717 10.728 4.846l5.96-7.676c-3.279-3.576-9.533-6.258-16.612-6.258-9.686 0-16.763 5.293-16.763 13.268 0 8.494 6.932 10.21 13.411 11.475.364.066.721.128 1.06.189h.003c5.489.972 7.802 1.381 7.802 3.834 0 2.088-2.611 3.13-5.738 3.13-4.245 0-9.312-2.084-12.515-5.588zm33.155-15.65h4.99v18.936c0 8.046 4.249 10.88 12.74 10.88 2.829 0 5.063-.223 7.151-.522v-9.764l-.055.006c-1.306.144-1.974.218-3.373.218-2.982 0-4.693-.595-4.693-3.876V94.881h7.674v-9.84h-7.674v-10.88h-11.77v10.876h-4.99v9.84zm29.722 18.484c0-8.122 6.857-11.404 15.123-12.593l8.789-1.489v-.67c0-2.906-1.562-4.77-5.437-4.77-3.428 0-5.215 1.489-5.96 4.694l-11.4-1.712c1.711-6.93 7.896-12.594 17.88-12.594 9.98 0 16.611 4.694 16.611 13.863v15.128c0 2.012.748 2.61 3.058 2.311v8.793c-6.853 1.118-11.473-.147-13.485-3.504-2.607 2.682-6.482 4.246-11.625 4.246-7.895 0-13.557-4.769-13.557-11.698l.003-.005zm17.059-5.145 6.849-1.264v3.276c0 4.023-3.646 6.111-7.597 6.111-2.826 0-4.693-1.341-4.693-3.8 0-2.758 2.314-3.8 5.441-4.323zm27.142 16.098h11.92l.003-22.433c0-4.618 3.058-6.929 6.185-6.929 3.872 0 5.364 2.906 5.364 6.858v22.508h11.916v-22.432c0-4.618 3.058-6.93 6.185-6.93 3.799 0 5.364 2.906 5.364 6.858v22.508h11.916V98.385c0-8.574-5.291-14.162-13.263-14.162-6.032 0-9.907 2.906-12.141 5.365-2.233-3.353-6.108-5.365-10.801-5.365-4.99 0-8.571 2.235-10.728 4.77V85.04h-11.92v39.273zm76.709-3.868v16.988h-11.92V85.041h11.92v3.952c2.233-2.83 5.959-4.77 10.652-4.77 10.801 0 16.909 9.24 16.909 20.497 0 11.256-6.108 20.42-16.909 20.42-4.693 0-8.419-1.936-10.652-4.694zm-.077-14.685c0 5.888 3.204 9.241 7.674 9.241 5.216 0 7.972-4.247 7.972-10.286 0-6.04-2.756-10.287-7.972-10.287-4.47 0-7.674 3.277-7.674 9.241v2.091z" fill="#fff"/><path d="M109.522 96.497c0-7.594-2.184-15.065-6.358-21.427l15.378-15.463L107.017 48 91.64 63.463a38.866 38.866 0 0 0-42.669 0L33.56 48 22 59.607 37.377 75.07a39.402 39.402 0 0 0 0 42.895L22 133.393 33.56 145l15.376-15.463a38.864 38.864 0 0 0 42.67 0L106.982 145l11.559-11.607-15.378-15.463a38.642 38.642 0 0 0 6.358-21.427v-.006zm-62.133 0c0-9.381 5.64-17.852 14.303-21.345 8.663-3.5 18.593-1.39 25.068 5.368 6.474 6.76 8.225 16.818 4.372 25.364L76.036 90.696l-11.524 11.608 15.097 15.188c-7.07 3.178-15.296 2.582-21.811-1.671-6.474-4.252-10.409-11.531-10.409-19.318v-.006z" fill="#fff"/></svg>