<svg xmlns="http://www.w3.org/2000/svg" viewBox="0 0 153.25 123.95"><defs><style>.cls-1{fill:#000}</style></defs><g id="Layer_2" data-name="Layer 2"><g id="Layer_1-2" data-name="Layer 1"><g><path class="cls-1" d="M152 33.09 96.86 1.37a2.48 2.48 0 0 0-3.5 3.17L116 55a2.48 2.48 0 0 0 3.5 1.14L152 37.4a2.49 2.49 0 0 0 0-4.31zM37.29 55l22.6-50.46a2.48 2.48 0 0 0-3.5-3.17L1.24 33.09a2.5 2.5 0 0 0 0 4.31l32.55 18.73a2.48 2.48 0 0 0 3.5-1.13zM74.54 122.48 47.89 63a2.48 2.48 0 0 1 0-2L74.54 1.47a2.48 2.48 0 0 1 4.54 0l26.29 59.69a2.49 2.49 0 0 1 0 2l-26.29 59.3a2.49 2.49 0 0 1-4.54.02z"/></g></g></g></svg>