<svg width="108" height="108" viewBox="0 0 108 108" xmlns="http://www.w3.org/2000/svg"><g fill="none" fill-rule="evenodd"><circle fill="#FFF" cx="54" cy="54" r="54"/><g fill="#FFF"><circle cx="54" cy="54" r="54"/></g><g><path d="M21 82.348V26.196c.046-.12.096-.236.106-.37a7.818 7.818 0 0 1 .602-2.429 7.057 7.057 0 0 1 2.766-3.27c.978-.625 2.059-.959 3.212-1.072.192.012.383.018.567-.055h53.206c.049.053.118.046.181.058.564.111 1.058.351 1.452.779-.094.03-.156.102-.223.169-.179.18-11.048 11.087-11.962 12.001-.232.233-.469.462-.703.693-.034-.039-.079-.049-.127-.049a13.445 13.445 0 0 0-.284-.003l-34.358.001a.847.847 0 0 0-.113.006c-.052.007-.087.039-.089.092-.004.123-.006 32.772-.006 48.974 0 .369-.01.736-.054 1.103a7.053 7.053 0 0 1-1.361 3.405 6.615 6.615 0 0 1-1.925 1.732c-.962.579-2.01.899-3.123 1.018l-1.248-.001a8.297 8.297 0 0 1-1.168-.213c-2.192-.585-3.755-1.91-4.686-3.978a6.747 6.747 0 0 1-.556-2.127c-.011-.112-.01-.229-.106-.312" fill="#00E6A0"/><path d="M76.984 88.927c-1.497-.283-2.796-.94-3.874-2.029-1.195-1.209-22.558-22.588-23.515-23.553-.761-.77-1.346-1.652-1.7-2.68a6.987 6.987 0 0 1-.337-3.18 6.903 6.903 0 0 1 2.03-4.14c.442-.44 30.753-30.8 32.744-32.797l.538-.542c.066-.067.128-.14.223-.17.19.175.33.388.444.617.226.457.32.94.318 1.45-.008 2.333-.01 4.665-.013 6.997l-.01 6.826c0 .444-.03.885-.101 1.324a6.848 6.848 0 0 1-1.884 3.732c-.96.989-17.495 17.498-17.503 17.583.053.055 17.976 18.005 18.642 18.674a7.017 7.017 0 0 1 1.502 2.212c.253.593.437 1.205.49 1.852-.031.193.012.379.05.565v.68c-.034.188-.081.374-.05.567-.014.13-.021.263-.045.392a6.883 6.883 0 0 1-1.996 3.732c-1.06 1.032-2.333 1.64-3.785 1.894-.176.03-.36.029-.526.102h-.793c-.055-.007-.11-.01-.164-.02-.227-.038-.453-.084-.685-.087" fill="#008C62"/></g></g></svg>