<svg width="28" height="28" viewBox="0 0 28 28" xmlns="http://www.w3.org/2000/svg" xmlns:xlink="http://www.w3.org/1999/xlink"><defs><path d="M9.057 9.595a1.728 1.728 0 1 0 3.456 0 1.728 1.728 0 0 0-3.456 0z" id="a"/></defs><g fill="none" fill-rule="evenodd"><g><g><g fill="#F7DD4B"><path d="M17.983 12.283a1.762 1.762 0 0 0-1.568 1.855.66.66 0 0 1-.67.703.72.72 0 0 1-.353-.095 1.929 1.929 0 0 0-.928-.256h-.195a1.737 1.737 0 0 0-1.536 1.855.66.66 0 0 1-.67.704.539.539 0 0 1-.321-.096 1.925 1.925 0 0 0-.916-.256h-.201a1.75 1.75 0 0 0 .2 3.487h.15a1.74 1.74 0 0 0 1.57-1.562v-.3a.658.658 0 0 1 .32-.598.64.64 0 0 1 .352-.096.73.73 0 0 1 .352.096c.282.162.6.25.927.256h.193a1.737 1.737 0 0 0 1.534-1.568v-.289a.656.656 0 0 1 .321-.606.64.64 0 0 1 .352-.098.537.537 0 0 1 .319.098c.283.161.602.248.928.254h.192a1.813 1.813 0 0 0 1.536-1.759 1.747 1.747 0 0 0-1.728-1.76.235.235 0 0 0-.16.034M14.304 10.076a1.763 1.763 0 0 0-1.568 1.855.663.663 0 0 1-.67.702.548.548 0 0 1-.32-.096 1.924 1.924 0 0 0-.92-.254h-.2a1.722 1.722 0 0 0-1.504 1.698 1.747 1.747 0 0 0 1.728 1.759h.16a1.74 1.74 0 0 0 1.568-1.57v-.288a.66.66 0 0 1 .67-.704.536.536 0 0 1 .32.096c.283.163.602.251.928.257h.193a1.75 1.75 0 0 0-.192-3.488.34.34 0 0 0-.193.033"/><use xlink:href="#a"/><path d="M13.867 23.88c-5.444 0-9.857-4.414-9.857-9.858 0-5.443 4.413-9.856 9.857-9.856 5.444 0 9.857 4.413 9.857 9.856s-4.411 9.857-9.854 9.857h-.003zm0-23.73C6.205.153-.003 6.367 0 14.028c.003 7.662 6.217 13.87 13.879 13.867 7.66-.003 13.866-6.213 13.866-13.873C27.745 6.36 21.532.15 13.87.15h-.003z"/></g></g></g></g></svg>