<svg width="600" height="200" viewBox="0 0 600 200" fill="none" xmlns="http://www.w3.org/2000/svg"><g clip-path="url(#a)"><path d="M480.98 109.873h9.725v15.737h-9.725v-15.737zm5.215-14.181c-9.291 0-28.889-14.898-28.889-14.898v10.953s17.521 13.722 28.889 13.722c11.431 0 28.298-13.672 28.298-13.672V80.679s-19.029 15.013-28.298 15.013zM212.067 107.67l41.167 17.939v-10.279l-27.772-11.146 27.772-11.083V82.831l-41.167 17.753v7.087zm87.079-24.84h-10.969l-26.755 42.772h11.375l20.843-32.687 20.844 32.687h11.374l-26.712-42.772zm134.891 0h-10.97l-26.761 42.786h11.374l20.851-32.701 20.85 32.701h11.375l-26.719-42.786zm-41.772 0-17.749 31.159-7.768-13.944 9.981-17.215h-11.233l-4.218 7.402-4.119-7.402h-11.674l10.073 17.444-7.818 13.715-17.35-31.16h-11.674l24.713 42.78h8.494l9.155-15.787 9.127 15.787h8.487l24.806-42.78h-11.233zM68.071 125.61h53.019V82.83H68.071v42.78zm43.316-32.981-.015 23.176h-33.57v-23.22l33.585.044zm24.457 32.953h49.469v-9.799h-39.738V92.6h39.738v-9.79h-49.469v42.772zm62.131-42.751v42.779h9.732l-.015-42.78h-9.717zM36.927 109.693s.477 8.938 8.516 15.903h13.352s-9.917-5.932-11.894-15.903h6.018V82.831H0v42.779h9.724v-15.917h27.203zM9.724 92.629l33.577-.007v8.349H9.724v-8.342z" fill="#fff"/><path d="m600 33-30.824 21.254v7.402L600 82.831V70.342l-18.446-12.459L600 45.488V33zm-66.058 12.488 18.453 12.395-18.453 12.46V82.83l30.831-21.175v-7.402L533.942 33v12.488z" fill="#8BCF2B"/></g><defs><clipPath id="a"><path fill="#fff" transform="translate(0 33)" d="M0 0h600v92.617H0z"/></clipPath></defs></svg>