<svg width="844" height="130" viewBox="0 0 844 130" fill="none" xmlns="http://www.w3.org/2000/svg"><g clip-path="url(#a)"><path d="M676.13 107.17h13.67v21.94h-13.67v-21.94zm7.33-19.77c-13.06 0-40.61-20.77-40.61-20.77V81.9s24.63 19.13 40.61 19.13c16.07 0 39.78-19.06 39.78-19.06v-15.5S696.49 87.4 683.46 87.4zm-385.35 16.7 57.87 25.01v-14.33l-39.04-15.54 39.04-15.45V69.47l-57.87 24.75v9.88zm122.41-34.63H405.1l-37.61 59.63h15.99l29.3-45.57 29.3 45.57h15.99l-37.55-59.63zm189.62 0h-15.42l-37.62 59.65h15.99l29.31-45.59 29.31 45.59h15.99l-37.56-59.65zm-58.72 0-24.95 43.44-10.92-19.44 14.03-24h-15.79l-5.93 10.32-5.79-10.32h-16.41l14.16 24.32-10.99 19.12-24.39-43.44h-16.41l34.74 59.64h11.94l12.87-22.01 12.83 22.01h11.93l34.87-59.64h-15.79zM95.69 129.11h74.53V69.47H95.69v59.64zm60.89-45.98-.02 32.31h-47.19V83.07l47.21.06zm34.38 45.94h69.54v-13.66h-55.86V83.09h55.86V69.44h-69.54v59.63zm87.34-59.6v59.64h13.68l-.02-59.64H278.3zM51.91 106.92s.67 12.46 11.97 22.17h18.77s-13.94-8.27-16.72-22.17h8.46V69.47H0v59.64h13.67v-22.19h38.24zM13.67 83.13l47.2-.01v11.64h-47.2V83.13z" fill="#fff"/><path d="m843.44 0-43.33 29.63v10.32l43.33 29.52V52.06l-25.93-17.37 25.93-17.28V0zm-92.86 17.41 25.94 17.28-25.94 17.37v17.41l43.34-29.52V29.63L750.58 0v17.41z" fill="#8BCF2B"/></g><defs><clipPath id="a"><path fill="#fff" d="M0 0h844v130H0z"/></clipPath></defs></svg>