<svg version="1.0" xmlns="http://www.w3.org/2000/svg" width="800" height="800" viewBox="0 0 600 600"><g><path d="M267.5 1.5c-56 6.2-111.1 29-155.5 64.5-13.5 10.8-35.2 32.5-46 46C23.1 165.7 0 231.4 0 300s23.1 134.3 66 188c10.8 13.5 32.5 35.2 46 46 53.7 42.9 119.4 66 188 66s134.3-23.1 188-66c13.5-10.8 35.2-32.5 46-46 55.8-69.7 77.7-160.3 60.1-247.8-9.4-46.3-30.3-90.9-60.1-128.2-10.8-13.5-32.5-35.2-46-46-44.9-35.9-99.7-58.5-156.8-64.5-16.6-1.8-47.3-1.8-63.7 0zM269 184c.3 18.4.9 34.1 1.3 34.7 1.2 1.9 58 1.8 59.6 0 .7-.9 1.2-12.2 1.3-34.8l.3-33.4 23-.3c20.7-.2 23.1-.1 24.2 1.5 1 1.3 1.3 9.8 1.3 34.5 0 18 .1 32.9.3 33 .1.1 13 .5 28.7.8l28.5.5.3 22.4c.1 14.9-.1 22.8-.8 23.5-.7.7-11.3 1.3-29.3 1.6l-28.2.5-.3 35.9c-.1 25.4.1 36.3.9 37.2.9 1.1 7.1 1.4 29.3 1.6l28.1.3.3 22.5c.2 20.3.1 22.6-1.5 23.7-1.2 1-8.7 1.3-29 1.3H380v33.4c0 27.1-.3 33.6-1.4 34.5-.9.8-8.2 1.1-24.2.9l-22.9-.3-.5-34-.5-34-30.2-.3-30.3-.2-.2 34.2-.3 34.3h-48l-.3-34.3-.2-34.2h-27.6c-17.1 0-28.3-.4-29.5-1-1.8-1-1.9-2.3-1.9-22.5 0-11.7.3-22 .6-22.9.5-1.4 4-1.6 28.3-1.6 15.2 0 28.2-.4 28.9-.8.9-.7 1.2-8.8 1-37.3l-.3-36.4-28-.5c-15.4-.3-28.6-.9-29.2-1.3-1-.6-1.3-6.2-1.3-22.2 0-11.7.3-22 .6-22.9.5-1.4 3.9-1.6 27.9-1.6 15 0 28-.3 28.9-.6 1.4-.5 1.6-4.5 1.6-34.3 0-18.6.3-34.1.7-34.5.4-.3 11-.5 23.7-.4l23.1.3.5 33.5z"/><path d="M270.4 269.4c-.3.9-.2 17.6.3 37.3l.8 35.8h59v-74l-29.8-.3c-25.5-.2-29.8 0-30.3 1.2z"/></g></svg>