<svg width="301" height="63" viewBox="0 0 301 63" fill="none" xmlns="http://www.w3.org/2000/svg"><path d="M53.3 5.257 50.516 21.94l-9.891-11.644L53.3 5.256zm-2.723 23.858 2.476 9.143-18.934 5.215 16.458-14.358zM9.36 24.519 19.51 11.256h17.63L48.408 24.52H9.358zm37.744 3.278L28.747 43.81 10.05 27.797h37.053zM16.11 10.307l-9.072 11.85L4.254 5.322l11.857 4.984zm7.2 33.16L4.194 38.264l2.62-8.923L23.31 43.468zm3.528 4.358-3.608 3.97a60.01 60.01 0 0 0-10.009-7.678l13.617 3.708zm17.503-3.769a60.09 60.09 0 0 0-9.982 7.776l-3.684-4.012 13.666-3.764zM57.488.064 37.584 7.98H19.03L.051 0l4.312 26.056L.223 40.16l10.801 6.458a56.676 56.676 0 0 1 13.617 11.37l4.206 4.815 4.414-5.063a56.683 56.683 0 0 1 13.11-11.084l10.593-6.496-3.815-14.085L57.488.065zM264.597 45.602h3.849V22.715h-3.849v22.887zm0-25.868h3.849v-3.85h-3.849v3.85zM86.958 15.665c-4.182 0-8.647 1.644-8.647 5.639 0 2.5 2.003 3.757 4.866 4.56l.498.133.515.125.529.119.541.112.554.106.849.152.577.098 1.426.23.567.099.842.155.831.169.546.12.27.064.535.133.525.142.516.151.505.163c3.744 1.262 6.502 3.506 6.502 8.348-.039 6.096-4.856 8.792-10.08 9.545l-.552.072c-.737.087-1.478.137-2.213.153l-.549.006c-5.827 0-11.373-2.115-13.911-7.613l3.384-1.974c2.115 3.9 6.532 5.78 10.574 5.78l.215-.001.438-.01.22-.01.448-.026.452-.038c.303-.029.607-.066.911-.113l.455-.076c3.18-.584 6.166-2.205 6.166-5.836.03-2.65-1.893-4.075-4.595-4.956l-.47-.145c-.16-.047-.321-.092-.485-.136l-.497-.127-.508-.118-.518-.11-.793-.153-.808-.14-1.404-.223-1.163-.196-.575-.106-.57-.111-.564-.118-.557-.126-.548-.135-.539-.144-.528-.154c-3.922-1.194-6.872-3.314-6.872-7.934-.076-5.51 4.425-8.11 9.146-8.921l.535-.084a20.634 20.634 0 0 1 2.654-.204l.26-.002c4.888 0 9.54.987 12.454 5.968l-3.102 1.927c-1.786-2.867-5.593-4.183-9.258-4.23zm20.296-2.946v13.535c1.974-3.054 5.076-4.088 8.037-4.135 6.532 0 9.727 4.323 9.727 10.715v12.783h-3.806V32.882c0-4.559-2.35-7.144-6.58-7.144-4.229 0-7.331 3.337-7.331 7.566v12.314h-3.854V12.72h3.807zm33.095 12.955c-4.605 0-8.318 3.29-8.318 8.46 0 5.17 3.713 8.506 8.318 8.506 11.185 0 11.185-17.013.047-17.013l-.047.047zm8.459 20.021-.093-4.23c-1.833 3.196-5.358 4.7-8.554 4.7-6.673 0-11.89-4.605-11.89-12.172 0-7.52 5.311-12.031 11.937-11.984 3.478 0 6.909 1.598 8.6 4.606l.048-4.23h3.759v23.216h-3.712l-.095.094zm27.849-11.561c0-5.217-3.431-8.319-8.177-8.319-4.84 0-8.131 3.573-8.131 8.319 0 4.747 3.432 8.318 8.131 8.365 4.653 0 8.177-3.149 8.177-8.365zm-20.49-11.655h3.666l.188 4.464c1.832-3.101 5.263-4.887 8.929-4.887 6.673.14 11.561 4.84 11.561 11.984 0 7.331-4.84 12.078-11.797 12.078-3.289 0-6.955-1.41-8.787-4.7v15.133h-3.76V22.48zm46.831 9.822c-.188-4.511-3.289-6.956-7.848-6.956-4.041 0-7.567 2.445-8.225 6.91h16.073v.046zm2.256 9.587c-2.35 2.773-6.392 4.136-10.01 4.136-7.19 0-12.219-4.746-12.219-12.125 0-7.002 5.029-12.031 12.031-12.031 7.096 0 12.501 4.37 11.608 13.629h-19.739c.423 4.276 3.948 6.955 8.413 6.955 2.632 0 5.828-1.034 7.378-2.914l2.585 2.35h-.047zm17.515-26.223c-4.182 0-8.647 1.644-8.647 5.639 0 2.643 2.239 3.896 5.364 4.693l.515.125.529.119.541.112.554.106.849.152.577.098 1.427.23.566.099.843.155.83.169.546.12.27.064.535.133.525.142.516.151.505.163c3.744 1.262 6.502 3.506 6.502 8.348-.038 6.096-4.856 8.792-10.081 9.545l-.551.072a23.36 23.36 0 0 1-2.212.153l-.549.006c-5.829 0-11.374-2.115-13.912-7.613l3.384-1.974c2.115 3.9 6.533 5.78 10.574 5.78l.215-.001.437-.01.222-.01.447-.026.452-.038c.303-.029.607-.066.911-.113l.455-.076c3.179-.584 6.166-2.205 6.166-5.836.031-2.65-1.893-4.075-4.595-4.956l-.47-.145a19.514 19.514 0 0 0-.485-.136l-.497-.127-.508-.118-.518-.11-.527-.104-.534-.097-.54-.092-1.404-.223-1.163-.196-.575-.106-.57-.111-.564-.118-.557-.126-.548-.135-.539-.144-.528-.154c-3.921-1.194-6.872-3.314-6.872-7.934-.092-6.758 6.698-9.139 12.336-9.21l.259-.001c4.888 0 9.541.987 12.454 5.968l-3.102 1.927c-1.785-2.867-5.592-4.183-9.258-4.23zm20.214-2.961V26.24c1.974-3.055 5.075-4.09 8.036-4.136 6.533 0 9.728 4.324 9.728 10.715v12.783h-3.806V32.866c0-4.558-2.35-7.144-6.579-7.144-4.23 0-7.332 3.337-7.332 7.567v12.313h-3.854V12.705h3.807zm37.381 8.13c0-3.478 1.598-5.029 4.089-5.029l.145.006.868-3.312a8.625 8.625 0 0 0-1.107-.078c-4.887 0-7.801 3.103-7.801 8.413v1.832h-4.559v3.385h4.559v19.55h3.806v-19.55h4.611v-3.385h-4.611v-1.832zm19.642 21.542a5.74 5.74 0 0 1-.893.076c-2.773 0-3.666-1.739-3.666-4.464V26.023h4.946v-3.34h-4.899v-7.065l-3.854.423v6.642h-4.652v3.34h4.652v11.966c0 5.122 2.35 8.036 7.332 7.942.614-.019 1.207-.091 1.794-.213l-.76-3.34z" fill="#fff"/></svg>