<svg width="28" height="28" viewBox="0 0 28 28" xmlns="http://www.w3.org/2000/svg"><g fill="none" fill-rule="evenodd"><g fill-rule="nonzero"><g><path d="M28 14c0 7.732-6.268 14-14 14S0 21.732 0 14 6.268 0 14 0s14 6.268 14 14" fill="#4957B8"/><path d="M8.75 12.806s1.376-6.33 7.059-7.356c5.682-1.027 6.879 2.167 6.939 3.479.06 1.311-1.017 4.561-5.982 4.162-5.085-.855-8.016-.285-8.016-.285M19.25 15.194s-1.376 6.33-7.059 7.356c-5.683 1.026-6.879-2.167-6.939-3.478-.06-1.312 1.017-4.562 5.982-4.163 5.085.855 8.016.285 8.016.285" fill="#FFF"/></g></g></g></svg>