<svg width="1000" height="1000" viewBox="0 0 1000 1000" xmlns="http://www.w3.org/2000/svg" xmlns:xlink="http://www.w3.org/1999/xlink"><defs><circle id="a" cx="500" cy="500" r="500"/></defs><g fill="none" fill-rule="evenodd"><g><g fill="#0D8BFF" fill-rule="nonzero"><circle cx="500" cy="500" r="500"/></g><g><mask id="b" fill="#fff"><use xlink:href="#a"/></mask><path d="m103.171 805.408-1.071-1.39 1.643.616c13.081 4.902 30.482 1.968 48.36-8.354 23.61-13.631 33.306-34.244 23.94-50.468-7.847-13.59-22.88-14.706-54.742-3.896l-36.897 12.518a170.665 170.665 0 0 1-12.97 3.995c-15.836-25.549-28.848-52.189-39.418-79.855l.904-.423c7.96 13.793 23.48 15.3 52.75 5.288l36.006-12.464c55.272-19.168 90.792-9.702 113.888 30.3 30.26 52.414 8.382 107.408-57.741 145.585-8.699 5.022-17.33 9.263-25.836 12.702-17.906-16.937-34.045-35.004-48.816-54.154zM28.83 669.997a496.795 496.795 0 0 1-20.839-76.22l.194-.495c5.354-3.952 11.099-7.703 17.213-11.233 59.03-34.082 118.453-25.93 146.416 20.072l.265.437-59.896 34.582-.262-.381c-11.411-16.6-35.097-19.203-57.42-6.315-18.275 10.551-27.428 25.227-24.71 39.288l-.961.265zm128.856-154.569 110.094-63.563c54.002-31.178 110.807-17.271 141.842 36.484 30.735 53.234 12.36 110.314-43.558 142.599l-42.33 24.44 42.347 73.348-63.93 36.91-144.465-250.218zm92.163 11.989 46.153 79.938 28.917-16.695c27.175-15.69 35.192-38.815 20.175-64.825-15.217-26.357-38.978-30.904-65.98-15.315l-29.265 16.897zm337.805 73.394-63.93 36.91-144.465-250.218 63.931-36.91L587.654 600.81zm97.195-56.115-63.931 36.91-144.464-250.219 63.931-36.91 62.07 107.509 3.31-1.911 21.546-155.785 68.634-39.626-23.153 160.644 172.669 86.658-75.08 43.348-120.373-62.057-6.005 40.69 40.846 70.749zm315.373-250.286 29.533 51.154-172.283 99.468-144.464-250.22 172.283-99.467 29.534 51.154-108.352 62.557 28.832 49.94 101.907-58.836 27.03 46.818-101.906 58.836 29.534 51.153 108.352-62.557z" fill="#FFF" fill-rule="nonzero" mask="url(#b)"/></g></g></g></svg>