<svg width="370" height="370" viewBox="0 0 370 370" fill="none" xmlns="http://www.w3.org/2000/svg"><g clip-path="url(#a)"><circle cx="185" cy="185" r="177.5" stroke="#6200EA" stroke-width="15"/><path d="M269.631 213.695c.837 1.491 10.268 19.036 1.288 52.392a17.676 17.676 0 0 1-3.072-.961h-.059a22.41 22.41 0 0 1-8.313-5.141s.895 20.727-12.274 38.08a1.76 1.76 0 0 1-.274.394l-.059-.059a32.13 32.13 0 0 1-7.403-12.182s-7.144 16.332-27.065 32.037a94.975 94.975 0 0 1-5.241 3.927c-10.097 7.07-15.731 11.794-18.855 14.901a5.7 5.7 0 0 1-.562.611c-.172.201-.358.39-.555.566-2.458 2.689-2.68 3.874-2.68 4.209 0-.335-.222-1.49-2.68-4.209a5.814 5.814 0 0 1-.555-.566 5.815 5.815 0 0 1-.563-.611c-3.124-3.092-8.757-7.816-18.855-14.901a95.355 95.355 0 0 1-5.241-3.927 111.12 111.12 0 0 1-10.253-9.097c-12.947-12.874-16.693-22.589-16.826-22.88a32.126 32.126 0 0 1-7.403 12.181l-.059.06a2.068 2.068 0 0 1-.281-.395c-13.177-17.382-12.311-38.139-12.311-38.139a22.377 22.377 0 0 1-8.291 5.141h-.052c-.993.413-2.021.735-3.072.961-8.98-33.356.451-50.931 1.288-52.392a.185.185 0 0 0 .052-.111.669.669 0 0 0-.104-.105c-2.472-1.795-40.249-30.77-15.509-105.93 0 0 7.181 1.78 11.327 8.039 0 0-.4-22.314 28.426-51.788a26.427 26.427 0 0 1 9.476 16.51s8.735-13.292 26.094-24.468c18.722-12.01 25.377-20.116 25.377-28.311 0 0 41.759 24.996 51.471 52.779 1.481-10.632 9.476-16.51 9.476-16.51 28.826 29.474 28.427 51.788 28.427 51.788 4.145-6.259 11.326-8.039 11.326-8.039 24.74 75.16-13.036 104.135-15.509 105.93a.689.689 0 0 0-.104.105.186.186 0 0 0 .052.111zm-85.132-60.08c-74.382-43.578-91.009 39.316-29.351 42.393 0 0-7.536 4.716-16.013 5.618a14.15 14.15 0 0 0 9.313 1.177c-24.496 26.077-14.954 80.07 36.044 80.07s60.532-54.016 36.029-80.07a14.15 14.15 0 0 0 9.313-1.177c-8.476-.902-16.012-5.618-16.012-5.618 61.672-3.077 45.046-85.971-29.33-42.393h.007zm31.188 17.553c0 4.985-2.605 9.015-5.818 9.015-3.213 0-5.819-4.03-5.819-9.015 0-4.984 2.606-9.015 5.819-9.015s5.811 4.038 5.811 9.015h.007zm-56.557-9.015c3.213 0 5.819 4.038 5.819 9.015s-2.606 9.015-5.819 9.015-5.818-4.03-5.818-9.015c0-4.984 2.598-9.015 5.811-9.015h.007zm35.223 44.427c-5.582-1.773-6.663 7.451-6.663 7.451 11.015 1.251 11.571-5.894 6.655-7.451h.008zm-13.081 7.451s-1.044-9.194-6.626-7.451c-4.922 1.557-4.367 8.702 6.641 7.421l-.015.03zm3.22 34.272c17.367.067 30.144-8.628 29.374-10.006-.651-1.572-13.458 2.786-29.374 2.667-15.923.119-28.73-4.239-29.381-2.667-.778 1.319 11.999 10.021 29.374 9.946l.007.06z" fill="#6200EA"/></g><defs><clipPath id="a"><path fill="#fff" d="M0 0h370v370H0z"/></clipPath></defs></svg>