<svg width="68" height="68" viewBox="0 0 68 68" fill="none" xmlns="http://www.w3.org/2000/svg"><circle cx="34" cy="34" r="34" fill="#fff"/><mask id="a" style="mask-type:luminance" maskUnits="userSpaceOnUse" x="11" y="17" width="47" height="39"><path d="M56.688 18.211 48.1 26.8a8.282 8.282 0 0 1-5.857 2.426H26.248a8.281 8.281 0 0 1-5.856-2.426l-8.59-8.59-.802-.803c.06.586.148 1.216.273 1.88a22.99 22.99 0 0 0 1.924 5.856 23.379 23.379 0 0 0 2.23 3.68 13.09 13.09 0 0 0 5.826 4.43c1.51.583 3.131.892 4.79.892h16.405c1.659 0 3.28-.31 4.79-.891a13.09 13.09 0 0 0 5.826-4.432 23.364 23.364 0 0 0 2.975-5.387 22.99 22.99 0 0 0 1.18-4.147c.124-.665.212-1.295.272-1.88l-.803.803zM12.784 35.648l5.65 5.652h8.947l-4.473 4.473 3.479 3.478 7.95-7.95h15.54l5.655-5.653a4.92 4.92 0 0 0-6.957 0l-.732.733h-27.37l-.734-.733a4.904 4.904 0 0 0-3.477-1.44c-1.26 0-2.519.48-3.479 1.44zm22.793 7.888-7.529 7.376 3.244 3.244a4.052 4.052 0 0 0 5.73 0l10.62-10.62H35.577z" fill="#fff"/></mask><g mask="url(#a)"><path d="M57.579 17.417H10.912v37.916H57.58V17.417z" fill="url(#b)"/></g><defs><linearGradient id="b" x1="10.912" y1="35.8" x2="57.579" y2="35.8" gradientUnits="userSpaceOnUse"><stop offset=".26" stop-color="#4919F9"/><stop offset=".714" stop-color="#ED8620"/></linearGradient></defs></svg>