<svg xmlns="http://www.w3.org/2000/svg" xmlns:xlink="http://www.w3.org/1999/xlink" width="256" height="256" viewBox="0 0 256 256"><defs><linearGradient id="a" x1=".907" y1=".227" x2=".163" y2=".853" gradientUnits="objectBoundingBox"><stop offset="0" stop-color="#b6509e"/><stop offset="1" stop-color="#2ebac6"/></linearGradient><linearGradient id="c" x1=".699" y1=".251" x2=".059" y2="1" xlink:href="#a"/><clipPath id="b"><path d="M0 0h256v256H0z"/></clipPath></defs><g clip-path="url(#b)"><g data-name="Group 33539"><circle data-name="Ellipse 991" cx="128" cy="128" r="128" fill="url(#a)"/><path data-name="Path 10812" d="m200.188 65.287-70.217-21.066a5.243 5.243 0 0 0-3.015 0L56.737 65.287A5.244 5.244 0 0 0 53 70.31v77.24c0 10.046 4.067 20.331 12.088 30.567 6.126 7.818 14.6 15.668 25.19 23.333a225.982 225.982 0 0 0 36.042 21.105 5.242 5.242 0 0 0 4.286 0 226.01 226.01 0 0 0 36.041-21.105c10.589-7.665 19.064-15.515 25.19-23.333 8.021-10.236 12.088-20.52 12.088-30.567V70.31a5.244 5.244 0 0 0-3.737-5.023z" fill="#fff"/><path data-name="Path 2434" d="M88.828 86.576 55.566 6.19C53.686 2.036 50.908 0 47.23 0h-2.942c-3.678 0-6.456 2.036-8.336 6.19L21.487 41.211H10.536a5.989 5.989 0 0 0-5.966 5.945v.081a5.989 5.989 0 0 0 5.966 5.945h5.884L2.609 86.576a7.044 7.044 0 0 0-.409 2.28 6.286 6.286 0 0 0 1.634 4.479 5.736 5.736 0 0 0 4.413 1.71 5.975 5.975 0 0 0 3.432-1.14 7.253 7.253 0 0 0 2.37-3.013l15.2-37.709h10.544a5.989 5.989 0 0 0 5.966-5.945v-.163a5.989 5.989 0 0 0-5.966-5.945h-5.639l11.6-28.913 31.632 78.675a7.253 7.253 0 0 0 2.37 3.013 5.975 5.975 0 0 0 3.432 1.14 5.736 5.736 0 0 0 4.413-1.71 6.286 6.286 0 0 0 1.634-4.479 5.385 5.385 0 0 0-.407-2.28z" transform="translate(82.801 76)" fill="url(#c)"/></g></g></svg>