<svg data-name="Layer 1" xmlns="http://www.w3.org/2000/svg" width="54.27mm" height="486.576" viewBox="0 0 153.82 364.92"><path d="m21 52.28 74.86 42.93a9.86 9.86 0 0 1 5 8.56v141.86a1.24 1.24 0 0 1-.62 1.07l-81.15 46a1.23 1.23 0 0 1-1.68-.46 1.32 1.32 0 0 1-.16-.61l.05-237.21A2.46 2.46 0 0 1 19.76 52a2.41 2.41 0 0 1 1.24.28zM17.37 43a3.7 3.7 0 0 0-5.54 3.21l-.36 248.56A4.92 4.92 0 0 0 14 299l86.85 49.83a3.7 3.7 0 0 0 5.54-3.21V101.19a12.33 12.33 0 0 0-6.19-10.69zm136.45 27.31v262.47a12.32 12.32 0 0 1-6.21 10.7l-34.67 19.82a12.33 12.33 0 0 1-12.27 0l-94.5-54.51A12.33 12.33 0 0 1 0 298.11v-269a12.33 12.33 0 0 1 6.48-10.84L37.64 1.48a12.34 12.34 0 0 1 12.13.24l98 58a12.33 12.33 0 0 1 6.05 10.59z" style="fill:#060606"/></svg>