<svg xmlns="http://www.w3.org/2000/svg" xmlns:xlink="http://www.w3.org/1999/xlink" viewBox="0 0 230.23 231.45"><defs><linearGradient id="linear-gradient" x1="-906.15" y1="-201.97" x2="-900.06" y2="-201.97" gradientTransform="matrix(31.95 0 0 17.19 28963.75 3525.3)" gradientUnits="userSpaceOnUse"><stop offset="0" stop-color="#f97756"/><stop offset=".11" stop-color="#f97f53"/><stop offset=".7" stop-color="#f9a942"/><stop offset="1" stop-color="#f9b93b"/></linearGradient><linearGradient id="linear-gradient-2" x1="-906.78" y1="-207.92" x2="-900.95" y2="-209.54" gradientTransform="matrix(32.69 0 0 20.84 29654.08 4505.17)" gradientUnits="userSpaceOnUse"><stop offset="0" stop-color="#f97756"/><stop offset=".58" stop-color="#f9a045"/><stop offset="1" stop-color="#f9b93b"/></linearGradient><linearGradient id="linear-gradient-3" x1="-876.18" y1="-205.11" x2="-882.13" y2="-204.9" gradientTransform="matrix(18.64 0 0 18.77 16517.56 3948.77)" gradientUnits="userSpaceOnUse"><stop offset="0" stop-color="#f97756"/><stop offset=".49" stop-color="#f97955"/><stop offset=".67" stop-color="#f98052"/><stop offset=".79" stop-color="#f98b4e"/><stop offset=".89" stop-color="#f99c47"/><stop offset=".98" stop-color="#f9b23e"/><stop offset="1" stop-color="#f9b93b"/></linearGradient><linearGradient id="linear-gradient-4" x1="-883.64" y1="-211.37" x2="-889.58" y2="-211.59" gradientTransform="matrix(21.67 0 0 21.74 19355.53 4736.96)" xlink:href="#linear-gradient-3"/><linearGradient id="linear-gradient-5" x1="-868.8" y1="-123.39" x2="-874.89" y2="-123.39" gradientTransform="matrix(15.52 0 0 7.55 13589.6 982.32)" xlink:href="#linear-gradient-2"/><linearGradient id="linear-gradient-6" x1="-821.53" y1="-172.26" x2="-827.57" y2="-178.38" gradientTransform="matrix(8.72 0 0 12.8 7220.74 2380.75)" xlink:href="#linear-gradient-2"/><linearGradient id="linear-gradient-7" x1="-882.29" y1="-221.42" x2="-888.38" y2="-221.42" gradientTransform="matrix(21.08 0 0 26.21 18799.05 5910.82)" gradientUnits="userSpaceOnUse"><stop offset=".23" stop-color="#f97756"/><stop offset=".28" stop-color="#f98052"/><stop offset=".44" stop-color="#f99948"/><stop offset=".61" stop-color="#f9ab41"/><stop offset=".79" stop-color="#f9b63c"/><stop offset="1" stop-color="#f9b93b"/></linearGradient><linearGradient id="linear-gradient-8" x1="-869.84" y1="-217.5" x2="-875.93" y2="-217.5" gradientTransform="matrix(17.41 0 0 24.12 15373.34 5361.84)" gradientUnits="userSpaceOnUse"><stop offset="0" stop-color="#f97756"/><stop offset=".27" stop-color="#f98451"/><stop offset=".78" stop-color="#f9a742"/><stop offset="1" stop-color="#f9b93b"/></linearGradient><style>.cls-1{fill:#f97756}</style></defs><g id="Layer_2" data-name="Layer 2"><g id="Layer_1-2" data-name="Layer 1"><g id="Group"><path id="Shape" class="cls-1" d="M115.11 231.45c61.52 0 111.46-48.73 115.12-109.64v-12.18C226.57 48.73 176.63 0 115.11 0A114.69 114.69 0 0 0 7.92 73.7h29.84C52.38 46.29 81.62 28 115.11 28h1.22a85.18 85.18 0 0 1 51.77 17.07l-.61.61A86.69 86.69 0 0 1 185.77 64l.6-.61a88.29 88.29 0 0 1 0 106l-.6-.61A86.71 86.71 0 0 1 167.49 187c-5.48 4.27-11.57 7.31-18.27 10.36a90.58 90.58 0 0 1-34.72 7.31c-43.85 0-80.39-32.28-86.48-74.31h28.62v-28H.61a103.17 103.17 0 0 0-.61 14c0 63.31 51.77 115.09 115.11 115.09z"/><path class="cls-1" d="m92.58 157.75-20.1-19.49 87.71-87.71 16.44-17.05 20.1 20.1L92.58 157.75z"/><path id="Rectangle-path" class="cls-1" d="m197.34 179.07-20.1 19.49L72.48 93.8l20.1-19.49 104.76 104.76z"/><path d="M109 28h6.09a99.69 99.69 0 0 1 14 1.22h1.22a2.26 2.26 0 0 1 1.83.6c1.22 0 1.82.61 3 .61h.61c11.57 2.44 22.54 7.92 32.28 14.62l.61.61a80.82 80.82 0 0 1 17.66 17.66 73.44 73.44 0 0 1 9.75 16.45c0 .61.61.61.61 1.22a.6.6 0 0 0 .61.61 97.68 97.68 0 0 1 6.7 23.75C199.17 53.6 161.4 11 112.68 0 65.17 1.22 24.36 31.67 7.92 73.7h29.84A86.38 86.38 0 0 1 109 28z" style="fill:url(#linear-gradient)"/><path d="M90.14 228.4c52.38-1.22 96.84-37.76 109-87.1a86.73 86.73 0 0 1-14 26.8l-.61-.61a87.16 87.16 0 0 1-18.27 18.28c-5.49 4.26-11.58 7.3-18.28 10.35a90.57 90.57 0 0 1-34.71 7.31c-43.86 0-80.4-32.28-86.49-74.31h28.65v-28H.61a102.94 102.94 0 0 0-.61 14c0 56.03 38.37 101.71 90.14 113.28z" style="fill:url(#linear-gradient-2)"/><path style="fill:url(#linear-gradient-3)" d="m92.58 157.75-20.1-19.49 94.4-94.41 19.5 20.1-93.8 93.8z"/><path style="fill:url(#linear-gradient-4)" d="m73.09 93.8 19.49-19.49 112.07 112.67-19.49 19.49L73.09 93.8z"/><path d="M8.53 73.7h28.62a88.36 88.36 0 0 1 65.78-45.07A81.49 81.49 0 0 0 90.75 28C56.64 28 26.19 46.29 8.53 73.7z" style="fill:url(#linear-gradient-5)"/><path d="M30.45 101.71H.61c3 30.46 26.19 64 53 78-16.46-15.87-31.07-39.02-23.16-78z" style="fill:url(#linear-gradient-6)"/><path d="M201 48.73 182.72 28 114.5 96.23 92.58 73.7 73.09 93.19v.61L95 115.72l-22.52 22.54L92 157.75l21.93-21.93 51.77 51.77 19.49-20.1L134 115.72z" style="fill:url(#linear-gradient-7)"/><path d="M230.23 112.07v-2.44a112.8 112.8 0 0 0-26.19-67c-39 1.83-79.79 34.11-79.79 73.7H134L185.77 64a85.2 85.2 0 0 1 17 51.77 87 87 0 0 1-17 52.38L134 115.72h-9.74c0 39.59 40.81 71.26 79.79 73.09a114.3 114.3 0 0 0 26.19-67v-9.74zm-54.82-59.69a38.68 38.68 0 0 1 4.87 5.48zm9.75 10.35c.61 0 .61.61 0 0z" style="fill:url(#linear-gradient-8)"/></g></g></g></svg>