<svg xmlns="http://www.w3.org/2000/svg" viewBox="0 0 60 60"><defs><style>.cls-1{fill:#15a9be}</style></defs><g id="_Layer_" data-name="&lt;Layer&gt;"><path class="cls-1" d="M56.8 27.44 45.6 7.93a5.08 5.08 0 0 0-4.41-2.56H18.81a5.1 5.1 0 0 0-4.41 2.56L3.2 27.44a5.14 5.14 0 0 0 0 5.12l11.2 19.51a5.07 5.07 0 0 0 4.41 2.56h22.38a5.06 5.06 0 0 0 4.41-2.56l11.2-19.51a5.14 5.14 0 0 0 0-5.12m-7.17 5.11-7.47 13a2.68 2.68 0 0 1 .13 2 2.76 2.76 0 0 1-4.92.8H22.8a2.77 2.77 0 0 1-5-.89 2.75 2.75 0 0 1 .2-1.81l-7.55-13.09a2.8 2.8 0 0 1 .21-5.56l7.28-12.7a2.74 2.74 0 0 1-.19-1 2.78 2.78 0 0 1 5-1.7h14.67a2.77 2.77 0 0 1 2.21-1.1 2.8 2.8 0 0 1 2.79 2.8 2.66 2.66 0 0 1-.24 1.1L49.42 27A2.82 2.82 0 0 1 52 29.8a2.79 2.79 0 0 1-2.34 2.75"/><path class="cls-1" d="m47.19 27.85-4.7-8.21L25 29.55v.05a2.78 2.78 0 1 1-1-2.18l17.39-9.83-1-1.59a2.85 2.85 0 0 1-.76.11A2.78 2.78 0 0 1 36.94 14H23.23a2.8 2.8 0 0 1-2.69 2.14 2.68 2.68 0 0 1-.84-.14l-6.85 11.89a2.76 2.76 0 0 1 .76 1.91 2.8 2.8 0 0 1-.87 2L18 40.94l17.9-10.45a2.18 2.18 0 0 1 0-.25A2.79 2.79 0 1 1 38.67 33a2.76 2.76 0 0 1-1.59-.51L19.14 43l.6 1.05a2.67 2.67 0 0 1 .8-.12A2.76 2.76 0 0 1 23.21 46H37a2.78 2.78 0 0 1 3.39-2l7-12.15a2.79 2.79 0 0 1-.12-4"/></g></svg>