<svg width="48" height="48" viewBox="0 0 48 48" fill="none" xmlns="http://www.w3.org/2000/svg"><rect width="48" height="48" rx="24" fill="#fff"/><g clip-path="url(#a)"><path d="M42.193 18.074a7.625 7.625 0 0 0-1.473-2.12l-.036-.032c1.052.018 2.118-.39 3.055-1.108a1.345 1.345 0 0 0-.307-.02c-1.765.309-3.366-.073-4.858-.904a80.34 80.34 0 0 1-1.248-.707 4.107 4.107 0 0 0 2.096-2.332 3.645 3.645 0 0 1-3.597 1.103c-.246-.067-.483-.164-.736-.212a1.46 1.46 0 0 0-.368-.025 3.22 3.22 0 0 0-1.732-.312c-.49.05-.988-.071-1.487-.15-.227-.037-.378-.016-.505.19a.924.924 0 0 1-.195.24.266.266 0 0 0 .087.14c.107.09.245.135.384.122 1.095-.156 1.183.376 1.786.262a1.986 1.986 0 0 1-1.506.236 1.836 1.836 0 0 1-.988-.673.752.752 0 0 1-.256-.04c-.4-.138-.792-.298-1.174-.48a1.911 1.911 0 0 1-.202-.126c-.614-.359-.81-.399-1.245.183a.15.15 0 0 0 .015.026.422.422 0 0 0 .364.072c.126-.034.257-.045.387-.032.086.018.171.083.167.17a.175.175 0 0 1-.115.14.392.392 0 0 1-.193.02 1.291 1.291 0 0 1-.678-.33l-.06.085c-.244.38-.359.83-.325 1.28 0 .487.111.925.255 1.131a2.405 2.405 0 0 1 .053-1.218c.036-.108.083-.212.14-.31a.312.312 0 0 1 .248.15c.088.15.13.322.121.495.017.284.05.568.1.848.034.19.056.548.283.782a1.98 1.98 0 0 1 .092-1.002.481.481 0 0 1 .235-.283.527.527 0 0 1 .37.017c.349.172.565.29 1 .338.662.069 1.12.804 2.07.641.05-.008.03.662-.616.742-.308.037-.462-.055-.765-.121a1.316 1.316 0 0 0-.969.11 5.613 5.613 0 0 1-.706.36 1.299 1.299 0 0 1-.858.016.919.919 0 0 1-.158-.348 1.002 1.002 0 0 1 .035-.545c-.15.083-.282.379-.282.688a.313.313 0 0 1-.282.332c-.096 0-.142-.018-.239-.024a.205.205 0 0 1-.12-.082.56.56 0 0 1-.07-.183 2.193 2.193 0 0 1 .117-.762 1.366 1.366 0 0 0-.304.612c-.045.216-.033.44.035.65l.034.262a.281.281 0 0 0-.052.243c.076.172 0 .06.614.114.614.054.624.11 1.107.105.346-.029.683-.129.988-.294.424-.224.873-.283 1.299-.07.392.198.772.425 1.146.652.3.194.636.326.989.386.328.08.672.058.988-.064.38-.14.718-.4 1.069-.623-.02.049-.041.096-.065.142a2.184 2.184 0 0 1-1.758 1.024c.617.885 1.052 1.753 1.207 2.61.1.576.1 1.166 0 1.743a7.521 7.521 0 0 1-.222.926l-.14.424c.039-.072-3.16 6.013-3.16 6.013l-2.043-3.326-5.39-9.013-.007.011v-.011l-7.42 12.33s-2.77-4.298-3.636-6.527c-.17-.587-.31-1.313-.202-1.911.459-2.545 1.728-2.176 1.882-4-.227.695-1.525.297-2.208 1.206 1.169-2.089 3.234-1.54 3.97-3.849-.834.8-1.681.457-2.442.532 1.976-.707 3.238-3.393 4.836-2.447-.178-.744-2.566-1.748-4.517.514.772-.78.423-1.616 1.45-2.021-3.074.323-2.41 1.686-3.34 2.506.059-.838-.094-1.747-.633-2.054.103 1.542-.827 1.5-1.06 4.029.165.283-.715-1.168-1.583-1.098 1.21 1.799-.295 3.731-.565 6.36-.053.37-.061.746-.024 1.117a4.707 4.707 0 0 0 .633 1.773c-.033.067-.067.129-.096.197-.3.66-.418 1.39-.342 2.112.035.38.134.753.294 1.1.183.373.444.702.765.965.601.485 1.117.772 1.564 1.152.446.368.85.783 1.207 1.238.375.485.714.997 1.014 1.531l.648 1.26c.048.099.097.196.141.295l2.072 4.002 5.487-9.337 2.1-3.628 2.101 3.628 5.488 9.337 5.148-9.471c.05.381.035.769-.046 1.145.827-.865 1.282-1.913 1.534-3.133a3.377 3.377 0 0 1 0 1.81c.274-.17.784-1.185.949-1.866.164-.694.212-1.41.141-2.12.326.672.498 1.408.506 2.155.636-1.375.762-2.756.576-4.19.481.32.766 1.001.74 1.814a3.59 3.59 0 0 0 .498-1.771 3.844 3.844 0 0 0-.377-1.782c.555.168 1.04.511 1.385.979 0-.81-.768-2.2-1.977-3.567.667.14 1.306.386 1.893.731zM9.977 25.19a3.2 3.2 0 0 0 .168.663c.01.033.021.06.032.092l.538 1.046c0 .007.013.017.02.024v.01a5.797 5.797 0 0 1-.512-.283 1.596 1.596 0 0 1-.503-.458 2.8 2.8 0 0 1-.322-.706 3.132 3.132 0 0 1-.055-1.588c.136-.378.296-.746.481-1.103.247-.439.466-.893.655-1.36.174-.456.238-.98 0-1.443.321.413.36.998.256 1.51-.11.506-.251 1.004-.423 1.493a7.028 7.028 0 0 0-.335 1.43c-.026.224-.026.45 0 .673z" fill="#B49032" stroke="#B49032" stroke-width=".141" stroke-miterlimit="10"/></g><defs><clipPath id="a"><path fill="#fff" transform="translate(8 10.5)" d="M0 0h36v27H0z"/></clipPath></defs></svg>