<svg width="48" height="48" viewBox="0 0 48 48" fill="none" xmlns="http://www.w3.org/2000/svg"><g clip-path="url(#a)"><mask id="b" style="mask-type:luminance" maskUnits="userSpaceOnUse" x="0" y="0" width="48" height="48"><path d="M48 24C48 10.745 37.255 0 24 0S0 10.745 0 24s10.745 24 24 24 24-10.745 24-24z" fill="#fff"/></mask><g mask="url(#b)"><path d="M48 24C48 10.745 37.255 0 24 0S0 10.745 0 24s10.745 24 24 24 24-10.745 24-24z" fill="#000"/><path fill-rule="evenodd" clip-rule="evenodd" d="m-4 24 9 19 19 8.5L43 43l8.5-19L43 5 24-4 5 5l-9 19z" fill="#000"/><g clip-path="url(#c)"><path d="M6.022 28.127a.54.54 0 0 0-.01.068.746.746 0 0 0-.01.079L6 28.296c0 .015.004.03.004.043a.493.493 0 0 0 .009.078.975.975 0 0 0 .036.136.665.665 0 0 0 .2.289c.018.015.034.03.054.044.02.015.043.028.065.042.013.007.024.017.038.024l17.563 8.781.02.007.028.014c.008.005.018.006.028.01.014.006.029.01.043.014l.042.011c.008.002.015.006.024.007.008.002.016.002.025.003a.49.49 0 0 0 .047.006l.049.002h.043l.05-.002c.014-.002.03-.005.047-.006l.025-.003c.008-.001.015-.004.023-.007l.042-.01.044-.015a.22.22 0 0 0 .027-.01l.028-.014.02-.007 17.563-8.781c.014-.007.024-.017.038-.024a.647.647 0 0 0 .065-.042c.02-.014.037-.03.055-.044a.555.555 0 0 0 .05-.05c.017-.018.03-.036.046-.055a.806.806 0 0 0 .04-.057c.013-.02.023-.04.034-.062a.544.544 0 0 0 .05-.132l.016-.069c.004-.026.005-.051.008-.078.001-.014.004-.028.004-.043l-.003-.022a.769.769 0 0 0-.008-.079c-.003-.022-.006-.046-.011-.068a1.043 1.043 0 0 0-.02-.064c-.008-.025-.017-.052-.029-.075l-.007-.02-8.783-17.563c-.004-.009-.011-.014-.015-.021a.68.68 0 0 0-.09-.129c-.008-.01-.015-.02-.023-.028a.757.757 0 0 0-.137-.111l-.038-.021a.813.813 0 0 0-.174-.07.709.709 0 0 0-.172-.024L33.078 10l-.023.003a.71.71 0 0 0-.134.015c-.014.003-.028.01-.042.013a.917.917 0 0 0-.108.039l-.019.007c-.014.007-.023.017-.037.024a.637.637 0 0 0-.066.041c-.02.014-.036.03-.054.045a.568.568 0 0 0-.05.049c-.017.018-.031.036-.047.056a.782.782 0 0 0-.04.057c-.013.02-.022.04-.034.061a.543.543 0 0 0-.029.066c-.008.022-.014.044-.02.067-.006.022-.012.045-.016.068l-.009.078c-.001.014-.004.028-.004.044v15.796l-7.531-7.531a.711.711 0 0 0-.113-.092c-.017-.011-.036-.02-.055-.03-.023-.012-.045-.026-.07-.037-.024-.01-.05-.015-.073-.022-.021-.006-.042-.014-.063-.019a.704.704 0 0 0-.287 0c-.023.005-.042.013-.065.019-.025.006-.048.012-.072.022-.025.01-.048.025-.071.038-.019.01-.037.018-.055.029a.712.712 0 0 0-.113.092l-7.531 7.531V10.733c0-.016-.004-.03-.004-.044a.493.493 0 0 0-.009-.078c-.004-.024-.01-.046-.015-.068a.592.592 0 0 0-.05-.133.675.675 0 0 0-.17-.223c-.019-.015-.035-.03-.055-.045-.02-.015-.043-.028-.066-.041-.012-.008-.023-.017-.037-.024l-.018-.007c-.035-.017-.072-.028-.108-.04-.015-.003-.03-.01-.044-.013a.694.694 0 0 0-.133-.016c-.007.002-.015-.001-.022-.001l-.006.001c-.06 0-.117.01-.172.024l-.046.014a.695.695 0 0 0-.128.056c-.012.007-.025.012-.038.02a.701.701 0 0 0-.136.112l-.024.028a.68.68 0 0 0-.09.129c-.004.008-.01.014-.015.02L6.078 27.969l-.007.02c-.011.023-.02.05-.03.075l-.019.064zm9.19.9 5.378 5.378-10.757-5.378h5.378zm18.168 0h5.378l-10.756 5.378 5.378-5.378zm.429-1.464V13.832l6.865 13.731H33.81zm-8.782 7.746V21.28l7.015 7.015-7.015 7.015zm-1.462 0-7.015-7.014 7.015-7.016v14.03zM7.917 27.563l6.866-13.731v13.731H7.917z" fill="#A3EC26"/></g></g></g><defs><clipPath id="a"><path fill="#fff" d="M0 0h48v48H0z"/></clipPath><clipPath id="c"><path fill="#fff" transform="translate(6 10)" d="M0 0h37v27.976H0z"/></clipPath></defs></svg>