<svg fill="none" height="50" viewBox="0 0 176 50" width="176" xmlns="http://www.w3.org/2000/svg"><path d="M73.944 37.901c-.99 0-1.557-.015-1.702-.046v-3.48c.093.02.47.03 1.13.03.834 0 1.468-.144 1.901-.433.433-.278.727-.748.882-1.408 0-.01.026-.139.077-.386.052-.248.072-.382.062-.403l-5.768-16.597h4.964l3.526 12.962h.077l3.526-12.962h4.762L81.675 32.13c-.71 2.125-1.65 3.615-2.814 4.47-1.155.867-2.794 1.3-4.918 1.3zm22.051-19.738c-.98 0-1.799.335-2.459 1.005-.65.67-1.015 1.527-1.098 2.568h7.036c-.051-1.062-.397-1.923-1.036-2.583-.629-.66-1.443-.99-2.443-.99zm3.541 8.523h4.145c-.248 1.63-1.062 2.944-2.444 3.945-1.37.99-3.077 1.485-5.118 1.485-2.547 0-4.547-.763-6-2.29-1.444-1.526-2.165-3.62-2.165-6.28 0-2.65.721-4.764 2.165-6.342 1.443-1.588 3.386-2.382 5.83-2.382 2.402 0 4.314.753 5.737 2.258 1.422 1.506 2.134 3.522 2.134 6.048v1.377H92.392v.279c0 1.186.345 2.15 1.036 2.892.7.732 1.624 1.099 2.768 1.099.825 0 1.536-.186 2.134-.557.598-.382 1-.892 1.206-1.532zm13.021 2.073c1 0 1.845-.289 2.536-.866.701-.588 1.051-1.325 1.051-2.212v-1.207l-3.494.217c-.846.062-1.5.273-1.964.634-.454.36-.681.835-.681 1.423 0 .619.232 1.109.696 1.47s1.083.541 1.856.541zm-1.485 3.264c-1.598 0-2.922-.47-3.974-1.408-1.051-.938-1.577-2.145-1.577-3.62 0-1.505.556-2.686 1.67-3.542 1.113-.856 2.706-1.345 4.778-1.47l4.175-.247v-1.098c0-.763-.252-1.361-.757-1.794-.495-.434-1.17-.65-2.026-.65-.825 0-1.5.186-2.026.557-.515.371-.83.871-.943 1.5h-4.129c.082-1.629.778-2.939 2.088-3.929 1.309-1 3.046-1.5 5.211-1.5 2.124 0 3.825.505 5.103 1.516s1.918 2.351 1.918 4.022v11.4h-4.361v-2.537h-.093c-.454.866-1.144 1.552-2.072 2.057a6.247 6.247 0 0 1-2.985.743zm12.433-.263V15.178h4.361v2.985h.093c.289-1.052.773-1.856 1.453-2.413.681-.557 1.511-.835 2.49-.835.474 0 .902.056 1.284.17v3.975c-.423-.175-.969-.263-1.639-.263-1.114 0-1.98.325-2.598.975-.619.65-.928 1.557-.928 2.722v9.266zm11.536 0V15.178h4.361v2.954h.093c.454-1.052 1.113-1.856 1.979-2.413.877-.567 1.944-.85 3.201-.85 1.835 0 3.253.546 4.253 1.639s1.5 2.614 1.5 4.563v10.69h-4.516v-9.746c0-1.093-.257-1.934-.773-2.522-.515-.587-1.273-.881-2.273-.881s-1.804.335-2.412 1.005c-.598.67-.897 1.547-.897 2.63v9.513zM39.835 39.68c8.745 0 15.835-7.092 15.835-15.84S48.58 8 39.835 8C31.09 8 24 15.092 24 23.84s7.09 15.84 15.835 15.84z" fill="#286bdb"/><g clip-rule="evenodd" fill="#fff" fill-rule="evenodd"><path d="M38.912 17.04h1.637v14.305h-1.637z"/><path d="M37.983 23.77v-1.71a3.966 3.966 0 0 1 1.748-7.524c2.458 0 4.233 1.775 4.233 3.965 0 .551-.114 1.077-.386 1.701l-.699-2.273-1.401.439 1.242 4.73 4.824-1.775-.586-1.384-1.8.616c.326-.706.39-1.225.39-2.055 0-3.065-2.484-5.55-5.817-5.55a5.55 5.55 0 0 0-5.549 5.55 5.553 5.553 0 0 0 3.801 5.27zM41.478 24.616v1.71a3.966 3.966 0 0 1-1.748 7.524c-2.457 0-4.232-1.776-4.232-3.965 0-.552.113-1.077.385-1.702l.7 2.273 1.4-.438-1.242-4.73-4.824 1.775.587 1.383 1.799-.616c-.326.707-.39 1.226-.39 2.055 0 3.065 2.484 5.55 5.817 5.55a5.55 5.55 0 0 0 5.55-5.55 5.553 5.553 0 0 0-3.802-5.27z"/></g></svg>