<svg width="107" height="108" viewBox="0 0 107 108" fill="none" xmlns="http://www.w3.org/2000/svg">
<mask id="mask0_23_689" style="mask-type:luminance" maskUnits="userSpaceOnUse" x="1" y="1" width="105" height="106">
<path d="M53.2092 106.111C81.9976 106.111 105.335 82.7731 105.335 53.9848C105.335 25.1964 81.9976 1.85889 53.2092 1.85889C24.4209 1.85889 1.08334 25.1964 1.08334 53.9848C1.08334 82.7731 24.4209 106.111 53.2092 106.111Z" fill="white"/>
</mask>
<g mask="url(#mask0_23_689)">
<path d="M110.271 -3.07715H-3.85236V111.046H110.271V-3.07715Z" fill="url(#paint0_linear_23_689)"/>
</g>
<path d="M68.2845 65.233L83.032 56.7174C83.8131 56.2662 84.2962 55.4276 84.2962 54.5252V37.4961C84.2962 36.5958 83.811 35.7551 83.032 35.3039L68.2845 26.7883C67.5034 26.3371 66.535 26.3392 65.7539 26.7883L51.0064 35.3039C50.2253 35.7551 49.7421 36.5958 49.7421 37.4961V67.9297L39.4004 73.8998L29.0586 67.9297V55.9874L39.4004 50.0173L46.2218 53.9548V45.9436L40.6646 42.7362C40.2815 42.5148 39.8431 42.3978 39.3983 42.3978C38.9534 42.3978 38.515 42.5148 38.134 42.7362L23.3865 51.2518C22.6054 51.703 22.1223 52.5416 22.1223 53.444V70.4731C22.1223 71.3734 22.6075 72.2141 23.3865 72.6653L38.134 81.1809C38.913 81.63 39.8835 81.63 40.6646 81.1809L55.4121 72.6674C56.1932 72.2162 56.6764 71.3755 56.6764 70.4752V40.0417L56.8637 39.9352L67.0181 34.0716L77.3599 40.0417V51.9839L67.0181 57.954L60.2073 54.0208V62.032L65.7539 65.2352C66.535 65.6843 67.5034 65.6843 68.2845 65.2352V65.233Z" fill="white"/>
<defs>
<linearGradient id="paint0_linear_23_689" x1="-24.7082" y1="6.30258" x2="93.1055" y2="78.399" gradientUnits="userSpaceOnUse">
<stop stop-color="#A229C5"/>
<stop offset="1" stop-color="#7B3FE4"/>
</linearGradient>
</defs>
</svg>
