<svg width="106" height="20" viewBox="0 0 106 20" fill="none" xmlns="http://www.w3.org/2000/svg">
<path d="M17.654 12.217C21.431 12.914 24 14.286 24 15.865C24 18.15 18.627 20 12 20C5.373 20 0 18.149 0 15.865C0 14.286 2.57 12.914 6.346 12.217C7.987 12.643 9.925 12.888 12 12.888C14.075 12.888 16.013 12.643 17.654 12.218V12.217ZM16.208 5.52C19.416 6.054 21.626 7.177 21.626 8.478C21.626 10.293 17.316 11.765 12 11.765C6.684 11.765 2.374 10.293 2.374 8.478C2.374 7.178 4.584 6.054 7.792 5.52C9.025 5.833 10.463 6.012 12 6.012C13.537 6.012 14.975 5.832 16.208 5.52ZM12.044 0C16.025 0 19.253 1.114 19.253 2.489C19.253 3.863 16.025 4.977 12.044 4.977C8.063 4.977 4.835 3.863 4.835 2.489C4.835 1.114 8.063 0 12.044 0ZM39.299 16.49C40.3 16.49 41.131 16.335 41.792 16.024C42.452 15.714 42.947 15.288 43.275 14.749C43.6062 14.1985 43.7766 13.5663 43.767 12.924C43.767 12.259 43.631 11.693 43.358 11.224C43.1061 10.7768 42.744 10.4016 42.306 10.134C41.9017 9.88379 41.4416 9.73776 40.967 9.709V9.58C41.3802 9.4834 41.7722 9.31227 42.124 9.075C42.469 8.841 42.744 8.535 42.949 8.158C43.153 7.781 43.256 7.326 43.256 6.793C43.256 6.145 43.099 5.566 42.786 5.055C42.473 4.543 42.002 4.139 41.373 3.843C40.745 3.547 39.957 3.399 39.011 3.399H34V16.489L39.299 16.49ZM38.717 8.967H36.371V5.356H38.768C39.468 5.356 39.995 5.52 40.35 5.848C40.706 6.176 40.884 6.594 40.884 7.101C40.884 7.485 40.789 7.816 40.6 8.095C40.41 8.375 40.151 8.589 39.823 8.741C39.4752 8.89608 39.0977 8.97322 38.717 8.967ZM38.922 14.509H36.372V10.674H38.986C39.476 10.674 39.898 10.764 40.251 10.946C40.605 11.126 40.878 11.374 41.07 11.687C41.261 12 41.357 12.351 41.357 12.739C41.357 13.259 41.167 13.684 40.785 14.014C40.404 14.344 39.783 14.509 38.922 14.509ZM48.055 16.689C48.566 16.689 49.012 16.618 49.394 16.475C49.775 16.332 50.093 16.143 50.346 15.906C50.6 15.67 50.796 15.415 50.938 15.142H51.014V16.491H53.239V9.92C53.239 9.268 53.12 8.725 52.884 8.29C52.6632 7.87284 52.341 7.51794 51.947 7.258C51.5542 7.00211 51.1196 6.81698 50.663 6.711C50.2001 6.60094 49.7259 6.54523 49.25 6.545C48.564 6.545 47.937 6.646 47.37 6.849C46.8274 7.03641 46.3356 7.34685 45.933 7.756C45.5303 8.17729 45.2401 8.69312 45.089 9.256L47.249 9.562C47.364 9.225 47.587 8.933 47.917 8.686C48.247 8.439 48.696 8.316 49.263 8.316C49.8 8.316 50.211 8.448 50.496 8.712C50.782 8.976 50.925 9.349 50.925 9.83V9.869C50.925 10.09 50.843 10.253 50.679 10.358C50.515 10.462 50.254 10.538 49.896 10.588C49.538 10.637 49.071 10.691 48.496 10.751C48.0294 10.8002 47.5669 10.8824 47.112 10.997C46.6895 11.1002 46.2852 11.2671 45.913 11.492C45.5637 11.705 45.2754 12.0047 45.076 12.362C44.871 12.724 44.769 13.182 44.769 13.736C44.769 14.379 44.913 14.921 45.201 15.36C45.488 15.798 45.881 16.13 46.377 16.353C46.873 16.577 47.433 16.689 48.055 16.689ZM48.655 14.989C48.174 14.989 47.778 14.88 47.467 14.663C47.156 14.445 47 14.123 47 13.698C47 13.399 47.079 13.155 47.237 12.966C47.394 12.776 47.609 12.628 47.882 12.521C48.1808 12.4079 48.492 12.3307 48.809 12.291L49.352 12.215C49.562 12.185 49.772 12.151 49.985 12.112C50.198 12.074 50.391 12.029 50.564 11.978C50.736 11.927 50.859 11.872 50.931 11.812V12.969C50.931 13.331 50.838 13.666 50.653 13.972C50.4612 14.2852 50.1882 14.5405 49.863 14.711C49.523 14.896 49.119 14.989 48.655 14.989ZM57.385 16.491V3.4H55.072V16.49H57.386L57.385 16.491ZM62.089 16.689C62.6 16.689 63.047 16.618 63.428 16.475C63.809 16.332 64.127 16.143 64.38 15.906C64.634 15.67 64.831 15.415 64.972 15.142H65.048V16.491H67.273V9.92C67.273 9.268 67.154 8.725 66.918 8.29C66.6975 7.87296 66.3756 7.51807 65.982 7.258C65.5889 7.002 65.154 6.81687 64.697 6.711C64.2341 6.60094 63.7599 6.54523 63.284 6.545C62.598 6.545 61.972 6.646 61.404 6.849C60.8614 7.03641 60.3696 7.34685 59.967 7.756C59.5643 8.17729 59.2741 8.69312 59.123 9.256L61.283 9.562C61.398 9.225 61.621 8.933 61.951 8.686C62.281 8.439 62.731 8.316 63.297 8.316C63.834 8.316 64.245 8.448 64.531 8.712C64.816 8.976 64.959 9.349 64.959 9.83V9.869C64.959 10.09 64.877 10.253 64.713 10.358C64.549 10.462 64.288 10.538 63.93 10.588C63.572 10.637 63.105 10.691 62.53 10.751C62.0634 10.8002 61.6009 10.8824 61.146 10.997C60.7235 11.1002 60.3192 11.2671 59.947 11.492C59.5977 11.705 59.3094 12.0047 59.11 12.362C58.906 12.724 58.803 13.182 58.803 13.736C58.803 14.379 58.947 14.921 59.235 15.36C59.522 15.798 59.915 16.13 60.411 16.353C60.907 16.577 61.467 16.689 62.089 16.689ZM62.689 14.989C62.209 14.989 61.812 14.88 61.501 14.663C61.19 14.445 61.034 14.123 61.034 13.698C61.034 13.399 61.113 13.155 61.271 12.966C61.428 12.776 61.643 12.628 61.916 12.521C62.2148 12.4079 62.526 12.3307 62.843 12.291L63.386 12.215C63.596 12.185 63.806 12.151 64.019 12.112C64.232 12.074 64.425 12.029 64.598 11.978C64.77 11.927 64.893 11.872 64.965 11.812V12.969C64.965 13.331 64.873 13.666 64.687 13.972C64.4952 14.2852 64.2222 14.5405 63.897 14.711C63.557 14.896 63.153 14.989 62.689 14.989ZM71.419 16.491V10.738C71.419 10.265 71.509 9.862 71.685 9.53C71.862 9.198 72.107 8.943 72.42 8.766C72.7497 8.58508 73.121 8.49371 73.497 8.501C74.094 8.501 74.561 8.686 74.9 9.057C75.239 9.427 75.408 9.941 75.408 10.597V16.491H77.722V10.239C77.727 9.455 77.589 8.789 77.31 8.239C77.03 7.689 76.639 7.269 76.134 6.979C75.629 6.689 75.038 6.545 74.36 6.545C73.627 6.545 73.012 6.707 72.516 7.031C72.028 7.3449 71.6495 7.80266 71.433 8.341H71.317V6.673H69.106V16.491H71.419ZM83.864 16.683C84.686 16.683 85.402 16.533 86.011 16.232C86.5968 15.9523 87.0961 15.5193 87.456 14.979C87.81 14.444 88.014 13.829 88.07 13.135H85.858C85.8019 13.4599 85.673 13.768 85.481 14.036C85.298 14.284 85.071 14.472 84.801 14.602C84.529 14.732 84.224 14.797 83.883 14.797C83.401 14.797 82.983 14.668 82.627 14.41C82.271 14.152 81.995 13.784 81.799 13.304C81.603 12.825 81.505 12.251 81.505 11.582C81.505 10.922 81.604 10.355 81.802 9.882C82 9.409 82.278 9.045 82.636 8.792C82.994 8.538 83.41 8.412 83.883 8.412C84.441 8.412 84.887 8.57 85.222 8.888C85.556 9.205 85.768 9.6 85.858 10.073H88.07C88.018 9.366 87.81 8.747 87.443 8.216C87.0708 7.68092 86.5622 7.25519 85.97 6.983C85.354 6.691 84.648 6.545 83.85 6.545C82.892 6.545 82.062 6.759 81.361 7.187C80.659 7.61621 80.0944 8.23732 79.734 8.977C79.351 9.742 79.159 10.623 79.159 11.62C79.159 12.613 79.348 13.49 79.725 14.25C80.102 15.011 80.641 15.607 81.342 16.037C82.043 16.467 82.884 16.683 83.864 16.683ZM93.821 16.683C94.584 16.683 95.261 16.567 95.854 16.334C96.446 16.102 96.933 15.774 97.314 15.35C97.696 14.926 97.954 14.428 98.091 13.857L95.931 13.614C95.828 13.891 95.677 14.124 95.477 14.311C95.277 14.499 95.04 14.641 94.767 14.736C94.4727 14.8354 94.1636 14.8841 93.853 14.88C93.35 14.88 92.911 14.773 92.536 14.557C92.1587 14.3391 91.8543 14.0145 91.661 13.624C91.451 13.217 91.347 12.728 91.347 12.157L91.348 12.215H98.187V11.505C98.187 10.645 98.067 9.902 97.829 9.277C97.59 8.653 97.263 8.139 96.848 7.734C96.4412 7.33467 95.9526 7.0283 95.416 6.836C94.8652 6.64006 94.2846 6.54159 93.7 6.545C92.762 6.545 91.946 6.759 91.251 7.187C90.5531 7.61908 89.9915 8.23959 89.631 8.977C89.245 9.742 89.053 10.629 89.053 11.639C89.053 12.666 89.244 13.558 89.628 14.314C90.011 15.071 90.56 15.654 91.274 16.066C91.988 16.477 92.837 16.683 93.821 16.683ZM91.358 10.579C91.388 10.223 91.486 9.891 91.651 9.584C91.849 9.216 92.127 8.917 92.485 8.689C92.8587 8.45652 93.292 8.3377 93.732 8.347C94.175 8.347 94.564 8.447 94.898 8.647C95.233 8.848 95.494 9.122 95.681 9.469C95.869 9.817 95.964 10.212 95.969 10.655H91.353L91.358 10.579ZM101.957 16.491V10.719C101.957 10.301 102.053 9.933 102.244 9.613C102.436 9.293 102.699 9.043 103.034 8.862C103.383 8.67725 103.773 8.58369 104.168 8.59C104.364 8.59 104.568 8.604 104.778 8.632C104.99 8.66 105.144 8.69 105.242 8.725V6.596C105.11 6.57152 104.976 6.55548 104.842 6.548C104.699 6.53796 104.555 6.53262 104.412 6.532C103.849 6.532 103.349 6.687 102.912 6.996C102.475 7.304 102.168 7.742 101.989 8.309H101.886V6.673H99.643V16.491H101.957Z" fill="white"/>
</svg>
