<svg width="163" height="27" viewBox="0 0 163 27" fill="none" xmlns="http://www.w3.org/2000/svg">
<path d="M55.6851 18.3113C53.3433 18.3113 51.4628 17.6941 50.0434 16.4599C48.624 15.2257 47.9124 13.593 47.9124 11.562C47.9124 9.53098 48.624 7.89834 50.0434 6.6641C51.4628 5.43377 53.3433 4.81274 55.6851 4.81274C57.9911 4.81274 59.8557 5.34394 61.2751 6.39851C62.6945 7.45699 63.422 8.84746 63.4578 10.5738V12.6517H52.3255C52.7231 14.2102 54.2737 14.9874 56.9732 14.9874C57.4742 14.9874 57.9553 14.9679 58.4204 14.9249C58.8856 14.882 59.2713 14.8312 59.5695 14.7726C59.8716 14.714 60.2056 14.6242 60.5753 14.507C60.9451 14.3898 61.2154 14.2961 61.3904 14.2297C61.5613 14.1633 61.8237 14.0539 62.1776 13.8977C62.5314 13.7454 62.77 13.6477 62.8893 13.593V17.0692C61.6647 17.5262 60.5634 17.8465 59.5814 18.034C58.5994 18.2214 57.3032 18.3113 55.6851 18.3113ZM52.2261 10.8785L59.1997 10.7262C59.148 9.9489 58.8021 9.3435 58.166 8.91386C57.5299 8.48422 56.7029 8.2694 55.6891 8.2694C54.7587 8.2694 53.9794 8.49984 53.3513 8.96463C52.7191 9.42552 52.3454 10.0661 52.2261 10.8785Z" fill="white"/>
<path d="M64.1616 17.9043V5.21822H68.9644L68.4476 10.4442H68.6543C68.9644 8.53426 69.6284 7.11645 70.6422 6.19467C71.66 5.2729 73.143 4.81201 75.0872 4.81201C76.3594 4.83154 77.3693 5.05808 78.1088 5.49944C78.8483 5.94079 79.4129 6.71415 79.8025 7.8234C80.1882 8.92875 80.383 10.4598 80.383 12.401V17.9043H75.938V12.8307C75.938 11.0731 75.6875 9.84271 75.1906 9.13966C74.6896 8.44052 73.8467 8.089 72.658 8.089C71.4533 8.089 70.4752 8.63972 69.7278 9.73725C68.9763 10.8387 68.6026 12.2682 68.6026 14.0258V17.9082H64.1616V17.9043Z" fill="white"/>
<path d="M81.5071 17.9039V15.7205L90.8025 8.49085H81.7138V5.21777H98.5236V7.35035L89.2798 14.6074H98.2691V17.9039H81.5071Z" fill="white"/>
<path d="M103.785 22.9776L106.652 17.7516L99.2922 5.21777H104.33L108.93 13.4356L113.502 5.21777H118.38L108.671 22.9776H103.785Z" fill="white"/>
<path d="M118.972 17.9043V5.21822H123.775L123.258 10.4442H123.465C123.775 8.53426 124.439 7.11645 125.453 6.19467C126.471 5.2729 127.95 4.81201 129.898 4.81201C131.548 4.84716 132.776 5.26899 133.579 6.0814C134.378 6.89382 134.867 8.34678 135.038 10.4442H135.245C135.555 8.53426 136.219 7.11645 137.233 6.19467C138.247 5.2729 139.726 4.81201 141.674 4.81201C142.946 4.83154 143.956 5.05808 144.696 5.49944C145.435 5.94079 146 6.71415 146.385 7.8234C146.775 8.92875 146.966 10.4598 146.966 12.401V17.9043H142.521V12.8307C142.521 11.0535 142.274 9.81928 141.773 9.12795C141.273 8.43661 140.43 8.089 139.245 8.089C138.04 8.089 137.062 8.63972 136.315 9.73725C135.567 10.8387 135.193 12.2682 135.193 14.0258V17.9082H130.749V12.8307C130.749 11.0535 130.498 9.81928 130.001 9.12795C129.5 8.43661 128.657 8.089 127.468 8.089C126.264 8.089 125.286 8.63972 124.538 9.73725C123.787 10.8387 123.413 12.2682 123.413 14.0258V17.9082H118.972V17.9043Z" fill="white"/>
<path d="M155.227 18.3105C152.885 18.3105 151.005 17.6934 149.585 16.4592C148.166 15.2249 147.454 13.5923 147.454 11.5613C147.454 9.53024 148.166 7.89761 149.585 6.66337C151.005 5.43304 152.885 4.81201 155.227 4.81201C157.533 4.81201 159.398 5.3432 160.817 6.39778C162.236 7.45625 162.964 8.84673 163 10.5731V12.651H151.868C152.265 14.2094 153.816 14.9867 156.515 14.9867C157.016 14.9867 157.497 14.9671 157.962 14.9242C158.428 14.8812 158.813 14.8304 159.111 14.7719C159.414 14.7133 159.748 14.6234 160.117 14.5063C160.487 14.3891 160.757 14.2953 160.932 14.2289C161.103 14.1625 161.366 14.0532 161.72 13.8969C162.073 13.7446 162.312 13.647 162.431 13.5923V17.0685C161.207 17.5255 160.105 17.8457 159.123 18.0332C158.141 18.2207 156.845 18.3105 155.227 18.3105ZM151.764 10.8777L158.738 10.7254C158.686 9.94817 158.34 9.34276 157.704 8.91312C157.068 8.48348 156.241 8.26866 155.227 8.26866C154.297 8.26866 153.517 8.49911 152.889 8.9639C152.261 9.42479 151.887 10.0653 151.764 10.8777Z" fill="white"/>
<path d="M21.991 3.3976C21.991 1.52116 23.5121 0 25.3886 0C27.265 0 28.7862 1.52116 28.7862 3.39761V13.2525H21.991V3.3976Z" fill="url(#paint0_linear_0_1)"/>
<path d="M21.991 23.2364C21.991 25.185 20.4113 26.7646 18.4627 26.7646C16.5141 26.7646 14.9344 25.185 14.9344 23.2364V13.2523H21.991V23.2364Z" fill="url(#paint1_linear_0_1)"/>
<path d="M10.4939 6.63972C10.4939 5.41282 11.4885 4.41821 12.7154 4.41821C13.9423 4.41821 14.9369 5.41282 14.9369 6.63973V13.2532H10.4939V6.63972Z" fill="url(#paint2_linear_0_1)"/>
<path d="M10.4939 16.6139C10.4939 18.2016 9.2068 19.4888 7.61904 19.4888C6.03128 19.4888 4.74414 18.2016 4.74414 16.6139V13.2523H10.4939V16.6139Z" fill="url(#paint3_linear_0_1)"/>
<path d="M41.394 15.4314C41.394 16.63 40.4224 17.6016 39.2239 17.6016C38.0254 17.6016 37.0538 16.63 37.0538 15.4314V13.2613H41.394V15.4314Z" fill="url(#paint4_linear_0_1)"/>
<path d="M0.404297 11.092C0.404297 9.89347 1.37589 8.92188 2.57441 8.92188C3.77293 8.92188 4.74453 9.89347 4.74453 11.092V13.2621H0.404297V11.092Z" fill="url(#paint5_linear_0_1)"/>
<path d="M33.2309 21.1655C33.2309 22.3924 32.2363 23.387 31.0093 23.387C29.7824 23.387 28.7878 22.3924 28.7878 21.1655V13.2527H33.2309V21.1655Z" fill="url(#paint6_linear_0_1)"/>
<path d="M33.231 6.11641C33.231 5.03384 34.1085 4.15625 35.1911 4.15625C36.2737 4.15625 37.1513 5.03384 37.1513 6.11641V13.2511H33.231V6.11641Z" fill="url(#paint7_linear_0_1)"/>
<defs>
<linearGradient id="paint0_linear_0_1" x1="25.3886" y1="2.83983" x2="25.3886" y2="9.30832" gradientUnits="userSpaceOnUse">
<stop stop-color="#6F56FD"/>
<stop offset="1" stop-color="#00CABE"/>
</linearGradient>
<linearGradient id="paint1_linear_0_1" x1="18.4627" y1="23.8691" x2="18.4627" y2="17.2738" gradientUnits="userSpaceOnUse">
<stop stop-color="#6F56FD"/>
<stop offset="1" stop-color="#00CABE"/>
</linearGradient>
<linearGradient id="paint2_linear_0_1" x1="12.7154" y1="6.31143" x2="12.7154" y2="10.6237" gradientUnits="userSpaceOnUse">
<stop stop-color="#6F56FD"/>
<stop offset="1" stop-color="#00CABE"/>
</linearGradient>
<linearGradient id="paint3_linear_0_1" x1="7.61904" y1="18.1524" x2="7.61904" y2="15.1084" gradientUnits="userSpaceOnUse">
<stop stop-color="#6F56FD"/>
<stop offset="1" stop-color="#00CABE"/>
</linearGradient>
<linearGradient id="paint4_linear_0_1" x1="39.2239" y1="16.6715" x2="39.2239" y2="14.5531" gradientUnits="userSpaceOnUse">
<stop stop-color="#6F56FD"/>
<stop offset="1" stop-color="#00CABE"/>
</linearGradient>
<linearGradient id="paint5_linear_0_1" x1="2.57441" y1="9.85192" x2="2.57441" y2="11.9704" gradientUnits="userSpaceOnUse">
<stop stop-color="#6F56FD"/>
<stop offset="1" stop-color="#00CABE"/>
</linearGradient>
<linearGradient id="paint6_linear_0_1" x1="31.0093" y1="21.2153" x2="31.0093" y2="16.2688" gradientUnits="userSpaceOnUse">
<stop stop-color="#6F56FD"/>
<stop offset="1" stop-color="#00CABE"/>
</linearGradient>
<linearGradient id="paint7_linear_0_1" x1="35.1911" y1="6.10515" x2="35.1911" y2="10.5443" gradientUnits="userSpaceOnUse">
<stop stop-color="#6F56FD"/>
<stop offset="1" stop-color="#00CABE"/>
</linearGradient>
</defs>
</svg>
