<svg width="301" height="63" viewBox="0 0 301 63" fill="none" xmlns="http://www.w3.org/2000/svg">
<path d="M53.2995 5.25687L50.5164 21.9397L40.6248 10.2965L53.2995 5.25687ZM50.5772 29.1147L53.0533 38.2579L34.1185 43.4733L50.5772 29.1147ZM9.35877 24.5192L19.5103 11.2564H37.1399L48.4083 24.5192H9.35877ZM47.1026 27.7971L28.7473 43.8088L10.0503 27.7971H47.1026ZM16.1107 10.3062L7.03912 22.1575L4.25373 5.3217L16.1107 10.3062ZM23.3102 43.4676L4.19516 38.2625L6.8145 29.3399L23.3102 43.4676ZM26.8394 47.8248L23.2311 51.7959C20.1734 48.8911 16.8113 46.3121 13.2224 44.117L26.8394 47.8248ZM44.3422 44.0562C40.7533 46.2877 37.3992 48.9002 34.3602 51.8323L30.6757 47.8203L44.3422 44.0562ZM57.4878 0.0642608L37.5835 7.97914H19.0314L0.0517578 0L4.36292 26.0558L0.222931 40.1596L11.0244 46.6175C16.1391 49.6753 20.7204 53.5014 24.6409 57.9883L28.8469 62.8027L33.2609 57.7397C37.0484 53.3962 41.459 49.6668 46.3707 46.6556L56.9635 40.1596L53.1488 26.0751L57.4878 0.0642608Z" fill="white"/>
<path d="M264.597 45.6016H268.446V22.7145H264.597V45.6016ZM264.597 19.7335H268.446V15.8847H264.597V19.7335ZM86.9582 15.6657C82.7756 15.6657 78.3109 17.3098 78.3109 21.3047C78.3109 23.8051 80.3144 25.0617 83.1767 25.8648L83.6755 25.9981L84.1899 26.1235L84.7186 26.2418L85.2603 26.3538L85.8136 26.4604L86.6628 26.6123L87.2397 26.7095L88.6663 26.9409L89.2328 27.0389L90.0753 27.1945L90.9061 27.3628L91.4521 27.4836C91.5424 27.5043 91.6325 27.5254 91.7223 27.5468L92.2566 27.6796L92.7821 27.8215L93.2977 27.9733L93.8026 28.1359C97.5468 29.3979 100.305 31.6419 100.305 36.4845C100.266 42.5799 95.4488 45.2757 90.2242 46.029L89.6729 46.1012C88.9363 46.1881 88.1948 46.2376 87.4604 46.254L86.911 46.2601C81.0838 46.2601 75.538 44.1452 73 38.6466L76.3836 36.6727C78.4986 40.5739 82.9161 42.4528 86.9582 42.4528L87.1734 42.4516L87.6105 42.4415C87.684 42.439 87.7578 42.436 87.8319 42.4325L88.2793 42.4063L88.7314 42.3684C89.0339 42.3392 89.3383 42.3018 89.6422 42.2554L90.0973 42.179C93.2762 41.5954 96.2635 39.9743 96.2635 36.3435C96.2938 33.6937 94.3696 32.2676 91.6682 31.3873L91.1977 31.2416C91.0385 31.1948 90.8769 31.1496 90.7133 31.1059L90.2163 30.9793L89.708 30.8612L89.1898 30.7507L88.3967 30.5977L87.5886 30.4576L86.185 30.2354L85.0225 30.039L84.447 29.9334L83.8768 29.8219L83.3128 29.7036L82.7561 29.5776L82.2079 29.4431L81.669 29.2993L81.1406 29.1454C77.2195 27.9509 74.2687 25.831 74.2687 21.2109C74.1934 15.7008 78.6943 13.1005 83.4149 12.29L83.95 12.2058C84.8426 12.078 85.7372 12.0125 86.6045 12.0016L86.8638 12C91.7516 12 96.404 12.9867 99.3179 17.9683L96.2163 19.895C94.4301 17.0283 90.6234 15.7123 86.9582 15.6657ZM107.254 12.7199V26.2551C109.228 23.2007 112.33 22.1669 115.291 22.1197C121.823 22.1197 125.018 26.4433 125.018 32.8347V45.6181H121.212V32.8819C121.212 28.3234 118.862 25.7382 114.632 25.7382C110.403 25.7382 107.301 29.0752 107.301 33.3045V45.6181H103.447V12.7199H107.254ZM140.349 25.675C135.744 25.675 132.031 28.9654 132.031 34.1347C132.031 39.3046 135.744 42.641 140.349 42.641C151.534 42.641 151.534 25.6284 140.396 25.6284L140.349 25.675ZM148.808 45.696L148.715 41.4661C146.882 44.6621 143.357 46.1663 140.161 46.1663C133.488 46.1663 128.271 41.5605 128.271 33.9937C128.271 26.4746 133.582 21.9627 140.208 22.0099C143.686 22.0099 147.117 23.6079 148.808 26.6156L148.856 22.3858H152.615V45.6016H148.903L148.808 45.696ZM176.657 34.1347C176.657 28.9182 173.226 25.8161 168.48 25.8161C163.64 25.8161 160.349 29.3885 160.349 34.1347C160.349 38.8815 163.781 42.4528 168.48 42.5C173.133 42.5 176.657 39.3512 176.657 34.1347ZM156.167 22.4796H159.833L160.021 26.9443C161.853 23.8428 165.284 22.0565 168.95 22.0565C175.623 22.1976 180.511 26.8977 180.511 34.0409C180.511 41.3723 175.671 46.1191 168.714 46.1191C165.425 46.1191 161.759 44.7093 159.927 41.4195V56.5521H156.167V22.4796ZM202.998 32.3024C202.81 27.7905 199.709 25.3463 195.15 25.3463C191.109 25.3463 187.583 27.7905 186.925 32.2552H202.998V32.3024ZM205.254 41.8892C202.904 44.6621 198.862 46.0252 195.244 46.0252C188.054 46.0252 183.025 41.2785 183.025 33.8999C183.025 26.8977 188.054 21.8689 195.056 21.8689C202.152 21.8689 207.557 26.2397 206.664 35.4978H186.925C187.348 39.7743 190.873 42.4528 195.338 42.4528C197.97 42.4528 201.166 41.4195 202.716 39.5395L205.301 41.8892H205.254ZM222.769 15.6657C218.587 15.6657 214.122 17.3098 214.122 21.3047C214.122 23.9479 216.361 25.2013 219.486 25.9981L220.001 26.1235L220.53 26.2418L221.071 26.3538L221.625 26.4604L222.474 26.6123L223.051 26.7095L224.478 26.9409L225.044 27.0389L225.887 27.1945L226.717 27.3628L227.263 27.4836C227.354 27.5043 227.444 27.5254 227.533 27.5468L228.068 27.6796L228.593 27.8215L229.109 27.9733L229.614 28.1359C233.358 29.3979 236.116 31.6419 236.116 36.4845C236.078 42.5799 231.26 45.2757 226.035 46.029L225.484 46.1012C224.748 46.1881 224.006 46.2376 223.272 46.254L222.723 46.2601C216.894 46.2601 211.349 44.1452 208.811 38.6466L212.195 36.6727C214.31 40.5739 218.728 42.4528 222.769 42.4528L222.984 42.4516L223.421 42.4415C223.495 42.439 223.569 42.436 223.643 42.4325L224.09 42.4063L224.542 42.3684C224.845 42.3392 225.149 42.3018 225.453 42.2554L225.908 42.179C229.087 41.5954 232.074 39.9743 232.074 36.3435C232.105 33.6937 230.181 32.2676 227.479 31.3873L227.009 31.2416C226.85 31.1948 226.688 31.1496 226.524 31.1059L226.027 30.9793L225.519 30.8612L225.001 30.7507L224.474 30.6471L223.94 30.5497L223.4 30.4576L221.996 30.2354L220.833 30.039L220.258 29.9334L219.688 29.8219L219.124 29.7036L218.567 29.5776L218.019 29.4431L217.48 29.2993L216.952 29.1454C213.031 27.9509 210.08 25.831 210.08 21.2109C209.988 14.4532 216.778 12.0722 222.416 12.0016L222.675 12C227.563 12 232.216 12.9867 235.129 17.9683L232.027 19.895C230.242 17.0283 226.435 15.7123 222.769 15.6657ZM242.983 12.7046V26.2397C244.957 23.1854 248.058 22.1509 251.019 22.1037C257.552 22.1037 260.747 26.428 260.747 32.8188V45.6016H256.941V32.866C256.941 28.3075 254.591 25.7222 250.362 25.7222C246.132 25.7222 243.03 29.0593 243.03 33.2891V45.6016H239.176V12.7046H242.983ZM280.364 20.835C280.364 17.357 281.962 15.8062 284.453 15.8062L284.598 15.8124L285.466 12.5004C285.1 12.4532 284.733 12.4225 284.359 12.4225C279.472 12.4225 276.558 15.5247 276.558 20.835V22.6673H271.999V26.0521H276.558V45.6016H280.364V26.0521H284.975V22.6673H280.364V20.835ZM300.006 42.3772C299.701 42.4255 299.401 42.4528 299.113 42.4528C296.34 42.4528 295.447 40.7143 295.447 37.9887V26.0225H300.393V22.6832H295.494V15.6185L291.64 16.041V22.6832H286.988V26.0225H291.64V37.9887C291.64 43.1113 293.99 46.0252 298.972 45.9314C299.586 45.9121 300.179 45.8399 300.766 45.7182L300.006 42.3772Z" fill="white"/>
</svg>
