<svg fill="none" height="50" viewBox="0 0 176 50" width="176" xmlns="http://www.w3.org/2000/svg"><path d="m73.9435 37.9011c-.9897 0-1.5567-.0154-1.7011-.0463v-3.4805c.0928.0206.4691.0309 1.1289.0309.835 0 1.469-.1444 1.9021-.4331.4329-.2785.7267-.7476.8813-1.4076 0-.0103.0259-.1393.0773-.3868.0516-.2475.0722-.3816.0619-.4022l-5.768-16.5979h4.9639l3.5258 12.9628h.0773l3.5258-12.9628h4.7628l-5.7062 16.9536c-.7112 2.1244-1.6494 3.6146-2.8144 4.4706-1.1546.8662-2.7938 1.2993-4.9174 1.2993zm22.0515-19.7381c-.9794 0-1.799.3352-2.4588 1.0054-.6495.6705-1.0154 1.5264-1.0979 2.5678h7.036c-.0516-1.062-.3969-1.9232-1.036-2.5832-.6289-.66-1.4433-.99-2.4433-.99zm3.5412 8.5232h4.1448c-.248 1.6294-1.062 2.9443-2.444 3.9446-1.3709.99-3.0771 1.485-5.1184 1.485-2.5463 0-4.5464-.7631-5.9999-2.2893-1.4433-1.5263-2.165-3.6197-2.165-6.2804 0-2.6503.7217-4.7643 2.165-6.3421 1.4433-1.5882 3.3866-2.3822 5.8298-2.3822 2.4021 0 4.3145.7528 5.7375 2.2584 1.422 1.5056 2.134 3.5218 2.134 6.0482v1.3768h-11.4282v.2784c0 1.186.3454 2.1503 1.0362 2.8926.7009.7322 1.6236 1.0984 2.7679 1.0984.8248 0 1.5362-.1856 2.1341-.5569.5979-.3816 1-.8921 1.2062-1.5315zm13.0208 2.073c1 0 1.845-.2888 2.536-.8663.701-.5878 1.051-1.3252 1.051-2.2121v-1.2065l-3.494.2165c-.846.0619-1.5.2734-1.964.6343-.454.3608-.681.8353-.681 1.423 0 .6189.232 1.1087.696 1.4696s1.083.5415 1.856.5415zm-1.485 3.2638c-1.598 0-2.922-.4691-3.974-1.4076-1.051-.9384-1.577-2.145-1.577-3.6198 0-1.5055.556-2.6863 1.67-3.5423 1.113-.8559 2.706-1.3457 4.778-1.4694l4.175-.2477v-1.0982c0-.7631-.252-1.3612-.757-1.7944-.495-.4331-1.17-.6496-2.026-.6496-.825 0-1.5.1856-2.026.5568-.515.3713-.83.8715-.943 1.5004h-4.129c.082-1.6292.778-2.939 2.088-3.929 1.309-1.0003 3.046-1.5004 5.211-1.5004 2.124 0 3.825.5053 5.103 1.5159s1.918 2.3513 1.918 4.0219v11.4005h-4.361v-2.537h-.093c-.454.8664-1.144 1.5521-2.072 2.0574-.928.495-1.923.7425-2.985.7425zm12.433-.2629v-16.5825h4.361v2.9854h.093c.289-1.0519.773-1.8562 1.453-2.4131.681-.5569 1.511-.8353 2.49-.8353.474 0 .902.0567 1.284.1701v3.9755c-.423-.1753-.969-.2629-1.639-.2629-1.114 0-1.98.3248-2.598.9745-.619.6497-.928 1.5572-.928 2.7225v9.2658zm11.536 0v-16.5825h4.361v2.9545h.093c.454-1.0519 1.113-1.8563 1.979-2.4131.877-.5672 1.944-.8508 3.201-.8508 1.835 0 3.253.5465 4.253 1.6397 1 1.0931 1.5 2.6142 1.5 4.5632v10.689h-4.516v-9.7453c0-1.0931-.257-1.9337-.773-2.5215-.515-.5878-1.273-.8816-2.273-.8816s-1.804.3351-2.412 1.0054c-.598.6703-.897 1.5469-.897 2.6297v9.5133z" fill="#286bdb"/><path d="m39.8351 39.68c8.7454 0 15.835-7.0918 15.835-15.84s-7.0896-15.84-15.835-15.84c-8.7455 0-15.8351 7.0918-15.8351 15.84s7.0896 15.84 15.8351 15.84z" fill="#286bdb"/><g clip-rule="evenodd" fill="#fff" fill-rule="evenodd"><path d="m38.9121 17.0405h1.6368v14.3041h-1.6368z"/><path d="m37.9835 23.7698v-1.7094c-1.3127-.646-2.2166-1.9974-2.2166-3.5599 0-2.1891 1.7748-3.9644 3.9639-3.9644 2.4578 0 4.2327 1.7753 4.2327 3.9644 0 .5519-.1135 1.0775-.3855 1.7019l-.6989-2.2731-1.4012.4382 1.2425 4.7305 4.8234-1.775-.5863-1.3836-1.7989.6159c.3256-.7062.3896-1.2254.3896-2.0548 0-3.0653-2.4841-5.5503-5.8174-5.5503-3.0645 0-5.5487 2.485-5.5487 5.5503 0 2.4546 1.5934 4.537 3.8014 5.2693z"/><path d="m41.4778 24.6157v1.7096c1.3127.6462 2.2165 1.9974 2.2165 3.5599 0 2.1891-1.7747 3.9645-3.9638 3.9645-2.4579 0-4.2327-1.7754-4.2327-3.9645 0-.5519.1134-1.0774.3854-1.7019l.699 2.273 1.401-.4381-1.2424-4.7305-4.8233 1.7753.5862 1.3832 1.7989-.6157c-.3256.706-.3896 1.2252-.3896 2.0547 0 3.0653 2.4842 5.5503 5.8175 5.5503 3.0643 0 5.5486-2.485 5.5486-5.5503 0-2.4547-1.5934-4.5369-3.8013-5.2695z"/></g></svg>