<svg width="86" height="37" viewBox="0 0 86 37" fill="none" xmlns="http://www.w3.org/2000/svg">
<path fill-rule="evenodd" clip-rule="evenodd" d="M10.9578 1.70948V28.8301L8.58307e-06 28.8301V8.28417L10.9578 1.70948Z" fill="white"/>
<path fill-rule="evenodd" clip-rule="evenodd" d="M13.1494 35.4598L13.1494 8.1748H24.1072V8.48643V28.8851L13.1494 35.4598Z" fill="white"/>
<rect x="36.1905" y="11.3555" width="3.50629" height="17.5315" fill="white"/>
<rect x="36.1905" y="11.3555" width="3.50629" height="17.5315" fill="white"/>
<path d="M59.5549 20.065C59.5549 24.908 55.6006 28.8341 50.7228 28.8341C45.8449 28.8341 41.8906 24.908 41.8906 20.065C41.8906 15.222 45.8449 11.2959 50.7228 11.2959C55.6006 11.2959 59.5549 15.222 59.5549 20.065ZM45.4235 20.065C45.4235 22.9708 47.796 25.3264 50.7228 25.3264C53.6495 25.3264 56.0221 22.9708 56.0221 20.065C56.0221 17.1592 53.6495 14.8035 50.7228 14.8035C47.796 14.8035 45.4235 17.1592 45.4235 20.065Z" fill="white"/>
<path d="M56.0223 6.21973L59.5552 6.21972V28.931H56.0223V6.21973Z" fill="white"/>
<path d="M61.6998 6.12598H65.2327V28.8373H61.6998L61.6998 6.12598Z" fill="white"/>
<path d="M84.9223 21.4858C85.258 19.3364 84.7879 17.1387 83.6023 15.3146C82.4167 13.4906 80.5992 12.1687 78.4986 11.6027C76.398 11.0367 74.1624 11.2666 72.2209 12.2481C70.2794 13.2296 68.7688 14.8937 67.9792 16.9208C67.1895 18.948 67.1764 21.1953 67.9424 23.2315C68.7084 25.2677 70.1994 26.9492 72.1294 27.9533C74.0593 28.9574 76.2921 29.2133 78.3991 28.6718C80.5062 28.1304 82.339 26.8297 83.5458 25.0196L80.6085 23.0614C79.8845 24.1475 78.7848 24.9279 77.5205 25.2528C76.2563 25.5776 74.9166 25.4241 73.7587 24.8217C72.6007 24.2192 71.7061 23.2103 71.2465 21.9886C70.7869 20.7669 70.7948 19.4184 71.2685 18.2022C71.7423 16.9859 72.6487 15.9875 73.8136 15.3985C74.9785 14.8096 76.3198 14.6717 77.5802 15.0113C78.8406 15.3509 79.9311 16.144 80.6424 17.2385C81.3538 18.3329 81.6358 19.6515 81.4344 20.9412L84.9223 21.4858Z" fill="white"/>
<path d="M69.0751 18.4277H84.6892L84.9096 21.4827H69.0751V18.4277Z" fill="white"/>
</svg>
