<svg fill="none" height="30" viewBox="0 0 65 30" width="65" xmlns="http://www.w3.org/2000/svg"><g fill="#fff"><path clip-rule="evenodd" d="m8.28223 1.99992v20.49808h-8.2820733v-15.52884z" fill-rule="evenodd"/><path clip-rule="evenodd" d="m9.93848 27.5086v-20.62237h8.28202v.23553 15.41754z" fill-rule="evenodd"/><path d="m27.3529 9.29045h2.65011v13.2505h-2.65011z"/><path d="m27.3529 9.29045h2.65011v13.2505h-2.65011z"/><path d="m45.012 15.8738c0 3.6604-2.9887 6.6278-6.6755 6.6278-3.6867 0-6.6755-2.9674-6.6755-6.6278s2.9888-6.62779 6.6755-6.62779c3.6868 0 6.6755 2.96739 6.6755 6.62779zm-10.6808 0c0 2.1963 1.7933 3.9767 4.0053 3.9767 2.2121 0 4.0053-1.7804 4.0053-3.9767 0-2.1962-1.7932-3.9767-4.0053-3.9767-2.212 0-4.0053 1.7805-4.0053 3.9767z"/><path d="m42.3417 5.40861h2.6702v17.16549h-2.6702z"/><path d="m46.6332 5.33781h2.6702v17.16549h-2.6702z"/><path d="m64.1855 16.9465c.2537-1.6246-.1016-3.2857-.9977-4.6643-.8961-1.3787-2.2698-2.37776-3.8574-2.80553-1.5877-.42777-3.2774-.25405-4.7448.4878-1.4674.74183-2.6091 1.99953-3.206 3.53173-.5968 1.5321-.6067 3.2307-.0278 4.7697.579 1.539 1.706 2.8099 3.1646 3.5688 1.4587.7589 3.1463.9523 4.7388.543 1.5925-.4092 2.9778-1.3922 3.8899-2.7604l-2.22-1.48c-.5473.8209-1.3784 1.4107-2.334 1.6563-.9555.2455-1.968.1295-2.8432-.3259-.8752-.4553-1.5514-1.2179-1.8988-2.1412-.3473-.9234-.3414-1.9426.0167-2.8619s1.0431-1.6739 1.9236-2.119c.8804-.4451 1.8942-.5493 2.8468-.2927.9526.2567 1.7769.8561 2.3145 1.6833s.7508 1.8239.5986 2.7986z"/><path d="m52.2079 14.6352h11.8014l.1665 2.3089h-11.9679z"/></g></svg>