<svg width="75" height="35" viewBox="0 0 75 35" fill="none" xmlns="http://www.w3.org/2000/svg">
<path fill-rule="evenodd" clip-rule="evenodd" d="M9.55636 2.33325V26.2477H0.00012207V8.1307L9.55636 2.33325Z" fill="white"/>
<path fill-rule="evenodd" clip-rule="evenodd" d="M11.4674 32.0934V8.03394H21.0236V8.30872V26.2959L11.4674 32.0934Z" fill="white"/>
<path d="M31.561 10.8389H34.6189V26.2978H31.561V10.8389Z" fill="white"/>
<path d="M31.561 10.8389H34.6189V26.2978H31.561V10.8389Z" fill="white"/>
<path d="M51.9369 18.5195C51.9369 22.7899 48.4884 26.2519 44.2344 26.2519C39.9805 26.2519 36.5319 22.7899 36.5319 18.5195C36.5319 14.249 39.9805 10.787 44.2344 10.787C48.4884 10.787 51.9369 14.249 51.9369 18.5195ZM39.6129 18.5195C39.6129 21.0818 41.6821 23.159 44.2344 23.159C46.7868 23.159 48.8559 21.0818 48.8559 18.5195C48.8559 15.9572 46.7868 13.88 44.2344 13.88C41.6821 13.88 39.6129 15.9572 39.6129 18.5195Z" fill="white"/>
<path d="M48.8557 6.31006H51.9367V26.3365H48.8557V6.31006Z" fill="white"/>
<path d="M53.8075 6.22748H56.8885V26.2539H53.8075V6.22748Z" fill="white"/>
<path d="M74.0601 19.7709C74.3528 17.8756 73.9429 15.9376 72.9089 14.3292C71.8749 12.7208 70.2899 11.5552 68.458 11.0561C66.6261 10.5571 64.6764 10.7597 62.9833 11.6252C61.2901 12.4907 59.9728 13.958 59.284 15.7456C58.5954 17.533 58.584 19.5147 59.252 21.3102C59.92 23.1057 61.2204 24.5884 62.9034 25.4738C64.5865 26.3592 66.5338 26.5848 68.3713 26.1073C70.2088 25.6299 71.8072 24.4831 72.8596 22.8869L70.2981 21.1602C69.6666 22.1179 68.7076 22.806 67.605 23.0925C66.5025 23.379 65.3342 23.2436 64.3244 22.7123C63.3145 22.1811 62.5343 21.2914 62.1335 20.2143C61.7327 19.137 61.7395 17.9479 62.1527 16.8754C62.5659 15.8029 63.3563 14.9225 64.3723 14.4032C65.3881 13.8839 66.5579 13.7624 67.657 14.0617C68.7562 14.3612 69.7073 15.0605 70.3276 16.0256C70.9479 16.9906 71.1939 18.1535 71.0183 19.2906L74.0601 19.7709Z" fill="white"/>
<path d="M60.2399 17.0744H73.8569L74.049 19.7681H60.2399V17.0744Z" fill="white"/>
</svg>
