<svg width="788" height="202" viewBox="0 0 788 202" fill="none" xmlns="http://www.w3.org/2000/svg">
<g clip-path="url(#clip0_511_164)">
<mask id="mask0_511_164" style="mask-type:luminance" maskUnits="userSpaceOnUse" x="13" y="126" width="79" height="76">
<path d="M14.687 142.347C16.1278 147.835 15.5629 153.657 13.094 158.765L89.477 201.939C90.0825 201.14 90.7375 200.38 91.438 199.663L50.115 128.996C44.4196 130.3 38.4434 129.459 33.329 126.634L14.687 142.347Z" fill="white"/>
</mask>
<g mask="url(#mask0_511_164)">
<path d="M91.438 126.634H13.094V201.939H91.438V126.634Z" fill="url(#paint0_linear_511_164)"/>
</g>
<mask id="mask1_511_164" style="mask-type:luminance" maskUnits="userSpaceOnUse" x="0" y="51" width="28" height="83">
<path d="M2.168 51.694C1.437 51.694 0.715 51.655 0 51.591V126.074C3.91127 127.55 7.36786 130.025 10.026 133.252L25.728 120.017C22.4105 115.59 20.7385 110.146 20.9995 104.62C21.2605 99.094 23.438 93.8316 27.158 89.737L4.824 51.542C3.94215 51.6416 3.05546 51.6924 2.168 51.694Z" fill="white"/>
</mask>
<g mask="url(#mask1_511_164)">
<path d="M27.158 51.542H0V133.252H27.158V51.542Z" fill="url(#paint1_linear_511_164)"/>
</g>
<mask id="mask2_511_164" style="mask-type:luminance" maskUnits="userSpaceOnUse" x="189" y="51" width="29" height="84">
<path d="M189.856 89.7369C193.575 93.8318 195.753 99.0942 196.013 104.62C196.274 110.146 194.603 115.59 191.286 120.017L208.059 134.154C210.548 131.505 213.612 129.462 217.015 128.184V53.4359C215.281 53.121 213.588 52.6138 211.967 51.924L189.856 89.7369Z" fill="white"/>
</mask>
<g mask="url(#mask2_511_164)">
<path d="M217.015 51.924H189.856V134.154H217.015V51.924Z" fill="url(#paint2_linear_511_164)"/>
</g>
<mask id="mask3_511_164" style="mask-type:luminance" maskUnits="userSpaceOnUse" x="129" y="37" width="75" height="53">
<path d="M132.316 55.364C132.342 55.826 132.359 56.289 132.359 56.757C132.363 60.6723 131.396 64.5274 129.546 67.978L154.896 89.344C158.263 85.7794 162.649 83.3425 167.454 82.3667C172.259 81.391 177.249 81.924 181.739 83.893L203.768 46.219C201.339 43.6334 199.522 40.5346 198.453 37.152L132.316 55.364Z" fill="white"/>
</mask>
<g mask="url(#mask3_511_164)">
<path d="M203.768 37.152H129.546V89.344H203.768V37.152Z" fill="url(#paint3_linear_511_164)"/>
</g>
<mask id="mask4_511_164" style="mask-type:luminance" maskUnits="userSpaceOnUse" x="113" y="0" width="86" height="46">
<path d="M113.486 11.5V33.432C116.923 34.1734 120.155 35.6629 122.951 37.7947C125.747 39.9264 128.04 42.648 129.665 45.766L197.504 27.086C197.646 25.9255 197.873 24.7771 198.184 23.65L129.208 0C127.541 2.91253 125.279 5.44164 122.571 7.42292C119.862 9.40421 116.767 10.7933 113.486 11.5Z" fill="white"/>
</mask>
<g mask="url(#mask4_511_164)">
<path d="M198.184 0H113.486V45.766H198.184V0Z" fill="url(#paint4_linear_511_164)"/>
</g>
<mask id="mask5_511_164" style="mask-type:luminance" maskUnits="userSpaceOnUse" x="125" y="126" width="78" height="76">
<path d="M172.19 129.595C170.41 129.593 168.635 129.393 166.899 128.996L125.577 199.663C126.015 200.111 126.435 200.575 126.836 201.056L202.806 158.116C201.104 153.143 201.116 147.744 202.84 142.779L183.684 126.634C180.166 128.58 176.211 129.599 172.19 129.595Z" fill="white"/>
</mask>
<g mask="url(#mask5_511_164)">
<path d="M202.84 126.634H125.577V201.056H202.84V126.634Z" fill="url(#paint5_linear_511_164)"/>
</g>
<mask id="mask6_511_164" style="mask-type:luminance" maskUnits="userSpaceOnUse" x="59" y="75" width="45" height="120">
<path d="M67.361 97.9499C69.0129 102.711 69.111 107.874 67.6411 112.695C66.1713 117.515 63.2094 121.745 59.182 124.775L99.733 194.125C100.963 193.635 102.233 193.25 103.528 192.973V80.0819C100.018 79.3305 96.7244 77.7933 93.894 75.5859L67.361 97.9499Z" fill="white"/>
</mask>
<g mask="url(#mask6_511_164)">
<path d="M103.528 75.5859H59.182V194.125H103.528V75.5859Z" fill="url(#paint6_linear_511_164)"/>
</g>
<mask id="mask7_511_164" style="mask-type:luminance" maskUnits="userSpaceOnUse" x="113" y="75" width="45" height="120">
<path d="M113.486 80.0819V192.973C114.781 193.25 116.051 193.635 117.281 194.125L157.832 124.775C153.804 121.745 150.842 117.516 149.372 112.695C147.903 107.874 148.001 102.711 149.654 97.9499L123.121 75.5859C120.29 77.7935 116.996 79.3307 113.486 80.0819Z" fill="white"/>
</mask>
<g mask="url(#mask7_511_164)">
<path d="M157.832 75.5859H113.486V194.125H157.832V75.5859Z" fill="url(#paint7_linear_511_164)"/>
</g>
<mask id="mask8_511_164" style="mask-type:luminance" maskUnits="userSpaceOnUse" x="14" y="38" width="74" height="52">
<path d="M14.451 48.278L35.2761 83.893C39.7666 81.9241 44.7558 81.391 49.5609 82.3668C54.3661 83.3426 58.7522 85.7795 62.1191 89.344L87.4691 67.978C85.6193 64.5273 84.6532 60.6722 84.657 56.757C84.657 56.289 84.673 55.826 84.701 55.364L23.4911 38.51C21.4582 42.5527 18.3245 45.9387 14.451 48.278Z" fill="white"/>
</mask>
<g mask="url(#mask8_511_164)">
<path d="M87.469 38.51H14.451V89.344H87.469V38.51Z" fill="url(#paint8_linear_511_164)"/>
</g>
<mask id="mask9_511_164" style="mask-type:luminance" maskUnits="userSpaceOnUse" x="25" y="2" width="79" height="44">
<path d="M25.723 24.1C25.9195 25.3376 26.0185 26.5888 26.019 27.842C26.019 28.187 26.008 28.529 25.993 28.871L87.351 45.766C88.9759 42.648 91.2678 39.9263 94.0638 37.7945C96.8597 35.6628 100.091 34.1733 103.528 33.432V11.5C98.0272 10.3167 93.1206 7.22964 89.673 2.78296L25.723 24.1Z" fill="white"/>
</mask>
<g mask="url(#mask9_511_164)">
<path d="M103.528 2.78296H25.723V45.766H103.528V2.78296Z" fill="url(#paint9_linear_511_164)"/>
</g>
<mask id="mask10_511_164" style="mask-type:luminance" maskUnits="userSpaceOnUse" x="-32" y="-39" width="851" height="273">
<path d="M818.852 -38.875H-31.542V233.806H818.852V-38.875Z" fill="white"/>
</mask>
<g mask="url(#mask10_511_164)">
<path d="M296.285 93.8938C302.496 97.4718 305.602 102.872 305.602 110.096C305.683 112.876 305.154 115.641 304.052 118.195C302.95 120.749 301.302 123.031 299.223 124.88C294.925 128.746 289.306 130.812 283.527 130.653H253.451V59.7668H281.4C287.045 59.6081 292.536 61.6203 296.742 65.3888C298.765 67.176 300.37 69.3853 301.446 71.8608C302.522 74.3363 303.041 77.0177 302.967 79.7158C303.049 82.4384 302.487 85.1418 301.326 87.6057C300.164 90.0696 298.437 92.2242 296.285 93.8938ZM281.4 72.8318H267.425V88.4238H281.4C282.408 88.4489 283.41 88.2638 284.343 87.8804C285.276 87.497 286.118 86.9236 286.817 86.1968C287.536 85.4627 288.099 84.5914 288.473 83.635C288.847 82.6785 289.025 81.6565 288.996 80.6298C289.027 79.6066 288.854 78.5875 288.489 77.6314C288.123 76.6752 287.572 75.8009 286.867 75.0588C286.164 74.3237 285.314 73.7453 284.371 73.3616C283.429 72.9778 282.417 72.7973 281.4 72.8318ZM283.527 117.59C284.618 117.621 285.703 117.426 286.714 117.017C287.725 116.607 288.639 115.992 289.4 115.21C290.173 114.413 290.777 113.47 291.178 112.435C291.578 111.4 291.765 110.295 291.729 109.186C291.759 108.092 291.568 107.004 291.168 105.986C290.767 104.968 290.166 104.041 289.4 103.26C288.639 102.478 287.724 101.864 286.713 101.454C285.702 101.044 284.617 100.849 283.527 100.88H267.425V117.59H283.527Z" fill="white"/>
<path d="M353.6 130.652L339.322 106.044H328.69V130.652H314.715V59.7675H343.069C346.162 59.7569 349.227 60.3566 352.088 61.5323C354.949 62.708 357.55 64.4365 359.742 66.6189C361.933 68.8013 363.673 71.3947 364.861 74.2505C366.049 77.1063 366.662 80.1684 366.665 83.2615C366.676 87.6134 365.37 91.8667 362.918 95.4625C360.475 99.1612 357.034 102.093 352.994 103.918L368.69 130.652H353.6ZM328.69 72.8315V93.7925H343.069C344.356 93.7987 345.629 93.5258 346.8 92.9925C347.971 92.4592 349.013 91.6783 349.853 90.7035C351.729 88.6853 352.747 86.0164 352.69 83.2615C352.752 80.5202 351.733 77.8646 349.853 75.8685C349.006 74.9063 347.961 74.1372 346.791 73.6133C345.621 73.0893 344.351 72.8227 343.069 72.8315H328.69Z" fill="white"/>
<path d="M435.826 132.07C425.157 132.07 416.347 128.526 409.395 121.438C402.441 114.348 398.965 105.606 398.966 95.2113C398.966 84.7473 402.442 75.9873 409.395 68.9313C416.348 61.8783 425.158 58.3516 435.826 58.3513C442.038 58.3003 448.159 59.8515 453.597 62.8553C458.86 65.6971 463.252 69.9154 466.304 75.0593L454.256 82.0453C452.523 78.897 449.922 76.3134 446.762 74.6023C443.407 72.7861 439.641 71.8619 435.826 71.9183C428.938 71.9183 423.385 74.0796 419.167 78.4023C414.948 82.7223 412.838 88.3253 412.837 95.2113C412.837 102.028 414.947 107.598 419.167 111.919C423.387 116.239 428.94 118.399 435.826 118.399C439.656 118.454 443.436 117.53 446.81 115.716C449.959 114.053 452.549 111.5 454.256 108.374L466.304 115.362C463.263 120.497 458.889 124.713 453.646 127.563C448.196 130.581 442.056 132.134 435.826 132.07Z" fill="white"/>
<path d="M520.178 130.652L515.925 117.893H487.675L483.422 130.652H468.332L493.141 59.7671H510.458L535.369 130.652H520.178ZM492.13 104.829H511.571L501.849 75.8681L492.13 104.829Z" fill="white"/>
<path d="M568.683 59.7669C571.869 59.692 575.037 60.2637 577.996 61.4474C580.954 62.6311 583.642 64.4022 585.897 66.6539C590.373 71.144 592.885 77.225 592.885 83.5644C592.885 89.9038 590.373 95.9848 585.897 100.475C583.643 102.727 580.955 104.499 577.996 105.683C575.037 106.866 571.869 107.438 568.683 107.362H556.228V130.652H542.253V59.7669H568.683ZM568.683 94.2979C570.064 94.335 571.437 94.0789 572.711 93.5467C573.986 93.0144 575.133 92.218 576.077 91.2099C577.967 89.1017 579.012 86.3701 579.012 83.5389C579.012 80.7076 577.967 77.976 576.077 75.8679C575.125 74.8737 573.975 74.0898 572.702 73.567C571.428 73.0441 570.06 72.7937 568.683 72.8319H556.228V94.2979H568.683Z" fill="white"/>
<path d="M615.974 59.767H601.999V130.652H615.974V59.767Z" fill="white"/>
<path d="M676.021 59.767V73.135H656.883V130.652H642.909V73.135H623.872V59.767H676.021Z" fill="white"/>
<path d="M724.222 130.652L719.969 117.893H691.719L687.466 130.652H672.376L697.185 59.7671H714.502L739.413 130.652H724.222ZM696.174 104.829H715.615L705.893 75.8681L696.174 104.829Z" fill="white"/>
<path d="M760.272 117.284H787.309V130.652H746.297V59.767H760.272V117.284Z" fill="white"/>
</g>
</g>
<defs>
<linearGradient id="paint0_linear_511_164" x1="-8.13956" y1="164.286" x2="223.52" y2="164.286" gradientUnits="userSpaceOnUse">
<stop stop-color="#FC552F"/>
<stop offset="1" stop-color="#FF9411"/>
</linearGradient>
<linearGradient id="paint1_linear_511_164" x1="-8.13956" y1="92.3965" x2="223.52" y2="92.3965" gradientUnits="userSpaceOnUse">
<stop stop-color="#FC552F"/>
<stop offset="1" stop-color="#FF9411"/>
</linearGradient>
<linearGradient id="paint2_linear_511_164" x1="-8.13949" y1="93.039" x2="223.52" y2="93.039" gradientUnits="userSpaceOnUse">
<stop stop-color="#FC552F"/>
<stop offset="1" stop-color="#FF9411"/>
</linearGradient>
<linearGradient id="paint3_linear_511_164" x1="-8.13952" y1="63.2485" x2="223.52" y2="63.2485" gradientUnits="userSpaceOnUse">
<stop stop-color="#FC552F"/>
<stop offset="1" stop-color="#FF9411"/>
</linearGradient>
<linearGradient id="paint4_linear_511_164" x1="-8.13958" y1="22.8827" x2="223.52" y2="22.8827" gradientUnits="userSpaceOnUse">
<stop stop-color="#FC552F"/>
<stop offset="1" stop-color="#FF9411"/>
</linearGradient>
<linearGradient id="paint5_linear_511_164" x1="-8.13955" y1="163.845" x2="223.52" y2="163.845" gradientUnits="userSpaceOnUse">
<stop stop-color="#FC552F"/>
<stop offset="1" stop-color="#FF9411"/>
</linearGradient>
<linearGradient id="paint6_linear_511_164" x1="-8.13954" y1="134.855" x2="223.52" y2="134.855" gradientUnits="userSpaceOnUse">
<stop stop-color="#FC552F"/>
<stop offset="1" stop-color="#FF9411"/>
</linearGradient>
<linearGradient id="paint7_linear_511_164" x1="-8.13959" y1="134.855" x2="223.52" y2="134.855" gradientUnits="userSpaceOnUse">
<stop stop-color="#FC552F"/>
<stop offset="1" stop-color="#FF9411"/>
</linearGradient>
<linearGradient id="paint8_linear_511_164" x1="-8.13951" y1="63.9268" x2="223.52" y2="63.9268" gradientUnits="userSpaceOnUse">
<stop stop-color="#FC552F"/>
<stop offset="1" stop-color="#FF9411"/>
</linearGradient>
<linearGradient id="paint9_linear_511_164" x1="-8.13954" y1="24.2743" x2="223.52" y2="24.2743" gradientUnits="userSpaceOnUse">
<stop stop-color="#FC552F"/>
<stop offset="1" stop-color="#FF9411"/>
</linearGradient>
<clipPath id="clip0_511_164">
<rect width="787.309" height="201.939" fill="white"/>
</clipPath>
</defs>
</svg>
