<svg width="628" height="187" viewBox="0 0 628 187" fill="none" xmlns="http://www.w3.org/2000/svg">
<path d="M262.944 79.9231V63.8938C260.397 61.6646 253.072 56.5692 240.97 56.5692C219.952 56.5692 203.18 73.2354 203.18 95.3154C203.18 117.395 219.952 134.062 240.97 134.062C253.072 134.062 260.397 128.966 262.944 126.737V110.708C261.14 112.937 254.24 118.882 242.987 118.882C230.143 118.882 219.209 109.646 219.209 95.3154C219.209 80.9846 230.143 71.6431 242.987 71.6431C254.24 71.6431 261.14 77.6938 262.944 79.9231ZM323.965 106.886C323.965 91.2815 313.774 78.2246 297.108 78.2246C280.654 78.2246 270.251 90.9631 270.251 105.825C270.251 121.111 281.185 134.062 298.063 134.062C313.349 134.062 321.736 123.022 323.009 115.803L309.103 114.317C307.086 117.289 303.371 119.837 298.169 119.837C289.889 119.837 286.599 115.272 286.28 111.026H323.965V106.886ZM297.108 92.4492C303.583 92.4492 307.617 96.0585 307.936 100.092H286.28C286.599 95.9523 290.739 92.4492 297.108 92.4492ZM346.095 53.3846H330.066V133H346.095V53.3846ZM352.872 115.697C353.19 128.223 363.487 134.062 378.137 134.062C390.557 134.062 401.172 128.542 401.172 117.82C401.172 111.875 398.306 105.188 384.93 100.942C373.253 97.12 370.6 96.8015 370.6 94.5723C370.6 92.4492 373.678 91.4938 376.226 91.4938C378.667 91.4938 382.595 92.4492 382.701 95.74H398.837C398.624 86.2923 390.238 78.2246 375.695 78.2246C364.655 78.2246 354.464 84.3815 354.464 94.5723C354.464 103.489 361.152 108.266 371.13 111.026C381.746 113.998 385.143 114.529 385.143 117.502C385.143 119.943 381.427 120.792 378.455 120.792C372.935 120.792 369.22 118.775 368.901 115.697H352.872ZM415.395 72.8108C419.748 72.8108 423.145 69.4138 423.145 65.0615C423.145 60.7092 419.748 57.3123 415.395 57.3123C411.043 57.3123 407.646 60.7092 407.646 65.0615C407.646 69.4138 411.043 72.8108 415.395 72.8108ZM423.463 79.2861H407.434V133H423.463V79.2861ZM471.539 79.2861V104.338C471.539 114.423 465.7 118.988 458.906 118.988C452.537 118.988 448.928 115.378 448.928 103.595V79.2861H432.792V111.238C432.792 125.569 439.056 134.062 452.325 134.062C459.756 134.062 466.337 130.665 471.645 125.994L472.494 133H487.568V79.2861H471.539ZM495.619 115.697C495.937 128.223 506.234 134.062 520.883 134.062C533.303 134.062 543.919 128.542 543.919 117.82C543.919 111.875 541.052 105.188 527.677 100.942C516 97.12 513.346 96.8015 513.346 94.5723C513.346 92.4492 516.425 91.4938 518.972 91.4938C521.414 91.4938 525.342 92.4492 525.448 95.74H541.583C541.371 86.2923 532.985 78.2246 518.442 78.2246C507.402 78.2246 497.211 84.3815 497.211 94.5723C497.211 103.489 503.899 108.266 513.877 111.026C524.492 113.998 527.889 114.529 527.889 117.502C527.889 119.943 524.174 120.792 521.202 120.792C515.682 120.792 511.966 118.775 511.648 115.697H495.619Z" fill="url(#paint0_linear_839_372)"/>
<path d="M623.731 57.6308H604.305L585.622 82.4708L566.832 57.6308H547.406L575.856 95.3154L547.406 133H566.832L585.622 108.16L604.305 133H623.731L595.282 95.3154L623.731 57.6308Z" fill="url(#paint1_linear_839_372)"/>
<path fill-rule="evenodd" clip-rule="evenodd" d="M122.928 130.23C112.576 141.647 97.866 148.211 82.5714 148.236H82.4768C66.9955 148.234 52.1663 141.603 41.7908 130.04C31.2839 118.33 26.4366 103.221 28.1429 87.495C30.8606 62.4411 51.0147 42.1616 76.0643 39.274C78.1965 39.0286 80.355 38.9041 82.4794 38.9041C94.6094 38.9041 106.121 42.8347 115.769 50.2725C116.378 50.7405 116.744 51.453 116.772 52.226C116.801 53.0033 116.487 53.7448 115.912 54.261L110.11 59.4623C109.489 60.0179 108.691 60.3229 107.861 60.3229C107.162 60.3229 106.486 60.1099 105.906 59.7085C98.9606 54.8814 90.8602 52.3303 82.4794 52.3303C70.7131 52.3504 59.5226 57.3853 51.7079 66.1438C43.7933 75.0136 40.1713 86.4434 41.5077 98.3289C43.6303 117.199 58.8785 132.431 77.7627 134.545C79.3314 134.721 80.9186 134.81 82.4794 134.81C93.5104 134.81 103.897 130.457 111.724 122.555C112.374 121.899 113.233 121.538 114.146 121.538C114.802 121.538 115.439 121.729 115.99 122.091L122.427 126.319C123.062 126.735 123.481 127.408 123.577 128.165C123.673 128.918 123.436 129.671 122.928 130.23Z" fill="white"/>
<path fill-rule="evenodd" clip-rule="evenodd" d="M91.5676 184.762L158.092 146.355C160.627 144.892 162.732 142.789 164.198 140.256C165.663 137.723 166.438 134.85 166.443 131.925V55.1017C166.441 52.1716 165.669 49.2934 164.203 46.756C162.738 44.2187 160.63 42.1113 158.092 40.6455L91.5676 2.23848C89.0306 0.772116 86.1519 0 83.2214 0C80.2909 0 77.4122 0.772116 74.8752 2.23848L8.35057 40.6455C5.81275 42.1113 3.70521 44.2187 2.23949 46.756C0.773774 49.2934 0.00146448 52.1716 0 55.1017V131.898C0.000578375 134.829 0.77251 137.707 2.23832 140.245C3.70412 142.782 5.81215 144.889 8.35057 146.355L74.8752 184.762C77.4122 186.228 80.2909 187 83.2214 187C86.1519 187 89.0306 186.228 91.5676 184.762ZM82.5714 148.236C97.866 148.211 112.576 141.647 122.928 130.23C123.436 129.671 123.673 128.918 123.577 128.165C123.481 127.408 123.062 126.735 122.427 126.319L115.99 122.091C115.439 121.729 114.802 121.538 114.146 121.538C113.233 121.538 112.374 121.899 111.724 122.555C103.897 130.457 93.5104 134.81 82.4794 134.81C80.9185 134.81 79.3314 134.721 77.7627 134.545C58.8785 132.431 43.6303 117.199 41.5077 98.3288C40.1713 86.4434 43.7933 75.0136 51.7079 66.1438C59.5226 57.3852 70.7131 52.3504 82.4794 52.3303C90.8602 52.3303 98.9606 54.8814 105.906 59.7085C106.486 60.1099 107.162 60.3229 107.861 60.3229C108.691 60.3229 109.489 60.0179 110.11 59.4623L115.912 54.2609C116.487 53.7448 116.801 53.0033 116.772 52.226C116.744 51.453 116.378 50.7405 115.769 50.2725C106.121 42.8347 94.6094 38.9041 82.4794 38.9041C80.355 38.9041 78.1965 39.0286 76.0643 39.274C51.0147 42.1616 30.8606 62.4411 28.1429 87.495C26.4366 103.221 31.2839 118.33 41.7908 130.04C52.1663 141.603 66.9955 148.234 82.4768 148.236H82.5714Z" fill="url(#paint2_linear_839_372)"/>
<mask id="mask0_839_372" style="mask-type:alpha" maskUnits="userSpaceOnUse" x="0" y="0" width="167" height="187">
<path d="M158.092 146.355L91.5676 184.762C89.0306 186.228 86.1519 187 83.2214 187C80.2909 187 77.4122 186.228 74.8752 184.762L8.35057 146.355C5.81215 144.889 3.70412 142.782 2.23832 140.245C0.77251 137.707 0.000578375 134.829 0 131.898V55.1017C0.00146448 52.1716 0.773774 49.2934 2.23949 46.756C3.70521 44.2187 5.81275 42.1113 8.35057 40.6455L74.8752 2.23848C77.4122 0.772116 80.2909 0 83.2214 0C86.1519 0 89.0306 0.772116 91.5676 2.23848L158.092 40.6455C160.63 42.1113 162.738 44.2187 164.203 46.756C165.669 49.2934 166.441 52.1716 166.443 55.1017V131.925C166.438 134.85 165.663 137.723 164.198 140.256C162.732 142.789 160.627 144.892 158.092 146.355Z" fill="url(#paint3_linear_839_372)"/>
</mask>
<g mask="url(#mask0_839_372)">
<g style="mix-blend-mode:soft-light" opacity="0.61" filter="url(#filter0_f_839_372)">
<path d="M76.1063 230.158L-11.7339 280.654C-15.0838 282.582 -18.8849 283.597 -22.7544 283.597C-26.6238 283.597 -30.425 282.582 -33.7748 280.654L-121.615 230.158C-124.967 228.232 -127.75 225.462 -129.686 222.125C-131.621 218.789 -132.641 215.005 -132.641 211.152V110.184C-132.639 106.332 -131.62 102.547 -129.684 99.2114C-127.749 95.8753 -124.966 93.1047 -121.615 91.1775L-33.7748 40.6819C-30.425 38.754 -26.6238 37.7389 -22.7544 37.7389C-18.8849 37.7389 -15.0838 38.754 -11.7339 40.6819L76.1063 91.1775C79.4573 93.1047 82.2401 95.8753 84.1754 99.2114C86.1108 102.547 87.1306 106.332 87.1325 110.184V211.187C87.1257 215.033 86.1035 218.811 84.1683 222.14C82.2331 225.47 79.453 228.235 76.1063 230.158Z" fill="black"/>
</g>
</g>
<mask id="mask1_839_372" style="mask-type:alpha" maskUnits="userSpaceOnUse" x="0" y="0" width="167" height="187">
<path d="M158.092 146.355L91.5676 184.762C89.0306 186.228 86.1519 187 83.2214 187C80.2909 187 77.4122 186.228 74.8752 184.762L8.35057 146.355C5.81215 144.889 3.70412 142.782 2.23832 140.245C0.77251 137.707 0.000578375 134.829 0 131.898V55.1017C0.00146448 52.1716 0.773774 49.2934 2.23949 46.756C3.70521 44.2187 5.81275 42.1113 8.35057 40.6455L74.8752 2.23848C77.4122 0.772116 80.2909 0 83.2214 0C86.1519 0 89.0306 0.772116 91.5676 2.23848L158.092 40.6455C160.63 42.1113 162.738 44.2187 164.203 46.756C165.669 49.2934 166.441 52.1716 166.443 55.1017V131.925C166.438 134.85 165.663 137.723 164.198 140.256C162.732 142.789 160.627 144.892 158.092 146.355Z" fill="url(#paint4_linear_839_372)"/>
</mask>
<g mask="url(#mask1_839_372)">
<g filter="url(#filter1_f_839_372)">
<path d="M155.224 97.5135L116.939 62.8781L116.138 59.2724L161.399 89.1771L155.224 97.5135Z" fill="url(#paint5_linear_839_372)"/>
</g>
<g filter="url(#filter2_f_839_372)">
<path d="M87.7861 97.5181L167.628 48.6915L171.628 55.7568L88.5861 98.9312L87.7861 97.5181Z" fill="url(#paint6_linear_839_372)"/>
</g>
</g>
<defs>
<filter id="filter0_f_839_372" x="-152.641" y="17.7389" width="259.774" height="285.858" filterUnits="userSpaceOnUse" color-interpolation-filters="sRGB">
<feFlood flood-opacity="0" result="BackgroundImageFix"/>
<feBlend mode="normal" in="SourceGraphic" in2="BackgroundImageFix" result="shape"/>
<feGaussianBlur stdDeviation="10" result="effect1_foregroundBlur_839_372"/>
</filter>
<filter id="filter1_f_839_372" x="115.138" y="58.2724" width="47.2607" height="40.2411" filterUnits="userSpaceOnUse" color-interpolation-filters="sRGB">
<feFlood flood-opacity="0" result="BackgroundImageFix"/>
<feBlend mode="normal" in="SourceGraphic" in2="BackgroundImageFix" result="shape"/>
<feGaussianBlur stdDeviation="0.5" result="effect1_foregroundBlur_839_372"/>
</filter>
<filter id="filter2_f_839_372" x="86.7861" y="47.6914" width="85.8419" height="52.2397" filterUnits="userSpaceOnUse" color-interpolation-filters="sRGB">
<feFlood flood-opacity="0" result="BackgroundImageFix"/>
<feBlend mode="normal" in="SourceGraphic" in2="BackgroundImageFix" result="shape"/>
<feGaussianBlur stdDeviation="0.5" result="effect1_foregroundBlur_839_372"/>
</filter>
<linearGradient id="paint0_linear_839_372" x1="308" y1="119" x2="554.457" y2="98.5781" gradientUnits="userSpaceOnUse">
<stop stop-color="white"/>
<stop offset="1" stop-color="#E50593"/>
</linearGradient>
<linearGradient id="paint1_linear_839_372" x1="545.433" y1="133" x2="636.016" y2="130.744" gradientUnits="userSpaceOnUse">
<stop stop-color="#D5078E"/>
<stop offset="1" stop-color="#E50593"/>
</linearGradient>
<linearGradient id="paint2_linear_839_372" x1="19.7021" y1="187.03" x2="122.423" y2="6.79785" gradientUnits="userSpaceOnUse">
<stop offset="0.359375" stop-color="#262256"/>
<stop offset="1" stop-color="#FF009B"/>
</linearGradient>
<linearGradient id="paint3_linear_839_372" x1="56.5634" y1="204.05" x2="203.95" y2="155.247" gradientUnits="userSpaceOnUse">
<stop stop-color="#3228BA"/>
<stop offset="1" stop-color="#3EEFE4"/>
</linearGradient>
<linearGradient id="paint4_linear_839_372" x1="56.5634" y1="204.05" x2="203.95" y2="155.247" gradientUnits="userSpaceOnUse">
<stop stop-color="#3228BA"/>
<stop offset="1" stop-color="#3EEFE4"/>
</linearGradient>
<linearGradient id="paint5_linear_839_372" x1="154.402" y1="96.9047" x2="112" y2="65.5" gradientUnits="userSpaceOnUse">
<stop stop-color="white" stop-opacity="0"/>
<stop offset="0.569655" stop-color="white"/>
<stop offset="1" stop-color="white" stop-opacity="0"/>
</linearGradient>
<linearGradient id="paint6_linear_839_372" x1="89.3204" y1="93.0239" x2="167.894" y2="48.5407" gradientUnits="userSpaceOnUse">
<stop stop-color="white" stop-opacity="0"/>
<stop offset="0.489583" stop-color="white"/>
<stop offset="1" stop-color="white" stop-opacity="0"/>
</linearGradient>
</defs>
</svg>
