<svg width="601" height="135" viewBox="0 0 601 135" fill="none" xmlns="http://www.w3.org/2000/svg">
<path d="M588 76.7C588 68.9 583.4 63 576.1 63C568.8 63 564.2 68.9 564.2 76.7C564.2 84.5 568.8 90.4 576.1 90.4C583.4 90.4 588 84.5 588 76.7ZM587.6 57.8V37.3C587.6 35.9 588.5 34.8 589.8 34.4L600.6 31.5V100.7H588.6V94.8C585.6 99.2 580.1 101.8 573.3 101.8C559.3 101.8 551.2 90.6 551.2 76.6C551.2 62.6 559.4 51.4 573.3 51.4C580.2 51.5 585.1 54.4 587.6 57.8ZM513.6 52.6V58.5C515.8 54.4 520.8 51.5 527.9 51.5C539.5 51.5 545.6 59.2 545.6 70.7V100.8H532.6V72.2C532.6 66.6 530.2 62.7 524.4 62.7C518.1 62.7 514.6 66.7 514.6 73.2V100.8H501.6V52.7H513.6V52.6ZM471.1 101.9C457 101.9 449.2 95.8 449.2 80.2V52.6H462.2V80.4C462.2 87.1 465.2 90.2 471 90.2C476.8 90.2 479.8 87.1 479.8 80.4V52.6H492.8V80.2C492.9 95.8 485.1 101.9 471.1 101.9ZM406.1 76.7C406.1 85.3 411.4 90.4 418.3 90.4C425.2 90.4 430.5 85.3 430.5 76.7C430.5 68.1 425.2 63 418.3 63C411.5 63 406.1 68 406.1 76.7ZM418.3 101.9C402.9 101.9 393 90.4 393 76.7C393 63 402.8 51.5 418.3 51.5C433.7 51.5 443.6 63 443.6 76.7C443.6 90.4 433.8 101.9 418.3 101.9ZM353.3 76.7C353.3 84.5 357.9 90.4 365.2 90.4C372.5 90.4 377.1 84.5 377.1 76.7C377.1 68.9 372.5 63 365.2 63C357.9 63 353.3 68.9 353.3 76.7ZM353.7 95.6V115.6C353.7 117 352.8 118.1 351.5 118.5L340.7 121.3V52.6H352.7V58.5C355.7 54.1 361.2 51.5 368 51.5C382 51.5 390.1 62.7 390.1 76.7C390.1 90.7 381.9 101.9 368 101.9C361.1 101.9 356.2 98.9 353.7 95.6ZM301.9 73.4V100.8H288.9V72.2C288.9 66.9 287 62.7 281.2 62.7C275.1 62.7 271.8 66.6 271.8 73.1V100.8H258.8V52.6H270.8V58.5C273 54.4 277.8 51.5 284.7 51.5C291.2 51.5 295.9 54.1 298.7 58.3C302.9 53.6 307.8 51.5 314.7 51.5C326.3 51.5 332.2 59.5 332.2 70.7V100.8H319.2V72.2C319.2 66.9 317.3 62.7 311.5 62.7C305.1 62.7 301.9 66.7 301.9 73.4ZM215.2 76.7C215.2 85.3 220.5 90.4 227.4 90.4C234.3 90.4 239.6 85.3 239.6 76.7C239.6 68.1 234.3 63 227.4 63C220.5 63 215.2 68 215.2 76.7ZM227.4 101.9C212 101.9 202.1 90.4 202.1 76.7C202.1 63 211.9 51.5 227.4 51.5C242.9 51.5 252.7 63 252.7 76.7C252.7 90.4 242.8 101.9 227.4 101.9ZM134.4 68C134.4 47.6 148.5 34.1 167.2 34.1C183.5 34.1 196.3 43.7 198.8 59.6H184.5C182.6 51.4 176 46.8 167.2 46.8C155.3 46.8 148.5 55.1 148.5 67.9C148.5 80.8 155.2 89 167.2 89C175.9 89 182.5 84.4 184.5 76.2H198.8C196.3 92.1 183.5 101.7 167.2 101.7C148.5 102 134.4 88.4 134.4 68Z" fill="white"/>
<path d="M5.99998 104.8C2.69998 102.8 0.599976 99.1 0.599976 95.3V73.6C0.599976 72.8 0.799976 72 1.19998 71.3C2.49998 69.1 5.39998 68.3 7.59998 69.6L56.6 98.2C59.5 99.9 61.2 102.9 61.2 106.3V128.8C61.2 129.8 60.9 130.8 60.4 131.7C58.8 134.3 55.3 135.2 52.7 133.6L5.99998 104.8ZM79.1 63.6C82 65.3 83.7 68.3 83.7 71.7V117.4C83.7 118.8 83 120 81.8 120.7L71.1 126.7C71 126.8 70.8 126.8 70.7 126.9V101.6C70.7 98.3 69 95.3 66.2 93.6L23.2 67.9V39C23.2 38.2 23.4 37.4 23.8 36.7C25.1 34.5 28 33.7 30.2 35L79.1 63.6ZM100.5 29.8C103.4 31.5 105.1 34.5 105.1 37.9V104.6C105.1 106 104.3 107.2 103.1 107.9L92.9 113.4V67C92.9 63.7 91.2 60.7 88.4 59L44.4 32.6V5.50002C44.4 4.70002 44.6 3.90003 45 3.20003C46.3 1.00003 49.2 0.200023 51.4 1.50002L100.5 29.8Z" fill="#00D395"/>
</svg>
