<svg width="600" height="136" viewBox="0 0 600 136" fill="none" xmlns="http://www.w3.org/2000/svg">
<path d="M62 135.2C61.9 135.2 61.8 135.3 61.8 135.4C61.8 135.5 61.9 135.6 62 135.6C62.1 135.6 62.2 135.5 62.2 135.4C62.2 135.3 62.1 135.2 62 135.2Z" fill="#3952A8"/>
<path d="M55.6001 133C55.3001 133 55.1001 133.2 55.1001 133.5C55.1001 133.8 55.3001 134 55.6001 134C55.9001 134 56.1001 133.8 56.1001 133.5C56.1001 133.2 55.9001 133 55.6001 133Z" fill="#3952A8"/>
<path d="M49.4001 130.1C49.0001 130.1 48.7001 130.4 48.7001 130.8C48.7001 131.2 49.0001 131.5 49.4001 131.5C49.8001 131.5 50.1001 131.2 50.1001 130.8C50.1001 130.4 49.8001 130.1 49.4001 130.1Z" fill="#3952A8"/>
<path d="M43.6001 126.6C43.1001 126.6 42.7001 127 42.7001 127.5C42.7001 128 43.1001 128.4 43.6001 128.4C44.1001 128.4 44.5001 128 44.5001 127.5C44.5001 127 44.1001 126.6 43.6001 126.6Z" fill="#3952A8"/>
<path d="M38.1 122.4C37.5 122.4 36.9 122.9 36.9 123.6C36.9 124.2 37.4 124.8 38.1 124.8C38.7 124.8 39.3 124.3 39.3 123.6C39.3 123 38.8 122.4 38.1 122.4Z" fill="#3952A8"/>
<path d="M33.1001 117.8C32.3001 117.8 31.7001 118.4 31.7001 119.2C31.7001 120 32.3001 120.6 33.1001 120.6C33.9001 120.6 34.5001 120 34.5001 119.2C34.5001 118.4 33.9001 117.8 33.1001 117.8Z" fill="#3952A8"/>
<path d="M28.5 112.6C27.6 112.6 26.9 113.3 26.9 114.2C26.9 115.1 27.6 115.8 28.5 115.8C29.4 115.8 30.1 115.1 30.1 114.2C30.2 113.3 29.4 112.6 28.5 112.6Z" fill="#3952A8"/>
<path d="M24.6001 106.9C23.6001 106.9 22.7001 107.7 22.7001 108.8C22.7001 109.8 23.5001 110.7 24.6001 110.7C25.6001 110.7 26.5001 109.9 26.5001 108.8C26.4001 107.8 25.6001 106.9 24.6001 106.9Z" fill="#3952A8"/>
<path d="M23.4001 102.9C23.4001 101.8 22.5001 100.8 21.3001 100.8C20.1001 100.8 19.2001 101.7 19.2001 102.9C19.2001 104 20.1001 105 21.3001 105C22.5001 105 23.4001 104.1 23.4001 102.9Z" fill="#3952A8"/>
<path d="M21.1 96.6999C21.1 95.3999 20.1 94.3999 18.8 94.3999C17.5 94.3999 16.5 95.3999 16.5 96.6999C16.5 97.9999 17.5 98.9999 18.8 98.9999C20.1 98.9999 21.1 97.9999 21.1 96.6999Z" fill="#3952A8"/>
<path d="M19.7001 90.2C19.7001 88.8 18.6001 87.7 17.2001 87.7C15.8001 87.7 14.7001 88.8 14.7001 90.2C14.7001 91.6 15.8001 92.7 17.2001 92.7C18.6001 92.7 19.7001 91.6 19.7001 90.2Z" fill="#3952A8"/>
<path d="M19.2001 83.4999C19.2001 81.9999 18.0001 80.7 16.4001 80.7C14.9001 80.7 13.6001 81.8999 13.6001 83.4999C13.6001 84.9999 14.8001 86.2999 16.4001 86.2999C18.0001 86.2999 19.2001 84.9999 19.2001 83.4999Z" fill="#3952A8"/>
<path d="M16.6001 79.7999C18.3001 79.7999 19.6001 78.4999 19.6001 76.7999C19.6001 75.0999 18.3001 73.7999 16.6001 73.7999C14.9001 73.7999 13.6001 75.0999 13.6001 76.7999C13.6001 78.3999 14.9001 79.7999 16.6001 79.7999Z" fill="#3952A8"/>
<path d="M14.3 70.0999C14.3 71.8999 15.7 73.2999 17.5 73.2999C19.3 73.2999 20.7001 71.8999 20.7001 70.0999C20.7001 68.2999 19.3 66.8999 17.5 66.8999C15.8 66.8999 14.3 68.2999 14.3 70.0999Z" fill="#3952A8"/>
<path d="M111.5 119.7C111.4 119.7 111.3 119.8 111.3 119.9C111.3 120 111.4 120.1 111.5 120.1C111.6 120.1 111.7 120 111.7 119.9C111.7 119.8 111.6 119.7 111.5 119.7Z" fill="#3952A8"/>
<path d="M105.6 122.6C105.4 122.6 105.2 122.8 105.2 123C105.2 123.2 105.4 123.4 105.6 123.4C105.8 123.4 106 123.2 106 123C106 122.8 105.8 122.6 105.6 122.6Z" fill="#3952A8"/>
<path d="M99.3001 124.9C99.0001 124.9 98.7001 125.2 98.7001 125.5C98.7001 125.8 99.0001 126.1 99.3001 126.1C99.6001 126.1 99.9001 125.8 99.9001 125.5C99.9001 125.2 99.7001 124.9 99.3001 124.9Z" fill="#3952A8"/>
<path d="M92.9001 126.5C92.4001 126.5 92.1001 126.9 92.1001 127.3C92.1001 127.7 92.5001 128.1 92.9001 128.1C93.3001 128.1 93.7001 127.7 93.7001 127.3C93.7001 126.9 93.3001 126.5 92.9001 126.5Z" fill="#3952A8"/>
<path d="M86.2001 127.4C85.6001 127.4 85.2001 127.9 85.2001 128.4C85.2001 129 85.7001 129.4 86.2001 129.4C86.8001 129.4 87.2001 128.9 87.2001 128.4C87.3001 127.9 86.8001 127.4 86.2001 127.4Z" fill="#3952A8"/>
<path d="M79.5 127.7C78.8 127.7 78.3 128.2 78.3 128.9C78.3 129.6 78.8 130.1 79.5 130.1C80.2 130.1 80.7 129.5 80.7 128.9C80.8 128.2 80.2 127.7 79.5 127.7Z" fill="#3952A8"/>
<path d="M72.8 127.2C72 127.2 71.4 127.8 71.4 128.6C71.4 129.4 72 130 72.8 130C73.6 130 74.2 129.4 74.2 128.6C74.3 127.8 73.6 127.2 72.8 127.2Z" fill="#3952A8"/>
<path d="M66.2001 126C65.3001 126 64.6001 126.7 64.6001 127.6C64.6001 128.5 65.3001 129.2 66.2001 129.2C67.1001 129.2 67.8001 128.5 67.8001 127.6C67.8001 126.7 67.1001 126 66.2001 126Z" fill="#3952A8"/>
<path d="M59.7 123.9C58.7 123.9 57.9 124.7 57.9 125.7C57.9 126.7 58.7 127.5 59.7 127.5C60.7 127.5 61.5 126.7 61.5 125.7C61.6 124.7 60.7 123.9 59.7 123.9Z" fill="#3952A8"/>
<path d="M53.6001 121C52.5001 121 51.6001 121.9 51.6001 123C51.6001 124.1 52.5001 125 53.6001 125C54.7001 125 55.6001 124.1 55.6001 123C55.6001 122 54.7001 121 53.6001 121Z" fill="#3952A8"/>
<path d="M50.1001 119.6C50.1001 118.4 49.1001 117.4 47.9001 117.4C46.7001 117.4 45.6001 118.4 45.6001 119.6C45.6001 120.8 46.6001 121.8 47.9001 121.8C49.1001 121.9 50.1001 120.9 50.1001 119.6Z" fill="#3952A8"/>
<path d="M42.6001 113C41.2001 113 40.1001 114.1 40.1001 115.5C40.1001 116.9 41.2001 118 42.6001 118C43.9001 118 45.1001 116.9 45.1001 115.5C45.1001 114.1 43.9001 113 42.6001 113Z" fill="#3952A8"/>
<path d="M37.9001 107.9C36.4001 107.9 35.2001 109.1 35.2001 110.6C35.2001 112.1 36.4001 113.3 37.9001 113.3C39.4001 113.3 40.6001 112.1 40.6001 110.6C40.6001 109.1 39.4001 107.9 37.9001 107.9Z" fill="#3952A8"/>
<path d="M33.9 108.1C35.5 108.1 36.8 106.8 36.8 105.2C36.8 103.6 35.5 102.3 33.9 102.3C32.3 102.3 31 103.6 31 105.2C31.1 106.8 32.3 108.1 33.9 108.1Z" fill="#3952A8"/>
<path d="M33.7 99.2999C33.7 97.5999 32.3 96.2 30.6 96.2C28.9 96.2 27.5 97.5999 27.5 99.2999C27.5 101 28.9 102.4 30.6 102.4C32.4 102.4 33.7 101 33.7 99.2999Z" fill="#3952A8"/>
<path d="M135.6 73.7999C135.5 73.7999 135.4 73.8999 135.4 73.9999C135.4 74.0999 135.5 74.2 135.6 74.2C135.7 74.2 135.8 74.0999 135.8 73.9999C135.7 73.8999 135.7 73.7999 135.6 73.7999Z" fill="#3952A8"/>
<path d="M133.6 80C133.4 80 133.2 80.2 133.2 80.4C133.2 80.6 133.4 80.8 133.6 80.8C133.8 80.8 134 80.6 134 80.4C134 80.2 133.8 80 133.6 80Z" fill="#3952A8"/>
<path d="M130.9 86C130.6 86 130.4 86.2 130.4 86.5C130.4 86.8 130.6 87.1 130.9 87.1C131.2 87.1 131.5 86.9 131.5 86.5C131.4 86.3 131.2 86 130.9 86Z" fill="#3952A8"/>
<path d="M127.6 91.7C127.2 91.7 126.9 91.9999 126.9 92.3999C126.9 92.7999 127.2 93.0999 127.6 93.0999C128 93.0999 128.3 92.7999 128.3 92.3999C128.3 91.9999 128 91.7 127.6 91.7Z" fill="#3952A8"/>
<path d="M123.7 97C123.2 97 122.8 97.4 122.8 97.9C122.8 98.4 123.2 98.8 123.7 98.8C124.2 98.8 124.6 98.4 124.6 97.9C124.6 97.4 124.2 97 123.7 97Z" fill="#3952A8"/>
<path d="M119.3 101.8C118.7 101.8 118.2 102.3 118.2 102.9C118.2 103.5 118.7 104 119.3 104C119.9 104 120.4 103.5 120.4 102.9C120.4 102.3 119.9 101.8 119.3 101.8Z" fill="#3952A8"/>
<path d="M114.3 106.2C113.6 106.2 113 106.8 113 107.5C113 108.2 113.6 108.8 114.3 108.8C115 108.8 115.6 108.2 115.6 107.5C115.6 106.8 115 106.2 114.3 106.2Z" fill="#3952A8"/>
<path d="M108.9 110C108.1 110 107.4 110.7 107.4 111.5C107.4 112.3 108.1 113 108.9 113C109.7 113 110.4 112.3 110.4 111.5C110.4 110.7 109.7 110 108.9 110Z" fill="#3952A8"/>
<path d="M103.1 113.1C102.2 113.1 101.4 113.8 101.4 114.7C101.4 115.6 102.1 116.4 103.1 116.4C104 116.4 104.7 115.7 104.7 114.7C104.7 113.8 104 113.1 103.1 113.1Z" fill="#3952A8"/>
<path d="M96.8 115.3C95.8 115.3 95 116.1 95 117.1C95 118.1 95.8 118.9 96.8 118.9C97.8 118.9 98.6 118.1 98.6 117.1C98.6 116.2 97.8 115.3 96.8 115.3Z" fill="#3952A8"/>
<path d="M90.3 116.8C89.2 116.8 88.3 117.7 88.3 118.8C88.3 119.9 89.2 120.8 90.3 120.8C91.4 120.8 92.3 119.9 92.3 118.8C92.3 117.7 91.4 116.8 90.3 116.8Z" fill="#3952A8"/>
<path d="M83.6 117.4C82.4 117.4 81.4 118.4 81.4 119.6C81.4 120.8 82.4 121.8 83.6 121.8C84.8 121.8 85.8 120.8 85.8 119.6C85.8 118.4 84.8 117.4 83.6 117.4Z" fill="#3952A8"/>
<path d="M79.3 119.4C79.3 118.1 78.2 117 76.9 117C75.6 117 74.5 118.1 74.5 119.4C74.5 120.7 75.6 121.8 76.9 121.8C78.2 121.8 79.3 120.7 79.3 119.4Z" fill="#3952A8"/>
<path d="M72.8001 118.4C72.8001 117 71.7001 115.8 70.2001 115.8C68.8001 115.8 67.6001 116.9 67.6001 118.4C67.6001 119.8 68.7001 121 70.2001 121C71.7001 121 72.8001 119.9 72.8001 118.4Z" fill="#3952A8"/>
<path d="M66.6001 116.6C66.6001 115.1 65.4001 113.9 63.8001 113.9C62.3001 113.9 61.1001 115.1 61.1001 116.6C61.1001 118.1 62.3001 119.4 63.8001 119.4C65.3001 119.3 66.6001 118.1 66.6001 116.6Z" fill="#3952A8"/>
<path d="M60.6 113.9C60.6 112.3 59.3 111 57.7 111C56.1 111 54.8 112.3 54.8 113.9C54.8 115.5 56.1 116.8 57.7 116.8C59.3 116.8 60.6 115.5 60.6 113.9Z" fill="#3952A8"/>
<path d="M120.1 24.7C120.2 24.7 120.3 24.5999 120.3 24.4999C120.3 24.3999 120.2 24.2999 120.1 24.2999C120 24.2999 119.9 24.3999 119.9 24.4999C119.9 24.5999 120 24.7 120.1 24.7Z" fill="#3952A8"/>
<path d="M123.2 30.8C123.4 30.8 123.6 30.6 123.6 30.4C123.6 30.2 123.4 30 123.2 30C123 30 122.8 30.2 122.8 30.4C122.8 30.6 123 30.8 123.2 30.8Z" fill="#3952A8"/>
<path d="M125.7 37.2C126 37.2 126.2 37 126.2 36.7C126.2 36.4 126 36.2 125.7 36.2C125.4 36.2 125.2 36.4 125.2 36.7C125.1 37 125.4 37.2 125.7 37.2Z" fill="#3952A8"/>
<path d="M127.5 43.9C127.9 43.9 128.2 43.6 128.2 43.2C128.2 42.8 127.9 42.5 127.5 42.5C127.1 42.5 126.8 42.8 126.8 43.2C126.7 43.6 127.1 43.9 127.5 43.9Z" fill="#3952A8"/>
<path d="M127.7 49.7999C127.7 50.2999 128.1 50.7 128.6 50.7C129.1 50.7 129.5 50.2999 129.5 49.7999C129.5 49.2999 129.1 48.9 128.6 48.9C128.1 48.8 127.7 49.2999 127.7 49.7999Z" fill="#3952A8"/>
<path d="M129 55.3999C128.4 55.3999 127.9 55.8999 127.9 56.4999C127.9 57.0999 128.4 57.5999 129 57.5999C129.6 57.5999 130.1 57.0999 130.1 56.4999C130.1 55.8999 129.6 55.3999 129 55.3999Z" fill="#3952A8"/>
<path d="M128.7 61.8999C128 61.8999 127.4 62.4999 127.4 63.1999C127.4 63.8999 128 64.4999 128.7 64.4999C129.4 64.4999 130 63.8999 130 63.1999C130 62.4999 129.4 61.8999 128.7 61.8999Z" fill="#3952A8"/>
<path d="M127.7 68.3999C126.9 68.3999 126.2 69.0999 126.2 69.8999C126.2 70.6999 126.9 71.3999 127.7 71.3999C128.5 71.3999 129.2 70.7999 129.2 69.8999C129.2 68.9999 128.5 68.3999 127.7 68.3999Z" fill="#3952A8"/>
<path d="M127.5 76.2999C127.5 75.3999 126.8 74.7 125.9 74.7C125 74.7 124.2 75.3999 124.2 76.2999C124.2 77.1999 124.9 77.8999 125.9 77.8999C126.8 77.8999 127.5 77.1999 127.5 76.2999Z" fill="#3952A8"/>
<path d="M123.2 80.6C122.2 80.6 121.4 81.4 121.4 82.4C121.4 83.4 122.2 84.2 123.2 84.2C124.2 84.2 125 83.4 125 82.4C125 81.4 124.2 80.6 123.2 80.6Z" fill="#3952A8"/>
<path d="M119.8 86.2C118.7 86.2 117.8 87.1 117.8 88.2C117.8 89.3 118.7 90.2 119.8 90.2C120.9 90.2 121.8 89.3 121.8 88.2C121.8 87.1 120.9 86.2 119.8 86.2Z" fill="#3952A8"/>
<path d="M115.6 91.2C114.4 91.2 113.4 92.1999 113.4 93.3999C113.4 94.5999 114.4 95.5999 115.6 95.5999C116.8 95.5999 117.8 94.5999 117.8 93.3999C117.8 92.1999 116.8 91.2 115.6 91.2Z" fill="#3952A8"/>
<path d="M110.7 95.7C109.4 95.7 108.3 96.7999 108.3 98.0999C108.3 99.3999 109.4 100.5 110.7 100.5C112 100.5 113.1 99.3999 113.1 98.0999C113.1 96.7999 112 95.7 110.7 95.7Z" fill="#3952A8"/>
<path d="M105.3 99.5C103.9 99.5 102.7 100.6 102.7 102.1C102.7 103.5 103.8 104.7 105.3 104.7C106.7 104.7 107.9 103.6 107.9 102.1C107.9 100.7 106.7 99.5 105.3 99.5Z" fill="#3952A8"/>
<path d="M99.5 102.6C98 102.6 96.8 103.8 96.8 105.4C96.8 106.9 98 108.1 99.5 108.1C101 108.1 102.2 106.9 102.2 105.4C102.2 103.8 101 102.6 99.5 102.6Z" fill="#3952A8"/>
<path d="M93.2 104.9C91.6 104.9 90.3 106.2 90.3 107.8C90.3 109.4 91.6 110.7 93.2 110.7C94.8 110.7 96.1 109.4 96.1 107.8C96.1 106.2 94.8 104.9 93.2 104.9Z" fill="#3952A8"/>
<path d="M74.1 0.599945C74.2 0.599945 74.3 0.499933 74.3 0.399933C74.3 0.299933 74.2 0.199951 74.1 0.199951C74 0.199951 73.9 0.299933 73.9 0.399933C73.9 0.499933 74 0.599945 74.1 0.599945Z" fill="#3952A8"/>
<path d="M80.5001 2.79999C80.7001 2.79999 80.9001 2.59999 80.9001 2.39999C80.9001 2.19999 80.7001 2 80.5001 2C80.3001 2 80.1001 2.19999 80.1001 2.39999C80.2001 2.69999 80.3001 2.79999 80.5001 2.79999Z" fill="#3952A8"/>
<path d="M86.7001 5.69998C87.0001 5.69998 87.2001 5.49998 87.2001 5.19998C87.2001 4.89998 87.0001 4.59998 86.7001 4.59998C86.4001 4.59998 86.1001 4.79998 86.1001 5.19998C86.1001 5.39998 86.4001 5.69998 86.7001 5.69998Z" fill="#3952A8"/>
<path d="M92.5 9.09995C92.9 9.09995 93.2 8.79993 93.2 8.39993C93.2 7.99993 92.9 7.69995 92.5 7.69995C92.1 7.69995 91.8 7.99993 91.8 8.39993C91.8 8.79993 92.1 9.09995 92.5 9.09995Z" fill="#3952A8"/>
<path d="M98.0001 13.1999C98.5001 13.1999 98.9001 12.7999 98.9001 12.2999C98.9001 11.7999 98.5001 11.3999 98.0001 11.3999C97.5001 11.3999 97.1001 11.7999 97.1001 12.2999C97.1001 12.7999 97.5001 13.1999 98.0001 13.1999Z" fill="#3952A8"/>
<path d="M103.1 17.8C103.7 17.8 104.2 17.3 104.2 16.7C104.2 16.1 103.7 15.6 103.1 15.6C102.5 15.6 102 16.1 102 16.7C102 17.3 102.4 17.8 103.1 17.8Z" fill="#3952A8"/>
<path d="M107.6 22.9999C108.3 22.9999 108.9 22.3999 108.9 21.6999C108.9 20.9999 108.3 20.3999 107.6 20.3999C106.9 20.3999 106.3 20.9999 106.3 21.6999C106.3 22.3999 106.9 22.9999 107.6 22.9999Z" fill="#3952A8"/>
<path d="M111.6 28.5C112.4 28.5 113.1 27.8 113.1 27C113.1 26.2 112.4 25.5 111.6 25.5C110.8 25.5 110.1 26.2 110.1 27C110.1 27.8 110.8 28.5 111.6 28.5Z" fill="#3952A8"/>
<path d="M114.8 34.5999C115.7 34.5999 116.4 33.8999 116.4 32.9999C116.4 32.0999 115.7 31.3999 114.8 31.3999C113.9 31.3999 113.1 32.0999 113.1 32.9999C113.2 33.8999 113.9 34.5999 114.8 34.5999Z" fill="#3952A8"/>
<path d="M115.5 39.1999C115.5 40.1999 116.3 40.9999 117.3 40.9999C118.3 40.9999 119.1 40.1999 119.1 39.1999C119.1 38.1999 118.3 37.3999 117.3 37.3999C116.3 37.3999 115.5 38.1999 115.5 39.1999Z" fill="#3952A8"/>
<path d="M116.9 45.7C116.9 46.8 117.8 47.7 118.9 47.7C120 47.7 120.9 46.8 120.9 45.7C120.9 44.6 120 43.7 118.9 43.7C117.8 43.7 116.9 44.6 116.9 45.7Z" fill="#3952A8"/>
<path d="M117.5 52.3999C117.5 53.5999 118.5 54.5999 119.7 54.5999C120.9 54.5999 121.9 53.5999 121.9 52.3999C121.9 51.1999 120.9 50.2 119.7 50.2C118.5 50.2 117.5 51.1999 117.5 52.3999Z" fill="#3952A8"/>
<path d="M121.9 59.0999C121.9 57.7999 120.8 56.7 119.5 56.7C118.2 56.7 117.1 57.7999 117.1 59.0999C117.1 60.3999 118.2 61.4999 119.5 61.4999C120.9 61.4999 121.9 60.3999 121.9 59.0999Z" fill="#3952A8"/>
<path d="M121.1 65.7C121.1 64.3 120 63.1 118.5 63.1C117.1 63.1 115.9 64.2 115.9 65.7C115.9 67.1 117.1 68.3 118.5 68.3C120 68.3 121.1 67.1 121.1 65.7Z" fill="#3952A8"/>
<path d="M119.5 72.1999C119.5 70.6999 118.3 69.3999 116.8 69.3999C115.3 69.3999 114.1 70.5999 114.1 72.1999C114.1 73.6999 115.3 74.8999 116.8 74.8999C118.2 74.8999 119.5 73.6999 119.5 72.1999Z" fill="#3952A8"/>
<path d="M114 75.3999C112.4 75.3999 111.1 76.6999 111.1 78.2999C111.1 79.8999 112.4 81.1999 114 81.1999C115.6 81.1999 116.9 79.8999 116.9 78.2999C117 76.6999 115.7 75.3999 114 75.3999Z" fill="#3952A8"/>
<path d="M24.6 16.0999C24.7 16.0999 24.8 15.9999 24.8 15.8999C24.8 15.7999 24.7 15.7 24.6 15.7C24.5 15.7 24.4 15.7999 24.4 15.8999C24.4 15.9999 24.5 16.0999 24.6 16.0999Z" fill="#3952A8"/>
<path d="M30.6001 13.1999C30.8001 13.1999 31.0001 12.9999 31.0001 12.7999C31.0001 12.5999 30.8001 12.3999 30.6001 12.3999C30.4001 12.3999 30.2001 12.5999 30.2001 12.7999C30.2001 12.9999 30.4001 13.1999 30.6001 13.1999Z" fill="#3952A8"/>
<path d="M36.8 10.8999C37.1 10.8999 37.4001 10.6999 37.4001 10.3999C37.4001 10.0999 37.2 9.79993 36.8 9.79993C36.5 9.79993 36.3 10.0999 36.3 10.3999C36.3 10.5999 36.5 10.8999 36.8 10.8999Z" fill="#3952A8"/>
<path d="M43.3 9.2999C43.7 9.2999 44 8.99991 44 8.59991C44 8.19991 43.7 7.8999 43.3 7.8999C42.9 7.8999 42.6 8.19991 42.6 8.59991C42.5 8.89991 42.9 9.2999 43.3 9.2999Z" fill="#3952A8"/>
<path d="M49.9 8.29999C50.4 8.29999 50.8 7.89999 50.8 7.39999C50.8 6.89999 50.4 6.5 49.9 6.5C49.4 6.5 49 6.89999 49 7.39999C49 7.89999 49.4 8.29999 49.9 8.29999Z" fill="#3952A8"/>
<path d="M56.6 8.09991C57.2 8.09991 57.7 7.59991 57.7 6.99991C57.7 6.39991 57.2 5.8999 56.6 5.8999C56 5.8999 55.5 6.39991 55.5 6.99991C55.5 7.59991 56 8.09991 56.6 8.09991Z" fill="#3952A8"/>
<path d="M63.3 8.60001C64 8.60001 64.6 7.99999 64.6 7.29999C64.6 6.59999 64 6 63.3 6C62.6 6 62 6.59999 62 7.29999C62 7.99999 62.6 8.60001 63.3 8.60001Z" fill="#3952A8"/>
<path d="M69.9 9.69995C70.7 9.69995 71.4 9.09995 71.4 8.19995C71.4 7.39995 70.7 6.69995 69.9 6.69995C69.1 6.69995 68.4 7.39995 68.4 8.19995C68.5 9.09995 69.1 9.69995 69.9 9.69995Z" fill="#3952A8"/>
<path d="M76.4 11.8C77.3 11.8 78.1 11.1 78.1 10.2C78.1 9.29998 77.4 8.59998 76.4 8.59998C75.5 8.59998 74.8 9.29998 74.8 10.2C74.8 11 75.5 11.8 76.4 11.8Z" fill="#3952A8"/>
<path d="M82.6001 14.6C83.6001 14.6 84.4001 13.8 84.4001 12.8C84.4001 11.8 83.6001 11 82.6001 11C81.6001 11 80.8001 11.8 80.8001 12.8C80.7001 13.8 81.6001 14.6 82.6001 14.6Z" fill="#3952A8"/>
<path d="M86.3 16.2C86.3 17.3 87.2 18.2 88.3 18.2C89.4 18.2 90.3 17.3 90.3 16.2C90.3 15.1 89.4 14.2 88.3 14.2C87.2 14.2 86.3 15.1 86.3 16.2Z" fill="#3952A8"/>
<path d="M93.6 22.5999C94.8 22.5999 95.8 21.5999 95.8 20.3999C95.8 19.1999 94.8 18.2 93.6 18.2C92.4 18.2 91.4 19.1999 91.4 20.3999C91.4 21.6999 92.4 22.5999 93.6 22.5999Z" fill="#3952A8"/>
<path d="M98.2 27.6999C99.5 27.6999 100.6 26.5999 100.6 25.2999C100.6 23.9999 99.5 22.8999 98.2 22.8999C96.9 22.8999 95.8 23.9999 95.8 25.2999C95.8 26.5999 96.9 27.6999 98.2 27.6999Z" fill="#3952A8"/>
<path d="M102.2 28.1C100.8 28.1 99.6001 29.2 99.6001 30.7C99.6001 32.1 100.7 33.3 102.2 33.3C103.6 33.3 104.8 32.2 104.8 30.7C104.8 29.3 103.6 28.1 102.2 28.1Z" fill="#3952A8"/>
<path d="M102.7 36.4999C102.7 37.9999 103.9 39.2 105.4 39.2C106.9 39.2 108.1 37.9999 108.1 36.4999C108.1 34.9999 106.9 33.7999 105.4 33.7999C104 33.7999 102.7 34.9999 102.7 36.4999Z" fill="#3952A8"/>
<path d="M105 42.7999C105 44.3999 106.3 45.6999 107.9 45.6999C109.5 45.6999 110.8 44.3999 110.8 42.7999C110.8 41.1999 109.5 39.8999 107.9 39.8999C106.3 39.8999 105 41.1999 105 42.7999Z" fill="#3952A8"/>
<path d="M109.5 46.2C107.8 46.2 106.4 47.5999 106.4 49.2999C106.4 50.9999 107.8 52.3999 109.5 52.3999C111.2 52.3999 112.6 50.9999 112.6 49.2999C112.7 47.5999 111.3 46.2 109.5 46.2Z" fill="#3952A8"/>
<path d="M0.60005 61.5C0.40005 61.5 0.300049 61.7 0.300049 61.8C0.300049 62 0.50005 62.1 0.60005 62.1C0.80005 62.1 0.900049 61.9 0.900049 61.8C0.900049 61.7 0.80005 61.5 0.60005 61.5Z" fill="#3952A8"/>
<path d="M2.60003 54.7999C2.20003 54.7999 1.90002 55.0999 1.90002 55.4999C1.90002 55.8999 2.20003 56.2 2.60003 56.2C3.00003 56.2 3.30002 55.8999 3.30002 55.4999C3.30002 55.0999 3.00003 54.7999 2.60003 54.7999Z" fill="#3952A8"/>
<path d="M6.30005 49.2999C6.30005 48.6999 5.80005 48.2999 5.30005 48.2999C4.70005 48.2999 4.30005 48.7999 4.30005 49.2999C4.30005 49.8999 4.80005 50.2999 5.30005 50.2999C5.80005 50.2999 6.30005 49.8999 6.30005 49.2999Z" fill="#3952A8"/>
<path d="M8.5001 44.8C9.3001 44.8 9.9001 44.2 9.9001 43.4C9.9001 42.6 9.3001 42 8.5001 42C7.7001 42 7.1001 42.6 7.1001 43.4C7.1001 44.2 7.8001 44.8 8.5001 44.8Z" fill="#3952A8"/>
<path d="M12.4001 39.7C13.4001 39.7 14.1001 38.8999 14.1001 37.9999C14.1001 37.0999 13.3001 36.2999 12.4001 36.2999C11.4001 36.2999 10.7001 37.0999 10.7001 37.9999C10.7001 38.8999 11.5001 39.7 12.4001 39.7Z" fill="#3952A8"/>
<path d="M16.9001 34.9999C18.0001 34.9999 19 34.0999 19 32.8999C19 31.7999 18.1001 30.7999 16.9001 30.7999C15.8001 30.7999 14.8 31.6999 14.8 32.8999C14.8 34.0999 15.7001 34.9999 16.9001 34.9999Z" fill="#3952A8"/>
<path d="M21.8 30.8C23.1 30.8 24.2 29.7 24.2 28.4C24.2 27.1 23.1 26 21.8 26C20.5 26 19.4 27.1 19.4 28.4C19.4 29.7 20.5 30.8 21.8 30.8Z" fill="#3952A8"/>
<path d="M27.2 27.2C28.7 27.2 30 26 30 24.4C30 22.9 28.8 21.6 27.2 21.6C25.7 21.6 24.4 22.8 24.4 24.4C24.4 25.9 25.7 27.2 27.2 27.2Z" fill="#3952A8"/>
<path d="M33 24.2C34.7 24.2 36.1 22.8 36.1 21.1C36.1 19.4 34.7 18 33 18C31.3 18 29.9 19.4 29.9 21.1C29.9 22.8 31.3 24.2 33 24.2Z" fill="#3952A8"/>
<path d="M39.3001 22C41.0001 22 42.4001 20.7 42.7001 19.1C43.4001 20.1 44.5001 20.7 45.8001 20.7C47.3001 20.7 48.5001 19.9 49.2001 18.6C50.0001 19.6 51.2001 20.3 52.5001 20.3C53.7001 20.3 54.8001 19.8 55.6001 18.9C56.4001 20 57.7001 20.8 59.3001 20.8C60.2001 20.8 61.1001 20.5 61.9001 20C62.1001 20.3 62.3001 20.5 62.5001 20.7C61.4001 20.8 60.3001 21.3 59.6001 22.1C58.7001 21.3 57.6001 20.8 56.4001 20.8C54.8001 20.8 53.4001 21.6 52.5001 22.8C51.7001 22.2 50.8001 21.8 49.7001 21.8C47.9001 21.8 46.3001 22.9 45.6001 24.4C44.9001 23.9 44.1001 23.7 43.2001 23.7C41.2001 23.7 39.5001 25.1 39.0001 27C38.4001 26.6 37.7001 26.4 36.9001 26.4C34.7001 26.4 32.9001 28.2 32.9001 30.4C32.3001 30.1 31.7001 29.9 31.0001 29.9C28.9001 29.9 27.3001 31.6 27.3001 33.6C27.3001 34 27.4001 34.3 27.5001 34.6C27.0001 34.3 26.4001 34.1 25.7001 34.1C23.8001 34.1 22.2001 35.7 22.2001 37.6C22.2001 39.5 23.8001 41.1 25.7001 41.1C27.6001 41.1 29.2001 39.5 29.2001 37.6C29.2001 37.3 29.2001 37 29.1001 36.7C29.7001 37.1 30.4001 37.3 31.1001 37.3C33.1001 37.3 34.8001 35.7 34.8001 33.7C35.4001 34.1 36.2001 34.3 36.9001 34.3C37.0001 34.3 37.0001 34.3 37.1001 34.3C36.3001 35.1 35.7001 36.1 35.6001 37.3C35.3001 37.3 35.1001 37.2 34.8001 37.2C32.4001 37.2 30.4001 39.2 30.4001 41.6C30.4001 41.8 30.4001 41.9 30.4001 42.1C30.2001 42.1 30.1001 42.1 29.9001 42.1C27.6001 42.1 25.7001 44 25.7001 46.3C25.7001 46.8 25.8001 47.2 25.9001 47.6C25.8001 47.6 25.7001 47.6 25.7001 47.6C23.5001 47.6 21.8001 49.4 21.8001 51.5C21.8001 52.3 22.0001 53 22.4001 53.6H22.3001C20.3001 53.6 18.6001 55.3 18.6001 57.3C18.6001 58.4 19.1001 59.3 19.8001 60C19.7001 60 19.7001 60 19.6001 60C17.7001 60 16.1001 61.6 16.1001 63.5C16.1001 65.4 17.7001 67 19.6001 67C21.5001 67 23.1001 65.5 23.1001 63.5C23.1001 62.5 22.7001 61.7 22.1001 61C22.2001 61 22.3001 61 22.3001 61C23.4001 61 24.3001 60.5 25.0001 59.8V59.9C25.0001 60.9 25.3001 61.7 25.8001 62.4C24.2001 63 23.1001 64.5 23.1001 66.2C23.1001 67.4 23.7001 68.5 24.5001 69.3C23.2001 69.9 22.2001 71.3 22.2001 72.8C22.2001 74.3 23.0001 75.6 24.3001 76.2C23.1001 76.8 22.3001 78 22.3001 79.5C22.3001 81.2 23.5001 82.7 25.2001 83.1C24.1001 83.7 23.3001 84.8 23.3001 86.2C23.3001 88.1 24.9001 89.7 26.8001 89.7C27.0001 89.7 27.2001 89.7 27.4001 89.6C26.1001 90 25.1001 91.2 25.1001 92.7C25.1001 94.5 26.6001 96 28.4001 96C30.2001 96 31.7001 94.5 31.7001 92.7C31.7001 90.9 30.2001 89.4 28.4001 89.4C28.2001 89.4 28.0001 89.4 27.8001 89.5C29.2001 89.1 30.3001 87.8 30.3001 86.2C30.3001 86.1 30.3001 86 30.3001 86C30.8001 86.6 31.5001 87 32.4001 87.2C31.8001 87.9 31.5001 88.7 31.5001 89.7C31.5001 91.8 33.2001 93.5 35.4001 93.5H35.5001C35.1001 94.1 34.8001 94.8 34.8001 95.6C34.8001 97.6 36.4001 99.3 38.5001 99.3C38.9001 99.3 39.2001 99.2 39.6001 99.1C39.2001 99.7 39.0001 100.3 39.0001 101C39.0001 102.9 40.6001 104.5 42.5001 104.5C43.3001 104.5 44.1001 104.2 44.7001 103.7C44.2001 104.3 43.9001 105 43.9001 105.8C43.9001 107.6 45.4001 109.1 47.2001 109.1C49.0001 109.1 50.5001 107.6 50.5001 105.8C50.5001 104.9 50.1001 104.1 49.6001 103.5C50.0001 103.5 50.5001 103.4 50.9001 103.3C50.9001 104.9 51.8001 106.2 53.1001 106.9C52.9001 106.9 52.7001 106.8 52.5001 106.8C50.8001 106.8 49.4001 108.2 49.4001 109.9C49.4001 111.6 50.8001 113 52.5001 113C54.2001 113 55.6001 111.6 55.6001 109.9C55.6001 108.7 54.9001 107.7 54.0001 107.2C54.3001 107.3 54.6001 107.3 55.0001 107.3C55.8001 107.3 56.5001 107.1 57.1001 106.7C57.3001 108.7 58.9001 110.2 60.9001 110.2C62.0001 110.2 63.0001 109.7 63.7001 109C64.0001 110.7 65.5001 112.1 67.3001 112.1C68.7001 112.1 69.9001 111.3 70.5001 110.2C70.8001 111.8 72.2001 113 73.9001 113C75.7001 113 77.2001 111.6 77.3001 109.9C77.4001 111.6 78.8001 113 80.6001 113C82.4001 113 83.9001 111.5 83.9001 109.7C83.9001 107.9 82.5001 106.5 80.7001 106.4C81.0001 106.1 81.2001 105.7 81.4001 105.3C82.1001 106.1 83.2001 106.5 84.3001 106.5C84.7001 106.5 85.1001 106.4 85.5001 106.3C84.7001 106.9 84.1001 107.8 84.1001 108.9C84.1001 110.6 85.5001 112 87.2001 112C88.9001 112 90.3001 110.6 90.3001 108.9C90.3001 107.2 88.9001 105.8 87.2001 105.8C86.9001 105.8 86.6001 105.9 86.3001 105.9C87.2001 105.3 87.9001 104.4 88.1001 103.4C88.8001 104 89.6001 104.3 90.6001 104.3C92.7001 104.3 94.5001 102.6 94.5001 100.5V100.4C95.1001 100.8 95.8001 101.1 96.6001 101.1C98.6001 101.1 100.3 99.5 100.3 97.4C100.3 97 100.3 96.7 100.1 96.3C100.7 96.7 101.3 96.9 102 96.9C103.9 96.9 105.5 95.3 105.5 93.4C105.5 92.6 105.2 91.8 104.7 91.2C105.3 91.7 106 92 106.8 92C108.6 92 110.1 90.5 110.1 88.7C110.1 86.9 108.6 85.4 106.8 85.4C105.9 85.4 105.1 85.7 104.5 86.3C104.5 85.9 104.4 85.4 104.3 85C105.9 85 107.2 84.1 107.9 82.8C107.9 83 107.8 83.2 107.8 83.4C107.8 85.1 109.2 86.5 110.9 86.5C112.6 86.5 114 85.1 114 83.4C114 81.7 112.6 80.3 110.9 80.3C109.7 80.3 108.7 81 108.2 81.9C108.3 81.6 108.3 81.3 108.3 80.9C108.3 80.1 108.1 79.4 107.7 78.8C109.7 78.6 111.2 77 111.2 75C111.2 73.9 110.7 72.9 110 72.2C111.7 71.9 113.1 70.4 113.1 68.6C113.1 67.2 112.3 66 111.2 65.4C112.8 65.1 114 63.7 114 62C114 60.2 112.6 58.7 110.9 58.6C112.6 58.5 114 57.1 114 55.3C114 53.5 112.5 52 110.7 52C108.9 52 107.4 53.5 107.4 55.3C107.4 57 108.7 58.4 110.3 58.6C108.5 58.7 107.1 60.2 107.1 62.1C107.1 63.4 107.8 64.5 108.9 65.1C107.2 65.4 105.9 66.9 105.9 68.7C105.9 69.7 106.3 70.6 107 71.3C105.1 71.6 103.7 73.2 103.7 75.1C103.7 75.8 103.9 76.5 104.2 77C102.1 77.1 100.4 78.9 100.4 81C100.4 81.4 100.5 81.8 100.6 82.2C100.5 82.2 100.5 82.2 100.4 82.2C98.1001 82.2 96.2001 84.1 96.2001 86.4C96.2001 86.5 96.2001 86.6 96.2001 86.7C96.0001 86.7 95.8001 86.6 95.5001 86.6C93.3001 86.6 91.5001 88.2 91.2001 90.4C90.8001 90.3 90.4001 90.2 90.0001 90.2C88.2001 90.2 86.6001 91.3 85.9001 92.8C85.0001 92.1 83.8001 91.7 82.6001 92C81.3001 92.3 80.2001 93.1 79.7001 94.3C78.8001 93.4 77.5001 92.9 76.2001 93C74.9001 93.2 73.8001 94 73.2001 95.1C72.5001 94.2 71.3001 93.6 70.1001 93.6C68.9001 93.6 67.9001 94.1 67.1001 94.9C66.6001 93.9 65.7001 93 64.6001 92.7C63.4001 92.3 62.1001 92.6 61.1001 93.3C60.8001 92.1 60.1001 91.1 58.9001 90.5C57.8001 90 56.5001 90 55.5001 90.5C55.5001 89.4 55.0001 88.2 54.0001 87.5C53.1001 86.8 51.9001 86.5 50.8001 86.7C51.1001 85.6 50.8001 84.4 50.1001 83.4C49.3001 82.4 48.1001 81.8 46.9001 81.8C47.4001 80.7 47.4001 79.4 46.8001 78.3C46.3001 77.3 45.3001 76.6 44.3001 76.3C45.0001 75.5 45.3001 74.3 45.1001 73.2C44.9001 72 44.1001 70.9 43.1001 70.3C44.1001 69.5 44.7001 68.4 44.7001 67C44.7001 65.8 44.2001 64.7 43.3001 64C44.3001 63.5 45.1001 62.6 45.4001 61.4C45.7001 60.2 45.4001 59 44.8001 58.1C45.9001 57.9 46.8001 57.2 47.4001 56.2C48.0001 55.1 48.1001 53.9 47.7001 52.8C48.9001 52.9 50.1001 52.4 50.9001 51.5C51.7001 50.6 52.1001 49.4 51.9001 48.2C53.0001 48.5 54.2001 48.3 55.2001 47.6C56.2001 46.9 56.8001 45.8 56.9001 44.7C57.9001 45.2 59.2001 45.3 60.3001 44.9C61.4001 44.4 62.2001 43.6 62.5001 42.6C63.3001 43.3 64.4001 43.7 65.6001 43.6C66.9001 43.5 68.0001 42.8 68.6001 41.7C69.3001 42.7 70.3001 43.3 71.6001 43.4C72.8001 43.5 73.9001 43 74.7001 42.3C75.1001 43.4 76.0001 44.2 77.2001 44.6C78.4001 45 79.7001 44.8 80.7001 44.1C80.9001 45.3 81.6001 46.3 82.7001 46.9C83.6001 47.4 84.6001 47.5 85.6001 47.3C85.7001 47.5 85.8001 47.6 85.9001 47.7C86.0001 48.6 86.3001 49.4 86.9001 50.1L87.0001 50.2C89.1001 52.4 93.8001 57.6 92.9001 64.6C92.7001 66.3 93.7001 67.2 94.9001 65.9C102.5 57.7 101.3 47.7 101.1 46.5C101.1 45.7 100.9 45 100.6 44.3C100.7 43.9 100.7 43.4 100.7 43C100.7 40.9 99.7001 39 98.1001 37.8C98.2001 37.4 98.2001 37 98.2001 36.6C98.2001 34 96.6001 31.8 94.3001 30.8C94.2001 27.9 92.1001 25.5 89.3001 25C88.8001 22.4 86.5001 20.4 83.7001 20.4C83.6001 20.4 83.5001 20.4 83.4001 20.4C82.7001 18.3 80.7001 16.7 78.3001 16.7C77.8001 16.7 77.4001 16.8 77.0001 16.9C76.2001 15.1 74.4001 13.9 72.4001 13.9C71.6001 13.9 70.8001 14.1 70.2001 14.4C69.4001 13 67.8001 12 66.1001 12C65.0001 12 63.9001 12.4 63.1001 13C62.3001 11.9 61.0001 11.1 59.5001 11.1C58.1001 11.1 56.8001 11.8 56.0001 12.8C55.2001 11.9 54.1001 11.3 52.8001 11.3C51.1001 11.3 49.7001 12.3 49.0001 13.7C48.3001 12.9 47.3001 12.4 46.1001 12.4C44.1001 12.4 42.5001 13.9 42.3001 15.8C41.7001 15 40.7001 14.4 39.6001 14.4C37.7001 14.4 36.2001 15.9 36.2001 17.8C35.8001 20.5 37.4001 22 39.3001 22Z" fill="#3952A8"/>
<path d="M16.1 111.1C16 111.1 15.8 111.2 15.8 111.4C15.8 111.5 15.9 111.7 16.1 111.7C16.3 111.7 16.4001 111.6 16.4001 111.4C16.3001 111.2 16.2 111.1 16.1 111.1Z" fill="#3952A8"/>
<path d="M13 104.9C12.7 104.9 12.5 105.1 12.5 105.4C12.5 105.7 12.7 105.9 13 105.9C13.3 105.9 13.5 105.7 13.5 105.4C13.5 105.1 13.2 104.9 13 104.9Z" fill="#3952A8"/>
<path d="M10.5001 98.3999C10.1001 98.3999 9.70007 98.7999 9.70007 99.1999C9.70007 99.5999 10.1001 99.9999 10.5001 99.9999C10.9001 99.9999 11.3001 99.5999 11.3001 99.1999C11.3001 98.7999 10.9001 98.3999 10.5001 98.3999Z" fill="#3952A8"/>
<path d="M8.7001 91.7C8.1001 91.7 7.6001 92.1999 7.6001 92.7999C7.6001 93.3999 8.1001 93.8999 8.7001 93.8999C9.3001 93.8999 9.8001 93.3999 9.8001 92.7999C9.7001 92.0999 9.2001 91.7 8.7001 91.7Z" fill="#3952A8"/>
<path d="M8.90005 86.0999C8.90005 85.3999 8.30005 84.7999 7.60005 84.7999C6.90005 84.7999 6.30005 85.3999 6.30005 86.0999C6.30005 86.7999 6.90005 87.3999 7.60005 87.3999C8.30005 87.3999 8.90005 86.7999 8.90005 86.0999Z" fill="#3952A8"/>
<path d="M8.7 79.3999C8.7 78.4999 8 77.7999 7.1 77.7999C6.2 77.7999 5.5 78.4999 5.5 79.3999C5.5 80.2999 6.2 80.9999 7.1 80.9999C8 80.9999 8.7 80.2999 8.7 79.3999Z" fill="#3952A8"/>
<path d="M5.5 72.7C5.5 73.7 6.3 74.5999 7.4 74.5999C8.4 74.5999 9.3 73.8 9.3 72.7C9.3 71.7 8.5 70.7999 7.4 70.7999C6.4 70.7999 5.5 71.7 5.5 72.7Z" fill="#3952A8"/>
<path d="M8.40005 68.2C9.60005 68.2 10.5 67.2 10.5 66.1C10.5 64.9 9.50005 64 8.40005 64C7.20005 64 6.30005 65 6.30005 66.1C6.30005 67.2 7.20005 68.2 8.40005 68.2Z" fill="#3952A8"/>
<path d="M10.3 57.2C9.00002 57.2 7.90002 58.2999 7.90002 59.5999C7.90002 60.8999 9.00002 61.9999 10.3 61.9999C11.6 61.9999 12.7 60.8999 12.7 59.5999C12.7 58.2999 11.6 57.2 10.3 57.2Z" fill="#3952A8"/>
<path d="M12.9001 56.0999C14.4001 56.0999 15.6001 54.8999 15.6001 53.3999C15.6001 51.8999 14.4001 50.7 12.9001 50.7C11.4001 50.7 10.2001 51.8999 10.2001 53.3999C10.3001 54.8999 11.5001 56.0999 12.9001 56.0999Z" fill="#3952A8"/>
<path d="M16.4 50.5999C18 50.5999 19.3 49.3 19.3 47.7C19.3 46.1 18 44.7999 16.4 44.7999C14.8 44.7999 13.5 46.1 13.5 47.7C13.5 49.3 14.8 50.5999 16.4 50.5999Z" fill="#3952A8"/>
<path d="M23.8 42.3999C23.8 40.5999 22.4 39.2 20.6 39.2C18.8 39.2 17.4 40.5999 17.4 42.3999C17.4 44.1999 18.8 45.5999 20.6 45.5999C22.3 45.5999 23.8 44.1999 23.8 42.3999Z" fill="#3952A8"/>
<path d="M188.6 93.6C185.1 93.6 181.8 92.9 178.7 91.6C175.6 90.3 172.9 88.4 170.6 86.1C168.3 83.8 166.5 81.1 165.2 78C163.9 74.9 163.2 71.6 163.2 68.1C163.2 64.6 163.9 61.2 165.2 58.1C166.5 55 168.3 52.3 170.6 50C172.9 47.7 175.6 45.8 178.7 44.5C181.8 43.1 185.1 42.5 188.6 42.5C192.1 42.5 195.5 43.2 198.6 44.6C201.7 46 204.4 47.9 206.8 50.3C207.3 50.8 207.7 51.4 207.9 52.2C208.2 53.1 208.1 53.9 207.6 54.7C207 55.6 206.2 56 205.1 56.1C203.9 56.1 203.1 55.8 202.4 55.1C200.7 53.6 198.5 52.2 196.1 50.9C193.8 49.7 191.2 49.1 188.6 49.1C186 49.1 183.5 49.6 181.2 50.6C178.9 51.6 176.9 53 175.2 54.7C173.5 56.5 172.2 58.5 171.2 60.8C170.2 63.1 169.7 65.6 169.7 68.2C169.7 70.8 170.2 73.3 171.2 75.6C172.2 77.9 173.5 79.9 175.2 81.6C176.9 83.3 178.9 84.7 181.2 85.7C183.5 86.7 186 87.2 188.6 87.2C191.3 87.2 193.9 86.7 196.3 85.6C198.7 84.6 200.7 83.1 202.5 81.2C203 80.6 203.7 80.2 204.5 80C204.8 79.9 205 79.9 205.3 79.9C205.9 79.9 206.5 80.1 207 80.4C207.8 81.1 208.2 82 208.2 83C208.2 84 207.9 84.9 207.3 85.6C205 88.2 202.2 90.2 199 91.6C195.8 92.8 192.3 93.6 188.6 93.6Z" fill="#3952A8"/>
<path d="M241.8 93.5C238.3 93.5 235 92.8 231.9 91.5C228.8 90.2 226.1 88.3 223.8 86.1C221.5 83.8 219.7 81.1 218.4 78C217.1 74.9 216.4 71.6 216.4 68.1C216.4 64.6 217.1 61.3 218.4 58.2C219.7 55.1 221.6 52.4 223.8 50.1C226.1 47.8 228.8 46 231.9 44.6C235 43.3 238.3 42.6 241.8 42.6C245.3 42.6 248.6 43.3 251.7 44.6C254.8 45.9 257.5 47.8 259.8 50.1C262.1 52.4 263.9 55.1 265.3 58.2C266.6 61.3 267.3 64.6 267.3 68.1C267.3 71.6 266.6 74.9 265.3 78C264 81.1 262.1 83.8 259.8 86.1C257.5 88.4 254.8 90.2 251.7 91.5C248.6 92.8 245.3 93.5 241.8 93.5ZM241.8 49.1C239.2 49.1 236.7 49.6 234.4 50.6C232.1 51.6 230.1 52.9 228.4 54.6C226.7 56.3 225.3 58.4 224.4 60.7C223.4 63 222.9 65.5 222.9 68.1C222.9 70.7 223.4 73.2 224.4 75.5C225.4 77.8 226.7 79.8 228.4 81.5C230.1 83.2 232.1 84.5 234.4 85.5C236.7 86.5 239.2 87 241.8 87C244.4 87 246.9 86.5 249.2 85.5C251.5 84.5 253.5 83.2 255.2 81.5C256.9 79.8 258.3 77.8 259.3 75.5C260.3 73.2 260.8 70.7 260.8 68.1C260.8 65.5 260.3 63 259.3 60.7C258.3 58.4 257 56.4 255.2 54.6C253.5 52.9 251.5 51.5 249.2 50.6C246.9 49.6 244.4 49.1 241.8 49.1Z" fill="#3952A8"/>
<path d="M312.3 93.5999C311.4 93.5999 310.6 93.2999 310 92.5999C309.4 91.9999 309 91.1999 309 90.2999V61.2C309 59.5 308.7 57.9999 308 56.4999C307.4 54.9999 306.5 53.6999 305.3 52.5999C304.2 51.4999 302.8 50.5999 301.4 49.8999C299.9 49.2999 298.3 48.8999 296.7 48.8999C295 48.8999 293.4 49.1999 292 49.8999C290.5 50.4999 289.2 51.3999 288.1 52.5999C287 53.6999 286.1 55.0999 285.5 56.4999C284.9 57.9999 284.5 59.6 284.5 61.2V90.2999C284.5 91.1999 284.2 91.9999 283.5 92.5999C282.9 93.1999 282.1 93.4999 281.2 93.4999C280.3 93.4999 279.5 93.1999 278.9 92.4999C278.3 91.8999 277.9 91.1 277.9 90.2V61.0999C277.9 58.4999 278.4 56.0999 279.4 53.7999C280.4 51.4999 281.7 49.4999 283.4 47.7999C285.1 46.0999 287.1 44.6999 289.4 43.7999C291.7 42.7999 294.1 42.2999 296.7 42.2999C299.3 42.2999 301.7 42.7999 304 43.7999C306.3 44.7999 308.3 46.0999 310 47.7999C311.7 49.4999 313.1 51.4999 314 53.7999C315 56.0999 315.5 58.5999 315.5 61.0999V90.2C315.5 91.1 315.2 91.8999 314.6 92.4999C314 93.2999 313.2 93.5999 312.3 93.5999Z" fill="#3952A8"/>
<path d="M344.5 93.6C342 93.6 339.6 93.2 337.4 92.4C335.2 91.6 333.2 90.5 331.6 89C329.9 87.6 328.6 85.9 327.6 84C326.6 82.1 326.2 80 326.2 77.8C326.2 77 326.5 76.2 327.1 75.6C327.7 75 328.5 74.7 329.3 74.7C330.2 74.7 330.9 75 331.5 75.6C332.1 76.2 332.4 76.9 332.4 77.8C332.4 79.1 332.7 80.3 333.3 81.4C333.9 82.5 334.7 83.5 335.8 84.4C336.9 85.2 338.1 85.9 339.6 86.4C341.1 86.9 342.7 87.2 344.4 87.2C346.1 87.2 347.7 86.9 349.2 86.4C350.7 85.9 352 85.2 353.1 84.3C354.2 83.5 355.1 82.5 355.7 81.3C356.3 80.2 356.5 79 356.5 77.7C356.4 76.5 356 75.4 355.4 74.4C354.7 73.3 353.9 72.4 352.8 71.5C351.8 70.7 350.5 70 349.1 69.4C347.7 68.8 346.3 68.4 344.7 68.2C342.5 68.1 340.4 67.6 338.3 66.9C336.3 66.2 334.4 65.3 332.9 64.2C331.3 63.1 330 61.8 329.1 60.3C328.1 58.8 327.6 57 327.6 55.2C327.6 53.3 328.1 51.6 329 50C329.9 48.4 331.2 47 332.7 45.9C334.2 44.7 336.1 43.8 338.2 43.1C340.3 42.4 342.5 42.1 344.8 42.1C347.1 42.1 349.4 42.4 351.4 43.1C353.5 43.8 355.3 44.7 356.9 45.9C358.5 47.1 359.7 48.5 360.6 50C361.5 51.6 362 53.3 362 55.2C362 56.1 361.7 56.9 361 57.5C360.4 58.1 359.6 58.5 358.7 58.5C357.8 58.5 357 58.2 356.4 57.5C355.8 56.9 355.5 56 355.4 55C355.4 54.2 355.1 53.5 354.6 52.8C354 52 353.3 51.4 352.3 50.8C351.3 50.2 350.2 49.7 348.9 49.3C347.6 48.9 346.2 48.8 344.7 48.8C343.2 48.8 341.8 49 340.4 49.3C339.1 49.7 337.9 50.1 337 50.8C336.1 51.4 335.3 52.1 334.8 53C334.3 53.8 334 54.6 334 55.4C334 56.2 334.3 56.9 334.9 57.6C335.6 58.4 336.5 59 337.5 59.6C338.6 60.2 339.8 60.7 341.1 61.1C342.4 61.5 343.6 61.8 344.7 61.9C347.1 62.2 349.4 62.7 351.6 63.6C353.8 64.5 355.7 65.6 357.3 66.9C358.9 68.3 360.2 69.9 361.2 71.7C362.1 73.5 362.6 75.6 362.6 77.7C362.6 79.9 362.1 82 361.2 83.9C360.3 85.8 358.9 87.5 357.2 88.9C355.5 90.3 353.6 91.4 351.4 92.2C349.4 93.2 347 93.6 344.5 93.6Z" fill="#3952A8"/>
<path d="M377.5 93.5999C376.6 93.5999 375.8 93.2999 375.2 92.5999C374.6 91.9999 374.2 91.1999 374.2 90.2999V45.5999C374.2 44.6999 374.5 43.8999 375.2 43.2999C375.8 42.6999 376.6 42.2999 377.5 42.2999H404.8C405.7 42.2999 406.5 42.5999 407.1 43.2999C407.7 43.8999 408 44.6999 408 45.5999C408 46.4999 407.7 47.2999 407.1 47.8999C406.5 48.4999 405.7 48.8999 404.8 48.8999H380.8V64.5999H397.8C398.7 64.5999 399.5 64.8999 400.1 65.5999C400.7 66.1999 401.1 66.9999 401.1 67.8999C401.1 68.7999 400.8 69.6 400.1 70.2C399.5 70.8 398.7 71.0999 397.8 71.0999H380.8V87.0999H404.8C405.7 87.0999 406.5 87.3999 407.1 88.0999C407.7 88.6999 408 89.4999 408 90.3999C408 91.2999 407.7 92.1 407.1 92.7C406.5 93.3 405.7 93.7 404.8 93.7H377.5V93.5999Z" fill="#3952A8"/>
<path d="M451.2 93.6C450.3 93.6 449.5 93.3 448.9 92.7C448.3 92.1 447.9 91.3 447.9 90.4V61.3C447.9 59.6 447.6 58.1 446.9 56.6C446.3 55.1 445.4 53.8 444.2 52.7C443.1 51.6 441.7 50.7 440.3 50C438.8 49.4 437.2 49 435.6 49C433.9 49 432.3 49.3 430.9 50C429.4 50.6 428.1 51.5 427 52.7C425.9 53.8 425 55.2 424.4 56.6C423.8 58.1 423.4 59.7 423.4 61.3V90.4C423.4 91.3 423.1 92.1 422.4 92.7C421.8 93.3 421 93.6 420.1 93.6C419.2 93.6 418.4 93.3 417.8 92.7C417.2 92.1 416.9 91.3 416.9 90.4V61.3C416.9 58.7 417.4 56.3 418.4 54C419.4 51.7 420.7 49.7 422.4 48C424.1 46.3 426.1 44.9 428.4 44C430.7 43 433.2 42.5 435.7 42.5C438.3 42.5 440.7 43 443 44C445.2 45 447.3 46.3 449 48C450.7 49.7 452.1 51.7 453 54C454 56.3 454.5 58.8 454.5 61.3V90.4C454.5 91.3 454.2 92.1 453.6 92.7C452.9 93.3 452.1 93.6 451.2 93.6Z" fill="#3952A8"/>
<path d="M483.4 93.5999C480.9 93.5999 478.5 93.1999 476.3 92.3999C474.1 91.5999 472.1 90.4999 470.5 88.9999C468.8 87.5999 467.5 85.8999 466.5 83.9999C465.5 82.0999 465.1 79.9999 465.1 77.7999C465.1 76.9999 465.4 76.1999 466 75.5999C466.6 74.9999 467.4 74.7 468.2 74.7C469.1 74.7 469.8 74.9999 470.4 75.5999C471 76.1999 471.3 76.9999 471.3 77.7999C471.3 79.0999 471.6 80.2999 472.2 81.3999C472.8 82.4999 473.6 83.5999 474.7 84.3999C475.8 85.2999 477.1 85.8999 478.5 86.4999C480 86.9999 481.6 87.2999 483.3 87.2999C485 87.2999 486.6 86.9999 488.1 86.4999C489.6 85.9999 490.9 85.2999 492 84.3999C493.1 83.5999 494 82.4999 494.6 81.3999C495.2 80.2999 495.4 79.0999 495.3 77.7999C495.2 76.5999 494.8 75.4999 494.2 74.4999C493.5 73.3999 492.7 72.4999 491.6 71.5999C490.6 70.7999 489.3 70.0999 487.9 69.4999C486.5 68.8999 485.1 68.4999 483.5 68.2999C481.3 68.1999 479.2 67.6999 477.2 66.9999C475.2 66.2999 473.3 65.3999 471.8 64.2999C470.2 63.1999 468.9 61.8999 468 60.3999C467 58.8999 466.5 57.0999 466.5 55.2999C466.5 53.4999 467 51.6999 467.9 50.0999C468.8 48.4999 470.1 47.0999 471.7 45.9999C473.3 44.7999 475.1 43.9 477.1 43.2C479.2 42.5 481.4 42.2 483.7 42.2C486 42.2 488.3 42.5 490.3 43.2C492.4 43.9 494.2 44.7999 495.8 45.9999C497.4 47.1999 498.6 48.5999 499.5 50.0999C500.4 51.6999 500.9 53.4999 500.9 55.2999C500.9 56.1999 500.6 56.9999 499.9 57.5999C499.3 58.1999 498.5 58.5999 497.6 58.5999C496.7 58.5999 495.9 58.2999 495.3 57.5999C494.7 56.9999 494.4 56.0999 494.4 55.0999C494.4 54.2999 494.1 53.5999 493.6 52.8999C493.1 52.0999 492.3 51.4999 491.3 50.8999C490.3 50.2999 489.2 49.7999 487.9 49.3999C486.6 48.9999 485.2 48.8999 483.7 48.8999C482.2 48.8999 480.8 49.0999 479.4 49.3999C478.1 49.7999 476.9 50.1999 476 50.8999C475.1 51.4999 474.3 52.1999 473.8 53.0999C473.3 53.8999 473 54.6999 473 55.4999C473 56.2999 473.3 57 473.9 57.7C474.6 58.5 475.5 59.1 476.5 59.7C477.6 60.3 478.8 60.8 480.1 61.2C481.3 61.6 482.6 61.8999 483.7 61.9999C486.1 62.2999 488.4 62.8 490.6 63.7C492.8 64.6 494.7 65.6999 496.3 66.9999C497.9 68.3999 499.2 69.9999 500.1 71.7999C501 73.5999 501.5 75.6999 501.5 77.7999C501.5 79.9999 501 82.0999 500.1 83.9999C499.2 85.8999 497.8 87.5999 496.1 88.9999C494.4 90.3999 492.5 91.4999 490.3 92.2999C488.3 93.1999 485.9 93.5999 483.4 93.5999Z" fill="#3952A8"/>
<path d="M532.7 93.5999C531.8 93.5999 531 93.2999 530.4 92.6999C529.8 92.0999 529.4 91.2999 529.4 90.3999V73.6999L509.2 47.6999C508.7 46.9999 508.4 46.1999 508.5 45.2999C508.6 44.3999 509 43.6999 509.7 43.0999C510.3 42.5999 511 42.3999 511.8 42.3999C512.9 42.4999 513.7 42.8999 514.3 43.5999L532.8 67.2999L551.6 43.5999C552.2 42.8999 552.9 42.4999 553.8 42.3999H553.9C554.9 42.3999 555.6 42.5999 556.2 43.0999C556.9 43.6999 557.3 44.3999 557.4 45.2999C557.5 46.1999 557.2 46.9999 556.7 47.6999L536.2 73.6999V90.3999C536.2 91.2999 535.9 92.0999 535.3 92.6999C534.4 93.2999 533.6 93.5999 532.7 93.5999Z" fill="#3952A8"/>
<path d="M581.9 93.6C579.4 93.6 577 93.2 574.8 92.4C572.6 91.6 570.6 90.5 569 89C567.3 87.6 566 85.9 565 84C564 82.1 563.6 80 563.6 77.8C563.6 77 563.9 76.2 564.5 75.6C565.1 75 565.9 74.7 566.7 74.7C567.5 74.7 568.3 75 568.9 75.6C569.5 76.2 569.8 77 569.8 77.8C569.8 79.1 570.1 80.3 570.7 81.4C571.3 82.5 572.1 83.5 573.2 84.4C574.3 85.2 575.6 85.9 577 86.4C578.5 86.9 580.1 87.2 581.8 87.2C583.5 87.2 585.1 86.9 586.6 86.4C588.1 85.9 589.4 85.2 590.5 84.3C591.6 83.5 592.5 82.4 593.1 81.3C593.7 80.2 593.9 79 593.8 77.7C593.7 76.5 593.3 75.4 592.7 74.4C592 73.3 591.2 72.4 590.1 71.5C589.1 70.7 587.8 70 586.4 69.4C585 68.8 583.6 68.4 582 68.2C579.8 68.1 577.7 67.6 575.6 66.9C573.6 66.2 571.7 65.3 570.2 64.2C568.6 63.1 567.3 61.8 566.4 60.3C565.4 58.8 564.9 57 564.9 55.2C564.9 53.4 565.4 51.6 566.3 50C567.2 48.4 568.5 47 570.1 45.9C571.6 44.7 573.5 43.8 575.5 43.1C577.6 42.4 579.8 42.1 582.1 42.1C584.4 42.1 586.7 42.4 588.7 43.1C590.8 43.8 592.6 44.7 594.1 45.9C595.7 47.1 596.9 48.4 597.9 50C598.8 51.6 599.3 53.4 599.3 55.2C599.3 56.1 599 56.9 598.3 57.5C597.7 58.1 596.9 58.5 596 58.5C595.1 58.5 594.3 58.2 593.7 57.5C593.1 56.9 592.8 56 592.7 55C592.7 54.2 592.4 53.5 591.9 52.8C591.3 52 590.6 51.4 589.6 50.8C588.6 50.2 587.5 49.7 586.2 49.3C584.9 48.9 583.5 48.8 582 48.8C580.5 48.8 579.1 49 577.7 49.3C576.4 49.7 575.2 50.1 574.3 50.8C573.4 51.4 572.6 52.1 572.1 53C571.6 53.8 571.3 54.6 571.3 55.4C571.3 56.2 571.6 56.9 572.2 57.6C572.9 58.4 573.8 59 574.8 59.6C575.9 60.2 577.1 60.7 578.4 61.1C579.7 61.5 580.9 61.8 582 61.9C584.4 62.2 586.7 62.7 588.9 63.6C591.1 64.5 593 65.6 594.6 66.9C596.2 68.3 597.5 69.9 598.4 71.7C599.3 73.5 599.8 75.5 599.8 77.7C599.8 79.9 599.3 82 598.4 83.9C597.5 85.8 596.1 87.5 594.4 88.9C592.7 90.3 590.8 91.4 588.6 92.2C586.8 93.2 584.4 93.6 581.9 93.6Z" fill="#3952A8"/>
</svg>
