<svg width="600" height="200" viewBox="0 0 600 200" fill="none" xmlns="http://www.w3.org/2000/svg">
<g clip-path="url(#clip0_613_5)">
<path d="M62 167.2C61.9 167.2 61.8 167.3 61.8 167.4C61.8 167.5 61.9 167.6 62 167.6C62.1 167.6 62.2 167.5 62.2 167.4C62.2 167.3 62.1 167.2 62 167.2Z" fill="white"/>
<path d="M55.6001 165C55.3001 165 55.1001 165.2 55.1001 165.5C55.1001 165.8 55.3001 166 55.6001 166C55.9001 166 56.1001 165.8 56.1001 165.5C56.1001 165.2 55.9001 165 55.6001 165Z" fill="white"/>
<path d="M49.4001 162.1C49.0001 162.1 48.7001 162.4 48.7001 162.8C48.7001 163.2 49.0001 163.5 49.4001 163.5C49.8001 163.5 50.1001 163.2 50.1001 162.8C50.1001 162.4 49.8001 162.1 49.4001 162.1Z" fill="white"/>
<path d="M43.6001 158.6C43.1001 158.6 42.7001 159 42.7001 159.5C42.7001 160 43.1001 160.4 43.6001 160.4C44.1001 160.4 44.5001 160 44.5001 159.5C44.5001 159 44.1001 158.6 43.6001 158.6Z" fill="white"/>
<path d="M38.1 154.4C37.5 154.4 36.9 154.9 36.9 155.6C36.9 156.2 37.4 156.8 38.1 156.8C38.7 156.8 39.3 156.3 39.3 155.6C39.3 155 38.8 154.4 38.1 154.4Z" fill="white"/>
<path d="M33.1001 149.8C32.3001 149.8 31.7001 150.4 31.7001 151.2C31.7001 152 32.3001 152.6 33.1001 152.6C33.9001 152.6 34.5001 152 34.5001 151.2C34.5001 150.4 33.9001 149.8 33.1001 149.8Z" fill="white"/>
<path d="M28.5 144.6C27.6 144.6 26.9 145.3 26.9 146.2C26.9 147.1 27.6 147.8 28.5 147.8C29.4 147.8 30.1 147.1 30.1 146.2C30.2 145.3 29.4 144.6 28.5 144.6Z" fill="white"/>
<path d="M24.6001 138.9C23.6001 138.9 22.7001 139.7 22.7001 140.8C22.7001 141.8 23.5001 142.7 24.6001 142.7C25.6001 142.7 26.5001 141.9 26.5001 140.8C26.4001 139.8 25.6001 138.9 24.6001 138.9Z" fill="white"/>
<path d="M23.4001 134.9C23.4001 133.8 22.5001 132.8 21.3001 132.8C20.1001 132.8 19.2001 133.7 19.2001 134.9C19.2001 136 20.1001 137 21.3001 137C22.5001 137 23.4001 136.1 23.4001 134.9Z" fill="white"/>
<path d="M21.1 128.7C21.1 127.4 20.1 126.4 18.8 126.4C17.5 126.4 16.5 127.4 16.5 128.7C16.5 130 17.5 131 18.8 131C20.1 131 21.1 130 21.1 128.7Z" fill="white"/>
<path d="M19.7001 122.2C19.7001 120.8 18.6001 119.7 17.2001 119.7C15.8001 119.7 14.7001 120.8 14.7001 122.2C14.7001 123.6 15.8001 124.7 17.2001 124.7C18.6001 124.7 19.7001 123.6 19.7001 122.2Z" fill="white"/>
<path d="M19.2001 115.5C19.2001 114 18.0001 112.7 16.4001 112.7C14.9001 112.7 13.6001 113.9 13.6001 115.5C13.6001 117 14.8001 118.3 16.4001 118.3C18.0001 118.3 19.2001 117 19.2001 115.5Z" fill="white"/>
<path d="M16.6001 111.8C18.3001 111.8 19.6001 110.5 19.6001 108.8C19.6001 107.1 18.3001 105.8 16.6001 105.8C14.9001 105.8 13.6001 107.1 13.6001 108.8C13.6001 110.4 14.9001 111.8 16.6001 111.8Z" fill="white"/>
<path d="M14.3 102.1C14.3 103.9 15.7 105.3 17.5 105.3C19.3 105.3 20.7001 103.9 20.7001 102.1C20.7001 100.3 19.3 98.8999 17.5 98.8999C15.8 98.8999 14.3 100.3 14.3 102.1Z" fill="white"/>
<path d="M111.5 151.7C111.4 151.7 111.3 151.8 111.3 151.9C111.3 152 111.4 152.1 111.5 152.1C111.6 152.1 111.7 152 111.7 151.9C111.7 151.8 111.6 151.7 111.5 151.7Z" fill="white"/>
<path d="M105.6 154.6C105.4 154.6 105.2 154.8 105.2 155C105.2 155.2 105.4 155.4 105.6 155.4C105.8 155.4 106 155.2 106 155C106 154.8 105.8 154.6 105.6 154.6Z" fill="white"/>
<path d="M99.3001 156.9C99.0001 156.9 98.7001 157.2 98.7001 157.5C98.7001 157.8 99.0001 158.1 99.3001 158.1C99.6001 158.1 99.9001 157.8 99.9001 157.5C99.9001 157.2 99.7001 156.9 99.3001 156.9Z" fill="white"/>
<path d="M92.9001 158.5C92.4001 158.5 92.1001 158.9 92.1001 159.3C92.1001 159.7 92.5001 160.1 92.9001 160.1C93.3001 160.1 93.7001 159.7 93.7001 159.3C93.7001 158.9 93.3001 158.5 92.9001 158.5Z" fill="white"/>
<path d="M86.2001 159.4C85.6001 159.4 85.2001 159.9 85.2001 160.4C85.2001 161 85.7001 161.4 86.2001 161.4C86.8001 161.4 87.2001 160.9 87.2001 160.4C87.3001 159.9 86.8001 159.4 86.2001 159.4Z" fill="white"/>
<path d="M79.5 159.7C78.8 159.7 78.3 160.2 78.3 160.9C78.3 161.6 78.8 162.1 79.5 162.1C80.2 162.1 80.7 161.5 80.7 160.9C80.8 160.2 80.2 159.7 79.5 159.7Z" fill="white"/>
<path d="M72.8 159.2C72 159.2 71.4 159.8 71.4 160.6C71.4 161.4 72 162 72.8 162C73.6 162 74.2 161.4 74.2 160.6C74.3 159.8 73.6 159.2 72.8 159.2Z" fill="white"/>
<path d="M66.2001 158C65.3001 158 64.6001 158.7 64.6001 159.6C64.6001 160.5 65.3001 161.2 66.2001 161.2C67.1001 161.2 67.8001 160.5 67.8001 159.6C67.8001 158.7 67.1001 158 66.2001 158Z" fill="white"/>
<path d="M59.7 155.9C58.7 155.9 57.9 156.7 57.9 157.7C57.9 158.7 58.7 159.5 59.7 159.5C60.7 159.5 61.5 158.7 61.5 157.7C61.6 156.7 60.7 155.9 59.7 155.9Z" fill="white"/>
<path d="M53.6001 153C52.5001 153 51.6001 153.9 51.6001 155C51.6001 156.1 52.5001 157 53.6001 157C54.7001 157 55.6001 156.1 55.6001 155C55.6001 154 54.7001 153 53.6001 153Z" fill="white"/>
<path d="M50.1001 151.6C50.1001 150.4 49.1001 149.4 47.9001 149.4C46.7001 149.4 45.6001 150.4 45.6001 151.6C45.6001 152.8 46.6001 153.8 47.9001 153.8C49.1001 153.9 50.1001 152.9 50.1001 151.6Z" fill="white"/>
<path d="M42.6001 145C41.2001 145 40.1001 146.1 40.1001 147.5C40.1001 148.9 41.2001 150 42.6001 150C43.9001 150 45.1001 148.9 45.1001 147.5C45.1001 146.1 43.9001 145 42.6001 145Z" fill="white"/>
<path d="M37.9001 139.9C36.4001 139.9 35.2001 141.1 35.2001 142.6C35.2001 144.1 36.4001 145.3 37.9001 145.3C39.4001 145.3 40.6001 144.1 40.6001 142.6C40.6001 141.1 39.4001 139.9 37.9001 139.9Z" fill="white"/>
<path d="M33.9 140.1C35.5 140.1 36.8 138.8 36.8 137.2C36.8 135.6 35.5 134.3 33.9 134.3C32.3 134.3 31 135.6 31 137.2C31.1 138.8 32.3 140.1 33.9 140.1Z" fill="white"/>
<path d="M33.7 131.3C33.7 129.6 32.3 128.2 30.6 128.2C28.9 128.2 27.5 129.6 27.5 131.3C27.5 133 28.9 134.4 30.6 134.4C32.4 134.4 33.7 133 33.7 131.3Z" fill="white"/>
<path d="M135.6 105.8C135.5 105.8 135.4 105.9 135.4 106C135.4 106.1 135.5 106.2 135.6 106.2C135.7 106.2 135.8 106.1 135.8 106C135.7 105.9 135.7 105.8 135.6 105.8Z" fill="white"/>
<path d="M133.6 112C133.4 112 133.2 112.2 133.2 112.4C133.2 112.6 133.4 112.8 133.6 112.8C133.8 112.8 134 112.6 134 112.4C134 112.2 133.8 112 133.6 112Z" fill="white"/>
<path d="M130.9 118C130.6 118 130.4 118.2 130.4 118.5C130.4 118.8 130.6 119.1 130.9 119.1C131.2 119.1 131.5 118.9 131.5 118.5C131.4 118.3 131.2 118 130.9 118Z" fill="white"/>
<path d="M127.6 123.7C127.2 123.7 126.9 124 126.9 124.4C126.9 124.8 127.2 125.1 127.6 125.1C128 125.1 128.3 124.8 128.3 124.4C128.3 124 128 123.7 127.6 123.7Z" fill="white"/>
<path d="M123.7 129C123.2 129 122.8 129.4 122.8 129.9C122.8 130.4 123.2 130.8 123.7 130.8C124.2 130.8 124.6 130.4 124.6 129.9C124.6 129.4 124.2 129 123.7 129Z" fill="white"/>
<path d="M119.3 133.8C118.7 133.8 118.2 134.3 118.2 134.9C118.2 135.5 118.7 136 119.3 136C119.9 136 120.4 135.5 120.4 134.9C120.4 134.3 119.9 133.8 119.3 133.8Z" fill="white"/>
<path d="M114.3 138.2C113.6 138.2 113 138.8 113 139.5C113 140.2 113.6 140.8 114.3 140.8C115 140.8 115.6 140.2 115.6 139.5C115.6 138.8 115 138.2 114.3 138.2Z" fill="white"/>
<path d="M108.9 142C108.1 142 107.4 142.7 107.4 143.5C107.4 144.3 108.1 145 108.9 145C109.7 145 110.4 144.3 110.4 143.5C110.4 142.7 109.7 142 108.9 142Z" fill="white"/>
<path d="M103.1 145.1C102.2 145.1 101.4 145.8 101.4 146.7C101.4 147.6 102.1 148.4 103.1 148.4C104 148.4 104.7 147.7 104.7 146.7C104.7 145.8 104 145.1 103.1 145.1Z" fill="white"/>
<path d="M96.8 147.3C95.8 147.3 95 148.1 95 149.1C95 150.1 95.8 150.9 96.8 150.9C97.8 150.9 98.6 150.1 98.6 149.1C98.6 148.2 97.8 147.3 96.8 147.3Z" fill="white"/>
<path d="M90.3 148.8C89.2 148.8 88.3 149.7 88.3 150.8C88.3 151.9 89.2 152.8 90.3 152.8C91.4 152.8 92.3 151.9 92.3 150.8C92.3 149.7 91.4 148.8 90.3 148.8Z" fill="white"/>
<path d="M83.6 149.4C82.4 149.4 81.4 150.4 81.4 151.6C81.4 152.8 82.4 153.8 83.6 153.8C84.8 153.8 85.8 152.8 85.8 151.6C85.8 150.4 84.8 149.4 83.6 149.4Z" fill="white"/>
<path d="M79.3 151.4C79.3 150.1 78.2 149 76.9 149C75.6 149 74.5 150.1 74.5 151.4C74.5 152.7 75.6 153.8 76.9 153.8C78.2 153.8 79.3 152.7 79.3 151.4Z" fill="white"/>
<path d="M72.8001 150.4C72.8001 149 71.7001 147.8 70.2001 147.8C68.8001 147.8 67.6001 148.9 67.6001 150.4C67.6001 151.8 68.7001 153 70.2001 153C71.7001 153 72.8001 151.9 72.8001 150.4Z" fill="white"/>
<path d="M66.6001 148.6C66.6001 147.1 65.4001 145.9 63.8001 145.9C62.3001 145.9 61.1001 147.1 61.1001 148.6C61.1001 150.1 62.3001 151.4 63.8001 151.4C65.3001 151.3 66.6001 150.1 66.6001 148.6Z" fill="white"/>
<path d="M60.6 145.9C60.6 144.3 59.3 143 57.7 143C56.1 143 54.8 144.3 54.8 145.9C54.8 147.5 56.1 148.8 57.7 148.8C59.3 148.8 60.6 147.5 60.6 145.9Z" fill="white"/>
<path d="M120.1 56.7C120.2 56.7 120.3 56.5999 120.3 56.4999C120.3 56.3999 120.2 56.2999 120.1 56.2999C120 56.2999 119.9 56.3999 119.9 56.4999C119.9 56.5999 120 56.7 120.1 56.7Z" fill="white"/>
<path d="M123.2 62.8C123.4 62.8 123.6 62.6 123.6 62.4C123.6 62.2 123.4 62 123.2 62C123 62 122.8 62.2 122.8 62.4C122.8 62.6 123 62.8 123.2 62.8Z" fill="white"/>
<path d="M125.7 69.2C126 69.2 126.2 69 126.2 68.7C126.2 68.4 126 68.2 125.7 68.2C125.4 68.2 125.2 68.4 125.2 68.7C125.1 69 125.4 69.2 125.7 69.2Z" fill="white"/>
<path d="M127.5 75.9C127.9 75.9 128.2 75.6 128.2 75.2C128.2 74.8 127.9 74.5 127.5 74.5C127.1 74.5 126.8 74.8 126.8 75.2C126.7 75.6 127.1 75.9 127.5 75.9Z" fill="white"/>
<path d="M127.7 81.7999C127.7 82.2999 128.1 82.7 128.6 82.7C129.1 82.7 129.5 82.2999 129.5 81.7999C129.5 81.2999 129.1 80.9 128.6 80.9C128.1 80.8 127.7 81.2999 127.7 81.7999Z" fill="white"/>
<path d="M129 87.3999C128.4 87.3999 127.9 87.8999 127.9 88.4999C127.9 89.0999 128.4 89.5999 129 89.5999C129.6 89.5999 130.1 89.0999 130.1 88.4999C130.1 87.8999 129.6 87.3999 129 87.3999Z" fill="white"/>
<path d="M128.7 93.8999C128 93.8999 127.4 94.4999 127.4 95.1999C127.4 95.8999 128 96.4999 128.7 96.4999C129.4 96.4999 130 95.8999 130 95.1999C130 94.4999 129.4 93.8999 128.7 93.8999Z" fill="white"/>
<path d="M127.7 100.4C126.9 100.4 126.2 101.1 126.2 101.9C126.2 102.7 126.9 103.4 127.7 103.4C128.5 103.4 129.2 102.8 129.2 101.9C129.2 101 128.5 100.4 127.7 100.4Z" fill="white"/>
<path d="M127.5 108.3C127.5 107.4 126.8 106.7 125.9 106.7C125 106.7 124.2 107.4 124.2 108.3C124.2 109.2 124.9 109.9 125.9 109.9C126.8 109.9 127.5 109.2 127.5 108.3Z" fill="white"/>
<path d="M123.2 112.6C122.2 112.6 121.4 113.4 121.4 114.4C121.4 115.4 122.2 116.2 123.2 116.2C124.2 116.2 125 115.4 125 114.4C125 113.4 124.2 112.6 123.2 112.6Z" fill="white"/>
<path d="M119.8 118.2C118.7 118.2 117.8 119.1 117.8 120.2C117.8 121.3 118.7 122.2 119.8 122.2C120.9 122.2 121.8 121.3 121.8 120.2C121.8 119.1 120.9 118.2 119.8 118.2Z" fill="white"/>
<path d="M115.6 123.2C114.4 123.2 113.4 124.2 113.4 125.4C113.4 126.6 114.4 127.6 115.6 127.6C116.8 127.6 117.8 126.6 117.8 125.4C117.8 124.2 116.8 123.2 115.6 123.2Z" fill="white"/>
<path d="M110.7 127.7C109.4 127.7 108.3 128.8 108.3 130.1C108.3 131.4 109.4 132.5 110.7 132.5C112 132.5 113.1 131.4 113.1 130.1C113.1 128.8 112 127.7 110.7 127.7Z" fill="white"/>
<path d="M105.3 131.5C103.9 131.5 102.7 132.6 102.7 134.1C102.7 135.5 103.8 136.7 105.3 136.7C106.7 136.7 107.9 135.6 107.9 134.1C107.9 132.7 106.7 131.5 105.3 131.5Z" fill="white"/>
<path d="M99.5 134.6C98 134.6 96.8 135.8 96.8 137.4C96.8 138.9 98 140.1 99.5 140.1C101 140.1 102.2 138.9 102.2 137.4C102.2 135.8 101 134.6 99.5 134.6Z" fill="white"/>
<path d="M93.2 136.9C91.6 136.9 90.3 138.2 90.3 139.8C90.3 141.4 91.6 142.7 93.2 142.7C94.8 142.7 96.1 141.4 96.1 139.8C96.1 138.2 94.8 136.9 93.2 136.9Z" fill="white"/>
<path d="M74.1 32.5999C74.2 32.5999 74.3 32.4999 74.3 32.3999C74.3 32.2999 74.2 32.2 74.1 32.2C74 32.2 73.9 32.2999 73.9 32.3999C73.9 32.4999 74 32.5999 74.1 32.5999Z" fill="white"/>
<path d="M80.5001 34.8C80.7001 34.8 80.9001 34.6 80.9001 34.4C80.9001 34.2 80.7001 34 80.5001 34C80.3001 34 80.1001 34.2 80.1001 34.4C80.2001 34.7 80.3001 34.8 80.5001 34.8Z" fill="white"/>
<path d="M86.7001 37.7C87.0001 37.7 87.2001 37.5 87.2001 37.2C87.2001 36.9 87.0001 36.6 86.7001 36.6C86.4001 36.6 86.1001 36.8 86.1001 37.2C86.1001 37.4 86.4001 37.7 86.7001 37.7Z" fill="white"/>
<path d="M92.5 41.1C92.9 41.1 93.2 40.7999 93.2 40.3999C93.2 39.9999 92.9 39.7 92.5 39.7C92.1 39.7 91.8 39.9999 91.8 40.3999C91.8 40.7999 92.1 41.1 92.5 41.1Z" fill="white"/>
<path d="M98.0001 45.1999C98.5001 45.1999 98.9001 44.7999 98.9001 44.2999C98.9001 43.7999 98.5001 43.3999 98.0001 43.3999C97.5001 43.3999 97.1001 43.7999 97.1001 44.2999C97.1001 44.7999 97.5001 45.1999 98.0001 45.1999Z" fill="white"/>
<path d="M103.1 49.8C103.7 49.8 104.2 49.3 104.2 48.7C104.2 48.1 103.7 47.6 103.1 47.6C102.5 47.6 102 48.1 102 48.7C102 49.3 102.4 49.8 103.1 49.8Z" fill="white"/>
<path d="M107.6 54.9999C108.3 54.9999 108.9 54.3999 108.9 53.6999C108.9 52.9999 108.3 52.3999 107.6 52.3999C106.9 52.3999 106.3 52.9999 106.3 53.6999C106.3 54.3999 106.9 54.9999 107.6 54.9999Z" fill="white"/>
<path d="M111.6 60.5C112.4 60.5 113.1 59.8 113.1 59C113.1 58.2 112.4 57.5 111.6 57.5C110.8 57.5 110.1 58.2 110.1 59C110.1 59.8 110.8 60.5 111.6 60.5Z" fill="white"/>
<path d="M114.8 66.5999C115.7 66.5999 116.4 65.8999 116.4 64.9999C116.4 64.0999 115.7 63.3999 114.8 63.3999C113.9 63.3999 113.1 64.0999 113.1 64.9999C113.2 65.8999 113.9 66.5999 114.8 66.5999Z" fill="white"/>
<path d="M115.5 71.1999C115.5 72.1999 116.3 72.9999 117.3 72.9999C118.3 72.9999 119.1 72.1999 119.1 71.1999C119.1 70.1999 118.3 69.3999 117.3 69.3999C116.3 69.3999 115.5 70.1999 115.5 71.1999Z" fill="white"/>
<path d="M116.9 77.7C116.9 78.8 117.8 79.7 118.9 79.7C120 79.7 120.9 78.8 120.9 77.7C120.9 76.6 120 75.7 118.9 75.7C117.8 75.7 116.9 76.6 116.9 77.7Z" fill="white"/>
<path d="M117.5 84.3999C117.5 85.5999 118.5 86.5999 119.7 86.5999C120.9 86.5999 121.9 85.5999 121.9 84.3999C121.9 83.1999 120.9 82.2 119.7 82.2C118.5 82.2 117.5 83.1999 117.5 84.3999Z" fill="white"/>
<path d="M121.9 91.0999C121.9 89.7999 120.8 88.7 119.5 88.7C118.2 88.7 117.1 89.7999 117.1 91.0999C117.1 92.3999 118.2 93.4999 119.5 93.4999C120.9 93.4999 121.9 92.3999 121.9 91.0999Z" fill="white"/>
<path d="M121.1 97.7C121.1 96.3 120 95.1 118.5 95.1C117.1 95.1 115.9 96.2 115.9 97.7C115.9 99.1 117.1 100.3 118.5 100.3C120 100.3 121.1 99.1 121.1 97.7Z" fill="white"/>
<path d="M119.5 104.2C119.5 102.7 118.3 101.4 116.8 101.4C115.3 101.4 114.1 102.6 114.1 104.2C114.1 105.7 115.3 106.9 116.8 106.9C118.2 106.9 119.5 105.7 119.5 104.2Z" fill="white"/>
<path d="M114 107.4C112.4 107.4 111.1 108.7 111.1 110.3C111.1 111.9 112.4 113.2 114 113.2C115.6 113.2 116.9 111.9 116.9 110.3C117 108.7 115.7 107.4 114 107.4Z" fill="white"/>
<path d="M24.6 48.0999C24.7 48.0999 24.8 47.9999 24.8 47.8999C24.8 47.7999 24.7 47.7 24.6 47.7C24.5 47.7 24.4 47.7999 24.4 47.8999C24.4 47.9999 24.5 48.0999 24.6 48.0999Z" fill="white"/>
<path d="M30.6001 45.1999C30.8001 45.1999 31.0001 44.9999 31.0001 44.7999C31.0001 44.5999 30.8001 44.3999 30.6001 44.3999C30.4001 44.3999 30.2001 44.5999 30.2001 44.7999C30.2001 44.9999 30.4001 45.1999 30.6001 45.1999Z" fill="white"/>
<path d="M36.8 42.8999C37.1 42.8999 37.4001 42.6999 37.4001 42.3999C37.4001 42.0999 37.2 41.7999 36.8 41.7999C36.5 41.7999 36.3 42.0999 36.3 42.3999C36.3 42.5999 36.5 42.8999 36.8 42.8999Z" fill="white"/>
<path d="M43.3 41.2999C43.7 41.2999 44 40.9999 44 40.5999C44 40.1999 43.7 39.8999 43.3 39.8999C42.9 39.8999 42.6 40.1999 42.6 40.5999C42.5 40.8999 42.9 41.2999 43.3 41.2999Z" fill="white"/>
<path d="M49.9 40.3C50.4 40.3 50.8 39.9 50.8 39.4C50.8 38.9 50.4 38.5 49.9 38.5C49.4 38.5 49 38.9 49 39.4C49 39.9 49.4 40.3 49.9 40.3Z" fill="white"/>
<path d="M56.6 40.0999C57.2 40.0999 57.7 39.5999 57.7 38.9999C57.7 38.3999 57.2 37.8999 56.6 37.8999C56 37.8999 55.5 38.3999 55.5 38.9999C55.5 39.5999 56 40.0999 56.6 40.0999Z" fill="white"/>
<path d="M63.3 40.6C64 40.6 64.6 40 64.6 39.3C64.6 38.6 64 38 63.3 38C62.6 38 62 38.6 62 39.3C62 40 62.6 40.6 63.3 40.6Z" fill="white"/>
<path d="M69.9 41.7C70.7 41.7 71.4 41.1 71.4 40.2C71.4 39.4 70.7 38.7 69.9 38.7C69.1 38.7 68.4 39.4 68.4 40.2C68.5 41.1 69.1 41.7 69.9 41.7Z" fill="white"/>
<path d="M76.4 43.8C77.3 43.8 78.1 43.1 78.1 42.2C78.1 41.3 77.4 40.6 76.4 40.6C75.5 40.6 74.8 41.3 74.8 42.2C74.8 43 75.5 43.8 76.4 43.8Z" fill="white"/>
<path d="M82.6001 46.6C83.6001 46.6 84.4001 45.8 84.4001 44.8C84.4001 43.8 83.6001 43 82.6001 43C81.6001 43 80.8001 43.8 80.8001 44.8C80.7001 45.8 81.6001 46.6 82.6001 46.6Z" fill="white"/>
<path d="M86.3 48.2C86.3 49.3 87.2 50.2 88.3 50.2C89.4 50.2 90.3 49.3 90.3 48.2C90.3 47.1 89.4 46.2 88.3 46.2C87.2 46.2 86.3 47.1 86.3 48.2Z" fill="white"/>
<path d="M93.6 54.5999C94.8 54.5999 95.8 53.5999 95.8 52.3999C95.8 51.1999 94.8 50.2 93.6 50.2C92.4 50.2 91.4 51.1999 91.4 52.3999C91.4 53.6999 92.4 54.5999 93.6 54.5999Z" fill="white"/>
<path d="M98.2 59.6999C99.5 59.6999 100.6 58.5999 100.6 57.2999C100.6 55.9999 99.5 54.8999 98.2 54.8999C96.9 54.8999 95.8 55.9999 95.8 57.2999C95.8 58.5999 96.9 59.6999 98.2 59.6999Z" fill="white"/>
<path d="M102.2 60.1C100.8 60.1 99.6001 61.2 99.6001 62.7C99.6001 64.1 100.7 65.3 102.2 65.3C103.6 65.3 104.8 64.2 104.8 62.7C104.8 61.3 103.6 60.1 102.2 60.1Z" fill="white"/>
<path d="M102.7 68.4999C102.7 69.9999 103.9 71.2 105.4 71.2C106.9 71.2 108.1 69.9999 108.1 68.4999C108.1 66.9999 106.9 65.7999 105.4 65.7999C104 65.7999 102.7 66.9999 102.7 68.4999Z" fill="white"/>
<path d="M105 74.7999C105 76.3999 106.3 77.6999 107.9 77.6999C109.5 77.6999 110.8 76.3999 110.8 74.7999C110.8 73.1999 109.5 71.8999 107.9 71.8999C106.3 71.8999 105 73.1999 105 74.7999Z" fill="white"/>
<path d="M109.5 78.2C107.8 78.2 106.4 79.5999 106.4 81.2999C106.4 82.9999 107.8 84.3999 109.5 84.3999C111.2 84.3999 112.6 82.9999 112.6 81.2999C112.7 79.5999 111.3 78.2 109.5 78.2Z" fill="white"/>
<path d="M0.60005 93.5C0.40005 93.5 0.300049 93.7 0.300049 93.8C0.300049 94 0.50005 94.1 0.60005 94.1C0.80005 94.1 0.900049 93.9 0.900049 93.8C0.900049 93.7 0.80005 93.5 0.60005 93.5Z" fill="white"/>
<path d="M2.60003 86.7999C2.20003 86.7999 1.90002 87.0999 1.90002 87.4999C1.90002 87.8999 2.20003 88.2 2.60003 88.2C3.00003 88.2 3.30002 87.8999 3.30002 87.4999C3.30002 87.0999 3.00003 86.7999 2.60003 86.7999Z" fill="white"/>
<path d="M6.30005 81.2999C6.30005 80.6999 5.80005 80.2999 5.30005 80.2999C4.70005 80.2999 4.30005 80.7999 4.30005 81.2999C4.30005 81.8999 4.80005 82.2999 5.30005 82.2999C5.80005 82.2999 6.30005 81.8999 6.30005 81.2999Z" fill="white"/>
<path d="M8.5001 76.8C9.3001 76.8 9.9001 76.2 9.9001 75.4C9.9001 74.6 9.3001 74 8.5001 74C7.7001 74 7.1001 74.6 7.1001 75.4C7.1001 76.2 7.8001 76.8 8.5001 76.8Z" fill="white"/>
<path d="M12.4001 71.7C13.4001 71.7 14.1001 70.8999 14.1001 69.9999C14.1001 69.0999 13.3001 68.2999 12.4001 68.2999C11.4001 68.2999 10.7001 69.0999 10.7001 69.9999C10.7001 70.8999 11.5001 71.7 12.4001 71.7Z" fill="white"/>
<path d="M16.9001 66.9999C18.0001 66.9999 19 66.0999 19 64.8999C19 63.7999 18.1001 62.7999 16.9001 62.7999C15.8001 62.7999 14.8 63.6999 14.8 64.8999C14.8 66.0999 15.7001 66.9999 16.9001 66.9999Z" fill="white"/>
<path d="M21.8 62.8C23.1 62.8 24.2 61.7 24.2 60.4C24.2 59.1 23.1 58 21.8 58C20.5 58 19.4 59.1 19.4 60.4C19.4 61.7 20.5 62.8 21.8 62.8Z" fill="white"/>
<path d="M27.2 59.2C28.7 59.2 30 58 30 56.4C30 54.9 28.8 53.6 27.2 53.6C25.7 53.6 24.4 54.8 24.4 56.4C24.4 57.9 25.7 59.2 27.2 59.2Z" fill="white"/>
<path d="M33 56.2C34.7 56.2 36.1 54.8 36.1 53.1C36.1 51.4 34.7 50 33 50C31.3 50 29.9 51.4 29.9 53.1C29.9 54.8 31.3 56.2 33 56.2Z" fill="white"/>
<path d="M39.3001 54C41.0001 54 42.4001 52.7 42.7001 51.1C43.4001 52.1 44.5001 52.7 45.8001 52.7C47.3001 52.7 48.5001 51.9 49.2001 50.6C50.0001 51.6 51.2001 52.3 52.5001 52.3C53.7001 52.3 54.8001 51.8 55.6001 50.9C56.4001 52 57.7001 52.8 59.3001 52.8C60.2001 52.8 61.1001 52.5 61.9001 52C62.1001 52.3 62.3001 52.5 62.5001 52.7C61.4001 52.8 60.3001 53.3 59.6001 54.1C58.7001 53.3 57.6001 52.8 56.4001 52.8C54.8001 52.8 53.4001 53.6 52.5001 54.8C51.7001 54.2 50.8001 53.8 49.7001 53.8C47.9001 53.8 46.3001 54.9 45.6001 56.4C44.9001 55.9 44.1001 55.7 43.2001 55.7C41.2001 55.7 39.5001 57.1 39.0001 59C38.4001 58.6 37.7001 58.4 36.9001 58.4C34.7001 58.4 32.9001 60.2 32.9001 62.4C32.3001 62.1 31.7001 61.9 31.0001 61.9C28.9001 61.9 27.3001 63.6 27.3001 65.6C27.3001 66 27.4001 66.3 27.5001 66.6C27.0001 66.3 26.4001 66.1 25.7001 66.1C23.8001 66.1 22.2001 67.7 22.2001 69.6C22.2001 71.5 23.8001 73.1 25.7001 73.1C27.6001 73.1 29.2001 71.5 29.2001 69.6C29.2001 69.3 29.2001 69 29.1001 68.7C29.7001 69.1 30.4001 69.3 31.1001 69.3C33.1001 69.3 34.8001 67.7 34.8001 65.7C35.4001 66.1 36.2001 66.3 36.9001 66.3C37.0001 66.3 37.0001 66.3 37.1001 66.3C36.3001 67.1 35.7001 68.1 35.6001 69.3C35.3001 69.3 35.1001 69.2 34.8001 69.2C32.4001 69.2 30.4001 71.2 30.4001 73.6C30.4001 73.8 30.4001 73.9 30.4001 74.1C30.2001 74.1 30.1001 74.1 29.9001 74.1C27.6001 74.1 25.7001 76 25.7001 78.3C25.7001 78.8 25.8001 79.2 25.9001 79.6C25.8001 79.6 25.7001 79.6 25.7001 79.6C23.5001 79.6 21.8001 81.4 21.8001 83.5C21.8001 84.3 22.0001 85 22.4001 85.6H22.3001C20.3001 85.6 18.6001 87.3 18.6001 89.3C18.6001 90.4 19.1001 91.3 19.8001 92C19.7001 92 19.7001 92 19.6001 92C17.7001 92 16.1001 93.6 16.1001 95.5C16.1001 97.4 17.7001 99 19.6001 99C21.5001 99 23.1001 97.5 23.1001 95.5C23.1001 94.5 22.7001 93.7 22.1001 93C22.2001 93 22.3001 93 22.3001 93C23.4001 93 24.3001 92.5 25.0001 91.8V91.9C25.0001 92.9 25.3001 93.7 25.8001 94.4C24.2001 95 23.1001 96.5 23.1001 98.2C23.1001 99.4 23.7001 100.5 24.5001 101.3C23.2001 101.9 22.2001 103.3 22.2001 104.8C22.2001 106.3 23.0001 107.6 24.3001 108.2C23.1001 108.8 22.3001 110 22.3001 111.5C22.3001 113.2 23.5001 114.7 25.2001 115.1C24.1001 115.7 23.3001 116.8 23.3001 118.2C23.3001 120.1 24.9001 121.7 26.8001 121.7C27.0001 121.7 27.2001 121.7 27.4001 121.6C26.1001 122 25.1001 123.2 25.1001 124.7C25.1001 126.5 26.6001 128 28.4001 128C30.2001 128 31.7001 126.5 31.7001 124.7C31.7001 122.9 30.2001 121.4 28.4001 121.4C28.2001 121.4 28.0001 121.4 27.8001 121.5C29.2001 121.1 30.3001 119.8 30.3001 118.2C30.3001 118.1 30.3001 118 30.3001 118C30.8001 118.6 31.5001 119 32.4001 119.2C31.8001 119.9 31.5001 120.7 31.5001 121.7C31.5001 123.8 33.2001 125.5 35.4001 125.5H35.5001C35.1001 126.1 34.8001 126.8 34.8001 127.6C34.8001 129.6 36.4001 131.3 38.5001 131.3C38.9001 131.3 39.2001 131.2 39.6001 131.1C39.2001 131.7 39.0001 132.3 39.0001 133C39.0001 134.9 40.6001 136.5 42.5001 136.5C43.3001 136.5 44.1001 136.2 44.7001 135.7C44.2001 136.3 43.9001 137 43.9001 137.8C43.9001 139.6 45.4001 141.1 47.2001 141.1C49.0001 141.1 50.5001 139.6 50.5001 137.8C50.5001 136.9 50.1001 136.1 49.6001 135.5C50.0001 135.5 50.5001 135.4 50.9001 135.3C50.9001 136.9 51.8001 138.2 53.1001 138.9C52.9001 138.9 52.7001 138.8 52.5001 138.8C50.8001 138.8 49.4001 140.2 49.4001 141.9C49.4001 143.6 50.8001 145 52.5001 145C54.2001 145 55.6001 143.6 55.6001 141.9C55.6001 140.7 54.9001 139.7 54.0001 139.2C54.3001 139.3 54.6001 139.3 55.0001 139.3C55.8001 139.3 56.5001 139.1 57.1001 138.7C57.3001 140.7 58.9001 142.2 60.9001 142.2C62.0001 142.2 63.0001 141.7 63.7001 141C64.0001 142.7 65.5001 144.1 67.3001 144.1C68.7001 144.1 69.9001 143.3 70.5001 142.2C70.8001 143.8 72.2001 145 73.9001 145C75.7001 145 77.2001 143.6 77.3001 141.9C77.4001 143.6 78.8001 145 80.6001 145C82.4001 145 83.9001 143.5 83.9001 141.7C83.9001 139.9 82.5001 138.5 80.7001 138.4C81.0001 138.1 81.2001 137.7 81.4001 137.3C82.1001 138.1 83.2001 138.5 84.3001 138.5C84.7001 138.5 85.1001 138.4 85.5001 138.3C84.7001 138.9 84.1001 139.8 84.1001 140.9C84.1001 142.6 85.5001 144 87.2001 144C88.9001 144 90.3001 142.6 90.3001 140.9C90.3001 139.2 88.9001 137.8 87.2001 137.8C86.9001 137.8 86.6001 137.9 86.3001 137.9C87.2001 137.3 87.9001 136.4 88.1001 135.4C88.8001 136 89.6001 136.3 90.6001 136.3C92.7001 136.3 94.5001 134.6 94.5001 132.5V132.4C95.1001 132.8 95.8001 133.1 96.6001 133.1C98.6001 133.1 100.3 131.5 100.3 129.4C100.3 129 100.3 128.7 100.1 128.3C100.7 128.7 101.3 128.9 102 128.9C103.9 128.9 105.5 127.3 105.5 125.4C105.5 124.6 105.2 123.8 104.7 123.2C105.3 123.7 106 124 106.8 124C108.6 124 110.1 122.5 110.1 120.7C110.1 118.9 108.6 117.4 106.8 117.4C105.9 117.4 105.1 117.7 104.5 118.3C104.5 117.9 104.4 117.4 104.3 117C105.9 117 107.2 116.1 107.9 114.8C107.9 115 107.8 115.2 107.8 115.4C107.8 117.1 109.2 118.5 110.9 118.5C112.6 118.5 114 117.1 114 115.4C114 113.7 112.6 112.3 110.9 112.3C109.7 112.3 108.7 113 108.2 113.9C108.3 113.6 108.3 113.3 108.3 112.9C108.3 112.1 108.1 111.4 107.7 110.8C109.7 110.6 111.2 109 111.2 107C111.2 105.9 110.7 104.9 110 104.2C111.7 103.9 113.1 102.4 113.1 100.6C113.1 99.2 112.3 98 111.2 97.4C112.8 97.1 114 95.7 114 94C114 92.2 112.6 90.7 110.9 90.6C112.6 90.5 114 89.1 114 87.3C114 85.5 112.5 84 110.7 84C108.9 84 107.4 85.5 107.4 87.3C107.4 89 108.7 90.4 110.3 90.6C108.5 90.7 107.1 92.2 107.1 94.1C107.1 95.4 107.8 96.5 108.9 97.1C107.2 97.4 105.9 98.9 105.9 100.7C105.9 101.7 106.3 102.6 107 103.3C105.1 103.6 103.7 105.2 103.7 107.1C103.7 107.8 103.9 108.5 104.2 109C102.1 109.1 100.4 110.9 100.4 113C100.4 113.4 100.5 113.8 100.6 114.2C100.5 114.2 100.5 114.2 100.4 114.2C98.1001 114.2 96.2001 116.1 96.2001 118.4C96.2001 118.5 96.2001 118.6 96.2001 118.7C96.0001 118.7 95.8001 118.6 95.5001 118.6C93.3001 118.6 91.5001 120.2 91.2001 122.4C90.8001 122.3 90.4001 122.2 90.0001 122.2C88.2001 122.2 86.6001 123.3 85.9001 124.8C85.0001 124.1 83.8001 123.7 82.6001 124C81.3001 124.3 80.2001 125.1 79.7001 126.3C78.8001 125.4 77.5001 124.9 76.2001 125C74.9001 125.2 73.8001 126 73.2001 127.1C72.5001 126.2 71.3001 125.6 70.1001 125.6C68.9001 125.6 67.9001 126.1 67.1001 126.9C66.6001 125.9 65.7001 125 64.6001 124.7C63.4001 124.3 62.1001 124.6 61.1001 125.3C60.8001 124.1 60.1001 123.1 58.9001 122.5C57.8001 122 56.5001 122 55.5001 122.5C55.5001 121.4 55.0001 120.2 54.0001 119.5C53.1001 118.8 51.9001 118.5 50.8001 118.7C51.1001 117.6 50.8001 116.4 50.1001 115.4C49.3001 114.4 48.1001 113.8 46.9001 113.8C47.4001 112.7 47.4001 111.4 46.8001 110.3C46.3001 109.3 45.3001 108.6 44.3001 108.3C45.0001 107.5 45.3001 106.3 45.1001 105.2C44.9001 104 44.1001 102.9 43.1001 102.3C44.1001 101.5 44.7001 100.4 44.7001 99C44.7001 97.8 44.2001 96.7 43.3001 96C44.3001 95.5 45.1001 94.6 45.4001 93.4C45.7001 92.2 45.4001 91 44.8001 90.1C45.9001 89.9 46.8001 89.2 47.4001 88.2C48.0001 87.1 48.1001 85.9 47.7001 84.8C48.9001 84.9 50.1001 84.4 50.9001 83.5C51.7001 82.6 52.1001 81.4 51.9001 80.2C53.0001 80.5 54.2001 80.3 55.2001 79.6C56.2001 78.9 56.8001 77.8 56.9001 76.7C57.9001 77.2 59.2001 77.3 60.3001 76.9C61.4001 76.4 62.2001 75.6 62.5001 74.6C63.3001 75.3 64.4001 75.7 65.6001 75.6C66.9001 75.5 68.0001 74.8 68.6001 73.7C69.3001 74.7 70.3001 75.3 71.6001 75.4C72.8001 75.5 73.9001 75 74.7001 74.3C75.1001 75.4 76.0001 76.2 77.2001 76.6C78.4001 77 79.7001 76.8 80.7001 76.1C80.9001 77.3 81.6001 78.3 82.7001 78.9C83.6001 79.4 84.6001 79.5 85.6001 79.3C85.7001 79.5 85.8001 79.6 85.9001 79.7C86.0001 80.6 86.3001 81.4 86.9001 82.1L87.0001 82.2C89.1001 84.4 93.8001 89.6 92.9001 96.6C92.7001 98.3 93.7001 99.2 94.9001 97.9C102.5 89.7 101.3 79.7 101.1 78.5C101.1 77.7 100.9 77 100.6 76.3C100.7 75.9 100.7 75.4 100.7 75C100.7 72.9 99.7001 71 98.1001 69.8C98.2001 69.4 98.2001 69 98.2001 68.6C98.2001 66 96.6001 63.8 94.3001 62.8C94.2001 59.9 92.1001 57.5 89.3001 57C88.8001 54.4 86.5001 52.4 83.7001 52.4C83.6001 52.4 83.5001 52.4 83.4001 52.4C82.7001 50.3 80.7001 48.7 78.3001 48.7C77.8001 48.7 77.4001 48.8 77.0001 48.9C76.2001 47.1 74.4001 45.9 72.4001 45.9C71.6001 45.9 70.8001 46.1 70.2001 46.4C69.4001 45 67.8001 44 66.1001 44C65.0001 44 63.9001 44.4 63.1001 45C62.3001 43.9 61.0001 43.1 59.5001 43.1C58.1001 43.1 56.8001 43.8 56.0001 44.8C55.2001 43.9 54.1001 43.3 52.8001 43.3C51.1001 43.3 49.7001 44.3 49.0001 45.7C48.3001 44.9 47.3001 44.4 46.1001 44.4C44.1001 44.4 42.5001 45.9 42.3001 47.8C41.7001 47 40.7001 46.4 39.6001 46.4C37.7001 46.4 36.2001 47.9 36.2001 49.8C35.8001 52.5 37.4001 54 39.3001 54Z" fill="white"/>
<path d="M16.1 143.1C16 143.1 15.8 143.2 15.8 143.4C15.8 143.5 15.9 143.7 16.1 143.7C16.3 143.7 16.4001 143.6 16.4001 143.4C16.3001 143.2 16.2 143.1 16.1 143.1Z" fill="white"/>
<path d="M13 136.9C12.7 136.9 12.5 137.1 12.5 137.4C12.5 137.7 12.7 137.9 13 137.9C13.3 137.9 13.5 137.7 13.5 137.4C13.5 137.1 13.2 136.9 13 136.9Z" fill="white"/>
<path d="M10.5001 130.4C10.1001 130.4 9.70007 130.8 9.70007 131.2C9.70007 131.6 10.1001 132 10.5001 132C10.9001 132 11.3001 131.6 11.3001 131.2C11.3001 130.8 10.9001 130.4 10.5001 130.4Z" fill="white"/>
<path d="M8.7001 123.7C8.1001 123.7 7.6001 124.2 7.6001 124.8C7.6001 125.4 8.1001 125.9 8.7001 125.9C9.3001 125.9 9.8001 125.4 9.8001 124.8C9.7001 124.1 9.2001 123.7 8.7001 123.7Z" fill="white"/>
<path d="M8.90005 118.1C8.90005 117.4 8.30005 116.8 7.60005 116.8C6.90005 116.8 6.30005 117.4 6.30005 118.1C6.30005 118.8 6.90005 119.4 7.60005 119.4C8.30005 119.4 8.90005 118.8 8.90005 118.1Z" fill="white"/>
<path d="M8.7 111.4C8.7 110.5 8 109.8 7.1 109.8C6.2 109.8 5.5 110.5 5.5 111.4C5.5 112.3 6.2 113 7.1 113C8 113 8.7 112.3 8.7 111.4Z" fill="white"/>
<path d="M5.5 104.7C5.5 105.7 6.3 106.6 7.4 106.6C8.4 106.6 9.3 105.8 9.3 104.7C9.3 103.7 8.5 102.8 7.4 102.8C6.4 102.8 5.5 103.7 5.5 104.7Z" fill="white"/>
<path d="M8.40005 100.2C9.60005 100.2 10.5 99.2 10.5 98.1C10.5 96.9 9.50005 96 8.40005 96C7.20005 96 6.30005 97 6.30005 98.1C6.30005 99.2 7.20005 100.2 8.40005 100.2Z" fill="white"/>
<path d="M10.3 89.2C9.00002 89.2 7.90002 90.2999 7.90002 91.5999C7.90002 92.8999 9.00002 93.9999 10.3 93.9999C11.6 93.9999 12.7 92.8999 12.7 91.5999C12.7 90.2999 11.6 89.2 10.3 89.2Z" fill="white"/>
<path d="M12.9001 88.0999C14.4001 88.0999 15.6001 86.8999 15.6001 85.3999C15.6001 83.8999 14.4001 82.7 12.9001 82.7C11.4001 82.7 10.2001 83.8999 10.2001 85.3999C10.3001 86.8999 11.5001 88.0999 12.9001 88.0999Z" fill="white"/>
<path d="M16.4 82.5999C18 82.5999 19.3 81.3 19.3 79.7C19.3 78.1 18 76.7999 16.4 76.7999C14.8 76.7999 13.5 78.1 13.5 79.7C13.5 81.3 14.8 82.5999 16.4 82.5999Z" fill="white"/>
<path d="M23.8 74.3999C23.8 72.5999 22.4 71.2 20.6 71.2C18.8 71.2 17.4 72.5999 17.4 74.3999C17.4 76.1999 18.8 77.5999 20.6 77.5999C22.3 77.5999 23.8 76.1999 23.8 74.3999Z" fill="white"/>
<path d="M188.6 125.6C185.1 125.6 181.8 124.9 178.7 123.6C175.6 122.3 172.9 120.4 170.6 118.1C168.3 115.8 166.5 113.1 165.2 110C163.9 106.9 163.2 103.6 163.2 100.1C163.2 96.6 163.9 93.2 165.2 90.1C166.5 87 168.3 84.3 170.6 82C172.9 79.7 175.6 77.8 178.7 76.5C181.8 75.1 185.1 74.5 188.6 74.5C192.1 74.5 195.5 75.2 198.6 76.6C201.7 78 204.4 79.9 206.8 82.3C207.3 82.8 207.7 83.4 207.9 84.2C208.2 85.1 208.1 85.9 207.6 86.7C207 87.6 206.2 88 205.1 88.1C203.9 88.1 203.1 87.8 202.4 87.1C200.7 85.6 198.5 84.2 196.1 82.9C193.8 81.7 191.2 81.1 188.6 81.1C186 81.1 183.5 81.6 181.2 82.6C178.9 83.6 176.9 85 175.2 86.7C173.5 88.5 172.2 90.5 171.2 92.8C170.2 95.1 169.7 97.6 169.7 100.2C169.7 102.8 170.2 105.3 171.2 107.6C172.2 109.9 173.5 111.9 175.2 113.6C176.9 115.3 178.9 116.7 181.2 117.7C183.5 118.7 186 119.2 188.6 119.2C191.3 119.2 193.9 118.7 196.3 117.6C198.7 116.6 200.7 115.1 202.5 113.2C203 112.6 203.7 112.2 204.5 112C204.8 111.9 205 111.9 205.3 111.9C205.9 111.9 206.5 112.1 207 112.4C207.8 113.1 208.2 114 208.2 115C208.2 116 207.9 116.9 207.3 117.6C205 120.2 202.2 122.2 199 123.6C195.8 124.8 192.3 125.6 188.6 125.6Z" fill="white"/>
<path d="M241.8 125.5C238.3 125.5 235 124.8 231.9 123.5C228.8 122.2 226.1 120.3 223.8 118.1C221.5 115.8 219.7 113.1 218.4 110C217.1 106.9 216.4 103.6 216.4 100.1C216.4 96.6 217.1 93.3 218.4 90.2C219.7 87.1 221.6 84.4 223.8 82.1C226.1 79.8 228.8 78 231.9 76.6C235 75.3 238.3 74.6 241.8 74.6C245.3 74.6 248.6 75.3 251.7 76.6C254.8 77.9 257.5 79.8 259.8 82.1C262.1 84.4 263.9 87.1 265.3 90.2C266.6 93.3 267.3 96.6 267.3 100.1C267.3 103.6 266.6 106.9 265.3 110C264 113.1 262.1 115.8 259.8 118.1C257.5 120.4 254.8 122.2 251.7 123.5C248.6 124.8 245.3 125.5 241.8 125.5ZM241.8 81.1C239.2 81.1 236.7 81.6 234.4 82.6C232.1 83.6 230.1 84.9 228.4 86.6C226.7 88.3 225.3 90.4 224.4 92.7C223.4 95 222.9 97.5 222.9 100.1C222.9 102.7 223.4 105.2 224.4 107.5C225.4 109.8 226.7 111.8 228.4 113.5C230.1 115.2 232.1 116.5 234.4 117.5C236.7 118.5 239.2 119 241.8 119C244.4 119 246.9 118.5 249.2 117.5C251.5 116.5 253.5 115.2 255.2 113.5C256.9 111.8 258.3 109.8 259.3 107.5C260.3 105.2 260.8 102.7 260.8 100.1C260.8 97.5 260.3 95 259.3 92.7C258.3 90.4 257 88.4 255.2 86.6C253.5 84.9 251.5 83.5 249.2 82.6C246.9 81.6 244.4 81.1 241.8 81.1Z" fill="white"/>
<path d="M312.3 125.6C311.4 125.6 310.6 125.3 310 124.6C309.4 124 309 123.2 309 122.3V93.2C309 91.5 308.7 89.9999 308 88.4999C307.4 86.9999 306.5 85.6999 305.3 84.5999C304.2 83.4999 302.8 82.5999 301.4 81.8999C299.9 81.2999 298.3 80.8999 296.7 80.8999C295 80.8999 293.4 81.1999 292 81.8999C290.5 82.4999 289.2 83.3999 288.1 84.5999C287 85.6999 286.1 87.0999 285.5 88.4999C284.9 89.9999 284.5 91.6 284.5 93.2V122.3C284.5 123.2 284.2 124 283.5 124.6C282.9 125.2 282.1 125.5 281.2 125.5C280.3 125.5 279.5 125.2 278.9 124.5C278.3 123.9 277.9 123.1 277.9 122.2V93.0999C277.9 90.4999 278.4 88.0999 279.4 85.7999C280.4 83.4999 281.7 81.4999 283.4 79.7999C285.1 78.0999 287.1 76.6999 289.4 75.7999C291.7 74.7999 294.1 74.2999 296.7 74.2999C299.3 74.2999 301.7 74.7999 304 75.7999C306.3 76.7999 308.3 78.0999 310 79.7999C311.7 81.4999 313.1 83.4999 314 85.7999C315 88.0999 315.5 90.5999 315.5 93.0999V122.2C315.5 123.1 315.2 123.9 314.6 124.5C314 125.3 313.2 125.6 312.3 125.6Z" fill="white"/>
<path d="M344.5 125.6C342 125.6 339.6 125.2 337.4 124.4C335.2 123.6 333.2 122.5 331.6 121C329.9 119.6 328.6 117.9 327.6 116C326.6 114.1 326.2 112 326.2 109.8C326.2 109 326.5 108.2 327.1 107.6C327.7 107 328.5 106.7 329.3 106.7C330.2 106.7 330.9 107 331.5 107.6C332.1 108.2 332.4 108.9 332.4 109.8C332.4 111.1 332.7 112.3 333.3 113.4C333.9 114.5 334.7 115.5 335.8 116.4C336.9 117.2 338.1 117.9 339.6 118.4C341.1 118.9 342.7 119.2 344.4 119.2C346.1 119.2 347.7 118.9 349.2 118.4C350.7 117.9 352 117.2 353.1 116.3C354.2 115.5 355.1 114.5 355.7 113.3C356.3 112.2 356.5 111 356.5 109.7C356.4 108.5 356 107.4 355.4 106.4C354.7 105.3 353.9 104.4 352.8 103.5C351.8 102.7 350.5 102 349.1 101.4C347.7 100.8 346.3 100.4 344.7 100.2C342.5 100.1 340.4 99.6 338.3 98.9C336.3 98.2 334.4 97.3 332.9 96.2C331.3 95.1 330 93.8 329.1 92.3C328.1 90.8 327.6 89 327.6 87.2C327.6 85.3 328.1 83.6 329 82C329.9 80.4 331.2 79 332.7 77.9C334.2 76.7 336.1 75.8 338.2 75.1C340.3 74.4 342.5 74.1 344.8 74.1C347.1 74.1 349.4 74.4 351.4 75.1C353.5 75.8 355.3 76.7 356.9 77.9C358.5 79.1 359.7 80.5 360.6 82C361.5 83.6 362 85.3 362 87.2C362 88.1 361.7 88.9 361 89.5C360.4 90.1 359.6 90.5 358.7 90.5C357.8 90.5 357 90.2 356.4 89.5C355.8 88.9 355.5 88 355.4 87C355.4 86.2 355.1 85.5 354.6 84.8C354 84 353.3 83.4 352.3 82.8C351.3 82.2 350.2 81.7 348.9 81.3C347.6 80.9 346.2 80.8 344.7 80.8C343.2 80.8 341.8 81 340.4 81.3C339.1 81.7 337.9 82.1 337 82.8C336.1 83.4 335.3 84.1 334.8 85C334.3 85.8 334 86.6 334 87.4C334 88.2 334.3 88.9 334.9 89.6C335.6 90.4 336.5 91 337.5 91.6C338.6 92.2 339.8 92.7 341.1 93.1C342.4 93.5 343.6 93.8 344.7 93.9C347.1 94.2 349.4 94.7 351.6 95.6C353.8 96.5 355.7 97.6 357.3 98.9C358.9 100.3 360.2 101.9 361.2 103.7C362.1 105.5 362.6 107.6 362.6 109.7C362.6 111.9 362.1 114 361.2 115.9C360.3 117.8 358.9 119.5 357.2 120.9C355.5 122.3 353.6 123.4 351.4 124.2C349.4 125.2 347 125.6 344.5 125.6Z" fill="white"/>
<path d="M377.5 125.6C376.6 125.6 375.8 125.3 375.2 124.6C374.6 124 374.2 123.2 374.2 122.3V77.5999C374.2 76.6999 374.5 75.8999 375.2 75.2999C375.8 74.6999 376.6 74.2999 377.5 74.2999H404.8C405.7 74.2999 406.5 74.5999 407.1 75.2999C407.7 75.8999 408 76.6999 408 77.5999C408 78.4999 407.7 79.2999 407.1 79.8999C406.5 80.4999 405.7 80.8999 404.8 80.8999H380.8V96.5999H397.8C398.7 96.5999 399.5 96.8999 400.1 97.5999C400.7 98.1999 401.1 98.9999 401.1 99.8999C401.1 100.8 400.8 101.6 400.1 102.2C399.5 102.8 398.7 103.1 397.8 103.1H380.8V119.1H404.8C405.7 119.1 406.5 119.4 407.1 120.1C407.7 120.7 408 121.5 408 122.4C408 123.3 407.7 124.1 407.1 124.7C406.5 125.3 405.7 125.7 404.8 125.7H377.5V125.6Z" fill="white"/>
<path d="M451.2 125.6C450.3 125.6 449.5 125.3 448.9 124.7C448.3 124.1 447.9 123.3 447.9 122.4V93.3C447.9 91.6 447.6 90.1 446.9 88.6C446.3 87.1 445.4 85.8 444.2 84.7C443.1 83.6 441.7 82.7 440.3 82C438.8 81.4 437.2 81 435.6 81C433.9 81 432.3 81.3 430.9 82C429.4 82.6 428.1 83.5 427 84.7C425.9 85.8 425 87.2 424.4 88.6C423.8 90.1 423.4 91.7 423.4 93.3V122.4C423.4 123.3 423.1 124.1 422.4 124.7C421.8 125.3 421 125.6 420.1 125.6C419.2 125.6 418.4 125.3 417.8 124.7C417.2 124.1 416.9 123.3 416.9 122.4V93.3C416.9 90.7 417.4 88.3 418.4 86C419.4 83.7 420.7 81.7 422.4 80C424.1 78.3 426.1 76.9 428.4 76C430.7 75 433.2 74.5 435.7 74.5C438.3 74.5 440.7 75 443 76C445.2 77 447.3 78.3 449 80C450.7 81.7 452.1 83.7 453 86C454 88.3 454.5 90.8 454.5 93.3V122.4C454.5 123.3 454.2 124.1 453.6 124.7C452.9 125.3 452.1 125.6 451.2 125.6Z" fill="white"/>
<path d="M483.4 125.6C480.9 125.6 478.5 125.2 476.3 124.4C474.1 123.6 472.1 122.5 470.5 121C468.8 119.6 467.5 117.9 466.5 116C465.5 114.1 465.1 112 465.1 109.8C465.1 109 465.4 108.2 466 107.6C466.6 107 467.4 106.7 468.2 106.7C469.1 106.7 469.8 107 470.4 107.6C471 108.2 471.3 109 471.3 109.8C471.3 111.1 471.6 112.3 472.2 113.4C472.8 114.5 473.6 115.6 474.7 116.4C475.8 117.3 477.1 117.9 478.5 118.5C480 119 481.6 119.3 483.3 119.3C485 119.3 486.6 119 488.1 118.5C489.6 118 490.9 117.3 492 116.4C493.1 115.6 494 114.5 494.6 113.4C495.2 112.3 495.4 111.1 495.3 109.8C495.2 108.6 494.8 107.5 494.2 106.5C493.5 105.4 492.7 104.5 491.6 103.6C490.6 102.8 489.3 102.1 487.9 101.5C486.5 100.9 485.1 100.5 483.5 100.3C481.3 100.2 479.2 99.6999 477.2 98.9999C475.2 98.2999 473.3 97.3999 471.8 96.2999C470.2 95.1999 468.9 93.8999 468 92.3999C467 90.8999 466.5 89.0999 466.5 87.2999C466.5 85.4999 467 83.6999 467.9 82.0999C468.8 80.4999 470.1 79.0999 471.7 77.9999C473.3 76.7999 475.1 75.9 477.1 75.2C479.2 74.5 481.4 74.2 483.7 74.2C486 74.2 488.3 74.5 490.3 75.2C492.4 75.9 494.2 76.7999 495.8 77.9999C497.4 79.1999 498.6 80.5999 499.5 82.0999C500.4 83.6999 500.9 85.4999 500.9 87.2999C500.9 88.1999 500.6 88.9999 499.9 89.5999C499.3 90.1999 498.5 90.5999 497.6 90.5999C496.7 90.5999 495.9 90.2999 495.3 89.5999C494.7 88.9999 494.4 88.0999 494.4 87.0999C494.4 86.2999 494.1 85.5999 493.6 84.8999C493.1 84.0999 492.3 83.4999 491.3 82.8999C490.3 82.2999 489.2 81.7999 487.9 81.3999C486.6 80.9999 485.2 80.8999 483.7 80.8999C482.2 80.8999 480.8 81.0999 479.4 81.3999C478.1 81.7999 476.9 82.1999 476 82.8999C475.1 83.4999 474.3 84.1999 473.8 85.0999C473.3 85.8999 473 86.6999 473 87.4999C473 88.2999 473.3 89 473.9 89.7C474.6 90.5 475.5 91.1 476.5 91.7C477.6 92.3 478.8 92.8 480.1 93.2C481.3 93.6 482.6 93.8999 483.7 93.9999C486.1 94.2999 488.4 94.8 490.6 95.7C492.8 96.6 494.7 97.6999 496.3 98.9999C497.9 100.4 499.2 102 500.1 103.8C501 105.6 501.5 107.7 501.5 109.8C501.5 112 501 114.1 500.1 116C499.2 117.9 497.8 119.6 496.1 121C494.4 122.4 492.5 123.5 490.3 124.3C488.3 125.2 485.9 125.6 483.4 125.6Z" fill="white"/>
<path d="M532.7 125.6C531.8 125.6 531 125.3 530.4 124.7C529.8 124.1 529.4 123.3 529.4 122.4V105.7L509.2 79.6999C508.7 78.9999 508.4 78.1999 508.5 77.2999C508.6 76.3999 509 75.6999 509.7 75.0999C510.3 74.5999 511 74.3999 511.8 74.3999C512.9 74.4999 513.7 74.8999 514.3 75.5999L532.8 99.2999L551.6 75.5999C552.2 74.8999 552.9 74.4999 553.8 74.3999H553.9C554.9 74.3999 555.6 74.5999 556.2 75.0999C556.9 75.6999 557.3 76.3999 557.4 77.2999C557.5 78.1999 557.2 78.9999 556.7 79.6999L536.2 105.7V122.4C536.2 123.3 535.9 124.1 535.3 124.7C534.4 125.3 533.6 125.6 532.7 125.6Z" fill="white"/>
<path d="M581.9 125.6C579.4 125.6 577 125.2 574.8 124.4C572.6 123.6 570.6 122.5 569 121C567.3 119.6 566 117.9 565 116C564 114.1 563.6 112 563.6 109.8C563.6 109 563.9 108.2 564.5 107.6C565.1 107 565.9 106.7 566.7 106.7C567.5 106.7 568.3 107 568.9 107.6C569.5 108.2 569.8 109 569.8 109.8C569.8 111.1 570.1 112.3 570.7 113.4C571.3 114.5 572.1 115.5 573.2 116.4C574.3 117.2 575.6 117.9 577 118.4C578.5 118.9 580.1 119.2 581.8 119.2C583.5 119.2 585.1 118.9 586.6 118.4C588.1 117.9 589.4 117.2 590.5 116.3C591.6 115.5 592.5 114.4 593.1 113.3C593.7 112.2 593.9 111 593.8 109.7C593.7 108.5 593.3 107.4 592.7 106.4C592 105.3 591.2 104.4 590.1 103.5C589.1 102.7 587.8 102 586.4 101.4C585 100.8 583.6 100.4 582 100.2C579.8 100.1 577.7 99.6 575.6 98.9C573.6 98.2 571.7 97.3 570.2 96.2C568.6 95.1 567.3 93.8 566.4 92.3C565.4 90.8 564.9 89 564.9 87.2C564.9 85.4 565.4 83.6 566.3 82C567.2 80.4 568.5 79 570.1 77.9C571.6 76.7 573.5 75.8 575.5 75.1C577.6 74.4 579.8 74.1 582.1 74.1C584.4 74.1 586.7 74.4 588.7 75.1C590.8 75.8 592.6 76.7 594.1 77.9C595.7 79.1 596.9 80.4 597.9 82C598.8 83.6 599.3 85.4 599.3 87.2C599.3 88.1 599 88.9 598.3 89.5C597.7 90.1 596.9 90.5 596 90.5C595.1 90.5 594.3 90.2 593.7 89.5C593.1 88.9 592.8 88 592.7 87C592.7 86.2 592.4 85.5 591.9 84.8C591.3 84 590.6 83.4 589.6 82.8C588.6 82.2 587.5 81.7 586.2 81.3C584.9 80.9 583.5 80.8 582 80.8C580.5 80.8 579.1 81 577.7 81.3C576.4 81.7 575.2 82.1 574.3 82.8C573.4 83.4 572.6 84.1 572.1 85C571.6 85.8 571.3 86.6 571.3 87.4C571.3 88.2 571.6 88.9 572.2 89.6C572.9 90.4 573.8 91 574.8 91.6C575.9 92.2 577.1 92.7 578.4 93.1C579.7 93.5 580.9 93.8 582 93.9C584.4 94.2 586.7 94.7 588.9 95.6C591.1 96.5 593 97.6 594.6 98.9C596.2 100.3 597.5 101.9 598.4 103.7C599.3 105.5 599.8 107.5 599.8 109.7C599.8 111.9 599.3 114 598.4 115.9C597.5 117.8 596.1 119.5 594.4 120.9C592.7 122.3 590.8 123.4 588.6 124.2C586.8 125.2 584.4 125.6 581.9 125.6Z" fill="white"/>
</g>
<defs>
<clipPath id="clip0_613_5">
<rect width="600" height="136" fill="white" transform="translate(0 32)"/>
</clipPath>
</defs>
</svg>
