<svg width="1080" height="271" viewBox="0 0 1080 271" fill="none" xmlns="http://www.w3.org/2000/svg">
<g clip-path="url(#clip0_506_2)">
<path d="M306.2 155.7C306.184 156.641 305.797 157.537 305.122 158.193C304.448 158.849 303.541 159.211 302.6 159.2H236.3C238 175.6 250.3 190.6 267.7 190.6C279.6 190.6 288.4 186.1 295 176.6C295.307 176.101 295.732 175.685 296.238 175.388C296.744 175.092 297.314 174.924 297.9 174.9C298.337 174.888 298.771 174.964 299.177 175.126C299.583 175.287 299.952 175.53 300.261 175.839C300.57 176.148 300.813 176.517 300.974 176.923C301.136 177.329 301.212 177.763 301.2 178.2C301.202 178.803 301.029 179.394 300.7 179.9C294 191.5 280.7 197.2 267.7 197.2C245.4 197.2 229.4 177.2 229.4 155.9C229.4 134.6 245.3 114.6 267.7 114.6C290.1 114.6 306.1 134.4 306.2 155.7ZM299.1 152.6C297.7 136.2 285.1 121.2 267.7 121.2C250.3 121.2 238 136.2 236.3 152.6H299.1Z" fill="white"/>
<path d="M386.8 116.2C387.667 116.225 388.492 116.581 389.106 117.194C389.719 117.808 390.075 118.633 390.1 119.5C390.112 119.937 390.036 120.371 389.874 120.777C389.713 121.183 389.47 121.552 389.161 121.861C388.852 122.17 388.483 122.413 388.077 122.574C387.671 122.736 387.237 122.812 386.8 122.8H369V192.7C368.992 193.573 368.642 194.408 368.025 195.025C367.408 195.642 366.573 195.992 365.7 196C364.833 195.975 364.008 195.619 363.394 195.006C362.781 194.392 362.425 193.567 362.4 192.7V122.8H345.3C344.863 122.812 344.429 122.736 344.023 122.574C343.617 122.413 343.248 122.17 342.939 121.861C342.63 121.552 342.387 121.183 342.226 120.777C342.064 120.371 341.988 119.937 342 119.5C342.008 118.627 342.358 117.792 342.975 117.175C343.592 116.558 344.427 116.208 345.3 116.2H362.4V90.7C362.402 89.855 362.705 89.0384 363.255 88.3968C363.804 87.7553 364.565 87.3309 365.4 87.2C365.867 87.138 366.341 87.1775 366.791 87.3158C367.241 87.454 367.656 87.6878 368.007 88.0011C368.358 88.3144 368.638 88.6999 368.826 89.1312C369.015 89.5624 369.108 90.0293 369.1 90.5V116.2H386.8Z" fill="white"/>
<path d="M495.3 150V192.3C495.275 193.167 494.919 193.992 494.306 194.606C493.692 195.219 492.867 195.575 492 195.6C491.563 195.612 491.129 195.536 490.723 195.374C490.317 195.213 489.948 194.97 489.639 194.661C489.33 194.352 489.087 193.983 488.926 193.577C488.764 193.171 488.688 192.737 488.7 192.3V150C488.7 135.7 480.6 121.5 464.7 121.5C444.3 121.5 435.5 139.3 436.7 157.6C436.7 158.1 436.9 160.2 436.9 160.5V192.2C436.898 193.045 436.595 193.862 436.045 194.503C435.495 195.145 434.735 195.569 433.9 195.7C433.433 195.762 432.959 195.722 432.509 195.584C432.059 195.446 431.644 195.212 431.293 194.899C430.942 194.586 430.662 194.2 430.473 193.769C430.285 193.338 430.192 192.871 430.2 192.4V53.3C430.208 52.4272 430.558 51.5924 431.175 50.9752C431.792 50.358 432.627 50.0078 433.5 50C434.367 50.0252 435.192 50.3809 435.806 50.9944C436.419 51.6079 436.775 52.4327 436.8 53.3V131.9C442.5 121.7 452.7 114.8 464.6 114.8C484.2 114.8 495.3 131.9 495.3 150Z" fill="white"/>
<path d="M614.4 155.7C614.384 156.641 613.997 157.537 613.322 158.193C612.648 158.849 611.741 159.211 610.8 159.2H544.5C546.2 175.6 558.5 190.6 575.9 190.6C587.8 190.6 596.6 186.1 603.2 176.6C603.507 176.101 603.932 175.685 604.438 175.388C604.944 175.092 605.514 174.924 606.1 174.9C606.537 174.888 606.971 174.964 607.377 175.126C607.783 175.287 608.152 175.53 608.461 175.839C608.77 176.148 609.013 176.517 609.174 176.923C609.336 177.329 609.412 177.763 609.4 178.2C609.402 178.803 609.229 179.394 608.9 179.9C602.2 191.5 588.9 197.2 575.9 197.2C553.6 197.2 537.6 177.2 537.6 155.9C537.6 134.6 553.5 114.6 575.9 114.6C598.1 114.6 614.3 134.4 614.4 155.7ZM607.2 152.6C605.8 136.2 593.2 121.2 575.8 121.2C558.4 121.2 546.1 136.2 544.4 152.6H607.2Z" fill="white"/>
<path d="M695.9 119.3C695.963 120.188 695.673 121.065 695.092 121.739C694.511 122.414 693.687 122.831 692.8 122.9C673.3 125.8 664.5 141.7 664.5 160.2V191.9C664.498 192.745 664.195 193.562 663.645 194.203C663.095 194.845 662.335 195.269 661.5 195.4C661.033 195.462 660.559 195.422 660.109 195.284C659.659 195.146 659.244 194.912 658.893 194.599C658.542 194.286 658.262 193.9 658.073 193.469C657.885 193.038 657.792 192.571 657.8 192.1V119.8C657.802 118.955 658.105 118.138 658.655 117.497C659.204 116.855 659.965 116.431 660.8 116.3C661.267 116.238 661.741 116.278 662.191 116.416C662.641 116.554 663.056 116.788 663.407 117.101C663.758 117.414 664.038 117.8 664.226 118.231C664.415 118.662 664.508 119.129 664.5 119.6V134.3C670 125 680.9 116.2 692.3 116.2C694 116.2 695.9 117.4 695.9 119.3Z" fill="white"/>
<path d="M804.9 155.7C804.884 156.641 804.497 157.537 803.822 158.193C803.148 158.849 802.241 159.211 801.3 159.2H735C736.7 175.6 749 190.6 766.4 190.6C778.3 190.6 787.1 186.1 793.7 176.6C794.007 176.101 794.432 175.685 794.938 175.388C795.444 175.092 796.014 174.924 796.6 174.9C797.037 174.888 797.471 174.964 797.877 175.126C798.283 175.287 798.652 175.53 798.961 175.839C799.27 176.148 799.513 176.517 799.674 176.923C799.836 177.329 799.912 177.763 799.9 178.2C799.902 178.803 799.729 179.394 799.4 179.9C792.7 191.5 779.4 197.2 766.4 197.2C744.1 197.2 728.1 177.2 728.1 155.9C728.1 134.6 744 114.6 766.4 114.6C788.8 114.6 804.8 134.4 804.9 155.7ZM797.8 152.6C796.4 136.2 783.8 121.2 766.4 121.2C749 121.2 736.7 136.2 735 152.6H797.8Z" fill="white"/>
<path d="M912.1 120.1V192.7C912.075 193.567 911.719 194.392 911.106 195.006C910.492 195.619 909.667 195.975 908.8 196C908.363 196.012 907.929 195.936 907.523 195.774C907.117 195.613 906.748 195.37 906.439 195.061C906.13 194.752 905.887 194.383 905.726 193.977C905.564 193.571 905.488 193.137 905.5 192.7V178.9C900 189.8 890.3 197.7 877.9 197.7C858.2 197.7 847.3 180.6 847.3 162.5V120C847.308 119.127 847.658 118.292 848.275 117.675C848.892 117.058 849.727 116.708 850.6 116.7C851.467 116.725 852.292 117.081 852.906 117.694C853.519 118.308 853.875 119.133 853.9 120V162.5C853.9 176.8 862 191 877.9 191C900.2 191 905.5 170.1 905.5 147V119.9C905.507 119.365 905.643 118.84 905.895 118.368C906.147 117.896 906.509 117.491 906.949 117.188C907.39 116.884 907.897 116.69 908.427 116.623C908.958 116.556 909.497 116.616 910 116.8C910.629 117.092 911.16 117.558 911.532 118.143C911.905 118.728 912.102 119.407 912.1 120.1Z" fill="white"/>
<path d="M1080 149.7V192.2C1079.97 193.067 1079.62 193.892 1079.01 194.506C1078.39 195.119 1077.57 195.475 1076.7 195.5C1076.26 195.512 1075.83 195.436 1075.42 195.274C1075.02 195.113 1074.65 194.87 1074.34 194.561C1074.03 194.252 1073.79 193.883 1073.63 193.477C1073.46 193.071 1073.39 192.637 1073.4 192.2V149.7C1073.4 135.4 1065.3 121.4 1049.4 121.4C1029.4 121.4 1021.8 142.8 1021.8 159.4V192.2C1021.77 193.067 1021.42 193.892 1020.81 194.506C1020.19 195.119 1019.37 195.475 1018.5 195.5C1018.06 195.512 1017.63 195.436 1017.22 195.274C1016.82 195.113 1016.45 194.87 1016.14 194.561C1015.83 194.252 1015.59 193.883 1015.43 193.477C1015.26 193.071 1015.19 192.637 1015.2 192.2V149.7C1015.2 135.4 1007.1 121.4 991.2 121.4C971 121.4 962.7 137.3 963.4 158.5C963.4 159 963.6 159.9 963.4 160.2V192.1C963.398 192.945 963.095 193.762 962.545 194.403C961.995 195.045 961.235 195.469 960.4 195.6C959.933 195.662 959.459 195.622 959.009 195.484C958.559 195.346 958.144 195.112 957.793 194.799C957.442 194.486 957.162 194.1 956.973 193.669C956.785 193.238 956.692 192.771 956.7 192.3V119.8C956.702 118.955 957.005 118.138 957.555 117.497C958.104 116.855 958.865 116.431 959.7 116.3C960.167 116.238 960.641 116.278 961.091 116.416C961.541 116.554 961.956 116.788 962.307 117.101C962.658 117.414 962.938 117.8 963.126 118.231C963.315 118.662 963.408 119.129 963.4 119.6V131.7C969.1 121.5 979.3 114.8 991.2 114.8C1004.7 114.8 1015.2 123.4 1019.5 135.9C1025 123.5 1035.7 114.8 1049.4 114.8C1068.9 114.8 1080 131.7 1080 149.7Z" fill="white"/>
<path opacity="0.6" d="M83 100.1L0 137.8L83 186.9L166.1 137.8L83 100.1Z" fill="black"/>
<path opacity="0.45" d="M0 137.8L83 186.9V0L0 137.8Z" fill="white"/>
<path opacity="0.8" d="M83 0V186.9L166.1 137.8L83 0Z" fill="white"/>
<path opacity="0.45" d="M0 153.6L83 270.6V202.6L0 153.6Z" fill="#DEDEDE"/>
<path opacity="0.8" d="M83 202.6V270.6L166.1 153.6L83 202.6Z" fill="white"/>
</g>
<defs>
<clipPath id="clip0_506_2">
<rect width="1080" height="270.6" fill="white"/>
</clipPath>
</defs>
</svg>
