<svg data-name="Layer 1" xmlns="http://www.w3.org/2000/svg" xmlns:xlink="http://www.w3.org/1999/xlink" viewBox="0 0 591.93 164.45" class="img--contain"><defs><linearGradient id="logo_full_metal_svg__a" x1="123.51" y1="22.17" x2="138.75" y2="210.02" gradientUnits="userSpaceOnUse"><stop offset="0" stop-color="#828487"></stop><stop offset="0.26" stop-color="#c0c2c3"></stop><stop offset="0.32" stop-color="#e1e2e3"></stop><stop offset="0.37" stop-color="#fff"></stop><stop offset="0.41" stop-color="#b2b2b2"></stop><stop offset="0.45" stop-color="#737373"></stop><stop offset="0.73" stop-color="#b2b2b2"></stop><stop offset="1" stop-color="#96989b"></stop></linearGradient><linearGradient id="logo_full_metal_svg__b" x1="239.44" y1="12.77" x2="254.67" y2="200.62" xlink:href="#logo_full_metal_svg__a"></linearGradient><linearGradient id="logo_full_metal_svg__c" x1="364.97" y1="2.59" x2="380.2" y2="190.44" xlink:href="#logo_full_metal_svg__a"></linearGradient><linearGradient id="logo_full_metal_svg__d" x1="298.75" y1="7.96" x2="313.98" y2="195.81" xlink:href="#logo_full_metal_svg__a"></linearGradient><linearGradient id="logo_full_metal_svg__e" x1="425.83" y1="-2.34" x2="441.06" y2="185.51" xlink:href="#logo_full_metal_svg__a"></linearGradient><linearGradient id="logo_full_metal_svg__f" x1="521.16" y1="-10.07" x2="536.39" y2="177.78" xlink:href="#logo_full_metal_svg__a"></linearGradient><linearGradient id="logo_full_metal_svg__g" x1="176.93" y1="17.84" x2="192.16" y2="205.69" xlink:href="#logo_full_metal_svg__a"></linearGradient><linearGradient id="logo_full_metal_svg__h" x1="48.52" y1="28.26" x2="63.75" y2="216.09" xlink:href="#logo_full_metal_svg__a"></linearGradient><linearGradient id="logo_full_metal_svg__i" x1="46.58" y1="27.85" x2="61.97" y2="217.68" xlink:href="#logo_full_metal_svg__a"></linearGradient><linearGradient id="logo_full_metal_svg__j" x1="67.29" y1="26.71" x2="82.51" y2="214.44" xlink:href="#logo_full_metal_svg__a"></linearGradient><linearGradient id="logo_full_metal_svg__k" x1="56.76" y1="28.28" x2="71.92" y2="215.25" xlink:href="#logo_full_metal_svg__a"></linearGradient><linearGradient id="logo_full_metal_svg__l" x1="72.94" y1="26.25" x2="88.16" y2="213.94" xlink:href="#logo_full_metal_svg__a"></linearGradient></defs><path d="M104.14 111V54h28.66c11.13 0 17.9-3.37 19.52-4.28v17.46H120.2v13.65h30.12v13.33h-29.66V111Z" style="fill: url(&quot;#logo_full_metal_svg__a&quot;);"></path><path d="M246.09 112.33c-11.81 0-19.73-2.33-24.21-7.12-3.39-3.64-4.84-8.62-4.42-15.24h16.06c-.23 3.35.34 5.65 1.79 7.22 1.82 2 5 2.82 10.78 2.82 7.38 0 10.54-1.65 10.54-5.52 0-4.46-6.81-5.53-12.81-6.47-1.06-.17-2.1-.33-3.08-.51-12-2.13-22.81-5.06-22.81-17.3 0-11.22 10-17.66 27.33-17.66 19.2 0 25.29 9 27 13L263 78.65c0-.3-.1-.59-.16-.88-2-9.33-12.26-12.81-18.27-12.81-6.38 0-9.62 1.49-9.62 4.43 0 3.56 4.29 4.39 10.23 5.54l3.55.7c5.42 1.11 10.48 2.57 13 3.34.4.12 2 .73 2.35.91 6.92 3 10 7.34 10 14-.02 16.05-17.55 18.45-27.99 18.45Z" style="fill: url(&quot;#logo_full_metal_svg__b&quot;);"></path><path d="m383.65 111-25.48-34.7v.77c.19 3.18.28 6.37.28 10V111h-15.57V54h16.36l25.47 34.27v-.74c-.18-3.65-.28-7.11-.28-10.3V53.92H400v57Z" style="fill: url(&quot;#logo_full_metal_svg__c&quot;);"></path><path d="m322.72 111-3.38-8.39h-25.22l-3.28 8.39h-16.31l23.37-57h18.31l23.45 57ZM299 90.24h15.54l-7.92-19.92Z" style="fill: url(&quot;#logo_full_metal_svg__d&quot;);"></path><path d="m450.68 111-3.38-8.39h-25.22l-3.2 8.39H402.4l23.46-57h18.31l23.45 57Zm-23.85-20.76h15.64l-7.92-19.92Z" style="fill: url(&quot;#logo_full_metal_svg__e&quot;);"></path><path d="m575 111-3.38-8.39h-25.23L543 111h-16.29l23.36-57h18.41l23.45 57Zm-23.95-20.76h15.73l-7.92-20ZM509.17 111 498.4 91.16H486V111h-16V70c0-9-3.54-14.62-4.55-16h31.35c17.72 0 26.34 5.92 26.34 18.12 0 15.3-18.47 18.38-22.17 18.85h-.1v.44h14.4L526.08 111ZM486 79.75h8.9c6.62 0 10.22-1.58 11.13-4.93a7.37 7.37 0 0 0 .23-1.87 5.66 5.66 0 0 0-3.05-5.13 15.77 15.77 0 0 0-7.67-1.58H486Z" style="fill: url(&quot;#logo_full_metal_svg__f&quot;);"></path><path d="m200.24 111-3.47-8.39h-25.13l-3.29 8.39h-16.48l23.45-57h18.41l23.36 57Zm-23.85-20.76h15.54L184 70.32Z" style="fill: url(&quot;#logo_full_metal_svg__g&quot;);"></path><path d="M64.07 129.07C38 110.34 34.84 70.89 61.45 51.35c-9.21.42-15.14 3.28-16.66 4.16-8.26 12.81-10.17 29.86-5.17 44.49a56.51 56.51 0 0 0 33.81 34.76 53.87 53.87 0 0 1-9.36-5.69Z" style="fill: url(&quot;#logo_full_metal_svg__h&quot;);"></path><path d="M53.32 103.86c-1.79-6.43-2.2-15.29.38-22.84h-6.27C46 93.37 50 107.4 58 115.55a47.09 47.09 0 0 1-4.68-11.69Z" style="fill: url(&quot;#logo_full_metal_svg__i&quot;);"></path><path d="M43.34 15.52C6 42.7 1.42 99.05 33.77 131.71c26 27.93 72.5 31.35 102.2 7.6-44 31.32-108.38 5.38-115.06-49.1C15.46 50.77 47.1 13.4 87.49 14.68L97.7.38a78.33 78.33 0 0 0-54.36 15.14Z" style="fill: url(&quot;#logo_full_metal_svg__j&quot;);"></path><path d="M85.45 17.56c-31.65.27-58.75 26.57-60.5 58-4.07 41.71 37.09 77.73 77.87 69.71-41.1 5.72-80.63-35-68.27-75.8 5.15-19 21.33-34.47 40.78-37.63Z" style="fill: url(&quot;#logo_full_metal_svg__k&quot;);"></path><path d="M157.78 125.87c-46.55 65.22-149.27 33.55-149.86-47 0-25.3 12.34-50.05 32.78-65V.68c-46 29.81-54.85 96-17.09 136 37.89 40.81 102.46 35.57 134.87-9.15Z" style="fill: url(&quot;#logo_full_metal_svg__l&quot;);"></path></svg>