<svg width="600" height="200" viewBox="0 0 600 200" fill="none" xmlns="http://www.w3.org/2000/svg">
<g clip-path="url(#clip0_613_5)">
<path d="M128.893 125.222V74.27H154.457C164.385 74.27 170.424 71.2576 171.869 70.4442V86.0514H143.218V98.253H170.085V110.169H143.628V125.222H128.893Z" fill="url(#paint0_linear_613_5)"/>
<path d="M255.512 126.411C244.977 126.411 237.913 124.328 233.916 120.046C230.893 116.792 229.599 112.341 229.974 106.423H244.299C244.094 109.418 244.603 111.474 245.896 112.877C247.519 114.665 250.356 115.398 255.512 115.398C262.095 115.398 264.913 113.923 264.913 110.464C264.913 106.477 258.839 105.52 253.487 104.68C252.541 104.528 251.614 104.385 250.739 104.224C240.035 102.32 230.393 99.7011 230.393 88.7599C230.393 78.7305 239.313 72.9738 254.771 72.9738C271.898 72.9738 277.33 81.0188 278.855 84.5944L270.595 96.3043C270.595 96.0362 270.506 95.7769 270.453 95.5177C268.669 87.1777 259.517 84.067 254.156 84.067C248.465 84.067 245.575 85.3989 245.575 88.0269C245.575 91.2092 249.401 91.9511 254.7 92.9791L257.867 93.6048C262.701 94.597 267.215 95.9021 269.462 96.5904C269.819 96.6977 271.246 97.2429 271.559 97.4038C277.731 100.085 280.479 103.965 280.479 109.918C280.461 124.265 264.824 126.411 255.512 126.411Z" fill="url(#paint1_linear_613_5)"/>
<path d="M378.215 125.222L355.487 94.2037V94.892C355.656 97.7346 355.736 100.586 355.736 103.831V125.222H341.848V74.27H356.441L379.16 104.904V104.242C379 100.979 378.911 97.8865 378.911 95.035V74.1985H392.799V125.15L378.215 125.222Z" fill="url(#paint2_linear_613_5)"/>
<path d="M323.865 125.222L320.85 117.722H298.354L295.429 125.222H280.88L301.726 74.27H318.058L338.976 125.222H323.865ZM302.707 106.665H316.569L309.504 88.8583L302.707 106.665Z" fill="url(#paint3_linear_613_5)"/>
<path d="M438.005 125.222L434.99 117.722H412.494L409.64 125.222H394.94L415.866 74.27H432.199L453.116 125.222H438.005ZM416.731 106.665H430.682L423.617 88.8583L416.731 106.665Z" fill="url(#paint4_linear_613_5)"/>
<path d="M548.898 125.222L545.884 117.722H523.378L520.355 125.222H505.824L526.661 74.27H543.083L564 125.222H548.898ZM527.535 106.665H541.566L534.502 88.7867L527.535 106.665ZM490.178 125.222L480.571 107.487H469.511V125.222H455.239V88.5722C455.239 80.5272 452.081 75.5036 451.18 74.27H479.144C494.95 74.27 502.64 79.5618 502.64 90.4673C502.64 104.144 486.164 106.897 482.864 107.317H482.775V107.71H495.619L505.262 125.222H490.178ZM469.511 97.2876H477.449C483.355 97.2876 486.566 95.8753 487.377 92.8808C487.517 92.3347 487.586 91.7729 487.583 91.2092C487.6 90.2667 487.355 89.338 486.874 88.5278C486.394 87.7176 485.697 87.058 484.862 86.6235C482.736 85.5838 480.383 85.098 478.02 85.2112H469.511V97.2876Z" fill="url(#paint5_linear_613_5)"/>
<path d="M214.614 125.222L211.518 117.722H189.102L186.168 125.222H171.468L192.385 74.27H208.807L229.644 125.222H214.614ZM193.339 106.665H207.201L200.128 88.8583L193.339 106.665Z" fill="url(#paint6_linear_613_5)"/>
<path d="M93.1503 141.374C69.8959 124.632 67.0772 89.3678 90.8132 71.9012C82.5979 72.2766 77.3084 74.8331 75.9526 75.6198C68.5847 87.0705 66.8809 102.311 71.3409 115.389C73.7518 122.486 77.709 128.957 82.9254 134.331C88.1418 139.705 94.4865 143.849 101.499 146.46C98.5511 145.054 95.7536 143.35 93.1503 141.374Z" fill="url(#paint7_linear_613_5)"/>
<path d="M83.5613 118.839C81.9646 113.092 81.5989 105.172 83.9003 98.4229H78.3074C77.0319 109.462 80.5999 122.004 87.7358 129.289C85.8838 126.009 84.4797 122.494 83.5613 118.839Z" fill="url(#paint8_linear_613_5)"/>
<path d="M74.6592 39.8731C41.352 64.169 37.2666 114.54 66.1228 143.734C89.3147 168.7 130.793 171.757 157.285 150.528C118.037 178.524 60.6102 155.337 54.6517 106.638C49.7903 71.3827 78.0131 37.9781 114.041 39.1223L123.148 26.3397C105.869 24.6573 88.5831 29.4818 74.6592 39.8731Z" fill="url(#paint9_linear_613_5)"/>
<path d="M112.221 41.6967C83.9895 41.938 59.8163 65.4473 58.2553 93.5422C54.6249 130.826 91.3395 163.024 127.715 155.855C91.0541 160.968 55.7934 124.569 66.8185 88.0985C71.4123 71.1146 85.8448 57.2861 103.194 54.4614L112.221 41.6967Z" fill="url(#paint10_linear_613_5)"/>
<path d="M176.739 138.514C135.217 196.813 43.5909 168.504 43.0646 96.501C43.0646 73.8856 54.0719 51.7619 72.3043 38.3982V26.6078C31.2724 53.2547 23.3782 112.421 57.0601 148.177C90.8578 184.656 148.454 179.972 177.364 139.998L176.739 138.514Z" fill="url(#paint11_linear_613_5)"/>
</g>
<defs>
<linearGradient id="paint0_linear_613_5" x1="146.171" y1="45.8175" x2="159.822" y2="213.73" gradientUnits="userSpaceOnUse">
<stop stop-color="#828487"/>
<stop offset="0.26" stop-color="#C0C2C3"/>
<stop offset="0.32" stop-color="#E1E2E3"/>
<stop offset="0.37" stop-color="white"/>
<stop offset="0.41" stop-color="#B2B2B2"/>
<stop offset="0.45" stop-color="#737373"/>
<stop offset="0.73" stop-color="#B2B2B2"/>
<stop offset="1" stop-color="#96989B"/>
</linearGradient>
<linearGradient id="paint1_linear_613_5" x1="249.58" y1="37.415" x2="263.222" y2="205.327" gradientUnits="userSpaceOnUse">
<stop stop-color="#828487"/>
<stop offset="0.26" stop-color="#C0C2C3"/>
<stop offset="0.32" stop-color="#E1E2E3"/>
<stop offset="0.37" stop-color="white"/>
<stop offset="0.41" stop-color="#B2B2B2"/>
<stop offset="0.45" stop-color="#737373"/>
<stop offset="0.73" stop-color="#B2B2B2"/>
<stop offset="1" stop-color="#96989B"/>
</linearGradient>
<linearGradient id="paint2_linear_613_5" x1="361.552" y1="28.3152" x2="375.195" y2="196.228" gradientUnits="userSpaceOnUse">
<stop stop-color="#828487"/>
<stop offset="0.26" stop-color="#C0C2C3"/>
<stop offset="0.32" stop-color="#E1E2E3"/>
<stop offset="0.37" stop-color="white"/>
<stop offset="0.41" stop-color="#B2B2B2"/>
<stop offset="0.45" stop-color="#737373"/>
<stop offset="0.73" stop-color="#B2B2B2"/>
<stop offset="1" stop-color="#96989B"/>
</linearGradient>
<linearGradient id="paint3_linear_613_5" x1="302.484" y1="33.1153" x2="316.127" y2="201.028" gradientUnits="userSpaceOnUse">
<stop stop-color="#828487"/>
<stop offset="0.26" stop-color="#C0C2C3"/>
<stop offset="0.32" stop-color="#E1E2E3"/>
<stop offset="0.37" stop-color="white"/>
<stop offset="0.41" stop-color="#B2B2B2"/>
<stop offset="0.45" stop-color="#737373"/>
<stop offset="0.73" stop-color="#B2B2B2"/>
<stop offset="1" stop-color="#96989B"/>
</linearGradient>
<linearGradient id="paint4_linear_613_5" x1="415.839" y1="23.9083" x2="429.482" y2="191.821" gradientUnits="userSpaceOnUse">
<stop stop-color="#828487"/>
<stop offset="0.26" stop-color="#C0C2C3"/>
<stop offset="0.32" stop-color="#E1E2E3"/>
<stop offset="0.37" stop-color="white"/>
<stop offset="0.41" stop-color="#B2B2B2"/>
<stop offset="0.45" stop-color="#737373"/>
<stop offset="0.73" stop-color="#B2B2B2"/>
<stop offset="1" stop-color="#96989B"/>
</linearGradient>
<linearGradient id="paint5_linear_613_5" x1="500.873" y1="16.9985" x2="514.516" y2="184.911" gradientUnits="userSpaceOnUse">
<stop stop-color="#828487"/>
<stop offset="0.26" stop-color="#C0C2C3"/>
<stop offset="0.32" stop-color="#E1E2E3"/>
<stop offset="0.37" stop-color="white"/>
<stop offset="0.41" stop-color="#B2B2B2"/>
<stop offset="0.45" stop-color="#737373"/>
<stop offset="0.73" stop-color="#B2B2B2"/>
<stop offset="1" stop-color="#96989B"/>
</linearGradient>
<linearGradient id="paint6_linear_613_5" x1="193.821" y1="41.947" x2="207.464" y2="209.859" gradientUnits="userSpaceOnUse">
<stop stop-color="#828487"/>
<stop offset="0.26" stop-color="#C0C2C3"/>
<stop offset="0.32" stop-color="#E1E2E3"/>
<stop offset="0.37" stop-color="white"/>
<stop offset="0.41" stop-color="#B2B2B2"/>
<stop offset="0.45" stop-color="#737373"/>
<stop offset="0.73" stop-color="#B2B2B2"/>
<stop offset="1" stop-color="#96989B"/>
</linearGradient>
<linearGradient id="paint7_linear_613_5" x1="79.2797" y1="51.2613" x2="92.9221" y2="219.156" gradientUnits="userSpaceOnUse">
<stop stop-color="#828487"/>
<stop offset="0.26" stop-color="#C0C2C3"/>
<stop offset="0.32" stop-color="#E1E2E3"/>
<stop offset="0.37" stop-color="white"/>
<stop offset="0.41" stop-color="#B2B2B2"/>
<stop offset="0.45" stop-color="#737373"/>
<stop offset="0.73" stop-color="#B2B2B2"/>
<stop offset="1" stop-color="#96989B"/>
</linearGradient>
<linearGradient id="paint8_linear_613_5" x1="77.5492" y1="50.8948" x2="91.335" y2="220.577" gradientUnits="userSpaceOnUse">
<stop stop-color="#828487"/>
<stop offset="0.26" stop-color="#C0C2C3"/>
<stop offset="0.32" stop-color="#E1E2E3"/>
<stop offset="0.37" stop-color="white"/>
<stop offset="0.41" stop-color="#B2B2B2"/>
<stop offset="0.45" stop-color="#737373"/>
<stop offset="0.73" stop-color="#B2B2B2"/>
<stop offset="1" stop-color="#96989B"/>
</linearGradient>
<linearGradient id="paint9_linear_613_5" x1="96.0225" y1="49.8758" x2="109.656" y2="217.681" gradientUnits="userSpaceOnUse">
<stop stop-color="#828487"/>
<stop offset="0.26" stop-color="#C0C2C3"/>
<stop offset="0.32" stop-color="#E1E2E3"/>
<stop offset="0.37" stop-color="white"/>
<stop offset="0.41" stop-color="#B2B2B2"/>
<stop offset="0.45" stop-color="#737373"/>
<stop offset="0.73" stop-color="#B2B2B2"/>
<stop offset="1" stop-color="#96989B"/>
</linearGradient>
<linearGradient id="paint10_linear_613_5" x1="86.6298" y1="51.2792" x2="100.209" y2="218.405" gradientUnits="userSpaceOnUse">
<stop stop-color="#828487"/>
<stop offset="0.26" stop-color="#C0C2C3"/>
<stop offset="0.32" stop-color="#E1E2E3"/>
<stop offset="0.37" stop-color="white"/>
<stop offset="0.41" stop-color="#B2B2B2"/>
<stop offset="0.45" stop-color="#737373"/>
<stop offset="0.73" stop-color="#B2B2B2"/>
<stop offset="1" stop-color="#96989B"/>
</linearGradient>
<linearGradient id="paint11_linear_613_5" x1="101.062" y1="49.4646" x2="114.696" y2="217.234" gradientUnits="userSpaceOnUse">
<stop stop-color="#828487"/>
<stop offset="0.26" stop-color="#C0C2C3"/>
<stop offset="0.32" stop-color="#E1E2E3"/>
<stop offset="0.37" stop-color="white"/>
<stop offset="0.41" stop-color="#B2B2B2"/>
<stop offset="0.45" stop-color="#737373"/>
<stop offset="0.73" stop-color="#B2B2B2"/>
<stop offset="1" stop-color="#96989B"/>
</linearGradient>
<clipPath id="clip0_613_5">
<rect width="528" height="147" fill="white" transform="translate(36 26)"/>
</clipPath>
</defs>
</svg>
