<svg width="600" height="200" viewBox="0 0 600 200" fill="none" xmlns="http://www.w3.org/2000/svg">
<g clip-path="url(#clip0_613_5)">
<mask id="mask0_613_5" style="mask-type:luminance" maskUnits="userSpaceOnUse" x="109" y="27" width="359" height="146">
<path d="M468 27H109V173H468V27Z" fill="white"/>
</mask>
<g mask="url(#mask0_613_5)">
<path d="M242.822 27H162.529V53.5508H242.822V27Z" fill="white"/>
<path d="M242.822 133.203H162.529V159.754H242.822V133.203Z" fill="white"/>
<path d="M269.586 106.652H242.822V133.203H269.586V106.652Z" fill="white"/>
<path d="M242.822 80.1017H216.057V106.652H242.822V80.1017Z" fill="white"/>
<path d="M162.529 106.652H135.764V133.203H162.529V106.652Z" fill="white"/>
<path d="M162.529 53.5508H135.764V80.1014H162.529V53.5508Z" fill="white"/>
<path d="M135.764 80.1017H109V106.652H135.764V80.1017Z" fill="white"/>
<path d="M292.426 167.572H313.48V173H292.426V167.572Z" fill="white"/>
<path d="M319.22 126.713H341.345V132.377H325.405V140.402H340.155V146.066H325.405V159.754H319.22V126.713Z" fill="white"/>
<path d="M352.854 126.713H359.04V159.754H352.854V126.713Z" fill="white"/>
<path d="M372.272 126.713H394.637V132.377H378.458V140.402H393.685V146.066H378.458V154.09H394.637V159.754H372.272V126.713Z" fill="white"/>
<path d="M407.602 126.713H413.789V153.854H429.34V159.754H407.602V126.713Z" fill="white"/>
<path d="M439.69 126.713H451.823C460.835 126.713 468 133.793 468 143.234C468 152.674 460.803 159.754 451.823 159.754H439.69V126.713ZM451.823 153.854C457.533 153.854 461.814 149.665 461.814 143.234C461.814 136.802 457.533 132.613 451.823 132.613H445.876V153.854H451.823Z" fill="white"/>
<path d="M318.417 102.906H318.179C317.554 103.703 316.751 104.41 315.829 105.03C314.164 106.122 311.845 107.125 308.484 107.125C299.533 107.125 292.396 100.133 292.396 90.2204C292.396 80.3083 299.533 73.3166 308.484 73.3166C317.435 73.3166 322.253 79.8953 323.383 85.0579H316.989C315.562 81.9897 312.915 79.1872 308.455 79.1872C302.775 79.1872 298.522 83.4648 298.522 90.2204C298.522 96.9763 302.775 101.254 308.455 101.254C314.61 101.254 317.435 96.3271 317.435 94.2031V93.967H309.168V89.2765H323.591V106.652H318.863L318.387 102.906H318.417Z" fill="white"/>
<path d="M335.427 73.8178H350.564C356.422 73.8178 360.972 78.2725 360.972 84.8513C360.972 91.43 356.483 95.1767 351.278 95.4127L361.924 106.682H354.134L343.486 95.4127H341.583V106.682H335.427V73.8178ZM350.326 89.7778C352.676 89.7778 354.817 87.6538 354.817 84.8513C354.817 81.8125 352.676 79.6885 350.326 79.6885H341.583V89.7778H350.326Z" fill="white"/>
<path d="M371.944 73.8178H394.19V79.4527H378.101V87.4474H393.238V93.082H378.101V101.047H394.19V106.682H371.944V73.8178Z" fill="white"/>
<path d="M406.086 73.8178H428.329V79.4527H412.24V87.4474H427.377V93.082H412.24V101.047H428.329V106.682H406.086V73.8178Z" fill="white"/>
<path d="M440.433 73.8178H448.699L460.774 96.5632H461.726V73.8178H467.88V106.682H459.614L447.539 83.9072H446.589V106.682H440.433V73.8178Z" fill="white"/>
</g>
</g>
<defs>
<clipPath id="clip0_613_5">
<rect width="359" height="146" fill="white" transform="translate(109 27)"/>
</clipPath>
</defs>
</svg>
