<svg width="379" height="93" viewBox="0 0 379 93" fill="none" xmlns="http://www.w3.org/2000/svg">
<path d="M110.572 21.6965H120.429V64H144.661V73.4469H110.572V21.6965Z" fill="white"/>
<path d="M187.75 21.6965H197.607V73.4469H187.75V21.6965Z" fill="white"/>
<path d="M244.793 21.6965H261.222C264.617 21.6965 267.848 22.4084 270.914 23.8321C273.982 25.2012 276.693 27.0631 279.047 29.4178C281.401 31.7726 283.264 34.5108 284.633 37.6321C286.001 40.7536 286.686 44.0666 286.686 47.5714C286.686 51.0766 286.001 54.3897 284.633 57.5109C283.264 60.632 281.401 63.3703 279.047 65.7246C276.693 68.08 273.982 69.9692 270.914 71.3932C267.848 72.7623 264.617 73.4469 261.222 73.4469H244.793V21.6965ZM261.222 64C263.248 64 265.192 63.5623 267.054 62.6857C268.97 61.8092 270.641 60.632 272.065 59.1532C273.543 57.6755 274.694 55.9497 275.514 53.9783C276.391 51.952 276.829 49.8167 276.829 47.5714C276.829 45.3262 276.391 43.2178 275.514 41.2464C274.694 39.2202 273.543 37.4679 272.065 35.9893C270.641 34.5108 268.97 33.3334 267.054 32.4572C265.192 31.5809 263.248 31.1429 261.222 31.1429H254.65V64H261.222Z" fill="white"/>
<path d="M353.215 73.8571C349.819 73.8571 346.589 73.2 343.522 71.8857C340.51 70.5166 337.854 68.6549 335.554 66.3006C333.309 63.8903 331.502 61.0971 330.133 57.9211C328.818 54.7451 328.161 51.2948 328.161 47.5714C328.161 43.9024 328.818 40.4798 330.133 37.3035C331.502 34.0726 333.309 31.2798 335.554 28.925C337.854 26.5154 340.51 24.6536 343.522 23.3393C346.589 21.9703 349.819 21.2857 353.215 21.2857C356.61 21.2857 359.814 21.9703 362.825 23.3393C365.893 24.6536 368.549 26.5154 370.793 28.925C373.094 31.2798 374.901 34.0726 376.215 37.3035C377.584 40.4798 378.269 43.9024 378.269 47.5714C378.269 51.2948 377.584 54.7451 376.215 57.9211C374.901 61.0971 373.094 63.8903 370.793 66.3006C368.549 68.6549 365.893 70.5166 362.825 71.8857C359.814 73.2 356.61 73.8571 353.215 73.8571ZM353.215 64.4103C355.241 64.4103 357.185 64 359.047 63.1783C360.909 62.3577 362.525 61.2069 363.894 59.728C365.263 58.1954 366.358 56.416 367.179 54.3897C368 52.3086 368.411 50.0358 368.411 47.5714C368.411 45.1072 368 42.8619 367.179 40.8358C366.358 38.7547 365.263 36.975 363.894 35.4965C362.525 33.9631 360.909 32.7857 359.047 31.9643C357.185 31.1429 355.241 30.7321 353.215 30.7321C351.134 30.7321 349.162 31.1429 347.301 31.9643C345.494 32.7857 343.905 33.9631 342.536 35.4965C341.167 36.975 340.072 38.7547 339.25 40.8358C338.429 42.8619 338.018 45.1072 338.018 47.5714C338.018 50.0358 338.429 52.3086 339.25 54.3897C340.072 56.416 341.167 58.1954 342.536 59.728C343.905 61.2069 345.494 62.3577 347.301 63.1783C349.162 64 351.134 64.4103 353.215 64.4103Z" fill="white"/>
<path fill-rule="evenodd" clip-rule="evenodd" d="M32.8871 0.714294L55.5142 36.1325L32.886 49.3194L10.2607 36.132L32.8871 0.714294ZM17.1873 34.4572L32.8871 9.88161L48.5873 34.4573L32.8861 43.6076L17.1873 34.4572Z" fill="#00A3FF"/>
<path d="M32.8538 57.104L6.6062 41.8056L5.8894 42.9275C-2.19471 55.5817 -0.389339 72.1543 10.2302 82.7726C22.7268 95.2663 42.9876 95.2663 55.4846 82.7726C66.104 72.1543 67.9086 55.5817 59.8252 42.9275L59.1075 41.8052L32.8549 57.1051L32.8538 57.104Z" fill="#00A3FF"/>
</svg>
