<svg width="85" height="20" viewBox="0 0 85 20" fill="none" xmlns="http://www.w3.org/2000/svg">
<path d="M23.0898 4.18561H25.1719L29.1005 12.6647L33.0292 4.18561H35.111V15.7616H33.0964V8.24303L29.6041 15.7616H28.5966L25.1047 8.24303V15.7616H23.0898V4.18561Z" fill="white"/>
<path d="M41.5055 16.0097C40.5655 16.0097 39.7372 15.8441 39.0207 15.5129C38.3158 15.1706 37.7672 14.6849 37.3755 14.0555C36.9836 13.4152 36.7878 12.6589 36.7878 11.7867C36.7878 10.9366 36.9779 10.1968 37.3585 9.56753C37.7503 8.92723 38.3045 8.43593 39.0207 8.09373C39.7372 7.74041 40.5655 7.56372 41.5055 7.56372C42.4459 7.56372 43.2685 7.74041 43.9737 8.09373C44.6899 8.43593 45.2441 8.92723 45.6359 9.56753C46.0278 10.1968 46.2234 10.9366 46.2234 11.7867C46.2234 12.6589 46.0278 13.4152 45.6359 14.0555C45.2441 14.6849 44.6899 15.1706 43.9737 15.5129C43.2685 15.8441 42.4459 16.0097 41.5055 16.0097ZM41.5055 14.3702C42.2779 14.3702 42.8935 14.1328 43.3525 13.6581C43.8114 13.1723 44.0409 12.5485 44.0409 11.7867C44.0409 10.9807 43.8114 10.3515 43.3525 9.89883C42.9048 9.43513 42.2891 9.20323 41.5055 9.20323C40.7222 9.20323 40.1009 9.43513 39.642 9.89883C39.1943 10.3515 38.9705 10.9807 38.9705 11.7867C38.9705 12.5485 39.1999 13.1723 39.6589 13.6581C40.1178 14.1328 40.7334 14.3702 41.5055 14.3702Z" fill="white"/>
<path d="M47.8955 7.8111H49.9438V9.0863C50.2682 8.6557 50.7271 8.3356 51.3203 8.1257C51.9247 7.91597 52.6131 7.8111 53.3855 7.8111V9.4009C52.5685 9.4009 51.8576 9.5279 51.2532 9.7818C50.66 10.0247 50.2461 10.4112 50.011 10.9411V15.7603H47.8955V7.8111Z" fill="white"/>
<path d="M54.7318 7.81212H56.7802V8.77263C57.2166 8.36413 57.6924 8.06053 58.2072 7.86186C58.722 7.6631 59.3096 7.56372 59.9702 7.56372C60.7872 7.56372 61.5146 7.74041 62.1527 8.09373C62.8018 8.43593 63.3057 8.92723 63.6638 9.56753C64.0331 10.1968 64.218 10.9311 64.218 11.7702C64.218 12.5982 64.0331 13.3324 63.6638 13.9727C63.3057 14.6131 62.8018 15.1155 62.1527 15.4798C61.5146 15.8331 60.7872 16.0097 59.9702 16.0097C59.3546 16.0097 58.7726 15.9269 58.224 15.7613C57.6868 15.5847 57.2278 15.3252 56.8472 14.9829V19.3881H54.7318V7.81212ZM59.4497 14.3702C60.2109 14.3702 60.8374 14.1273 61.3301 13.6415C61.8225 13.1557 62.0688 12.5319 62.0688 11.7702C62.0688 11.0084 61.8225 10.3901 61.3301 9.91543C60.8374 9.44063 60.2109 9.20323 59.4497 9.20323C58.8454 9.20323 58.308 9.36333 57.8379 9.68353C57.3677 10.0037 57.0377 10.4343 56.8472 10.9752V12.5816C57.0264 13.1226 57.3508 13.5587 57.821 13.8899C58.3024 14.2101 58.8454 14.3702 59.4497 14.3702Z" fill="white"/>
<path d="M65.8976 3.52161H68.0131V8.82113C68.7742 7.98202 69.7593 7.56243 70.968 7.56243C72.054 7.56243 72.8653 7.85498 73.4026 8.44013C73.9399 9.01433 74.2084 9.78153 74.2084 10.7421V15.76H72.0929V10.9409C72.0929 9.78153 71.5444 9.20193 70.4477 9.20193C69.9662 9.20193 69.5129 9.31793 69.0877 9.54973C68.6625 9.77063 68.3041 10.1073 68.0131 10.5599V15.76H65.8976V3.52161Z" fill="white"/>
<path d="M80.2825 16.0097C79.3421 16.0097 78.5138 15.8441 77.7973 15.5129C77.0924 15.1706 76.5438 14.6849 76.1521 14.0555C75.7603 13.4152 75.5645 12.6589 75.5645 11.7867C75.5645 10.9366 75.7546 10.1968 76.1352 9.56753C76.527 8.92723 77.0812 8.43593 77.7973 8.09373C78.5138 7.74041 79.3421 7.56372 80.2825 7.56372C81.2225 7.56372 82.0451 7.74041 82.7507 8.09373C83.4669 8.43593 84.0211 8.92723 84.4123 9.56753C84.8044 10.1968 85 10.9366 85 11.7867C85 12.6589 84.8044 13.4152 84.4123 14.0555C84.0211 14.6849 83.4669 15.1706 82.7507 15.5129C82.0451 15.8441 81.2225 16.0097 80.2825 16.0097ZM80.2825 14.3702C81.0545 14.3702 81.6702 14.1328 82.1292 13.6581C82.5877 13.1723 82.8177 12.5485 82.8177 11.7867C82.8177 10.9807 82.5877 10.3515 82.1292 9.89883C81.6814 9.43513 81.0658 9.20323 80.2825 9.20323C79.4989 9.20323 78.8776 9.43513 78.4187 9.89883C77.9709 10.3515 77.7471 10.9807 77.7471 11.7867C77.7471 12.5485 77.9765 13.1723 78.4355 13.6581C78.8944 14.1328 79.5101 14.3702 80.2825 14.3702Z" fill="white"/>
<path opacity="0.9" d="M2 13.1522V18.4634C2 18.7904 2.26415 18.9261 2.34632 18.9569C2.42852 18.994 2.70442 19.0741 2.95095 18.8335L7.27722 14.4785C7.6764 13.9356 7.82316 13.5964 7.82316 13.5964C8.05798 13.0967 8.05795 12.6155 7.82902 12.1344C7.48854 11.4188 6.61978 10.6909 5.31076 10L3.07423 11.3078C2.4109 11.7026 2 12.3996 2 13.1522Z" fill="#A9D6FF"/>
<path d="M0 0.604212V6.34735C0 7.06605 0.400732 7.70204 0.970153 7.90559C2.91041 8.57974 6.29003 10.0298 7.10727 12.1605C7.21273 12.4403 7.27601 12.7138 7.29709 13C7.84016 11.8107 8.08797 10.4433 7.97198 9.05675C7.81379 7.09148 6.9491 5.3043 5.59935 4.16586L0.785619 0.114482C0.701235 0.0381607 0.601059 0 0.500882 0C0.416525 0 0.342722 0.0190819 0.263628 0.0699616C0.105441 0.178084 0 0.375249 0 0.604212Z" fill="url(#paint0_linear_504_55)"/>
<path opacity="0.9" d="M16 13.1522V18.4634C16 18.7904 15.7359 18.9261 15.6537 18.9569C15.5715 18.994 15.2956 19.0741 15.049 18.8335L10.7228 14.4785C10.3236 13.9356 10.1768 13.5964 10.1768 13.5964C9.94202 13.0967 9.94205 12.6155 10.171 12.1344C10.5114 11.4188 11.3802 10.6909 12.6892 10L14.9258 11.3078C15.595 11.7026 16 12.3996 16 13.1522Z" fill="#A9D6FF"/>
<path d="M18 0.60421V6.34738C18 7.06604 17.5993 7.70206 17.0299 7.90558C15.0896 8.57977 11.7099 10.0299 10.8927 12.1605C10.7873 12.4403 10.724 12.7138 10.7029 13C10.1598 11.8107 9.91203 10.4433 10.028 9.05675C10.1862 7.09151 11.0509 5.30432 12.4007 4.16585L17.2144 0.114482C17.2988 0.0381606 17.399 0 17.4991 0C17.5835 0 17.6573 0.0190818 17.7364 0.0699615C17.8946 0.178084 18 0.375246 18 0.60421Z" fill="url(#paint1_linear_504_55)"/>
<defs>
<linearGradient id="paint0_linear_504_55" x1="8.25669" y1="12.9165" x2="0" y2="12.9165" gradientUnits="userSpaceOnUse">
<stop offset="0.0677083" stop-color="#EFFDFF"/>
<stop offset="1" stop-color="#A9D6FF"/>
</linearGradient>
<linearGradient id="paint1_linear_504_55" x1="10.0224" y1="12.9165" x2="17.9368" y2="12.9165" gradientUnits="userSpaceOnUse">
<stop offset="0.0677083" stop-color="#EFFDFF"/>
<stop offset="1" stop-color="#A9D6FF"/>
</linearGradient>
</defs>
</svg>
