<svg width="600" height="200" viewBox="0 0 600 200" fill="none" xmlns="http://www.w3.org/2000/svg">
<path fill-rule="evenodd" clip-rule="evenodd" d="M151.963 76.4928C140.876 87.5847 140.88 105.567 151.963 116.655C161.604 126.3 176.451 127.558 187.45 120.43L193.778 126.76L202.11 118.425L195.803 112.116C203.018 101.101 201.787 86.1737 192.11 76.4928C181.027 65.4053 163.046 65.4053 151.963 76.4928ZM176.139 92.4444L187.077 103.387C189.829 97.3051 188.706 89.8974 183.708 84.8981C177.262 78.4497 166.811 78.4455 160.365 84.8981C153.919 91.3507 153.919 101.801 160.365 108.25C165.328 113.211 172.655 114.355 178.706 111.683L167.807 100.779L176.139 92.4444ZM333.433 94.8766H338.424V94.885V113.813C338.424 121.859 342.669 124.693 351.164 124.693C353.993 124.693 356.227 124.47 358.314 124.171V114.407L358.261 114.413C356.955 114.557 356.284 114.631 354.887 114.631C351.906 114.631 350.194 114.036 350.194 110.755V94.8808H357.867V85.0415H350.194V74.1607H338.424V85.0374H333.433V94.8766ZM293.079 85.0412H304.997V88.9929C307.156 86.4584 310.807 84.2233 315.798 84.2233C323.842 84.2233 328.909 89.8112 328.909 98.3853V124.322H316.991V101.814C316.991 97.8622 315.351 94.9563 311.477 94.9563C308.197 94.9563 304.993 97.2677 304.993 101.886V124.318H293.075V85.0412H293.079ZM263.307 100.768C255.04 101.957 248.185 105.239 248.185 113.361V113.366C248.185 120.295 253.847 125.064 261.743 125.064C266.886 125.064 270.756 123.5 273.366 120.818C275.377 124.175 279.993 125.44 286.848 124.322V115.529C284.538 115.828 283.791 115.23 283.791 113.218V98.0901C283.791 88.9215 277.16 84.2274 267.177 84.2274C257.194 84.2274 251.01 89.8915 249.298 96.8208L260.697 98.5328C261.443 95.3277 263.231 93.8391 266.658 93.8391C270.533 93.8391 272.097 95.7029 272.097 98.6087V99.2794L263.307 100.768ZM265.242 108.216L272.097 106.951V110.228C272.097 114.251 268.446 116.339 264.496 116.339C261.667 116.339 259.804 114.998 259.804 112.539C259.804 109.781 262.114 108.739 265.242 108.216ZM230.976 124.314H242.894V85.0415H230.976V107.773C230.976 112.391 227.848 114.702 224.568 114.702C220.693 114.702 218.982 112.172 218.982 108.22V85.0415H207.064V111.046C207.064 119.616 212.355 125.132 220.398 125.132C225.314 125.132 228.818 122.897 230.976 120.438V124.314ZM368.968 110.527L362.786 118.57C366.433 122.816 374.183 125.127 381.037 125.127C391.02 125.127 398.916 120.434 398.916 111.564C398.916 102.695 391.02 100.983 383.942 99.5659L383.152 99.419C378.917 98.6319 376.864 98.2498 376.864 96.2132C376.864 94.4249 378.727 93.3073 381.632 93.3073C385.504 93.3073 389.379 95.0239 392.36 98.1532L398.32 90.4773C395.041 86.9012 388.787 84.2188 381.708 84.2188C372.022 84.2188 364.945 89.5115 364.945 97.4866C364.945 105.981 371.877 107.697 378.356 108.962C378.72 109.028 379.077 109.09 379.416 109.151L379.419 109.151C384.908 110.123 387.221 110.532 387.221 112.985C387.221 115.073 384.61 116.115 381.483 116.115C377.238 116.115 372.171 114.031 368.968 110.527ZM402.123 94.8766H407.113V94.885V113.813C407.113 121.859 411.362 124.693 419.853 124.693C422.682 124.693 424.916 124.47 427.004 124.171V114.407L426.949 114.413C425.643 114.557 424.975 114.631 423.576 114.631C420.594 114.631 418.883 114.036 418.883 110.755V94.8808H426.557V85.0415H418.883V74.1607H407.113V85.0374H402.123V94.8766ZM431.845 113.361C431.845 105.239 438.702 101.957 446.968 100.768L455.757 99.2794V98.6087C455.757 95.7029 454.195 93.8391 450.32 93.8391C446.892 93.8391 445.105 95.3277 444.36 98.5328L432.96 96.8208C434.671 89.8915 440.856 84.2274 450.84 84.2274C460.82 84.2274 467.451 88.9215 467.451 98.0901V113.218C467.451 115.23 468.199 115.828 470.509 115.529V124.322C463.656 125.44 459.036 124.175 457.024 120.818C454.417 123.5 450.542 125.064 445.399 125.064C437.504 125.064 431.842 120.295 431.842 113.366L431.845 113.361ZM448.904 108.216L455.753 106.952V110.228C455.753 114.251 452.107 116.339 448.156 116.339C445.33 116.339 443.463 114.998 443.463 112.539C443.463 109.781 445.777 108.739 448.904 108.216ZM476.046 124.314H487.966L487.969 101.881C487.969 97.2632 491.027 94.9522 494.154 94.9522C498.026 94.9522 499.518 97.858 499.518 101.81V124.318H511.434V101.886C511.434 97.2677 514.492 94.9563 517.619 94.9563C521.418 94.9563 522.983 97.8622 522.983 101.814V124.322H534.899V98.3853C534.899 89.8112 529.608 84.2233 521.636 84.2233C515.604 84.2233 511.729 87.1291 509.495 89.5877C507.262 86.235 503.387 84.2233 498.694 84.2233C493.704 84.2233 490.123 86.4584 487.966 88.9929V85.0412H476.046V124.314ZM552.755 120.446V137.434H540.835V85.0412H552.755V88.9929C554.988 86.1633 558.714 84.2233 563.407 84.2233C574.208 84.2233 580.316 93.4636 580.316 104.72C580.316 115.976 574.208 125.14 563.407 125.14C558.714 125.14 554.988 123.204 552.755 120.446ZM552.678 105.761C552.678 111.649 555.882 115.002 560.352 115.002C565.568 115.002 568.324 110.755 568.324 104.716C568.324 98.6763 565.568 94.4294 560.352 94.4294C555.882 94.4294 552.678 97.7063 552.678 103.67V105.757V105.761Z" fill="white"/>
<path d="M109.522 96.4972C109.522 88.9028 107.338 81.4316 103.164 75.07L118.542 59.6073L107.017 48L91.6402 63.4627C78.6859 54.9574 61.9255 54.9574 48.9711 63.4627L33.5591 48L22 59.6073L37.377 75.07C28.9121 88.1085 28.9121 104.927 37.377 117.965L22 133.393L33.5591 145L48.9361 129.537C61.8902 138.043 78.651 138.043 91.6052 129.537L106.983 145L118.542 133.393L103.164 117.93C107.338 111.569 109.563 104.138 109.522 96.5028V96.4972ZM47.389 96.4972C47.389 87.1156 53.0285 78.6451 61.6918 75.1518C70.3554 71.6527 80.2855 73.7615 86.7598 80.5203C93.2342 87.2791 94.9854 97.3384 91.1325 105.884L76.0357 90.6963L64.5117 102.304L79.6085 117.492C72.5388 120.67 64.3133 120.074 57.798 115.821C51.3238 111.569 47.389 104.29 47.389 96.5028V96.4972Z" fill="white"/>
</svg>
