<svg width="600" height="200" viewBox="0 0 600 200" fill="none" xmlns="http://www.w3.org/2000/svg">
<g clip-path="url(#clip0_613_5)">
<path d="M480.98 109.873H490.705V125.61H480.98V109.873ZM486.195 95.6918C476.904 95.6918 457.306 80.7935 457.306 80.7935V91.7467C457.306 91.7467 474.827 105.469 486.195 105.469C497.626 105.469 514.493 91.7969 514.493 91.7969V80.6788C514.493 80.6788 495.464 95.6918 486.195 95.6918ZM212.067 107.671L253.234 125.61V115.331L225.462 104.185L253.234 93.1024V82.8307L212.067 100.584V107.671ZM299.146 82.8307H288.177L261.422 125.603H272.797L293.64 92.9159L314.484 125.603H325.858L299.146 82.8307ZM434.037 82.8307H423.067L396.306 125.617H407.68L428.531 92.9159L449.381 125.617H460.756L434.037 82.8307ZM392.265 82.8307L374.516 113.99L366.748 100.046L376.729 82.8307H365.496L361.278 90.2332L357.159 82.8307H345.485L355.558 100.275L347.74 113.99L330.39 82.8307H318.716L343.429 125.61H351.923L361.078 109.823L370.205 125.61H378.692L403.498 82.8307H392.265ZM68.0712 125.61H121.09V82.8307H68.0712V125.61ZM111.387 92.6289L111.372 115.805H77.8028V92.5859L111.387 92.6289ZM135.844 125.582H185.313V115.783H145.575V92.6002H185.313V82.8091H135.844V125.582ZM197.975 82.8307V125.61H207.707L207.692 82.8307H197.975ZM36.9273 109.693C36.9273 109.693 37.404 118.631 45.4425 125.596H58.7949C58.7949 125.596 48.8784 119.664 46.9008 109.693H52.919V82.8307H0V125.61H9.72446V109.693H36.9273ZM9.72446 92.6289L43.3012 92.6218V100.971H9.72446V92.6289Z" fill="white"/>
<path d="M600 33L569.176 54.2535V61.656L600 82.8307V70.3425L581.554 57.883L600 45.4881V33ZM533.942 45.4881L552.395 57.883L533.942 70.3425V82.8307L564.773 61.656V54.2535L533.942 33V45.4881Z" fill="#8BCF2B"/>
</g>
<defs>
<clipPath id="clip0_613_5">
<rect width="600" height="92.6174" fill="white" transform="translate(0 33)"/>
</clipPath>
</defs>
</svg>
