<svg width="844" height="130" viewBox="0 0 844 130" fill="none" xmlns="http://www.w3.org/2000/svg">
<g clip-path="url(#clip0_605_2)">
<path d="M676.13 107.17H689.8V129.11H676.13V107.17ZM683.46 87.4C670.4 87.4 642.85 66.63 642.85 66.63V81.9C642.85 81.9 667.48 101.03 683.46 101.03C699.53 101.03 723.24 81.97 723.24 81.97V66.47C723.24 66.47 696.49 87.4 683.46 87.4ZM298.11 104.1L355.98 129.11V114.78L316.94 99.24L355.98 83.79V69.47L298.11 94.22V104.1ZM420.52 69.47H405.1L367.49 129.1H383.48L412.78 83.53L442.08 129.1H458.07L420.52 69.47ZM610.14 69.47H594.72L557.1 129.12H573.09L602.4 83.53L631.71 129.12H647.7L610.14 69.47ZM551.42 69.47L526.47 112.91L515.55 93.47L529.58 69.47H513.79L507.86 79.79L502.07 69.47H485.66L499.82 93.79L488.83 112.91L464.44 69.47H448.03L482.77 129.11H494.71L507.58 107.1L520.41 129.11H532.34L567.21 69.47H551.42ZM95.69 129.11H170.22V69.47H95.69V129.11ZM156.58 83.13L156.56 115.44H109.37V83.07L156.58 83.13ZM190.96 129.07H260.5V115.41H204.64V83.09H260.5V69.44H190.96V129.07ZM278.3 69.47V129.11H291.98L291.96 69.47H278.3ZM51.91 106.92C51.91 106.92 52.58 119.38 63.88 129.09H82.65C82.65 129.09 68.71 120.82 65.93 106.92H74.39V69.47H0V129.11H13.67V106.92H51.91ZM13.67 83.13L60.87 83.12V94.76H13.67V83.13Z" fill="white"/>
<path d="M843.44 0L800.11 29.63V39.95L843.44 69.47V52.06L817.51 34.69L843.44 17.41V0ZM750.58 17.41L776.52 34.69L750.58 52.06V69.47L793.92 39.95V29.63L750.58 0V17.41Z" fill="#8BCF2B"/>
</g>
<defs>
<clipPath id="clip0_605_2">
<rect width="844" height="130" fill="white"/>
</clipPath>
</defs>
</svg>
