<svg fill="none" height="24" viewBox="0 0 18 18" width="24" xmlns="http://www.w3.org/2000/svg"><path d="m9 0c-4.97163 0-9 4.02837-9 9 0 4.9716 4.02837 9 9 9 4.9716 0 9-4.0284 9-9 0-4.97163-4.0284-9-9-9zm4.6082 6.51202-5.78512 5.81108h-.00433c-.07356.0735-.2726.238-.50192.238-.16443 0-.35048-.0909-.50625-.2467l-2.42308-2.42305c-.06923-.06923-.06923-.17741 0-.24664l.77019-.77019c.03462-.03462.07789-.05192.12116-.05192s.08654.0173.12115.05192l1.92115 1.92118 5.27885-5.31782c.0346-.03461.0779-.05192.1212-.05192.0476 0 .0908.01731.1211.05192l.7572.78318c.0779.07356.0779.18173.0087.25096z" fill="#858585"/></svg>