<svg fill="none" height="24" viewBox="0 0 13 16" width="19.44" xmlns="http://www.w3.org/2000/svg"><path d="m8 0h-4.59615c-.85 0-1.5577.669231-1.5577 1.51923v.32692h-.28846c-.849998 0-1.55769.66923-1.55769 1.51923v11.07692c0 .85.707692 1.5577 1.55769 1.5577h8c.85001 0 1.51921-.7077 1.51921-1.5577v-.2885h.3269c.85 0 1.5193-.7076 1.5193-1.5576v-7.67312zm0 1.71538 3.2077 3.2077h-3.2077zm1.84615 12.72692c0 .1808-.13077.3269-.28846.3269h-8c-.16923 0-.32692-.1577-.32692-.3269v-11.07692c0-.15769.14615-.28846.32692-.28846h.28846v9.82688c0 .85.4 1.25 1.25 1.25h6.75zm1.84615-1.8461c0 .1807-.1308.3269-.2885.3269h-7.99995c-.16923 0-.32693-.1577-.32693-.3269v-11.07697c0-.15769.14616-.28846.32693-.28846h3.36538v4.92308h4.92307z" fill="#858585"/></svg>