<svg fill="none" height="37" viewBox="0 0 37 37" width="37" xmlns="http://www.w3.org/2000/svg" xmlns:xlink="http://www.w3.org/1999/xlink">
<path d="m18.5 36.5c9.9411 0 18-8.0589 18-18 0-9.94113-8.0589-18-18-18-9.94113 0-18 8.05887-18 18 0 9.9411 8.05887 18 18 18z" fill="#f9fafb"/>
<path d="m18.5 36.5c9.9411 0 18-8.0589 18-18 0-9.94114-8.0589-18-18-18-9.94113 0-18 8.05886-18 18 0 9.9411 8.05887 18 18 18z" fill="#f9a606"/>
<path d="m28.8306 15.4872h-2.1303c-1.1728-3.2552-4.3263-5.4872-8.4851-5.4872h-6.8396v5.4872h-2.3756v1.9687h2.3756v2.0645h-2.3756v1.9687h2.3756v5.4214h6.8396c4.1109 0 7.2405-2.2141 8.4433-5.4214h2.1721v-1.9687h-1.6934c.0419-.3471.0658-.7061.0658-1.0651v-.0479c0-.3232-.018-.6403-.0479-.9515h1.6815v-1.9687zm-15.5401-3.7339h4.9247c3.0518 0 5.3197 1.5019 6.3669 3.7279h-11.2916zm4.9247 13.3859h-4.9247v-3.6561h11.2796c-1.0532 2.1901-3.3151 3.6561-6.3549 3.6561zm7.0071-6.6421c0 .3471-.0239.6882-.0718 1.0173h-11.86v-2.0644h11.866c.0419.3231.0658.6582.0658.9993z" fill="#fff"/>
</svg>