<svg fill="none" height="37" viewBox="0 0 37 37" width="37" xmlns="http://www.w3.org/2000/svg"><path d="m18.5 36.5c9.9411 0 18-8.0589 18-18 0-9.94113-8.0589-18-18-18-9.94113 0-18 8.05887-18 18 0 9.9411 8.05887 18 18 18z" fill="#22996e"/><g fill="#fff"><path d="m19.2149 27.5564h-10.24262c-1.38724 0-2.22581-1.5338-1.47701-2.7016l5.82743-9.0886c.4301-.671 1.1723-1.0767 1.9694-1.0767h7.8456c.797 0 1.5392.4057 1.9694 1.0767l5.8274 9.0886c.7488 1.1678-.0898 2.7016-1.4771 2.7016z"/><path d="m20.2617 6.64638 2.4475 3.73982c.5091.778-.049 1.8102-.9788 1.8102h-4.9864c-.9387 0-1.4951-1.05-.9678-1.8267l2.539-3.73981c.4688-.69062 1.4894-.68197 1.9465.01649z"/></g></svg>