<svg fill="none" height="37" viewBox="0 0 37 37" width="37" xmlns="http://www.w3.org/2000/svg"><path d="m18.5 36.5c9.9411 0 18-8.0589 18-18 0-9.94112-8.0589-18-18-18-9.94112 0-18 8.05888-18 18 0 9.9411 8.05888 18 18 18z" fill="#1e1a31"/><g fill="#fff"><g clip-rule="evenodd" fill-rule="evenodd"><path d="m16.3581 17.4064c.4907 0 .8892.4033.8892.902 0 .4981-.3985.902-.8898.902h-2.3088c-2.2361 0-4.0487-1.8382-4.0487-4.1055s1.8126-4.1049 4.0487-4.1049h5.9548c.4913 0 .8891.4033.8891.9014s-.3978.902-.8891.902h-5.9554c-1.2534 0-2.2697 1.0304-2.2697 2.3015s1.0163 2.3015 2.2697 2.3015h2.3088z"/><path d="m14.5357 19.2103c-.4913 0-.8897-.404-.8897-.902 0-.4981.3984-.9021.8897-.9021h2.3089c2.2361 0 4.0486 1.8383 4.0486 4.1056 0 2.2672-1.8125 4.1049-4.0486 4.1049h-5.9554c-.4914 0-.8892-.4034-.8892-.902 0-.4981.3978-.9014.8892-.9014h5.9548c1.2534 0 2.2697-1.0304 2.2697-2.3015 0-1.2712-1.0163-2.3015-2.2697-2.3015h-2.3089z"/><path d="m11.593 25.2516-1.4465-1.0506 9.0953-12.869 1.4465 1.0512z" fill-opacity=".5"/></g><path d="m22.327 23.8864h2.8838c.4022 0 .7053-.077.9088-.231s.3055-.3973.3055-.7285c0-.3318-.102-.5757-.3055-.7321-.2035-.1565-.5066-.2347-.9088-.2347h-2.8838v-1.0511h2.827c.7101 0 1.2522.1717 1.6256.5152.3746.3434.5622.8439.5622 1.5027 0 .6582-.1876 1.1581-.5622 1.4991-.3728.3404-.9149.5115-1.625.5115h-2.8276zm3.3526-4.6164c.2456-.0184.4436-.118.5928-.2977.1491-.1796.2236-.4192.2236-.718 0-.2475-.0531-.4498-.1595-.6063-.0473-.0743-.1132-.1349-.1911-.1761-.0779-.0411-.1651-.0613-.2532-.0585-.1326 0-.2383.0434-.3159.1295-.0782.0868-.14.2078-.1846.3643-.0643.2397-.12.4816-.1668.7254-.0617.322-.1406.5927-.2383.8127-.0932.2147-.2429.4-.4333.536-.1913.1375-.4461.2066-.7633.2066-.2891 0-.547-.0783-.7743-.2347-.2341-.1649-.4193-.39-.536-.6515-.1301-.278-.1955-.5921-.1955-.9423 0-.36.0672-.6833.2023-.9705.135-.2872.3208-.5133.5579-.6795.2351-.1652.5151-.2543.8024-.2555v1.0297c-.0991.0084-.1955.0362-.2839.0819-.0883.0457-.1667.1085-.2306.1846-.1308.154-.1956.3569-.1956.6093 0 .2334.0495.4204.1491.5604.0996.1405.2414.2102.426.2102.1326 0 .2359-.0422.3092-.1265.0733-.0837.1326-.2029.1772-.3569.0452-.154.0984-.3923.1601-.715.0611-.3263.1381-.602.231-.8262.0917-.2243.2323-.4052.4186-.5427.1871-.1381.437-.2072.7493-.2072.3031 0 .5744.0819.8134.2457.2389.1632.4278.3911.5647.6826.1408.3086.2112.6447.2059.9839 0 .393-.0721.7419-.2163 1.0481-.1309.2894-.3384.5375-.6001.7174-.2538.1724-.5532.2652-.8599.2665zm-3.3526-3.5446v-1.7025c0-.4902.1051-.9228.3159-1.2993.2033-.3688.5092-.6707.8806-.869.3765-.2029.8067-.3043 1.2895-.3043s.9124.1014 1.2895.3043c.3712.1984.6769.5003.88.869.2108.3759.3159.8091.3159 1.2993v1.7025zm4.0841-1.7025c0-.4437-.1461-.7884-.437-1.0328-.2915-.2457-.6783-.3679-1.1611-.3679s-.8702.1222-1.1611.3673c-.2921.2456-.437.5897-.437 1.0334v.6514h3.1962z"/><path d="m22.327 23.8864h2.8838c.4022 0 .7053-.077.9088-.231s.3055-.3973.3055-.7285c0-.3318-.102-.5757-.3055-.7321-.2035-.1565-.5066-.2347-.9088-.2347h-2.8838v-1.0511h2.827c.7101 0 1.2522.1717 1.6256.5152.3746.3434.5622.8439.5622 1.5027 0 .6582-.1876 1.1581-.5622 1.4991-.3728.3404-.9149.5115-1.625.5115h-2.8276zm3.3526-4.6164c.2456-.0184.4436-.118.5928-.2977.1491-.1796.2236-.4192.2236-.718 0-.2475-.0531-.4498-.1595-.6063-.0473-.0743-.1132-.1349-.1911-.1761-.0779-.0411-.1651-.0613-.2532-.0585-.1326 0-.2383.0434-.3159.1295-.0782.0868-.14.2078-.1846.3643-.0643.2397-.12.4816-.1668.7254-.0617.322-.1406.5927-.2383.8127-.0932.2147-.2429.4-.4333.536-.1913.1375-.4461.2066-.7633.2066-.2891 0-.547-.0783-.7743-.2347-.2341-.1649-.4193-.39-.536-.6515-.1301-.278-.1955-.5921-.1955-.9423 0-.36.0672-.6833.2023-.9705.135-.2872.3208-.5133.5579-.6795.2351-.1652.5151-.2543.8024-.2555v1.0297c-.0991.0084-.1955.0362-.2839.0819-.0883.0457-.1667.1085-.2306.1846-.1308.154-.1956.3569-.1956.6093 0 .2334.0495.4204.1491.5604.0996.1405.2414.2102.426.2102.1326 0 .2359-.0422.3092-.1265.0733-.0837.1326-.2029.1772-.3569.0452-.154.0984-.3923.1601-.715.0611-.3263.1381-.602.231-.8262.0917-.2243.2323-.4052.4186-.5427.1871-.1381.437-.2072.7493-.2072.3031 0 .5744.0819.8134.2457.2389.1632.4278.3911.5647.6826.1408.3086.2112.6447.2059.9839 0 .393-.0721.7419-.2163 1.0481-.1309.2894-.3384.5375-.6001.7174-.2538.1724-.5532.2652-.8599.2665zm-3.3526-3.5446v-1.7025c0-.4902.1051-.9228.3159-1.2993.2033-.3688.5092-.6707.8806-.869.3765-.2029.8067-.3043 1.2895-.3043s.9124.1014 1.2895.3043c.3712.1984.6769.5003.88.869.2108.3759.3159.8091.3159 1.2993v1.7025zm4.0841-1.7025c0-.4437-.1461-.7884-.437-1.0328-.2915-.2457-.6783-.3679-1.1611-.3679s-.8702.1222-1.1611.3673c-.2921.2456-.437.5897-.437 1.0334v.6514h3.1962z"/></g></svg>