<svg fill="none" height="37" viewBox="0 0 37 37" width="37" xmlns="http://www.w3.org/2000/svg"><path d="m18.5 36.5c3.56 0 7.0402-1.0557 10.0003-3.0335 2.96-1.9779 5.2671-4.7891 6.6295-8.0782s1.7189-6.9083 1.0243-10.3999c-.6945-3.4917-2.4088-6.69896-4.9262-9.21631-2.5173-2.51735-5.7246-4.23168-9.2163-4.926217-3.4917-.694533-7.1108-.338075-10.3999 1.024307-3.28906 1.36237-6.10027 3.66948-8.07815 6.62956-1.97787 2.96006-3.03355 6.44016-3.03355 10.00026 0 4.7739 1.89643 9.3523 5.27208 12.7279 3.37565 3.3757 7.95402 5.2721 12.72792 5.2721z" fill="#22a079"/><path d="m20.7663 19.505v-.0028c-.1209.0084-.7453.045-2.1347.045-1.111 0-1.8901-.0309-2.1657-.045v.0028c-4.2723-.1885-7.459-.931-7.459-1.8226 0-.8887 3.1895-1.6341 7.459-1.8225v2.9054c.2784.0197 1.08.0675 2.1853.0675 1.3276 0 1.9913-.0563 2.1151-.0675v-2.9026c4.2639.1913 7.4421.9338 7.4421 1.8226 0 .8887-3.181 1.6312-7.4421 1.8225zm0-3.9433v-2.5988h5.9486v-3.9629h-16.1948v3.9629h5.9486v2.5988c-4.8349.2222-8.4687 1.1785-8.4687 2.3261 0 1.1475 3.6367 2.1038 8.4687 2.3288v8.3309h4.3004v-8.3309c4.8264-.2222 8.4547-1.1785 8.4547-2.326 0-1.1447-3.6283-2.1039-8.4547-2.326" fill="#fefefe"/></svg>