<svg fill="none" height="37" viewBox="0 0 37 37" width="37" xmlns="http://www.w3.org/2000/svg"><path d="m18.5 36.5c3.5601 0 7.0402-1.0557 10.0003-3.0335 2.96-1.9779 5.2671-4.7891 6.6295-8.0782s1.7189-6.9083 1.0243-10.3999c-.6945-3.4917-2.4088-6.69896-4.9262-9.21631-2.5173-2.51735-5.7246-4.23168-9.2163-4.926217-3.4916-.694533-7.1108-.338075-10.3999 1.024307-3.28909 1.36237-6.10027 3.66948-8.07815 6.62956-1.97787 2.96006-3.03355 6.44016-3.03355 10.00026 0 4.7739 1.89642 9.3523 5.27209 12.7279 3.37565 3.3757 7.95401 5.2721 12.72791 5.2721z" fill="#2775c9"/><g fill="#fff"><path d="m23.4076 21.5408c0-2.6179-1.5932-3.5005-4.6749-3.9231-2.2777-.3292-2.7152-.864-2.7152-1.9261 0-1.0622.7704-1.7241 2.2439-1.7241 1.3427 0 2.1169.4675 2.4348 1.5483.0337.1183.1047.2226.2024.2973.0977.0748.2168.1162.3399.1178h1.178c.077.0016.1533-.0138.2236-.045.0704-.0313.1329-.0777.1833-.1359.0503-.0582.0872-.1268.1081-.2009.0208-.0741.025-.1519.0124-.2278-.374-1.7091-1.5259-2.7376-3.3323-3.0592v-1.8027c0-.1488-.0592-.2915-.1643-.3966-.1052-.10527-.2479-.16436-.3967-.16436h-1.122c-.1488 0-.2915.05909-.3967.16436-.1052.1051-.1643.2478-.1643.3966v1.7391c-2.244.3141-3.6614 1.7951-3.6614 3.695 0 2.4572 1.496 3.4109 4.6225 3.8335 2.1281.3478 2.7339.8078 2.7339 2.0158s-1.0284 2.0196-2.4795 2.0196c-1.956 0-2.618-.8565-2.8386-1.9672-.0257-.1275-.0943-.2423-.1943-.3253-.1-.0831-.2255-.1293-.3555-.131h-1.2791c-.0763-.0005-.1518.0157-.2212.0475-.0694.0317-.131.0783-.1805.1363-.0496.0581-.0858.1263-.1062.1999-.0204.0735-.0245.1506-.0119.2259.3254 1.87 1.5259 3.2388 3.9718 3.5679v1.7727c0 .1488.0591.2915.1643.3967s.2479.1643.3967.1643h1.122c.1488 0 .2915-.0591.3967-.1643.1051-.1052.1643-.2479.1643-.3967v-1.7727c2.3187-.3665 3.796-1.9672 3.796-3.9756z"/><path d="m14.6408 29.4146c-2.161-.7891-4.0271-2.2234-5.34564-4.1086-1.31854-1.8851-2.02572-4.1301-2.02572-6.4306s.70718-4.5454 2.02572-6.4306 3.18464-3.31942 5.34564-4.10853c.1385-.0608.2572-.15931.3425-.28428.0853-.12498.1338-.27138.1399-.42256v-1.04719c.009-.09274-.0065-.1862-.0451-.271-.0386-.08479-.0988-.15797-.1746-.21217-.0757-.0542-.1645-.08747-.2572-.09656-.0927-.00905-.1862.00646-.271.04492-2.7214.86733-5.09634 2.57764-6.78166 4.88367-1.68532 2.3059-2.59364 5.0881-2.59364 7.9443s.90832 5.6384 2.59364 7.9444 4.06026 4.0163 6.78166 4.8836c.0848.0385.1783.054.271.0449.0927-.009.1815-.0423.2572-.0965.0758-.0542.136-.1274.1746-.2122s.0541-.1783.0451-.271v-1.0472c-.0061-.1511-.0546-.2976-.1399-.4226-.0853-.1249-.204-.2234-.3425-.2842z"/><path d="m22.604 6.04743c-.0849-.03846-.1784-.05397-.2711-.04492-.0927.00909-.1814.04236-.2572.09656s-.136.12738-.1746.21217c-.0385.0848-.0541.17826-.0451.271v1.04719c.0061.15118.0546.29758.1399.42256.0853.12497.204.22348.3425.28428 2.161.78911 4.0272 2.22333 5.3457 4.10853s2.0257 4.1301 2.0257 6.4306-.7072 4.5455-2.0257 6.4306c-1.3185 1.8852-3.1847 3.3195-5.3457 4.1086-.1431.0543-.266.1512-.3523.2776-.0862.1264-.1317.2762-.1301.4292v1.0472c-.009.0927.0066.1862.0451.271.0386.0848.0988.158.1746.2122s.1645.0875.2572.0965c.0927.0091.1862-.0064.2711-.0449 2.7213-.8673 5.0963-2.5776 6.7816-4.8836s2.5936-5.0882 2.5936-7.9444-.9083-5.6384-2.5936-7.9443c-1.6853-2.30603-4.0603-4.01634-6.7816-4.88367z"/></g></svg>