<svg fill="none" height="37" viewBox="0 0 37 37" width="37" xmlns="http://www.w3.org/2000/svg"><path d="m18.5 36.5c-9.9 0-18-8.1-18-18s8.1-18 18-18 18 8.1 18 18-8.1 18-18 18z" fill="#002868"/><path d="m27.4512 29.2296h-18.67284c-.9781 0-1.77836-.8003-1.77836-1.7784v-18.67284c0-.9781.80026-1.77836 1.77836-1.77836h18.67284c.9781 0 1.7784.80026 1.7784 1.77836v18.67284c0 .9781-.8003 1.7784-1.7784 1.7784z" fill="#fff"/><path d="m11.3372 26.9899c-.0585 0-.1059-.0533-.1059-.1118v-2.987c0-.0585-.0475-.1118-.106-.1118h-1.0544c-.0593 0-.11192-.0475-.11192-.106v-.5772c0-.0586.05332-.1119.11192-.1119h3.2455c.0585 0 .1119.0526.1119.1119v.5772c0 .0585-.0534.106-.1119.106h-1.0485c-.0585 0-.1119.0526-.1119.1118v2.987c0 .0585-.0474.1118-.106.1118zm5.3307-3.8938c0-.0586.0474-.1119.1059-.1119h.7069c.0586 0 .1119.0526.1119.1119v2.0384c0 1.2078-.6832 1.9088-1.7672 1.9088-1.0782 0-1.7554-.701-1.7554-1.9088v-2.0384c0-.0586.0474-.1119.1059-.1119h.7069c.0586 0 .1119.0526.1119.1119v2.0673c0 .595.306 1.0189.8366 1.0189.5305 0 .8366-.4239.8366-1.0189zm4.171 1.1959c-.0941 0-.1238-.0355-.1593-.1059-.1238-.289-.395-.4713-.807-.4713-.3712 0-.6832.1297-.6832.3772 0 .2712.289.383.9248.4594.9662.1119 1.5197.4068 1.5197 1.1722 0 .8603-.7543 1.3138-1.7198 1.3138-.8365 0-1.5553-.4068-1.6672-1.2604-.0119-.0823.0296-.1119.1119-.1119h.6484c.0822 0 .1296.0355.1533.1.0882.2831.3891.5009.8248.5009.383 0 .7187-.1415.7187-.4416 0-.3594-.3534-.4239-1.0603-.5128-.8129-.1059-1.3783-.3416-1.3783-1.09s.6425-1.2841 1.6495-1.2841c.9069 0 1.5375.4891 1.6672 1.2197.0178.0822-.0059.1356-.0941.1356h-.6491zm1.5961 2.6979c-.0586 0-.106-.0533-.106-.1118v-3.782c0-.0586.0474-.1119.106-.1119h1.602c1.19 0 2.1147.8188 2.1147 2.0147 0 1.1782-.9129 1.991-2.1147 1.991zm1.602-.7958c.6424 0 1.1426-.5068 1.1426-1.2078 0-.7009-.5009-1.2078-1.1486-1.2078h-.6654c-.0585 0-.1059.0526-.1059.1119v2.197c0 .0586.0474.106.1059.106h.6714z" fill="#002868"/><path d="m28.6363 20.7809h-21.04401c-.16301 0-.29639-.1334-.29639-.2964v-11.70761c0-.81508.66689-1.48197 1.48197-1.48197h18.67283c.8151 0 1.482.66689 1.482 1.48197v11.70761c0 .163-.1334.2964-.2964.2964z" fill="#002868"/><g fill="#fff"><path d="m19.2055 18.3767h-1.9266c-.1222 0-.2223-.1001-.2223-.2223v-8.1509c0-.12222.1001-.22225.2223-.22225h1.9266c.1223 0 .2223.10003.2223.22225v8.1509c0 .1222-.1.2223-.2223.2223z"/><path d="m22.4855 12.1524h-8.7437c-.1222 0-.2223-.1-.2223-.2223v-1.9266c0-.12222.1001-.22225.2223-.22225h8.7437c.1222 0 .2222.10003.2222.22225v1.9266c0 .1223-.1.2223-.2222.2223z"/></g></svg>