<svg fill="none" height="37" viewBox="0 0 37 37" width="37" xmlns="http://www.w3.org/2000/svg"><path d="m16.6195 33.9192c9.1787 0 16.6195-7.4408 16.6195-16.6195 0-9.17872-7.4408-16.619524-16.6195-16.619524s-16.6195 7.440804-16.6195 16.619524c0 9.1787 7.4408 16.6195 16.6195 16.6195z" fill="#ff0079"/><g fill="#fff"><path d="m17.8064 29.1729h-11.87106c-1.96686 0-3.56132 1.5944-3.56132 3.5613 0 1.9668 1.59446 3.5613 3.56132 3.5613h11.87106c1.9669 0 3.5613-1.5945 3.5613-3.5613 0-1.9669-1.5944-3.5613-3.5613-3.5613z"/><path d="m16.6195 33.9192c-9.1787 0-16.6195-7.4408-16.6195-16.6195 0-9.17872 7.4408-16.619524 16.6195-16.619524s16.6195 7.440804 16.6195 16.619524c0 9.1787-7.4408 16.6195-16.6195 16.6195zm0-1.1871c8.5231 0 15.4324-6.9093 15.4324-15.4324s-6.9093-15.43242-15.4324-15.43242c-8.52308 0-15.43239 6.90932-15.43239 15.43242s6.90931 15.4324 15.43239 15.4324z"/><path d="m20.1804 35.1075c8.5231 0 15.4324-6.9094 15.4324-15.4324 0-8.5231-6.9093-15.43242-15.4324-15.43242-8.523 0-15.43235 6.90932-15.43235 15.43242 0 8.523 6.90935 15.4324 15.43235 15.4324z"/><path d="m20.181 36.2942c-9.1787 0-16.61948-7.4408-16.61948-16.6195s7.44078-16.61952 16.61948-16.61952 16.6195 7.44082 16.6195 16.61952-7.4408 16.6195-16.6195 16.6195zm0-1.1871c8.5231 0 15.4324-6.9093 15.4324-15.4324s-6.9093-15.43242-15.4324-15.43242-15.43237 6.90932-15.43237 15.43242 6.90927 15.4324 15.43237 15.4324z"/></g><path clip-rule="evenodd" d="m13.6538 23.7392h-1.6944l-.9504-4.0065c-.0352-.1425-.0952-.4373-.18-.8842s-.1336-.7469-.1464-.8999c-.0192.1878-.0672.4895-.144.9051s-.136.7121-.1776.8895l-.94554 3.996h-1.68956l-1.79035-7.6269h1.46396l.89758 4.163c.1568.7686.27039 1.4346.34079 1.998.0192-.1982.0632-.5051.132-.9207s.1336-.7382.19439-.9678l1.02238-4.2725h1.40635l1.0224 4.2725c.0448.1913.1008.4835.168.8765s.1184.7303.1536 1.012c.032-.2713.0832-.6095.1536-1.0146.0704-.4052.1344-.733.192-.9834l.8928-4.163h1.4639zm6.7102 0h-4.0415v-7.6269h4.0415v1.3251h-2.5535v1.6746h2.3759v1.325h-2.3759v1.9667h2.5535zm4.1711 0h-1.488v-6.281h-1.9055v-1.3459h5.2991v1.3459h-1.9056zm8.7358 0h-1.4832v-3.2918h-2.7791v3.2918h-1.488v-7.6269h1.488v2.9892h2.7791v-2.9892h1.4832z" fill="#000" fill-rule="evenodd"/></svg>