<svg width="37" height="37" viewBox="0 0 37 37" fill="none" xmlns="http://www.w3.org/2000/svg">
<circle cx="18.5" cy="18.5" r="17.793" fill="#192123" stroke="url(#paint0_linear_4_74)" stroke-width="1.41401"/>
<path d="M10.0616 17.191L12.5678 22.4158C12.9235 23.1574 13.9515 23.2293 14.407 22.5444L21.7679 11.4774C21.7888 11.4459 21.8045 11.4114 21.8145 11.375L22.4422 9.08237C22.6967 8.15316 21.6803 7.39349 20.8612 7.90059L10.9652 14.0267C10.8469 14.0999 10.7583 14.2127 10.7151 14.345L10.0153 16.4911C9.94015 16.7216 9.95672 16.9723 10.0616 17.191Z" fill="#68FEE2"/>
<mask id="mask0_4_74" style="mask-type:alpha" maskUnits="userSpaceOnUse" x="9" y="7" width="14" height="17">
<path d="M10.0616 17.191L12.5678 22.4158C12.9235 23.1574 13.9515 23.2293 14.407 22.5444L21.7679 11.4774C21.7888 11.4459 21.8045 11.4114 21.8145 11.375L22.4422 9.08237C22.6967 8.15316 21.6803 7.39349 20.8612 7.90059L10.9652 14.0267C10.8469 14.0999 10.7583 14.2127 10.7151 14.345L10.0153 16.4911C9.94015 16.7216 9.95672 16.9723 10.0616 17.191Z" fill="#68FEE2"/>
</mask>
<g mask="url(#mask0_4_74)">
<path d="M13.1975 23.2134L10.7819 14.0812L21.328 7.48248L22.2118 8.01274L20.0908 11.9013L13.9634 23.0366L13.1975 23.2134Z" fill="#19898A"/>
<path d="M13.1975 23.2134L10.7819 14.0812L20.0908 11.9013L13.9634 23.0366L13.1975 23.2134Z" fill="#1FC9A8"/>
</g>
<mask id="mask1_4_74" style="mask-type:alpha" maskUnits="userSpaceOnUse" x="10" y="11" width="11" height="13">
<path d="M13.1975 23.2134L10.7819 14.0812L20.0908 11.9013L13.9634 23.0366L13.1975 23.2134Z" fill="#1FC9A8"/>
</mask>
<g mask="url(#mask1_4_74)">
<rect x="17.0297" y="12.3814" width="0.824841" height="3.7707" transform="rotate(-13 17.0297 12.3814)" fill="#A5E9DC"/>
<rect x="14.2579" y="13.1774" width="1.64968" height="7.30573" transform="rotate(-13 14.2579 13.1774)" fill="#A5E9DC"/>
</g>
<path d="M13.0796 12.1369L13.2532 12.6061C13.3248 12.7996 13.4774 12.9522 13.6709 13.0238L14.1401 13.1974L13.6709 13.3711C13.4774 13.4427 13.3248 13.5953 13.2532 13.7888L13.0796 14.258L12.9059 13.7888C12.8343 13.5953 12.6817 13.4427 12.4882 13.3711L12.019 13.1974L12.4882 13.0238C12.6817 12.9522 12.8343 12.7996 12.9059 12.6061L13.0796 12.1369Z" fill="white"/>
<path d="M16.7324 13.6688L16.8096 13.8773C16.8414 13.9633 16.9093 14.0311 16.9953 14.063L17.2038 14.1401L16.9953 14.2173C16.9093 14.2491 16.8414 14.3169 16.8096 14.4029L16.7324 14.6115L16.6553 14.4029C16.6234 14.3169 16.5556 14.2491 16.4696 14.2173L16.2611 14.1401L16.4696 14.063C16.5556 14.0311 16.6234 13.9633 16.6553 13.8773L16.7324 13.6688Z" fill="white"/>
<path d="M26.8795 19.7501L24.3734 14.5253C24.0176 13.7837 22.9897 13.7118 22.5341 14.3967L15.1733 25.4637C15.1523 25.4951 15.1366 25.5297 15.1266 25.5661L14.4989 27.8587C14.2445 28.7879 15.2608 29.5476 16.08 29.0405L25.976 22.9144C26.0943 22.8411 26.1829 22.7284 26.226 22.5961L26.9258 20.45C27.001 20.2194 26.9844 19.9688 26.8795 19.7501Z" fill="#68FEE2"/>
<mask id="mask2_4_74" style="mask-type:alpha" maskUnits="userSpaceOnUse" x="14" y="13" width="13" height="17">
<path d="M26.8795 19.7501L24.3734 14.5253C24.0176 13.7837 22.9897 13.7118 22.5341 14.3967L15.1733 25.4637C15.1523 25.4951 15.1366 25.5297 15.1266 25.5661L14.4989 27.8587C14.2445 28.7879 15.2608 29.5476 16.08 29.0405L25.976 22.9144C26.0943 22.8411 26.1829 22.7284 26.226 22.5961L26.9258 20.45C27.001 20.2194 26.9844 19.9688 26.8795 19.7501Z" fill="#68FEE2"/>
</mask>
<g mask="url(#mask2_4_74)">
<path d="M23.7436 13.7277L26.1592 22.8599L15.613 29.4586L14.7292 28.9284L16.8503 25.0398L22.9777 13.9045L23.7436 13.7277Z" fill="#19898A"/>
<path d="M23.7436 13.7277L26.1592 22.8599L16.8503 25.0398L22.9777 13.9044L23.7436 13.7277Z" fill="#1FC9A8"/>
</g>
<mask id="mask3_4_74" style="mask-type:alpha" maskUnits="userSpaceOnUse" x="16" y="13" width="11" height="13">
<path d="M23.7436 13.7277L26.1592 22.8599L16.8503 25.0398L22.9777 13.9044L23.7436 13.7277Z" fill="#1FC9A8"/>
</mask>
<g mask="url(#mask3_4_74)">
<rect x="21.2571" y="16.7413" width="0.824841" height="5.46182" transform="rotate(-61 21.2571 16.7413)" fill="#A5E9DC"/>
<rect x="19.8435" y="18.9567" width="1.41401" height="7.30573" transform="rotate(-61 19.8435 18.9567)" fill="#A5E9DC"/>
</g>
<path d="M20.0318 25.4522L19.9547 25.2437C19.9228 25.1577 19.855 25.0899 19.769 25.0581L19.5605 24.9809L19.769 24.9037C19.855 24.8719 19.9228 24.8041 19.9547 24.7181L20.0318 24.5096L20.109 24.7181C20.1408 24.8041 20.2086 24.8719 20.2946 24.9037L20.5032 24.9809L20.2946 25.0581C20.2086 25.0899 20.1408 25.1577 20.109 25.2437L20.0318 25.4522Z" fill="white"/>
<defs>
<linearGradient id="paint0_linear_4_74" x1="24.8041" y1="42.2436" x2="2.4156" y2="10.664" gradientUnits="userSpaceOnUse">
<stop stop-color="#399886"/>
<stop offset="1" stop-color="#283036"/>
</linearGradient>
</defs>
</svg>
